<?xml version="1.0" encoding="utf-8"?>
<!-- Generator: Adobe Illustrator 16.0.0, SVG Export Plug-In . SVG Version: 6.00 Build 0)  -->
<!DOCTYPE svg PUBLIC "-//W3C//DTD SVG 1.1//EN" "http://www.w3.org/Graphics/SVG/1.1/DTD/svg11.dtd">
<svg version="1.1" id="레이어_1" xmlns="http://www.w3.org/2000/svg" xmlns:xlink="http://www.w3.org/1999/xlink" x="0px"
	 y="0px" width="35px" height="35px" viewBox="0 0 35 35" enable-background="new 0 0 35 35" xml:space="preserve">
<g>
	
		<polyline fill="none" stroke="#040000" stroke-width="1.1536" stroke-linecap="round" stroke-linejoin="round" stroke-miterlimit="22.9256" points="
		33.951,25.41 33.951,32.732 29.07,32.732 29.07,29.021 5.931,29.021 5.931,32.732 1.049,32.732 1.049,25.41 	"/>
	
		<line fill="none" stroke="#040000" stroke-width="1.1536" stroke-linecap="round" stroke-linejoin="round" stroke-miterlimit="22.9256" x1="6.147" y1="2.268" x2="28.854" y2="2.268"/>
	
		<path fill="none" stroke="#040000" stroke-width="1.1536" stroke-linecap="round" stroke-linejoin="round" stroke-miterlimit="22.9256" d="
		M28.854,2.268c1.218,0,2.216,1,2.216,2.217"/>
	
		<line fill="none" stroke="#040000" stroke-width="1.1536" stroke-linecap="round" stroke-linejoin="round" stroke-miterlimit="22.9256" x1="31.07" y1="4.484" x2="31.07" y2="13.922"/>
	
		<path fill="none" stroke="#040000" stroke-width="1.1536" stroke-linecap="round" stroke-linejoin="round" stroke-miterlimit="22.9256" d="
		M28.109,13.549v-1.431c0-1.344-1.103-2.447-2.448-2.447h-5.548c-1.342,0-2.449,1.107-2.449,2.447v0.935"/>
	
		<path fill="none" stroke="#040000" stroke-width="1.1536" stroke-linecap="round" stroke-linejoin="round" stroke-miterlimit="22.9256" d="
		M17.334,13.052v-0.935c0-1.344-1.105-2.447-2.448-2.447H9.337c-1.344,0-2.448,1.105-2.448,2.447v1.431"/>
	
		<line fill="none" stroke="#040000" stroke-width="1.1536" stroke-linecap="round" stroke-linejoin="round" stroke-miterlimit="22.9256" x1="3.929" y1="13.922" x2="3.929" y2="4.484"/>
	
		<path fill="none" stroke="#040000" stroke-width="1.1536" stroke-linecap="round" stroke-linejoin="round" stroke-miterlimit="22.9256" d="
		M3.929,4.484c0-1.22,0.998-2.217,2.218-2.217"/>
	
		<path fill="none" stroke="#040000" stroke-width="1.1536" stroke-linecap="round" stroke-linejoin="round" stroke-miterlimit="22.9256" d="
		M3.894,14.576c8.591-1.41,21.817-1.255,27.274,0L34,24.897H1L3.894,14.576L3.894,14.576z"/>
</g>
</svg>
