<?xml version="1.0" encoding="utf-8"?>
<!-- Generator: Adobe Illustrator 16.0.0, SVG Export Plug-In . SVG Version: 6.00 Build 0)  -->
<!DOCTYPE svg PUBLIC "-//W3C//DTD SVG 1.1//EN" "http://www.w3.org/Graphics/SVG/1.1/DTD/svg11.dtd">
<svg version="1.1" id="레이어_1" xmlns="http://www.w3.org/2000/svg" xmlns:xlink="http://www.w3.org/1999/xlink" x="0px"
	 y="0px" width="35px" height="35px" viewBox="0 0 35 35" enable-background="new 0 0 35 35" xml:space="preserve">
<g>
	
		<path fill="none" stroke="#040000" stroke-width="1.1536" stroke-linecap="round" stroke-linejoin="round" stroke-miterlimit="22.9256" d="
		M12.693,9.694c0.182-1.002,0.534-1.959,1.033-2.831l-0.008-0.004c1.228-2.156,3.338-3.799,5.943-4.337h0.002
		c4.808-0.995,9.557,2.126,10.549,6.935l3.767,18.219c0.072,0.353-0.045,0.703-0.282,0.942c-0.142,0.153-0.331,0.265-0.551,0.311
		l-10.788,2.207l-4.64,0.959c-0.106,0.023-0.212,0.026-0.314,0.018c-0.451-0.032-0.847-0.362-0.942-0.826l-2.279-11.129"/>
	
		<path fill="none" stroke="#040000" stroke-width="1.1536" stroke-linecap="round" stroke-linejoin="round" stroke-miterlimit="22.9256" d="
		M5.007,20.457c-0.118,0.047-0.214,0.142-0.262,0.267l-3.659,9.455c-0.26,0.665,0.085,1.424,0.752,1.678l2.009,0.764
		c1.095,0.417,3.009-2.315,3.886-3.113c0.133-0.124,0.256-0.258,0.191-0.429l-0.574-1.512l0.114-0.251l1.51-0.571
		c0.17-0.066,0.256-0.258,0.191-0.429l-0.565-1.489l0.104-0.228l1.485-0.564c0.17-0.064,0.258-0.256,0.191-0.427l-0.532-1.405"/>
	
		<path fill="none" stroke="#040000" stroke-width="1.1536" stroke-linecap="round" stroke-linejoin="round" stroke-miterlimit="22.9256" d="
		M9.832,13.55c0.417,0,0.756,0.337,0.756,0.756c0,0.417-0.339,0.756-0.756,0.756c-0.418,0-0.756-0.339-0.756-0.756
		C9.075,13.887,9.413,13.55,9.832,13.55L9.832,13.55z"/>
	
		<path fill="none" stroke="#040000" stroke-width="1.1536" stroke-linecap="round" stroke-linejoin="round" stroke-miterlimit="22.9256" d="
		M20.88,6.776c1.088,0,1.969,0.879,1.969,1.967c0,1.088-0.881,1.969-1.969,1.969c-1.086,0-1.967-0.881-1.967-1.969
		C18.913,7.655,19.794,6.776,20.88,6.776L20.88,6.776z"/>
	
		<path fill="none" stroke="#040000" stroke-width="1.1536" stroke-linecap="round" stroke-linejoin="round" stroke-miterlimit="22.9256" d="
		M19.715,8.405c1.542,2.763,0.555,6.253-2.209,7.795c-2.763,1.544-6.253,0.555-7.795-2.208"/>
	
		<path fill="none" stroke="#040000" stroke-width="1.1536" stroke-linecap="round" stroke-linejoin="round" stroke-miterlimit="22.9256" d="
		M9.595,9.575c3.438,0,6.223,2.785,6.223,6.222c0,3.438-2.785,6.223-6.223,6.223c-3.436,0-6.223-2.785-6.223-6.223
		C3.372,12.36,6.159,9.575,9.595,9.575L9.595,9.575z"/>
</g>
</svg>
