<?xml version="1.0" encoding="utf-8"?>
<!-- Generator: Adobe Illustrator 16.0.0, SVG Export Plug-In . SVG Version: 6.00 Build 0)  -->
<!DOCTYPE svg PUBLIC "-//W3C//DTD SVG 1.1//EN" "http://www.w3.org/Graphics/SVG/1.1/DTD/svg11.dtd">
<svg version="1.1" id="레이어_1" xmlns="http://www.w3.org/2000/svg" xmlns:xlink="http://www.w3.org/1999/xlink" x="0px"
	 y="0px" width="35px" height="35px" viewBox="0 0 35 35" enable-background="new 0 0 35 35" xml:space="preserve">
<g>
	
		<path fill="none" stroke="#040000" stroke-width="1.1536" stroke-linecap="round" stroke-linejoin="round" stroke-miterlimit="22.9256" d="
		M15.12,18.658c0.07,0.832-0.114,1.933-0.9,2.824c-0.082,0.094-0.175,0.181-0.271,0.266l3.59,8.28l3.875-8.184
		c-0.149-0.111-0.284-0.233-0.403-0.365c-0.691-0.768-0.836-1.971-0.771-2.833"/>
	
		<path fill="none" stroke="#040000" stroke-width="1.1536" stroke-linecap="round" stroke-linejoin="round" stroke-miterlimit="22.9256" d="
		M29.688,34c1.358-7.125-0.172-9.985-8.274-12.155"/>
	
		<path fill="none" stroke="#040000" stroke-width="1.1536" stroke-linecap="round" stroke-linejoin="round" stroke-miterlimit="22.9256" d="
		M13.949,21.748l-3.167,1.166C5.074,25.047,3.924,27.31,5.542,34"/>
	
		<line fill="none" stroke="#040000" stroke-width="1.1536" stroke-linecap="round" stroke-linejoin="round" stroke-miterlimit="22.9256" x1="25.857" y1="31.611" x2="21.528" y2="31.611"/>
	
		<path fill="none" stroke="#040000" stroke-width="1.1536" stroke-linecap="round" stroke-linejoin="round" stroke-miterlimit="22.9256" d="
		M15.624,7.484c1.459,0,4.939-0.254,5.933-1.726c1.106,1.141,1.985,4.606,1.985,6.423c0,3.45-2.446,7.14-5.527,7.14
		c-3.081,0-5.578-2.797-5.578-6.25C12.437,9.622,12.543,7.484,15.624,7.484L15.624,7.484z"/>
	
		<path fill="none" stroke="#040000" stroke-width="1.1536" stroke-linecap="round" stroke-linejoin="round" stroke-miterlimit="22.9256" d="
		M27.021,23.552c1.953-2.273,0.557-4.695,0.557-8.312c0-6.872-0.176-14.683-9.765-14.22c-9.591,0.464-9.86,5.572-9.86,12.445
		c0,4.318,0.074,7.602,1.48,9.448"/>
</g>
</svg>
