<?xml version="1.0" encoding="utf-8"?>
<!-- Generator: Adobe Illustrator 16.0.0, SVG Export Plug-In . SVG Version: 6.00 Build 0)  -->
<!DOCTYPE svg PUBLIC "-//W3C//DTD SVG 1.1//EN" "http://www.w3.org/Graphics/SVG/1.1/DTD/svg11.dtd">
<svg version="1.1" id="레이어_1" xmlns="http://www.w3.org/2000/svg" xmlns:xlink="http://www.w3.org/1999/xlink" x="0px"
	 y="0px" width="35px" height="35px" viewBox="0 0 35 35" enable-background="new 0 0 35 35" xml:space="preserve">
<g>
	
		<path fill="none" stroke="#040000" stroke-width="1.1536" stroke-linecap="round" stroke-linejoin="round" stroke-miterlimit="22.9256" d="
		M31.646,21.25c0,5.836-2.482,10.785-7.924,10.785H11.277c-5.442,0-7.924-4.949-7.924-10.785"/>
	
		<line fill="none" stroke="#040000" stroke-width="1.1536" stroke-linecap="round" stroke-linejoin="round" stroke-miterlimit="22.9256" x1="1.318" y1="21.063" x2="33.682" y2="21.063"/>
	
		<line fill="none" stroke="#040000" stroke-width="1.1536" stroke-linecap="round" stroke-linejoin="round" stroke-miterlimit="22.9256" x1="5.997" y1="34" x2="7.118" y2="32.074"/>
	
		<line fill="none" stroke="#040000" stroke-width="1.1536" stroke-linecap="round" stroke-linejoin="round" stroke-miterlimit="22.9256" x1="29.002" y1="34" x2="27.883" y2="32.074"/>
	
		<path fill="none" stroke="#040000" stroke-width="1.1536" stroke-linecap="round" stroke-linejoin="round" stroke-miterlimit="22.9256" d="
		M23.266,5.118C23.266,2.853,25.118,1,27.383,1l0,0C29.647,1,31.5,2.857,31.5,5.118v14.702"/>
	
		<path fill="none" stroke="#040000" stroke-width="1.1536" stroke-linecap="round" stroke-linejoin="round" stroke-miterlimit="22.9256" d="
		M18.121,7.569c0.658-1.81,2.332-2.939,3.759-2.419l2.333,0.849c1.426,0.519,1.982,2.459,1.324,4.271"/>
	
		<line fill="none" stroke="#040000" stroke-width="1.1536" stroke-linecap="round" stroke-linejoin="round" stroke-miterlimit="22.9256" x1="26.585" y1="10.881" x2="16.999" y2="7.391"/>
</g>
</svg>
