<?xml version="1.0" encoding="iso-8859-1"?>
<!-- Generator: Adobe Illustrator 16.0.0, SVG Export Plug-In . SVG Version: 6.00 Build 0)  -->
<!DOCTYPE svg PUBLIC "-//W3C//DTD SVG 1.1//EN" "http://www.w3.org/Graphics/SVG/1.1/DTD/svg11.dtd">
<svg version="1.1" id="&#xB808;&#xC774;&#xC5B4;_1" xmlns="http://www.w3.org/2000/svg" xmlns:xlink="http://www.w3.org/1999/xlink"
	 x="0px" y="0px" width="320px" height="300px" viewBox="0 0 320 300" style="enable-background:new 0 0 320 300;"
	 xml:space="preserve">
<g id="&#xB808;&#xC774;&#xC5B4;_2" style="display:none;">
	<g style="display:inline;">
		<path style="fill:#040000;" d="M221.406,18.375"/>
		<path style="fill:#040000;" d="M206.215,32.537"/>
		<polygon style="fill:#040000;" points="98.448,73.985 113.627,73.985 113.627,32.54 206.221,32.54 206.221,73.982 221.406,73.982 
			221.406,18.375 98.448,18.375 		"/>
		<polygon style="fill:#040000;" points="221.406,85.72 206.23,85.72 206.23,127.17 113.634,127.17 113.634,85.725 98.448,85.725 
			98.448,141.331 221.406,141.331 		"/>
	</g>
</g>
<g>
	<path d="M4.013,184.986c0.303-0.008,0.52-0.077,0.649-0.207c0.129-0.131,0.203-0.288,0.221-0.475
		c0.017-0.188,0.026-0.515,0.026-0.982v-5.459c0-0.469,0.013-0.811,0.039-1.027l-0.935,0.053v-0.572
		c1.264-0.018,2.242-0.025,2.935-0.025c1.021,0,1.807,0.18,2.356,0.539c0.55,0.359,0.825,0.904,0.825,1.632
		c0,0.468-0.184,0.899-0.552,1.294c-0.368,0.395-0.898,0.652-1.59,0.773v0.025c0.926,0,1.638,0.213,2.136,0.637
		c0.498,0.426,0.746,0.983,0.746,1.678c0,0.52-0.132,0.973-0.396,1.357c-0.264,0.387-0.627,0.682-1.09,0.885
		c-0.463,0.203-0.989,0.306-1.578,0.306H4.013V184.986z M9.005,184.408c0.402-0.342,0.604-0.829,0.604-1.463
		c0-0.735-0.206-1.262-0.617-1.572c-0.411-0.313-0.95-0.469-1.616-0.469c-0.476,0-0.922,0.014-1.337,0.039v2.938
		c0,0.451-0.013,0.789-0.039,1.015c0.164,0.018,0.476,0.025,0.935,0.025h0.441C8.059,184.922,8.603,184.751,9.005,184.408z
		 M6.986,180.411c0.684-0.009,1.182-0.197,1.493-0.565c0.311-0.367,0.467-0.82,0.467-1.357c0-0.65-0.188-1.102-0.564-1.354
		c-0.376-0.251-0.833-0.377-1.37-0.377c-0.277,0-0.484,0.039-0.623,0.117c-0.139,0.078-0.231,0.204-0.279,0.377
		c-0.048,0.174-0.072,0.43-0.072,0.768v2.418L6.986,180.411z"/>
	<path d="M13.471,185.201c-0.48-0.281-0.859-0.686-1.136-1.209s-0.416-1.129-0.416-1.813c0-0.607,0.138-1.177,0.416-1.709
		c0.277-0.533,0.664-0.961,1.162-1.281s1.063-0.48,1.694-0.48c0.494,0,0.939,0.107,1.337,0.325c0.398,0.217,0.714,0.538,0.948,0.969
		c0.233,0.429,0.351,0.955,0.351,1.579l-4.57,0.078c-0.008,1.039,0.163,1.852,0.513,2.431c0.351,0.581,0.894,0.871,1.629,0.871
		c0.398,0,0.807-0.104,1.227-0.312c0.42-0.209,0.742-0.465,0.967-0.769l0.312,0.261c-0.329,0.502-0.755,0.875-1.279,1.117
		c-0.523,0.243-1.037,0.364-1.539,0.364C14.49,185.624,13.951,185.482,13.471,185.201z M16.606,181.113
		c0-0.521-0.117-0.967-0.35-1.34c-0.234-0.373-0.584-0.56-1.052-0.56c-1.073,0-1.709,0.634-1.909,1.897h3.311V181.113z"/>
	<path d="M19.352,185.195c-0.333-0.286-0.5-0.659-0.5-1.118c0-0.503,0.201-0.929,0.604-1.274c0.403-0.347,0.909-0.604,1.519-0.773
		c0.61-0.168,1.223-0.248,1.837-0.239v-0.806c0-0.563-0.083-1.004-0.247-1.32c-0.165-0.314-0.515-0.475-1.052-0.475
		c-0.269,0-0.524,0.057-0.766,0.17c-0.242,0.111-0.42,0.281-0.532,0.507c0.112,0.12,0.169,0.286,0.169,0.493
		c0,0.131-0.048,0.254-0.143,0.371c-0.095,0.117-0.234,0.176-0.416,0.176c-0.182,0-0.325-0.059-0.428-0.176
		c-0.104-0.117-0.156-0.271-0.156-0.463c0-0.285,0.11-0.547,0.331-0.785c0.221-0.238,0.528-0.428,0.922-0.565
		c0.394-0.14,0.833-0.208,1.317-0.208c0.727,0,1.264,0.193,1.61,0.578c0.346,0.386,0.515,0.994,0.506,1.826l-0.013,2.926
		c0,0.277-0.018,0.572-0.052,0.884l0.922-0.052v0.546h-1.856c-0.026-0.13-0.056-0.377-0.091-0.741
		c-0.632,0.633-1.312,0.949-2.039,0.949C20.167,185.624,19.685,185.48,19.352,185.195z M21.994,184.693
		c0.268-0.125,0.541-0.317,0.818-0.578c-0.009-0.129-0.013-0.352-0.013-0.662l0.013-1.223c-0.71,0.025-1.342,0.172-1.896,0.437
		s-0.831,0.669-0.831,1.215c0,0.321,0.095,0.568,0.286,0.741c0.19,0.174,0.433,0.26,0.727,0.26
		C21.427,184.883,21.726,184.82,21.994,184.693z"/>
	<path d="M26.804,184.986c-0.342-0.424-0.513-1.156-0.513-2.196v-2.313c0-0.363,0.017-0.646,0.052-0.846l-0.896,0.039v-0.533h0.403
		c0.337,0,0.593-0.029,0.766-0.091c0.173-0.062,0.32-0.147,0.441-0.26h0.376v3.965c0,0.763,0.106,1.321,0.318,1.677
		s0.565,0.533,1.058,0.533c0.32,0,0.634-0.096,0.941-0.286s0.556-0.429,0.746-0.715v-3.341c0-0.407,0.022-0.736,0.065-0.988
		l-0.935,0.039v-0.533h0.402c0.338,0,0.593-0.029,0.766-0.091s0.32-0.147,0.441-0.26h0.376l-0.013,4.914
		c0,0.503-0.018,0.909-0.052,1.222l0.935-0.052v0.546h-1.857c-0.043-0.27-0.073-0.527-0.091-0.779c-0.286,0.285-0.619,0.521-1,0.709
		c-0.381,0.186-0.753,0.278-1.117,0.278C27.685,185.624,27.146,185.412,26.804,184.986z"/>
	<path d="M34.107,183.232l0.026-3.771l-1,0.014v-0.56c0.416-0.009,0.768-0.196,1.058-0.565c0.29-0.367,0.504-0.785,0.643-1.254
		h0.441v1.819h2.181v0.507l-2.181,0.025c-0.009,1.326-0.016,2.244-0.02,2.757c-0.004,0.512-0.007,0.798-0.007,0.858
		c0,0.615,0.074,1.072,0.221,1.371c0.147,0.299,0.403,0.447,0.766,0.447c0.225,0,0.448-0.068,0.669-0.208
		c0.221-0.139,0.413-0.329,0.578-0.571l0.351,0.285c-0.338,0.504-0.671,0.836-1,0.995c-0.329,0.16-0.649,0.24-0.96,0.24
		C34.687,185.624,34.098,184.827,34.107,183.232z"/>
	<path d="M38.456,185.025c0.251,0,0.431-0.063,0.539-0.188c0.108-0.126,0.173-0.285,0.195-0.48s0.033-0.5,0.033-0.916v-2.965
		c0-0.252,0.017-0.533,0.052-0.846l-0.922,0.053v-0.547c0.511,0,0.876-0.029,1.097-0.091c0.221-0.062,0.392-0.147,0.513-0.26h0.376
		v5.252c0,0.39-0.017,0.685-0.052,0.884l0.818-0.039v0.533h-2.648L38.456,185.025L38.456,185.025z M39.261,177.271
		c-0.138-0.151-0.208-0.332-0.208-0.539c0-0.209,0.071-0.392,0.214-0.547c0.143-0.156,0.305-0.233,0.487-0.233
		c0.199,0,0.365,0.075,0.5,0.228c0.134,0.151,0.201,0.336,0.201,0.553c0,0.209-0.072,0.389-0.214,0.539
		c-0.143,0.151-0.31,0.229-0.5,0.229C39.56,177.499,39.399,177.423,39.261,177.271z"/>
	<path d="M42.169,185.025c0.251,0,0.43-0.063,0.539-0.188c0.108-0.126,0.173-0.285,0.195-0.48s0.033-0.5,0.033-0.916l-0.013-3.967
		l-1.064,0.026v-0.585h1.064v-0.273c0-1.004,0.184-1.773,0.552-2.307c0.368-0.533,0.963-0.8,1.785-0.8
		c0.329,0,0.643,0.082,0.941,0.247c0.298,0.164,0.448,0.402,0.448,0.715c0,0.174-0.05,0.314-0.149,0.423s-0.236,0.162-0.409,0.162
		c-0.173,0-0.305-0.06-0.396-0.177c-0.091-0.116-0.136-0.234-0.136-0.356c0-0.12,0.021-0.229,0.065-0.325
		c-0.061-0.068-0.143-0.123-0.247-0.162s-0.208-0.059-0.312-0.059c-0.372,0-0.636,0.148-0.792,0.448
		c-0.156,0.3-0.233,0.666-0.233,1.099v1.365h1.752v0.507l-1.752,0.039l0.013,4.576c0,0.39-0.017,0.685-0.052,0.884l0.818-0.039
		v0.533h-2.648v-0.391H42.169z"/>
	<path d="M47.615,184.986c-0.342-0.424-0.513-1.156-0.513-2.196v-2.313c0-0.363,0.017-0.646,0.052-0.846l-0.896,0.039v-0.533h0.403
		c0.337,0,0.593-0.029,0.766-0.091c0.173-0.062,0.32-0.147,0.441-0.26h0.376v3.965c0,0.763,0.106,1.321,0.318,1.677
		s0.565,0.533,1.058,0.533c0.32,0,0.634-0.096,0.941-0.286s0.556-0.429,0.746-0.715v-3.341c0-0.407,0.022-0.736,0.065-0.988
		l-0.935,0.039v-0.533h0.402c0.338,0,0.593-0.029,0.766-0.091s0.32-0.147,0.441-0.26h0.376l-0.013,4.914
		c0,0.503-0.018,0.909-0.052,1.222l0.935-0.052v0.546h-1.857c-0.043-0.27-0.073-0.527-0.091-0.779c-0.286,0.285-0.619,0.521-1,0.709
		c-0.381,0.186-0.753,0.278-1.117,0.278C48.496,185.624,47.957,185.412,47.615,184.986z"/>
	<path d="M54.113,185.025c0.251,0,0.431-0.063,0.539-0.188c0.108-0.126,0.173-0.285,0.195-0.48s0.033-0.5,0.033-0.916v-6.149
		c0-0.329,0.013-0.61,0.039-0.845l-0.922,0.052v-0.546c0.519,0,0.889-0.03,1.11-0.092c0.221-0.061,0.392-0.146,0.513-0.26h0.376
		l0.013,8.438c0,0.338-0.021,0.633-0.065,0.884l0.818-0.039v0.533h-2.648L54.113,185.025L54.113,185.025z"/>
	<path d="M62.733,185.462c-0.337-0.108-0.627-0.245-0.87-0.409l0.052,0.454H61.37l-0.078-2.235h0.402
		c0.017,0.355,0.115,0.672,0.292,0.949c0.177,0.276,0.411,0.495,0.701,0.656c0.29,0.16,0.599,0.24,0.928,0.24
		c0.372,0,0.703-0.09,0.993-0.268s0.435-0.431,0.435-0.761c0-0.241-0.071-0.446-0.214-0.61s-0.32-0.301-0.532-0.41
		c-0.212-0.107-0.509-0.235-0.889-0.383c-0.459-0.174-0.827-0.336-1.104-0.488c-0.277-0.15-0.515-0.356-0.714-0.616
		c-0.199-0.261-0.298-0.589-0.298-0.987c0-0.287,0.069-0.572,0.208-0.857c0.138-0.286,0.372-0.529,0.701-0.729
		c0.329-0.198,0.766-0.299,1.311-0.299c0.269,0,0.543,0.044,0.825,0.13c0.281,0.087,0.543,0.229,0.785,0.43l-0.026-0.494h0.545
		v2.274h-0.416c-0.026-0.502-0.18-0.938-0.461-1.308c-0.281-0.367-0.677-0.551-1.188-0.551c-0.389,0-0.699,0.097-0.928,0.291
		c-0.229,0.195-0.344,0.428-0.344,0.695c0,0.252,0.076,0.465,0.227,0.639c0.151,0.172,0.339,0.32,0.565,0.44
		c0.225,0.122,0.528,0.257,0.909,0.403c0.45,0.182,0.813,0.352,1.09,0.507c0.277,0.155,0.513,0.362,0.708,0.616
		c0.195,0.257,0.292,0.566,0.292,0.931c0,0.416-0.106,0.769-0.318,1.054s-0.489,0.5-0.831,0.644
		c-0.342,0.144-0.708,0.215-1.097,0.215C63.443,185.624,63.071,185.568,62.733,185.462z"/>
	<path d="M68.725,185.201c-0.48-0.281-0.859-0.686-1.136-1.209c-0.277-0.523-0.416-1.129-0.416-1.813
		c0-0.607,0.138-1.177,0.416-1.709c0.277-0.533,0.664-0.961,1.162-1.281s1.063-0.48,1.694-0.48c0.494,0,0.939,0.107,1.337,0.325
		c0.398,0.217,0.714,0.538,0.948,0.969c0.233,0.429,0.351,0.955,0.351,1.579l-4.57,0.078c-0.008,1.039,0.163,1.852,0.513,2.431
		c0.351,0.581,0.894,0.871,1.629,0.871c0.398,0,0.807-0.104,1.227-0.312c0.42-0.209,0.742-0.465,0.967-0.769l0.312,0.261
		c-0.329,0.502-0.755,0.875-1.279,1.117c-0.523,0.243-1.037,0.364-1.539,0.364C69.744,185.624,69.206,185.482,68.725,185.201z
		 M71.86,181.113c0-0.521-0.117-0.967-0.35-1.34c-0.234-0.373-0.584-0.56-1.052-0.56c-1.073,0-1.709,0.634-1.909,1.897h3.311
		V181.113z"/>
	<path d="M74.606,185.195c-0.333-0.286-0.5-0.659-0.5-1.118c0-0.503,0.201-0.929,0.604-1.274c0.403-0.347,0.909-0.604,1.519-0.773
		c0.61-0.168,1.223-0.248,1.837-0.239v-0.806c0-0.563-0.083-1.004-0.247-1.32c-0.165-0.314-0.515-0.475-1.052-0.475
		c-0.269,0-0.524,0.057-0.766,0.17c-0.242,0.111-0.42,0.281-0.532,0.507c0.112,0.12,0.169,0.286,0.169,0.493
		c0,0.131-0.048,0.254-0.143,0.371c-0.095,0.117-0.234,0.176-0.416,0.176s-0.325-0.059-0.428-0.176
		c-0.104-0.117-0.156-0.271-0.156-0.463c0-0.285,0.11-0.547,0.331-0.785c0.221-0.238,0.528-0.428,0.922-0.565
		c0.394-0.14,0.833-0.208,1.317-0.208c0.727,0,1.264,0.193,1.61,0.578c0.346,0.386,0.515,0.994,0.506,1.826l-0.013,2.926
		c0,0.277-0.018,0.572-0.052,0.884l0.922-0.052v0.546h-1.856c-0.026-0.13-0.056-0.377-0.091-0.741
		c-0.632,0.633-1.312,0.949-2.039,0.949C75.422,185.624,74.939,185.48,74.606,185.195z M77.249,184.693
		c0.268-0.125,0.541-0.317,0.818-0.578c-0.009-0.129-0.013-0.352-0.013-0.662l0.013-1.223c-0.71,0.025-1.342,0.172-1.896,0.437
		c-0.554,0.265-0.831,0.669-0.831,1.215c0,0.321,0.095,0.568,0.286,0.741c0.19,0.174,0.433,0.26,0.727,0.26
		C76.681,184.883,76.98,184.82,77.249,184.693z"/>
	<path d="M81.546,187.482c0.147-0.19,0.286-0.459,0.415-0.807c0.13-0.347,0.195-0.688,0.195-1.025c0-0.104-0.004-0.184-0.013-0.234
		c-0.113,0.053-0.221,0.078-0.325,0.078c-0.173,0-0.316-0.061-0.428-0.182c-0.113-0.123-0.169-0.273-0.169-0.455
		c0-0.234,0.069-0.418,0.208-0.553c0.139-0.136,0.307-0.203,0.506-0.203c0.286,0,0.511,0.111,0.675,0.332s0.247,0.506,0.247,0.853
		c0,0.354-0.093,0.784-0.279,1.286c-0.186,0.503-0.413,0.894-0.681,1.171L81.546,187.482z"/>
	<path d="M87.777,184.986c0.303-0.008,0.52-0.077,0.649-0.207c0.129-0.131,0.203-0.284,0.221-0.463
		c0.017-0.178,0.026-0.486,0.026-0.93v-5.615c0-0.363,0.013-0.676,0.039-0.937l-0.935,0.052v-0.57h6.024l0.065,2.273h-0.429
		c0-0.71-0.16-1.195-0.48-1.455c-0.32-0.261-0.757-0.382-1.311-0.363l-0.948,0.024c-0.303,0.009-0.517,0.078-0.643,0.208
		s-0.199,0.288-0.221,0.475c-0.022,0.188-0.033,0.492-0.033,0.918v2.234l2.259,0.014l-0.091-1.131h0.571v2.742h-0.416
		c0-0.328-0.037-0.576-0.11-0.74c-0.074-0.164-0.188-0.277-0.344-0.338c-0.156-0.062-0.372-0.092-0.649-0.092
		c-0.19,0-0.338,0.005-0.441,0.014l-0.779,0.039v2.729c0,0.459-0.013,0.802-0.039,1.026l1.324-0.053v0.572h-3.311v-0.428H87.777z"/>
	<path d="M96.274,185.201c-0.48-0.281-0.859-0.686-1.136-1.209c-0.277-0.523-0.416-1.129-0.416-1.813
		c0-0.607,0.138-1.177,0.416-1.709c0.277-0.533,0.664-0.961,1.162-1.281s1.063-0.48,1.694-0.48c0.494,0,0.939,0.107,1.337,0.325
		c0.398,0.217,0.714,0.538,0.948,0.969c0.233,0.429,0.351,0.955,0.351,1.579l-4.57,0.078c-0.008,1.039,0.163,1.852,0.513,2.431
		c0.351,0.581,0.894,0.871,1.629,0.871c0.398,0,0.807-0.104,1.227-0.312c0.42-0.209,0.742-0.465,0.967-0.769l0.312,0.261
		c-0.329,0.502-0.755,0.875-1.279,1.117c-0.523,0.243-1.037,0.364-1.539,0.364C97.293,185.624,96.755,185.482,96.274,185.201z
		 M99.41,181.113c0-0.521-0.117-0.967-0.35-1.34c-0.234-0.373-0.584-0.56-1.052-0.56c-1.073,0-1.709,0.634-1.909,1.897h3.311
		V181.113z"/>
	<path d="M102.156,185.195c-0.333-0.286-0.5-0.659-0.5-1.118c0-0.503,0.201-0.929,0.604-1.274c0.403-0.347,0.909-0.604,1.519-0.773
		c0.61-0.168,1.223-0.248,1.837-0.239v-0.806c0-0.563-0.083-1.004-0.247-1.32c-0.165-0.314-0.515-0.475-1.052-0.475
		c-0.269,0-0.524,0.057-0.766,0.17c-0.242,0.111-0.42,0.281-0.532,0.507c0.112,0.12,0.169,0.286,0.169,0.493
		c0,0.131-0.048,0.254-0.143,0.371c-0.095,0.117-0.234,0.176-0.416,0.176s-0.325-0.059-0.428-0.176
		c-0.104-0.117-0.156-0.271-0.156-0.463c0-0.285,0.11-0.547,0.331-0.785s0.528-0.428,0.922-0.565
		c0.394-0.14,0.833-0.208,1.317-0.208c0.727,0,1.264,0.193,1.61,0.578c0.346,0.386,0.515,0.994,0.506,1.826l-0.013,2.926
		c0,0.277-0.018,0.572-0.052,0.884l0.922-0.052v0.546h-1.856c-0.026-0.13-0.056-0.377-0.091-0.741
		c-0.632,0.633-1.312,0.949-2.039,0.949C102.971,185.624,102.489,185.48,102.156,185.195z M104.798,184.693
		c0.268-0.125,0.541-0.317,0.818-0.578c-0.009-0.129-0.013-0.352-0.013-0.662l0.013-1.223c-0.71,0.025-1.342,0.172-1.896,0.437
		c-0.554,0.265-0.831,0.669-0.831,1.215c0,0.321,0.095,0.568,0.286,0.741c0.19,0.174,0.433,0.26,0.727,0.26
		C104.23,184.883,104.529,184.82,104.798,184.693z"/>
	<path d="M110.029,185.462c-0.337-0.108-0.627-0.245-0.87-0.409l0.052,0.454h-0.545l-0.078-2.235h0.402
		c0.017,0.355,0.115,0.672,0.292,0.949c0.177,0.276,0.411,0.495,0.701,0.656c0.29,0.16,0.599,0.24,0.928,0.24
		c0.372,0,0.703-0.09,0.993-0.268s0.435-0.431,0.435-0.761c0-0.241-0.071-0.446-0.214-0.61s-0.32-0.301-0.532-0.41
		c-0.212-0.107-0.509-0.235-0.889-0.383c-0.459-0.174-0.827-0.336-1.104-0.488c-0.277-0.15-0.515-0.356-0.714-0.616
		c-0.199-0.261-0.298-0.589-0.298-0.987c0-0.287,0.069-0.572,0.208-0.857c0.138-0.286,0.372-0.529,0.701-0.729
		c0.329-0.198,0.766-0.299,1.311-0.299c0.269,0,0.543,0.044,0.825,0.13c0.281,0.087,0.543,0.229,0.785,0.43l-0.026-0.494h0.545
		v2.274h-0.416c-0.026-0.502-0.18-0.938-0.461-1.308c-0.281-0.367-0.677-0.551-1.188-0.551c-0.389,0-0.699,0.097-0.928,0.291
		c-0.229,0.195-0.344,0.428-0.344,0.695c0,0.252,0.076,0.465,0.227,0.639c0.151,0.172,0.339,0.32,0.565,0.44
		c0.225,0.122,0.528,0.257,0.909,0.403c0.45,0.182,0.813,0.352,1.09,0.507c0.277,0.155,0.513,0.362,0.708,0.616
		c0.195,0.257,0.292,0.566,0.292,0.931c0,0.416-0.106,0.769-0.318,1.054c-0.212,0.285-0.489,0.5-0.831,0.644
		c-0.342,0.144-0.708,0.215-1.097,0.215C110.739,185.624,110.367,185.568,110.029,185.462z"/>
	<path d="M115.171,183.232l0.026-3.771l-1,0.014v-0.56c0.416-0.009,0.768-0.196,1.058-0.565c0.29-0.367,0.504-0.785,0.643-1.254
		h0.441v1.819h2.181v0.507l-2.181,0.025c-0.009,1.326-0.016,2.244-0.02,2.757c-0.004,0.512-0.007,0.798-0.007,0.858
		c0,0.615,0.074,1.072,0.221,1.371s0.403,0.447,0.766,0.447c0.225,0,0.448-0.068,0.669-0.208c0.221-0.139,0.413-0.329,0.578-0.571
		l0.351,0.285c-0.338,0.504-0.671,0.836-1,0.995c-0.329,0.16-0.649,0.24-0.96,0.24C115.75,185.624,115.162,184.827,115.171,183.232z
		"/>
	<path d="M124.511,185.201c-0.498-0.281-0.891-0.674-1.181-1.176c-0.29-0.504-0.435-1.07-0.435-1.703
		c0-0.676,0.143-1.289,0.429-1.84c0.286-0.551,0.677-0.983,1.175-1.301c0.498-0.315,1.049-0.475,1.655-0.475
		c0.597,0,1.147,0.146,1.649,0.436c0.502,0.291,0.898,0.688,1.188,1.189c0.29,0.503,0.435,1.063,0.435,1.678
		c0,0.658-0.145,1.266-0.435,1.819c-0.29,0.556-0.684,0.991-1.182,1.313c-0.498,0.32-1.049,0.48-1.655,0.48
		C125.557,185.624,125.009,185.482,124.511,185.201z M127.653,184.324c0.299-0.521,0.448-1.166,0.448-1.938
		c0-0.875-0.162-1.625-0.487-2.25c-0.324-0.623-0.812-0.936-1.46-0.936c-0.641,0-1.123,0.265-1.448,0.793
		c-0.324,0.527-0.487,1.179-0.487,1.949c0,0.556,0.076,1.072,0.228,1.554c0.151,0.481,0.38,0.868,0.688,1.164
		c0.307,0.295,0.682,0.442,1.123,0.442C126.889,185.104,127.355,184.844,127.653,184.324z"/>
	<path d="M130.594,185.025c0.251,0,0.43-0.063,0.539-0.188c0.108-0.126,0.173-0.285,0.195-0.48s0.033-0.5,0.033-0.916l-0.013-3.967
		l-1.064,0.026v-0.585h1.064v-0.273c0-1.004,0.184-1.773,0.552-2.307c0.368-0.533,0.963-0.8,1.785-0.8
		c0.329,0,0.643,0.082,0.941,0.247c0.298,0.164,0.448,0.402,0.448,0.715c0,0.174-0.05,0.314-0.149,0.423
		c-0.099,0.108-0.236,0.162-0.409,0.162c-0.173,0-0.305-0.06-0.396-0.177c-0.091-0.116-0.136-0.234-0.136-0.356
		c0-0.12,0.021-0.229,0.065-0.325c-0.061-0.068-0.143-0.123-0.247-0.162s-0.208-0.059-0.312-0.059c-0.372,0-0.636,0.148-0.792,0.448
		c-0.156,0.3-0.233,0.666-0.233,1.099v1.365h1.752v0.507l-1.752,0.039l0.013,4.576c0,0.39-0.017,0.685-0.052,0.884l0.818-0.039
		v0.533h-2.648v-0.391H130.594z"/>
	<path d="M138.332,185.025c0.251,0,0.431-0.063,0.539-0.188c0.108-0.126,0.173-0.285,0.195-0.48s0.033-0.5,0.033-0.916v-2.965
		c0-0.252,0.017-0.533,0.052-0.846l-0.922,0.053v-0.547c0.511,0,0.876-0.029,1.097-0.091c0.221-0.062,0.392-0.147,0.513-0.26h0.376
		v5.252c0,0.39-0.017,0.685-0.052,0.884l0.818-0.039v0.533h-2.648L138.332,185.025L138.332,185.025z M139.136,177.271
		c-0.138-0.151-0.208-0.332-0.208-0.539c0-0.209,0.071-0.392,0.214-0.547c0.143-0.156,0.305-0.233,0.487-0.233
		c0.199,0,0.365,0.075,0.5,0.228c0.134,0.151,0.201,0.336,0.201,0.553c0,0.209-0.072,0.389-0.214,0.539
		c-0.143,0.151-0.31,0.229-0.5,0.229C139.435,177.499,139.275,177.423,139.136,177.271z"/>
	<path d="M143.525,185.462c-0.337-0.108-0.627-0.245-0.87-0.409l0.052,0.454h-0.545l-0.078-2.235h0.402
		c0.017,0.355,0.115,0.672,0.292,0.949c0.177,0.276,0.411,0.495,0.701,0.656c0.29,0.16,0.599,0.24,0.928,0.24
		c0.372,0,0.703-0.09,0.993-0.268s0.435-0.431,0.435-0.761c0-0.241-0.071-0.446-0.214-0.61s-0.32-0.301-0.532-0.41
		c-0.212-0.107-0.509-0.235-0.889-0.383c-0.459-0.174-0.827-0.336-1.104-0.488c-0.277-0.15-0.515-0.356-0.714-0.616
		c-0.199-0.261-0.298-0.589-0.298-0.987c0-0.287,0.069-0.572,0.208-0.857c0.138-0.286,0.372-0.529,0.701-0.729
		c0.329-0.198,0.766-0.299,1.311-0.299c0.269,0,0.543,0.044,0.825,0.13c0.281,0.087,0.543,0.229,0.785,0.43l-0.026-0.494h0.545
		v2.274h-0.416c-0.026-0.502-0.18-0.938-0.461-1.308c-0.281-0.367-0.677-0.551-1.188-0.551c-0.389,0-0.699,0.097-0.928,0.291
		c-0.229,0.195-0.344,0.428-0.344,0.695c0,0.252,0.076,0.465,0.227,0.639c0.151,0.172,0.339,0.32,0.565,0.44
		c0.225,0.122,0.528,0.257,0.909,0.403c0.45,0.182,0.813,0.352,1.09,0.507c0.277,0.155,0.513,0.362,0.708,0.616
		c0.195,0.257,0.292,0.566,0.292,0.931c0,0.416-0.106,0.769-0.318,1.054s-0.489,0.5-0.831,0.644
		c-0.342,0.144-0.708,0.215-1.097,0.215C144.234,185.624,143.862,185.568,143.525,185.462z"/>
	<path d="M147.861,185.025c0.251,0,0.431-0.063,0.539-0.188c0.108-0.126,0.173-0.285,0.195-0.48s0.033-0.5,0.033-0.916v-6.149
		c0-0.329,0.013-0.61,0.039-0.845l-0.922,0.052v-0.546c0.519,0,0.889-0.03,1.11-0.092c0.221-0.061,0.392-0.146,0.513-0.26h0.376
		l0.013,8.438c0,0.338-0.021,0.633-0.065,0.884l0.818-0.039v0.533h-2.648L147.861,185.025L147.861,185.025z"/>
	<path d="M151.892,185.195c-0.333-0.286-0.5-0.659-0.5-1.118c0-0.503,0.201-0.929,0.604-1.274c0.403-0.347,0.909-0.604,1.519-0.773
		c0.61-0.168,1.223-0.248,1.837-0.239v-0.806c0-0.563-0.083-1.004-0.247-1.32c-0.165-0.314-0.515-0.475-1.052-0.475
		c-0.269,0-0.524,0.057-0.766,0.17c-0.242,0.111-0.42,0.281-0.532,0.507c0.112,0.12,0.169,0.286,0.169,0.493
		c0,0.131-0.048,0.254-0.143,0.371c-0.095,0.117-0.234,0.176-0.416,0.176c-0.182,0-0.325-0.059-0.428-0.176
		c-0.104-0.117-0.156-0.271-0.156-0.463c0-0.285,0.11-0.547,0.331-0.785c0.221-0.238,0.528-0.428,0.922-0.565
		c0.394-0.14,0.833-0.208,1.317-0.208c0.727,0,1.264,0.193,1.61,0.578c0.346,0.386,0.515,0.994,0.506,1.826l-0.013,2.926
		c0,0.277-0.018,0.572-0.052,0.884l0.922-0.052v0.546h-1.856c-0.026-0.13-0.056-0.377-0.091-0.741
		c-0.632,0.633-1.312,0.949-2.039,0.949C152.708,185.624,152.225,185.48,151.892,185.195z M154.534,184.693
		c0.268-0.125,0.541-0.317,0.818-0.578c-0.009-0.129-0.013-0.352-0.013-0.662l0.013-1.223c-0.71,0.025-1.342,0.172-1.896,0.437
		c-0.554,0.265-0.831,0.669-0.831,1.215c0,0.321,0.095,0.568,0.286,0.741c0.19,0.174,0.433,0.26,0.727,0.26
		C153.967,184.883,154.266,184.82,154.534,184.693z"/>
	<path d="M158.221,185.025c0.251,0,0.431-0.063,0.539-0.188c0.108-0.126,0.171-0.281,0.188-0.469c0.017-0.186,0.03-0.496,0.039-0.93
		l0.013-2.965c0-0.363,0.018-0.646,0.052-0.845l-0.922,0.052v-0.545c0.51,0,0.861-0.027,1.052-0.084
		c0.19-0.058,0.35-0.146,0.48-0.268h0.377c0.018,0.165,0.035,0.429,0.051,0.793c0.295-0.26,0.631-0.471,1.008-0.631
		c0.375-0.16,0.746-0.24,1.109-0.24c0.752,0,1.303,0.236,1.648,0.709s0.52,1.206,0.52,2.203v2.418c0,0.391-0.018,0.686-0.053,0.884
		l0.818-0.039v0.533h-2.648v-0.39c0.252,0,0.432-0.063,0.539-0.188c0.107-0.126,0.174-0.286,0.195-0.481
		c0.021-0.194,0.03-0.5,0.03-0.916v-1.819c-0.008-0.745-0.129-1.308-0.362-1.685c-0.232-0.377-0.603-0.564-1.104-0.564
		c-0.312,0-0.621,0.078-0.929,0.234c-0.307,0.154-0.561,0.358-0.759,0.609c0.008,0.096,0.014,0.266,0.014,0.508l-0.014,3.314
		c0,0.391-0.018,0.686-0.053,0.884l0.818-0.039v0.533h-2.648v-0.39H158.221z"/>
	<path d="M167.438,185.221c-0.424-0.269-0.756-0.648-0.998-1.144c-0.244-0.494-0.364-1.07-0.364-1.729
		c0-0.693,0.144-1.316,0.429-1.871c0.286-0.555,0.682-0.988,1.188-1.301c0.507-0.313,1.08-0.468,1.721-0.468
		c0.27,0,0.543,0.037,0.824,0.11c0.281,0.074,0.513,0.158,0.695,0.254v-1.781c0-0.329,0.012-0.611,0.037-0.846l-0.921,0.053v-0.546
		c0.511,0,0.876-0.03,1.097-0.091c0.222-0.062,0.393-0.147,0.514-0.262h0.377v8.438c0,0.276-0.018,0.571-0.053,0.884l0.922-0.052
		v0.546h-1.856c-0.043-0.234-0.073-0.459-0.091-0.676c-0.251,0.277-0.557,0.494-0.915,0.648c-0.358,0.156-0.747,0.234-1.162,0.234
		C168.343,185.624,167.861,185.488,167.438,185.221z M170.197,184.746c0.289-0.16,0.535-0.365,0.734-0.617
		c-0.01-0.139-0.015-0.377-0.015-0.715l0.015-3.744c-0.408-0.303-0.889-0.455-1.441-0.455c-0.623,0-1.125,0.258-1.506,0.773
		c-0.381,0.515-0.571,1.197-0.571,2.048c0,0.884,0.169,1.597,0.506,2.139c0.338,0.541,0.813,0.813,1.429,0.813
		C169.624,184.986,169.907,184.906,170.197,184.746z"/>
	<path d="M175.41,185.462c-0.338-0.108-0.628-0.245-0.87-0.409l0.052,0.454h-0.545l-0.078-2.235h0.402
		c0.018,0.355,0.115,0.672,0.293,0.949c0.177,0.276,0.41,0.495,0.699,0.656c0.291,0.16,0.601,0.24,0.93,0.24
		c0.372,0,0.703-0.09,0.993-0.268s0.435-0.431,0.435-0.761c0-0.241-0.07-0.446-0.214-0.61s-0.319-0.301-0.532-0.41
		c-0.211-0.107-0.509-0.235-0.89-0.383c-0.459-0.174-0.826-0.336-1.104-0.488c-0.275-0.15-0.515-0.356-0.713-0.616
		c-0.199-0.261-0.3-0.589-0.3-0.987c0-0.287,0.069-0.572,0.208-0.857c0.139-0.286,0.372-0.529,0.701-0.729s0.766-0.299,1.313-0.299
		c0.268,0,0.543,0.044,0.824,0.13c0.28,0.087,0.543,0.229,0.784,0.43l-0.024-0.494h0.545v2.274h-0.416
		c-0.025-0.502-0.18-0.938-0.461-1.308c-0.281-0.367-0.678-0.551-1.188-0.551c-0.391,0-0.699,0.097-0.928,0.291
		c-0.229,0.195-0.346,0.428-0.346,0.695c0,0.252,0.076,0.465,0.229,0.639c0.15,0.172,0.34,0.32,0.564,0.44
		c0.226,0.122,0.527,0.257,0.908,0.403c0.45,0.182,0.813,0.352,1.092,0.507c0.275,0.155,0.513,0.362,0.707,0.616
		c0.194,0.257,0.291,0.566,0.291,0.931c0,0.416-0.104,0.769-0.316,1.054c-0.213,0.285-0.489,0.5-0.831,0.644
		s-0.708,0.215-1.099,0.215C176.12,185.624,175.748,185.568,175.41,185.462z"/>
	<path d="M183.161,185.025c0.251,0,0.431-0.063,0.539-0.188c0.106-0.126,0.173-0.285,0.194-0.48c0.021-0.195,0.031-0.5,0.031-0.916
		v-6.149c0-0.329,0.014-0.61,0.039-0.845l-0.922,0.052v-0.546c0.52,0,0.891-0.03,1.109-0.092c0.221-0.061,0.393-0.146,0.514-0.26
		h0.377l0.014,8.438c0,0.338-0.021,0.633-0.064,0.884l0.816-0.039v0.533h-2.647V185.025L183.161,185.025z"/>
	<path d="M186.822,185.025c0.251,0,0.431-0.063,0.539-0.188c0.106-0.126,0.173-0.285,0.193-0.48c0.021-0.195,0.032-0.5,0.032-0.916
		v-2.965c0-0.252,0.019-0.533,0.054-0.846l-0.923,0.053v-0.547c0.511,0,0.876-0.029,1.097-0.091c0.222-0.062,0.393-0.147,0.514-0.26
		h0.377v5.252c0,0.39-0.018,0.685-0.053,0.884l0.818-0.039v0.533h-2.648V185.025z M187.627,177.271
		c-0.139-0.151-0.207-0.332-0.207-0.539c0-0.209,0.071-0.392,0.214-0.547c0.144-0.156,0.306-0.233,0.486-0.233
		c0.198,0,0.366,0.075,0.5,0.228c0.135,0.151,0.2,0.336,0.2,0.553c0,0.209-0.07,0.389-0.213,0.539
		c-0.144,0.151-0.311,0.229-0.5,0.229C187.926,177.499,187.766,177.423,187.627,177.271z"/>
	<path d="M190.354,185.025c0.25,0,0.431-0.063,0.539-0.188c0.107-0.126,0.17-0.283,0.188-0.475c0.018-0.19,0.025-0.498,0.025-0.924
		c0-0.086,0.002-0.56,0.006-1.416c0.005-0.858,0.008-2.437,0.008-4.732c0-0.329,0.013-0.611,0.039-0.846l-0.922,0.053v-0.546
		c0.511,0,0.875-0.03,1.097-0.091c0.222-0.062,0.392-0.147,0.513-0.262h0.377v6.149h0.521l1.583-1.664
		c0.328-0.347,0.585-0.576,0.767-0.688l-0.883,0.039v-0.521h2.362v0.39c-0.381,0.045-0.727,0.184-1.038,0.416
		c-0.312,0.234-0.658,0.551-1.039,0.949l-1.013,1.066c0.156,0.068,0.291,0.158,0.408,0.267s0.25,0.253,0.396,0.437l0.921,1.183
		c0.019,0.019,0.115,0.149,0.293,0.396c0.177,0.248,0.39,0.478,0.636,0.688c0.247,0.213,0.461,0.319,0.643,0.319v0.39h-1.182
		c-0.207,0-0.402-0.091-0.584-0.272c-0.182-0.183-0.445-0.498-0.791-0.949l-0.507-0.715c-0.19-0.269-0.37-0.519-0.539-0.748
		c-0.169-0.229-0.31-0.396-0.422-0.5l-0.532,0.025v1.781c0,0.391-0.018,0.686-0.052,0.884l0.83-0.039v0.533h-2.647V185.025
		L190.354,185.025z"/>
	<path d="M198.967,185.201c-0.48-0.281-0.859-0.686-1.136-1.209s-0.416-1.129-0.416-1.813c0-0.607,0.14-1.177,0.416-1.709
		c0.276-0.533,0.664-0.961,1.162-1.281c0.497-0.32,1.063-0.48,1.694-0.48c0.492,0,0.938,0.107,1.336,0.325
		c0.399,0.217,0.715,0.538,0.947,0.969c0.234,0.429,0.352,0.955,0.352,1.579l-4.569,0.078c-0.009,1.039,0.162,1.852,0.513,2.431
		c0.352,0.581,0.895,0.871,1.629,0.871c0.398,0,0.809-0.104,1.229-0.312c0.419-0.209,0.742-0.465,0.967-0.769l0.313,0.261
		c-0.329,0.502-0.756,0.875-1.278,1.117c-0.524,0.243-1.037,0.364-1.539,0.364C199.986,185.624,199.447,185.482,198.967,185.201z
		 M202.104,181.113c0-0.521-0.117-0.967-0.352-1.34s-0.585-0.56-1.052-0.56c-1.073,0-1.71,0.634-1.908,1.897h3.312V181.113z"/>
	<path d="M209.471,185.201c-0.498-0.281-0.893-0.674-1.183-1.176c-0.29-0.504-0.435-1.07-0.435-1.703
		c0-0.676,0.143-1.289,0.429-1.84c0.284-0.551,0.677-0.983,1.175-1.301c0.498-0.316,1.05-0.475,1.654-0.475
		c0.599,0,1.146,0.146,1.648,0.436c0.502,0.291,0.898,0.688,1.188,1.189s0.435,1.063,0.435,1.678c0,0.658-0.145,1.266-0.435,1.819
		s-0.685,0.991-1.183,1.313c-0.498,0.32-1.05,0.48-1.654,0.48C210.516,185.624,209.968,185.482,209.471,185.201z M212.611,184.324
		c0.299-0.521,0.447-1.166,0.447-1.938c0-0.875-0.162-1.625-0.485-2.25c-0.325-0.623-0.812-0.936-1.462-0.936
		c-0.641,0-1.122,0.265-1.446,0.793c-0.325,0.527-0.487,1.179-0.487,1.949c0,0.556,0.076,1.072,0.229,1.554
		c0.15,0.481,0.381,0.868,0.688,1.164c0.309,0.295,0.682,0.442,1.123,0.442C211.848,185.104,212.313,184.844,212.611,184.324z"/>
	<path d="M215.486,185.025c0.252,0,0.432-0.063,0.539-0.188c0.107-0.126,0.174-0.285,0.195-0.48c0.021-0.195,0.031-0.5,0.031-0.916
		v-2.965c0-0.363,0.018-0.646,0.053-0.846l-0.922,0.039v-0.533h0.402c0.328,0,0.566-0.027,0.714-0.084s0.285-0.146,0.415-0.267
		h0.377c0.034,0.338,0.057,0.767,0.064,1.286c0.217-0.354,0.525-0.672,0.929-0.948s0.819-0.416,1.253-0.416
		c0.26,0,0.477,0.069,0.648,0.208c0.174,0.139,0.26,0.343,0.26,0.611c0,0.139-0.055,0.277-0.162,0.416
		c-0.108,0.139-0.262,0.207-0.461,0.207c-0.19,0-0.346-0.071-0.467-0.215c-0.121-0.143-0.17-0.313-0.145-0.514
		c-0.328-0.009-0.659,0.117-0.993,0.377c-0.333,0.26-0.616,0.607-0.85,1.04l0.013,3.198c0,0.39-0.018,0.686-0.052,0.884l0.817-0.039
		v0.533h-2.662v-0.39H215.486z"/>
	<path d="M221.109,185.025c0.25,0,0.431-0.063,0.539-0.188c0.106-0.126,0.172-0.285,0.193-0.48s0.032-0.5,0.032-0.916v-2.965
		c0-0.252,0.019-0.533,0.053-0.846l-0.922,0.053v-0.547c0.511,0,0.876-0.029,1.097-0.091s0.393-0.147,0.514-0.26h0.377v5.252
		c0,0.39-0.018,0.685-0.053,0.884l0.817-0.039v0.533h-2.647V185.025z M221.914,177.271c-0.139-0.151-0.207-0.332-0.207-0.539
		c0-0.209,0.07-0.392,0.214-0.547c0.144-0.156,0.306-0.233,0.486-0.233c0.198,0,0.366,0.075,0.5,0.228
		c0.135,0.151,0.2,0.336,0.2,0.553c0,0.209-0.07,0.389-0.213,0.539c-0.144,0.151-0.311,0.229-0.5,0.229
		C222.213,177.499,222.053,177.423,221.914,177.271z"/>
	<path d="M226.283,185.201c-0.48-0.281-0.859-0.686-1.137-1.209c-0.276-0.523-0.416-1.129-0.416-1.813
		c0-0.607,0.14-1.177,0.416-1.709c0.276-0.533,0.664-0.961,1.162-1.281s1.063-0.48,1.694-0.48c0.493,0,0.938,0.107,1.337,0.325
		c0.399,0.217,0.715,0.538,0.947,0.969c0.234,0.429,0.352,0.955,0.352,1.579l-4.57,0.078c-0.008,1.039,0.162,1.852,0.514,2.431
		c0.352,0.581,0.895,0.871,1.629,0.871c0.398,0,0.809-0.104,1.229-0.312c0.418-0.209,0.742-0.465,0.967-0.769l0.312,0.261
		c-0.329,0.502-0.755,0.875-1.278,1.117c-0.523,0.243-1.037,0.364-1.539,0.364C227.303,185.624,226.764,185.482,226.283,185.201z
		 M229.419,181.113c0-0.521-0.117-0.967-0.351-1.34c-0.234-0.373-0.586-0.56-1.053-0.56c-1.072,0-1.709,0.634-1.908,1.897h3.312
		V181.113z"/>
	<path d="M231.794,185.025c0.251,0,0.431-0.063,0.539-0.188c0.106-0.126,0.171-0.281,0.188-0.469
		c0.018-0.186,0.029-0.496,0.039-0.93l0.014-2.965c0-0.363,0.017-0.646,0.052-0.845l-0.922,0.052v-0.545
		c0.511,0,0.86-0.027,1.052-0.084c0.191-0.058,0.352-0.146,0.48-0.268h0.375c0.019,0.165,0.035,0.429,0.053,0.793
		c0.295-0.26,0.63-0.471,1.007-0.631c0.376-0.16,0.746-0.24,1.109-0.24c0.753,0,1.303,0.236,1.649,0.709
		c0.346,0.473,0.52,1.206,0.52,2.203v2.418c0,0.391-0.018,0.686-0.053,0.884l0.817-0.039v0.533h-2.647v-0.39
		c0.25,0,0.431-0.063,0.539-0.188c0.106-0.126,0.172-0.286,0.193-0.481c0.021-0.194,0.032-0.5,0.032-0.916v-1.819
		c-0.009-0.745-0.13-1.308-0.362-1.685c-0.234-0.377-0.603-0.564-1.104-0.564c-0.312,0-0.621,0.078-0.929,0.234
		c-0.308,0.154-0.562,0.358-0.76,0.609c0.008,0.096,0.014,0.266,0.014,0.508l-0.014,3.314c0,0.391-0.018,0.686-0.053,0.884
		l0.818-0.039v0.533h-2.648L231.794,185.025L231.794,185.025z"/>
	<path d="M240.35,183.232l0.026-3.771l-1,0.014v-0.56c0.416-0.009,0.769-0.196,1.06-0.565c0.289-0.367,0.504-0.785,0.643-1.254
		h0.441v1.819h2.181v0.507l-2.181,0.025c-0.01,1.326-0.017,2.244-0.021,2.757c-0.005,0.512-0.007,0.798-0.007,0.858
		c0,0.615,0.072,1.072,0.221,1.371s0.402,0.447,0.768,0.447c0.225,0,0.446-0.068,0.668-0.208c0.221-0.139,0.412-0.329,0.578-0.571
		l0.351,0.285c-0.339,0.504-0.671,0.836-1,0.995c-0.329,0.16-0.649,0.24-0.961,0.24C240.93,185.624,240.341,184.827,240.35,183.232z
		"/>
	<path d="M245.068,185.195c-0.332-0.286-0.5-0.659-0.5-1.118c0-0.503,0.201-0.929,0.604-1.274s0.909-0.604,1.521-0.773
		c0.611-0.168,1.222-0.248,1.837-0.239v-0.806c0-0.563-0.082-1.004-0.247-1.32c-0.164-0.314-0.516-0.475-1.053-0.475
		c-0.268,0-0.522,0.057-0.766,0.17c-0.242,0.111-0.42,0.281-0.531,0.507c0.111,0.12,0.168,0.286,0.168,0.493
		c0,0.131-0.047,0.254-0.143,0.371s-0.234,0.176-0.416,0.176s-0.324-0.059-0.429-0.176s-0.155-0.271-0.155-0.463
		c0-0.285,0.109-0.547,0.331-0.785c0.221-0.238,0.526-0.428,0.922-0.565c0.394-0.14,0.833-0.208,1.317-0.208
		c0.728,0,1.264,0.193,1.609,0.578c0.346,0.386,0.516,0.994,0.506,1.826l-0.013,2.926c0,0.277-0.018,0.572-0.052,0.884l0.922-0.052
		v0.546h-1.855c-0.026-0.13-0.058-0.377-0.092-0.741c-0.633,0.633-1.312,0.949-2.039,0.949
		C245.885,185.624,245.402,185.48,245.068,185.195z M247.711,184.693c0.27-0.125,0.541-0.317,0.818-0.578
		c-0.01-0.129-0.014-0.352-0.014-0.662l0.014-1.223c-0.711,0.025-1.342,0.172-1.896,0.437c-0.554,0.265-0.831,0.669-0.831,1.215
		c0,0.321,0.095,0.568,0.285,0.741c0.19,0.174,0.435,0.26,0.728,0.26C247.145,184.883,247.441,184.82,247.711,184.693z"/>
	<path d="M251.27,185.025c0.25,0,0.431-0.063,0.539-0.188c0.106-0.126,0.172-0.285,0.193-0.48s0.032-0.5,0.032-0.916v-6.149
		c0-0.329,0.014-0.61,0.039-0.845l-0.923,0.052v-0.546c0.521,0,0.891-0.03,1.11-0.092c0.22-0.061,0.392-0.146,0.513-0.26h0.377
		l0.014,8.438c0,0.338-0.021,0.633-0.064,0.884l0.817-0.039v0.533h-2.647V185.025L251.27,185.025z"/>
	<path d="M258.227,188.341c0.252,0,0.432-0.063,0.539-0.188c0.108-0.125,0.172-0.28,0.188-0.467c0.017-0.188,0.03-0.496,0.039-0.931
		l0.024-6.278c0-0.363,0.019-0.646,0.053-0.846l-0.922,0.053v-0.547c0.511,0,0.86-0.027,1.052-0.084
		c0.19-0.057,0.347-0.146,0.468-0.267h0.391c0.033,0.425,0.051,0.657,0.051,0.702c0.261-0.234,0.572-0.424,0.936-0.565
		c0.363-0.144,0.723-0.215,1.078-0.215c0.511,0,0.98,0.132,1.415,0.396c0.433,0.266,0.78,0.643,1.045,1.131
		c0.265,0.49,0.396,1.057,0.396,1.697c0,0.719-0.15,1.357-0.453,1.918c-0.303,0.559-0.707,0.994-1.215,1.307
		c-0.506,0.313-1.054,0.468-1.643,0.468c-0.598,0-1.116-0.144-1.559-0.429v2.156c0,0.392-0.018,0.686-0.051,0.885l0.816-0.039v0.533
		h-2.648V188.341L258.227,188.341z M262.699,184.727c0.299-0.25,0.529-0.602,0.695-1.053c0.164-0.449,0.246-0.962,0.246-1.533
		c0-0.779-0.168-1.44-0.5-1.982c-0.334-0.541-0.828-0.813-1.486-0.813c-0.285,0-0.563,0.068-0.831,0.207
		c-0.269,0.139-0.503,0.313-0.701,0.521c0.009,0.061,0.015,0.324,0.015,0.793l-0.015,3.73c0.44,0.338,0.948,0.508,1.521,0.508
		C262.048,185.104,262.4,184.979,262.699,184.727z"/>
	<path d="M266.465,185.195c-0.333-0.286-0.5-0.659-0.5-1.118c0-0.503,0.201-0.929,0.604-1.274c0.404-0.346,0.91-0.604,1.521-0.773
		c0.611-0.168,1.222-0.248,1.837-0.239v-0.806c0-0.563-0.082-1.004-0.246-1.32c-0.164-0.314-0.516-0.475-1.053-0.475
		c-0.268,0-0.523,0.057-0.766,0.17c-0.242,0.111-0.42,0.281-0.532,0.507c0.112,0.12,0.169,0.286,0.169,0.493
		c0,0.131-0.048,0.254-0.143,0.371c-0.097,0.117-0.234,0.176-0.416,0.176c-0.183,0-0.324-0.059-0.43-0.176
		c-0.104-0.117-0.154-0.271-0.154-0.463c0-0.285,0.109-0.547,0.33-0.785c0.222-0.238,0.527-0.428,0.922-0.565
		c0.395-0.14,0.834-0.208,1.317-0.208c0.728,0,1.265,0.193,1.61,0.578c0.346,0.386,0.515,0.994,0.506,1.826l-0.014,2.926
		c0,0.277-0.018,0.572-0.051,0.884l0.922-0.052v0.546h-1.856c-0.026-0.13-0.058-0.377-0.092-0.741
		c-0.632,0.633-1.312,0.949-2.038,0.949C267.279,185.624,266.798,185.48,266.465,185.195z M269.105,184.693
		c0.27-0.125,0.541-0.317,0.818-0.578c-0.009-0.129-0.013-0.352-0.013-0.662l0.013-1.223c-0.71,0.025-1.342,0.172-1.896,0.437
		c-0.553,0.265-0.83,0.669-0.83,1.215c0,0.321,0.095,0.568,0.285,0.741c0.189,0.174,0.434,0.26,0.728,0.26
		C268.54,184.883,268.838,184.82,269.105,184.693z"/>
	<path d="M272.793,185.025c0.251,0,0.432-0.063,0.539-0.188c0.107-0.126,0.173-0.285,0.193-0.48c0.021-0.195,0.033-0.5,0.033-0.916
		v-2.965c0-0.252,0.018-0.533,0.053-0.846l-0.922,0.053v-0.547c0.51,0,0.875-0.029,1.097-0.091c0.221-0.062,0.392-0.147,0.513-0.26
		h0.377v5.252c0,0.39-0.018,0.685-0.053,0.884l0.818-0.039v0.533h-2.648V185.025z M273.598,177.271
		c-0.139-0.151-0.207-0.332-0.207-0.539c0-0.209,0.071-0.392,0.215-0.547c0.143-0.156,0.305-0.233,0.485-0.233
		c0.199,0,0.366,0.075,0.5,0.228c0.136,0.151,0.201,0.336,0.201,0.553c0,0.209-0.071,0.389-0.214,0.539
		c-0.143,0.151-0.311,0.229-0.5,0.229C273.896,177.499,273.736,177.423,273.598,177.271z"/>
	<path d="M276.441,185.025c0.25,0,0.431-0.063,0.539-0.188c0.106-0.126,0.17-0.281,0.188-0.469c0.018-0.186,0.03-0.496,0.039-0.93
		l0.014-2.965c0-0.363,0.018-0.646,0.053-0.845l-0.922,0.052v-0.545c0.51,0,0.86-0.027,1.051-0.084
		c0.191-0.058,0.352-0.146,0.48-0.268h0.376c0.019,0.165,0.035,0.429,0.052,0.793c0.295-0.26,0.631-0.471,1.008-0.631
		c0.375-0.16,0.746-0.24,1.109-0.24c0.752,0,1.303,0.236,1.648,0.709s0.52,1.206,0.52,2.203v2.418c0,0.391-0.018,0.686-0.053,0.884
		l0.818-0.039v0.533h-2.648v-0.39c0.251,0,0.432-0.063,0.539-0.188c0.107-0.126,0.173-0.286,0.193-0.481
		c0.021-0.194,0.033-0.5,0.033-0.916v-1.819c-0.01-0.745-0.131-1.308-0.363-1.685c-0.233-0.377-0.602-0.564-1.104-0.564
		c-0.312,0-0.62,0.078-0.929,0.234c-0.307,0.154-0.561,0.358-0.759,0.609c0.008,0.096,0.013,0.266,0.013,0.508l-0.013,3.314
		c0,0.391-0.019,0.686-0.054,0.884l0.818-0.039v0.533h-2.648v-0.39H276.441z"/>
	<path d="M284.997,183.232l0.026-3.771l-1,0.014v-0.56c0.416-0.009,0.769-0.196,1.059-0.565c0.29-0.367,0.504-0.785,0.643-1.254
		h0.441v1.819h2.182v0.507l-2.182,0.025c-0.009,1.326-0.016,2.244-0.02,2.757c-0.006,0.512-0.008,0.798-0.008,0.858
		c0,0.615,0.073,1.072,0.221,1.371c0.148,0.299,0.402,0.447,0.768,0.447c0.225,0,0.447-0.068,0.668-0.208
		c0.221-0.139,0.413-0.329,0.578-0.571l0.352,0.285c-0.338,0.504-0.672,0.836-1,0.995c-0.33,0.16-0.649,0.24-0.961,0.24
		C285.577,185.624,284.988,184.827,284.997,183.232z"/>
	<path d="M289.348,185.025c0.25,0,0.43-0.063,0.538-0.188c0.107-0.126,0.173-0.285,0.194-0.48s0.031-0.5,0.031-0.916v-2.965
		c0-0.252,0.019-0.533,0.054-0.846l-0.922,0.053v-0.547c0.51,0,0.876-0.029,1.097-0.091s0.393-0.147,0.514-0.26h0.377v5.252
		c0,0.39-0.019,0.685-0.054,0.884l0.818-0.039v0.533h-2.647V185.025z M290.15,177.271c-0.139-0.151-0.207-0.332-0.207-0.539
		c0-0.209,0.072-0.392,0.215-0.547c0.143-0.156,0.305-0.233,0.486-0.233c0.198,0,0.365,0.075,0.5,0.228
		c0.135,0.151,0.2,0.336,0.2,0.553c0,0.209-0.071,0.389-0.214,0.539c-0.143,0.151-0.311,0.229-0.5,0.229
		C290.45,177.499,290.29,177.423,290.15,177.271z"/>
	<path d="M292.994,185.025c0.251,0,0.431-0.063,0.539-0.188c0.107-0.126,0.171-0.281,0.188-0.469c0.018-0.186,0.03-0.496,0.039-0.93
		l0.014-2.965c0-0.363,0.018-0.646,0.053-0.845l-0.922,0.052v-0.545c0.511,0,0.861-0.027,1.052-0.084
		c0.19-0.058,0.351-0.146,0.479-0.268h0.377c0.018,0.165,0.035,0.429,0.052,0.793c0.295-0.26,0.63-0.471,1.007-0.631
		c0.376-0.16,0.746-0.24,1.109-0.24c0.753,0,1.303,0.236,1.648,0.709s0.521,1.206,0.521,2.203v2.418
		c0,0.391-0.019,0.686-0.054,0.884l0.818-0.039v0.533h-2.648v-0.39c0.252,0,0.432-0.063,0.539-0.188
		c0.107-0.126,0.173-0.286,0.194-0.481c0.021-0.194,0.032-0.5,0.032-0.916v-1.819c-0.01-0.745-0.13-1.308-0.363-1.685
		c-0.232-0.377-0.602-0.564-1.104-0.564c-0.313,0-0.621,0.078-0.93,0.234c-0.307,0.154-0.561,0.358-0.759,0.609
		c0.008,0.096,0.013,0.266,0.013,0.508l-0.013,3.314c0,0.391-0.019,0.686-0.054,0.884l0.818-0.039v0.533h-2.647L292.994,185.025
		L292.994,185.025z"/>
	<path d="M302.16,188.691c-0.484-0.164-0.84-0.381-1.064-0.649c-0.226-0.269-0.338-0.556-0.338-0.858
		c0-0.363,0.121-0.682,0.364-0.955c0.242-0.272,0.519-0.475,0.83-0.604c-0.294-0.096-0.518-0.227-0.668-0.391
		c-0.151-0.164-0.229-0.377-0.229-0.637c0-0.313,0.123-0.599,0.37-0.857c0.247-0.26,0.557-0.422,0.93-0.48
		c-0.407-0.191-0.729-0.457-0.962-0.8s-0.351-0.735-0.351-1.177c0-0.504,0.132-0.949,0.396-1.34s0.605-0.692,1.025-0.909
		c0.419-0.218,0.858-0.325,1.317-0.325c0.589,0,1.138,0.16,1.647,0.48c0.13-0.373,0.34-0.676,0.63-0.91
		c0.29-0.233,0.604-0.352,0.941-0.352c0.216,0,0.385,0.059,0.506,0.176s0.184,0.275,0.184,0.476c0,0.121-0.047,0.239-0.138,0.356
		s-0.223,0.176-0.396,0.176c-0.147,0-0.273-0.043-0.377-0.129c-0.104-0.088-0.169-0.195-0.194-0.326
		c-0.208,0.025-0.373,0.119-0.494,0.279s-0.207,0.354-0.26,0.578c0.217,0.2,0.386,0.434,0.507,0.702s0.183,0.552,0.183,0.845
		c0,0.479-0.125,0.906-0.377,1.287c-0.252,0.383-0.587,0.682-1.007,0.897s-0.872,0.325-1.355,0.325c-0.112,0-0.256-0.01-0.429-0.026
		c-0.131-0.026-0.277-0.039-0.441-0.039c-0.285,0-0.525,0.063-0.721,0.188c-0.194,0.125-0.292,0.279-0.292,0.461
		c0,0.252,0.157,0.418,0.474,0.5c0.316,0.084,0.855,0.138,1.617,0.164c1.063,0.052,1.861,0.223,2.396,0.513
		c0.532,0.291,0.798,0.771,0.798,1.437c0,0.442-0.152,0.828-0.461,1.157c-0.308,0.329-0.705,0.581-1.193,0.755
		c-0.489,0.174-0.998,0.26-1.525,0.26C303.26,188.939,302.645,188.855,302.16,188.691z M305.244,188.243
		c0.357-0.125,0.634-0.294,0.824-0.507c0.189-0.213,0.284-0.444,0.284-0.695c0-0.441-0.21-0.745-0.63-0.91s-1.04-0.26-1.861-0.285
		c-0.546-0.019-0.991-0.053-1.338-0.105c-0.233,0.156-0.415,0.348-0.546,0.572c-0.13,0.226-0.193,0.463-0.193,0.715
		c0,0.425,0.201,0.766,0.604,1.021s0.938,0.383,1.604,0.383C304.467,188.432,304.885,188.369,305.244,188.243z M304.894,182.607
		c0.246-0.33,0.37-0.758,0.37-1.287c0-0.605-0.133-1.117-0.396-1.533s-0.634-0.624-1.11-0.624c-0.459,0-0.816,0.171-1.077,0.515
		c-0.26,0.342-0.39,0.781-0.39,1.318c0,0.633,0.137,1.143,0.409,1.527c0.271,0.385,0.646,0.578,1.123,0.578
		C304.289,183.102,304.646,182.938,304.894,182.607z"/>
	<path d="M309.6,185.462c-0.338-0.108-0.628-0.245-0.869-0.409l0.052,0.454h-0.545l-0.078-2.235h0.401
		c0.019,0.355,0.115,0.672,0.293,0.949c0.178,0.276,0.41,0.495,0.7,0.656c0.29,0.16,0.601,0.24,0.93,0.24
		c0.372,0,0.702-0.09,0.992-0.268s0.436-0.431,0.436-0.761c0-0.241-0.071-0.446-0.214-0.61c-0.144-0.164-0.32-0.301-0.532-0.41
		c-0.212-0.107-0.509-0.235-0.89-0.383c-0.459-0.174-0.826-0.336-1.104-0.488c-0.276-0.15-0.515-0.356-0.714-0.616
		c-0.199-0.261-0.299-0.589-0.299-0.987c0-0.287,0.068-0.572,0.208-0.857c0.139-0.286,0.372-0.529,0.701-0.729
		c0.328-0.2,0.766-0.299,1.312-0.299c0.269,0,0.543,0.044,0.824,0.13c0.281,0.087,0.543,0.229,0.785,0.43l-0.025-0.494h0.545v2.274
		h-0.415c-0.025-0.502-0.18-0.938-0.461-1.308c-0.282-0.367-0.678-0.551-1.188-0.551c-0.391,0-0.699,0.097-0.929,0.291
		c-0.229,0.195-0.345,0.428-0.345,0.695c0,0.252,0.076,0.465,0.229,0.639c0.15,0.172,0.34,0.32,0.563,0.44
		c0.227,0.122,0.528,0.257,0.909,0.403c0.45,0.182,0.813,0.352,1.091,0.507c0.276,0.155,0.513,0.362,0.707,0.616
		c0.195,0.257,0.292,0.566,0.292,0.931c0,0.416-0.104,0.769-0.317,1.054s-0.488,0.5-0.83,0.644
		c-0.343,0.144-0.708,0.215-1.099,0.215C310.31,185.624,309.938,185.568,309.6,185.462z"/>
	<path d="M314.676,187.482c0.146-0.19,0.285-0.459,0.415-0.807c0.13-0.347,0.195-0.688,0.195-1.025c0-0.104-0.005-0.184-0.014-0.234
		c-0.112,0.053-0.222,0.078-0.324,0.078c-0.173,0-0.316-0.061-0.43-0.182c-0.111-0.123-0.169-0.273-0.169-0.455
		c0-0.234,0.069-0.418,0.208-0.553c0.14-0.136,0.309-0.203,0.508-0.203c0.284,0,0.51,0.111,0.675,0.332
		c0.164,0.221,0.247,0.506,0.247,0.853c0,0.354-0.095,0.784-0.279,1.286c-0.187,0.503-0.414,0.894-0.682,1.171L314.676,187.482z"/>
	<path d="M42.825,196.045h-0.013l0.039,5.564c0,0.58-0.009,1.01-0.026,1.287l0.935-0.053v0.571h-2.375v-0.429
		c0.346,0,0.575-0.1,0.688-0.299c0.112-0.201,0.168-0.442,0.168-0.729l0.013-7.124l-0.87,0.053v-0.572h1.545l5.531,7.41h0.013
		l0.013-5.953c0-0.365,0.013-0.678,0.039-0.938l-0.935,0.053v-0.572h2.389v0.43c-0.26,0.009-0.453,0.059-0.578,0.148
		s-0.206,0.215-0.24,0.371c-0.035,0.155-0.052,0.363-0.052,0.623v0.455l-0.026,7.28H48.46L42.825,196.045z"/>
	<path d="M51.478,203.195c-0.333-0.286-0.5-0.659-0.5-1.118c0-0.503,0.201-0.929,0.604-1.274c0.403-0.347,0.909-0.604,1.519-0.773
		c0.61-0.168,1.223-0.248,1.837-0.239v-0.806c0-0.563-0.083-1.004-0.247-1.32c-0.165-0.314-0.515-0.475-1.052-0.475
		c-0.269,0-0.524,0.057-0.766,0.17c-0.242,0.111-0.42,0.281-0.532,0.507c0.112,0.12,0.169,0.286,0.169,0.493
		c0,0.131-0.048,0.254-0.143,0.371c-0.095,0.117-0.234,0.176-0.416,0.176c-0.182,0-0.325-0.059-0.428-0.176
		c-0.104-0.117-0.156-0.271-0.156-0.463c0-0.285,0.11-0.547,0.331-0.785c0.221-0.238,0.528-0.428,0.922-0.565
		c0.394-0.14,0.833-0.208,1.317-0.208c0.727,0,1.264,0.193,1.61,0.578c0.346,0.386,0.515,0.994,0.506,1.826l-0.013,2.926
		c0,0.277-0.018,0.572-0.052,0.884l0.922-0.052v0.546h-1.856c-0.026-0.13-0.056-0.377-0.091-0.741
		c-0.632,0.633-1.312,0.949-2.039,0.949C52.293,203.624,51.811,203.48,51.478,203.195z M54.12,202.693
		c0.268-0.125,0.541-0.317,0.818-0.578c-0.009-0.129-0.013-0.352-0.013-0.662l0.013-1.223c-0.71,0.025-1.342,0.172-1.896,0.437
		s-0.831,0.669-0.831,1.215c0,0.321,0.095,0.568,0.286,0.741c0.19,0.174,0.433,0.26,0.727,0.26
		C53.553,202.883,53.852,202.82,54.12,202.693z"/>
	<path d="M58.482,201.232l0.026-3.771l-1,0.014v-0.56c0.416-0.009,0.768-0.196,1.058-0.565c0.29-0.367,0.504-0.785,0.643-1.254
		h0.441v1.819h2.181v0.507l-2.181,0.025c-0.009,1.326-0.016,2.244-0.02,2.757c-0.004,0.512-0.007,0.798-0.007,0.858
		c0,0.615,0.074,1.072,0.221,1.371c0.147,0.299,0.403,0.447,0.766,0.447c0.225,0,0.448-0.068,0.669-0.208
		c0.221-0.139,0.413-0.329,0.578-0.571l0.351,0.285c-0.338,0.504-0.671,0.836-1,0.995c-0.329,0.16-0.649,0.24-0.96,0.24
		C59.062,203.624,58.473,202.827,58.482,201.232z"/>
	<path d="M63.954,202.986c-0.342-0.424-0.513-1.156-0.513-2.196v-2.313c0-0.363,0.017-0.646,0.052-0.846l-0.896,0.039v-0.533H63
		c0.337,0,0.593-0.029,0.766-0.091c0.173-0.062,0.32-0.147,0.441-0.26h0.376v3.965c0,0.763,0.106,1.321,0.318,1.677
		s0.565,0.533,1.058,0.533c0.32,0,0.634-0.096,0.941-0.286s0.556-0.429,0.746-0.715v-3.341c0-0.407,0.022-0.736,0.065-0.988
		l-0.935,0.039v-0.533h0.402c0.338,0,0.593-0.029,0.766-0.091c0.173-0.062,0.32-0.147,0.441-0.26h0.376l-0.013,4.914
		c0,0.503-0.018,0.909-0.052,1.222l0.935-0.052v0.546h-1.857c-0.043-0.27-0.073-0.527-0.091-0.779c-0.286,0.285-0.619,0.521-1,0.709
		c-0.381,0.186-0.753,0.278-1.117,0.278C64.834,203.624,64.296,203.412,63.954,202.986z"/>
	<path d="M70.582,203.025c0.251,0,0.431-0.063,0.539-0.188c0.108-0.126,0.173-0.285,0.195-0.48s0.033-0.5,0.033-0.916v-2.965
		c0-0.363,0.017-0.646,0.052-0.846l-0.922,0.039v-0.533h0.402c0.329,0,0.567-0.027,0.714-0.084s0.286-0.146,0.416-0.267h0.376
		c0.034,0.338,0.056,0.767,0.065,1.286c0.216-0.354,0.526-0.672,0.928-0.948c0.402-0.276,0.82-0.416,1.253-0.416
		c0.26,0,0.476,0.069,0.649,0.208c0.173,0.139,0.26,0.343,0.26,0.611c0,0.139-0.054,0.277-0.162,0.416s-0.262,0.207-0.461,0.207
		c-0.19,0-0.346-0.071-0.468-0.215c-0.121-0.143-0.168-0.313-0.143-0.514c-0.329-0.009-0.66,0.117-0.993,0.377
		s-0.617,0.607-0.851,1.04l0.013,3.198c0,0.39-0.018,0.686-0.052,0.884l0.818-0.039v0.533h-2.662L70.582,203.025L70.582,203.025z"/>
	<path d="M77.729,203.201c-0.48-0.281-0.859-0.686-1.136-1.209c-0.277-0.523-0.416-1.129-0.416-1.813
		c0-0.607,0.138-1.177,0.416-1.709c0.277-0.533,0.664-0.961,1.162-1.281s1.063-0.48,1.694-0.48c0.494,0,0.939,0.107,1.337,0.325
		c0.398,0.217,0.714,0.538,0.948,0.969c0.233,0.429,0.351,0.955,0.351,1.579l-4.57,0.078c-0.008,1.039,0.163,1.852,0.513,2.431
		c0.351,0.581,0.894,0.871,1.629,0.871c0.398,0,0.807-0.104,1.227-0.312c0.42-0.209,0.742-0.465,0.967-0.769l0.312,0.261
		c-0.329,0.502-0.755,0.875-1.279,1.117c-0.523,0.243-1.037,0.364-1.539,0.364C78.748,203.624,78.209,203.482,77.729,203.201z
		 M80.864,199.113c0-0.521-0.117-0.967-0.35-1.34c-0.234-0.373-0.584-0.56-1.052-0.56c-1.073,0-1.709,0.634-1.909,1.897h3.311
		V199.113z"/>
	<path d="M88.199,203.462c-0.337-0.108-0.627-0.245-0.87-0.409l0.052,0.454h-0.545l-0.078-2.235h0.402
		c0.017,0.355,0.115,0.672,0.292,0.949c0.177,0.276,0.411,0.495,0.701,0.656c0.29,0.16,0.599,0.24,0.928,0.24
		c0.372,0,0.703-0.09,0.993-0.268c0.29-0.178,0.435-0.431,0.435-0.761c0-0.241-0.071-0.446-0.214-0.61s-0.32-0.301-0.532-0.41
		c-0.212-0.107-0.509-0.235-0.889-0.383c-0.459-0.174-0.827-0.336-1.104-0.488c-0.277-0.15-0.515-0.356-0.714-0.616
		c-0.199-0.261-0.298-0.589-0.298-0.987c0-0.287,0.069-0.572,0.208-0.857c0.138-0.286,0.372-0.529,0.701-0.729
		c0.329-0.198,0.766-0.299,1.311-0.299c0.269,0,0.543,0.044,0.825,0.13c0.281,0.087,0.543,0.229,0.785,0.43l-0.026-0.494h0.545
		v2.274h-0.416c-0.026-0.502-0.18-0.938-0.461-1.308c-0.281-0.367-0.677-0.551-1.188-0.551c-0.389,0-0.699,0.097-0.928,0.291
		c-0.229,0.195-0.344,0.428-0.344,0.695c0,0.252,0.076,0.465,0.227,0.639c0.151,0.172,0.339,0.32,0.565,0.44
		c0.225,0.122,0.528,0.257,0.909,0.403c0.45,0.182,0.813,0.352,1.09,0.507s0.513,0.362,0.708,0.616
		c0.195,0.257,0.292,0.566,0.292,0.931c0,0.416-0.106,0.769-0.318,1.054c-0.212,0.285-0.489,0.5-0.831,0.644
		c-0.342,0.144-0.708,0.215-1.097,0.215C88.909,203.624,88.537,203.568,88.199,203.462z"/>
	<path d="M92.536,203.025c0.251,0,0.433-0.063,0.545-0.188c0.112-0.126,0.179-0.288,0.201-0.488
		c0.021-0.199,0.032-0.502,0.032-0.908v-6.149c0-0.329,0.013-0.61,0.039-0.845l-0.922,0.052v-0.546c0.52,0,0.89-0.03,1.11-0.092
		c0.22-0.061,0.392-0.146,0.513-0.26h0.376v3.965c0.303-0.252,0.645-0.457,1.026-0.617c0.38-0.16,0.749-0.24,1.104-0.24
		c0.744,0,1.285,0.234,1.623,0.702s0.511,1.204,0.52,2.21l0.013,2.418c0,0.391-0.017,0.686-0.052,0.884l0.818-0.039v0.533h-2.648
		v-0.39c0.251,0,0.431-0.063,0.539-0.188c0.108-0.126,0.173-0.286,0.195-0.481c0.022-0.194,0.033-0.5,0.033-0.916v-1.819
		c0-0.745-0.117-1.302-0.351-1.671c-0.234-0.368-0.602-0.553-1.104-0.553c-0.32,0-0.639,0.076-0.954,0.229
		c-0.316,0.15-0.569,0.344-0.76,0.578v3.835c0,0.338-0.021,0.633-0.065,0.884l0.818-0.039v0.533h-2.648L92.536,203.025
		L92.536,203.025z"/>
	<path d="M102.02,203.201c-0.498-0.281-0.891-0.674-1.181-1.176c-0.29-0.504-0.435-1.07-0.435-1.703c0-0.676,0.143-1.289,0.429-1.84
		s0.677-0.983,1.175-1.301c0.498-0.315,1.049-0.475,1.655-0.475c0.597,0,1.147,0.146,1.649,0.436
		c0.502,0.291,0.898,0.688,1.188,1.189c0.29,0.503,0.435,1.063,0.435,1.678c0,0.658-0.145,1.266-0.435,1.819
		c-0.29,0.556-0.684,0.991-1.182,1.313c-0.498,0.32-1.049,0.48-1.655,0.48C103.065,203.624,102.518,203.482,102.02,203.201z
		 M105.162,202.324c0.299-0.521,0.448-1.166,0.448-1.938c0-0.875-0.162-1.625-0.487-2.25c-0.324-0.623-0.812-0.936-1.46-0.936
		c-0.641,0-1.123,0.265-1.448,0.793c-0.324,0.527-0.487,1.179-0.487,1.949c0,0.556,0.076,1.072,0.228,1.554
		c0.151,0.481,0.38,0.868,0.688,1.164c0.307,0.295,0.682,0.442,1.123,0.442C104.397,203.104,104.863,202.844,105.162,202.324z"/>
	<path d="M108.569,198.463c-0.165-0.468-0.277-0.818-0.337-1.053l-0.688,0.039v-0.533h2.752v0.391
		c-0.441,0.008-0.662,0.207-0.662,0.598c0,0.199,0.056,0.469,0.169,0.807l1.013,3.081l0.39-1.157
		c0.537-1.576,0.952-2.816,1.246-3.718h0.532l1.727,4.966l1.246-3.602c0.147-0.441,0.277-0.731,0.39-0.87l-0.753,0.039v-0.533h2.259
		v0.39c-0.286,0.019-0.511,0.067-0.675,0.149c-0.165,0.083-0.29,0.19-0.376,0.325c-0.087,0.135-0.173,0.318-0.26,0.553l-1.87,5.122
		h-0.52l-1.701-4.914l-1.688,4.914h-0.494L108.569,198.463z"/>
	<path d="M119.981,203.462c-0.337-0.108-0.627-0.245-0.87-0.409l0.052,0.454h-0.545l-0.078-2.235h0.402
		c0.017,0.355,0.115,0.672,0.292,0.949c0.177,0.276,0.411,0.495,0.701,0.656c0.29,0.16,0.599,0.24,0.928,0.24
		c0.372,0,0.703-0.09,0.993-0.268s0.435-0.431,0.435-0.761c0-0.241-0.071-0.446-0.214-0.61s-0.32-0.301-0.532-0.41
		c-0.212-0.107-0.509-0.235-0.889-0.383c-0.459-0.174-0.827-0.336-1.104-0.488c-0.277-0.15-0.515-0.356-0.714-0.616
		c-0.199-0.261-0.298-0.589-0.298-0.987c0-0.287,0.069-0.572,0.208-0.857c0.138-0.286,0.372-0.529,0.701-0.729
		c0.329-0.198,0.766-0.299,1.311-0.299c0.269,0,0.543,0.044,0.825,0.13c0.281,0.087,0.543,0.229,0.785,0.43l-0.026-0.494h0.545
		v2.274h-0.416c-0.026-0.502-0.18-0.938-0.461-1.308c-0.281-0.367-0.677-0.551-1.188-0.551c-0.389,0-0.699,0.097-0.928,0.291
		c-0.229,0.195-0.344,0.428-0.344,0.695c0,0.252,0.076,0.465,0.227,0.639c0.151,0.172,0.339,0.32,0.565,0.44
		c0.225,0.122,0.528,0.257,0.909,0.403c0.45,0.182,0.813,0.352,1.09,0.507c0.277,0.155,0.513,0.362,0.708,0.616
		c0.195,0.257,0.292,0.566,0.292,0.931c0,0.416-0.106,0.769-0.318,1.054s-0.489,0.5-0.831,0.644
		c-0.342,0.144-0.708,0.215-1.097,0.215C120.691,203.624,120.319,203.568,119.981,203.462z"/>
	<path d="M129.199,203.221c-0.424-0.269-0.758-0.648-1-1.144c-0.242-0.495-0.363-1.07-0.363-1.729c0-0.693,0.143-1.316,0.428-1.871
		c0.286-0.555,0.682-0.988,1.188-1.301c0.506-0.313,1.08-0.468,1.72-0.468c0.268,0,0.543,0.037,0.825,0.11
		c0.281,0.074,0.513,0.158,0.694,0.254v-1.781c0-0.329,0.013-0.611,0.039-0.846l-0.922,0.053v-0.546c0.511,0,0.876-0.03,1.097-0.091
		c0.221-0.062,0.392-0.147,0.513-0.262h0.376v8.438c0,0.276-0.018,0.571-0.052,0.884l0.922-0.052v0.546h-1.857
		c-0.043-0.234-0.073-0.459-0.091-0.676c-0.251,0.277-0.556,0.494-0.915,0.648c-0.359,0.156-0.747,0.234-1.162,0.234
		C130.104,203.624,129.623,203.488,129.199,203.221z M131.958,202.746c0.29-0.16,0.534-0.365,0.733-0.617
		c-0.009-0.139-0.013-0.377-0.013-0.715l0.013-3.744c-0.407-0.303-0.887-0.455-1.441-0.455c-0.624,0-1.125,0.258-1.506,0.773
		c-0.381,0.515-0.571,1.197-0.571,2.048c0,0.884,0.169,1.597,0.506,2.139c0.338,0.541,0.813,0.813,1.428,0.813
		C131.384,202.986,131.668,202.906,131.958,202.746z"/>
	<path d="M135.625,203.025c0.251,0,0.431-0.063,0.539-0.188c0.108-0.126,0.173-0.285,0.195-0.48s0.033-0.5,0.033-0.916v-2.965
		c0-0.363,0.017-0.646,0.052-0.846l-0.922,0.039v-0.533h0.402c0.329,0,0.567-0.027,0.714-0.084s0.286-0.146,0.416-0.267h0.376
		c0.034,0.338,0.056,0.767,0.065,1.286c0.216-0.354,0.526-0.672,0.928-0.948c0.402-0.276,0.82-0.416,1.253-0.416
		c0.26,0,0.476,0.069,0.649,0.208c0.173,0.139,0.26,0.343,0.26,0.611c0,0.139-0.054,0.277-0.162,0.416
		c-0.108,0.139-0.262,0.207-0.461,0.207c-0.19,0-0.346-0.071-0.468-0.215c-0.121-0.143-0.168-0.313-0.143-0.514
		c-0.329-0.009-0.66,0.117-0.993,0.377s-0.617,0.607-0.851,1.04l0.013,3.198c0,0.39-0.018,0.686-0.052,0.884l0.818-0.039v0.533
		h-2.662L135.625,203.025L135.625,203.025z"/>
	<path d="M141.617,203.195c-0.333-0.286-0.5-0.659-0.5-1.118c0-0.503,0.201-0.929,0.604-1.274c0.403-0.347,0.909-0.604,1.519-0.773
		c0.61-0.168,1.223-0.248,1.837-0.239v-0.806c0-0.563-0.083-1.004-0.247-1.32c-0.165-0.314-0.515-0.475-1.052-0.475
		c-0.269,0-0.524,0.057-0.766,0.17c-0.242,0.111-0.42,0.281-0.532,0.507c0.112,0.12,0.169,0.286,0.169,0.493
		c0,0.131-0.048,0.254-0.143,0.371c-0.095,0.117-0.234,0.176-0.416,0.176c-0.182,0-0.325-0.059-0.428-0.176
		c-0.104-0.117-0.156-0.271-0.156-0.463c0-0.285,0.11-0.547,0.331-0.785c0.221-0.238,0.528-0.428,0.922-0.565
		c0.394-0.14,0.833-0.208,1.317-0.208c0.727,0,1.264,0.193,1.61,0.578c0.346,0.386,0.515,0.994,0.506,1.826l-0.013,2.926
		c0,0.277-0.018,0.572-0.052,0.884l0.922-0.052v0.546h-1.856c-0.026-0.13-0.056-0.377-0.091-0.741
		c-0.632,0.633-1.312,0.949-2.039,0.949C142.433,203.624,141.95,203.48,141.617,203.195z M144.259,202.693
		c0.268-0.125,0.541-0.317,0.818-0.578c-0.009-0.129-0.013-0.352-0.013-0.662l0.013-1.223c-0.71,0.025-1.342,0.172-1.896,0.437
		c-0.554,0.265-0.831,0.669-0.831,1.215c0,0.321,0.095,0.568,0.286,0.741c0.19,0.174,0.433,0.26,0.727,0.26
		C143.692,202.883,143.991,202.82,144.259,202.693z"/>
	<path d="M147.946,203.025c0.251,0,0.431-0.063,0.539-0.188c0.108-0.126,0.173-0.285,0.195-0.48s0.033-0.5,0.033-0.916v-2.965
		c0-0.363,0.017-0.646,0.052-0.846l-0.922,0.053v-0.547c0.511,0,0.861-0.027,1.052-0.084s0.351-0.146,0.48-0.267h0.376
		c0.017,0.13,0.034,0.358,0.052,0.688c0.268-0.234,0.571-0.42,0.909-0.56s0.671-0.208,1-0.208c0.424,0,0.785,0.076,1.084,0.229
		c0.299,0.151,0.53,0.365,0.694,0.644c0.312-0.251,0.66-0.459,1.045-0.624c0.385-0.165,0.755-0.247,1.11-0.247
		c0.762,0,1.318,0.231,1.668,0.694c0.351,0.465,0.517,1.203,0.5,2.218l-0.013,2.418c0,0.39-0.018,0.685-0.052,0.884l0.818-0.039
		v0.533h-2.648v-0.391c0.251,0,0.43-0.063,0.539-0.188c0.108-0.126,0.173-0.285,0.195-0.48c0.021-0.195,0.032-0.5,0.032-0.916v-1.82
		c0-0.745-0.117-1.303-0.351-1.671c-0.233-0.368-0.602-0.552-1.104-0.552c-0.268,0-0.539,0.058-0.811,0.174
		c-0.273,0.117-0.513,0.271-0.721,0.463c0.086,0.27,0.13,0.585,0.13,0.949l-0.026,3.055c0,0.391-0.018,0.686-0.052,0.884
		l0.818-0.038v0.532h-2.648v-0.39c0.251,0,0.431-0.063,0.539-0.188c0.108-0.126,0.17-0.282,0.188-0.469
		c0.017-0.187,0.03-0.496,0.039-0.929l0.013-1.82c0.008-0.754-0.1-1.316-0.325-1.689s-0.584-0.56-1.078-0.56
		c-0.269,0-0.535,0.058-0.798,0.169c-0.264,0.111-0.492,0.266-0.682,0.455l0.013,0.701v3.342c0,0.391-0.017,0.686-0.052,0.884
		l0.818-0.038v0.532h-2.648V203.025L147.946,203.025z"/>
	<path d="M159.924,203.195c-0.334-0.286-0.5-0.659-0.5-1.118c0-0.503,0.202-0.929,0.604-1.274c0.402-0.346,0.908-0.604,1.52-0.773
		c0.609-0.168,1.222-0.248,1.836-0.239v-0.806c0-0.563-0.082-1.004-0.245-1.32c-0.164-0.314-0.517-0.475-1.054-0.475
		c-0.269,0-0.522,0.057-0.767,0.17c-0.241,0.111-0.42,0.281-0.53,0.507c0.11,0.12,0.168,0.286,0.168,0.493
		c0,0.131-0.047,0.254-0.144,0.371c-0.096,0.117-0.233,0.176-0.416,0.176s-0.324-0.059-0.428-0.176
		c-0.104-0.117-0.156-0.271-0.156-0.463c0-0.285,0.111-0.547,0.332-0.785s0.527-0.428,0.921-0.565
		c0.394-0.14,0.832-0.208,1.316-0.208c0.729,0,1.264,0.193,1.611,0.578c0.346,0.386,0.514,0.994,0.506,1.826l-0.014,2.926
		c0,0.277-0.019,0.572-0.051,0.884l0.922-0.052v0.546H163.5c-0.025-0.13-0.057-0.377-0.092-0.741
		c-0.631,0.633-1.311,0.949-2.037,0.949C160.738,203.624,160.256,203.48,159.924,203.195z M162.564,202.693
		c0.27-0.125,0.541-0.317,0.817-0.578c-0.008-0.129-0.012-0.352-0.012-0.662l0.012-1.223c-0.709,0.025-1.342,0.172-1.896,0.437
		c-0.555,0.265-0.832,0.669-0.832,1.215c0,0.321,0.097,0.568,0.285,0.741c0.191,0.174,0.435,0.26,0.729,0.26
		C161.998,202.883,162.297,202.82,162.564,202.693z"/>
	<path d="M169.809,202.986c0.303-0.008,0.521-0.077,0.649-0.207c0.129-0.131,0.203-0.284,0.222-0.463
		c0.018-0.178,0.025-0.486,0.025-0.93v-5.615c0-0.363,0.013-0.676,0.038-0.937l-0.935,0.052v-0.57h6.244l0.064,2.273h-0.428
		c0-0.71-0.154-1.195-0.461-1.455c-0.309-0.261-0.738-0.382-1.293-0.363l-1.115,0.024c-0.313,0.009-0.537,0.067-0.676,0.177
		c-0.14,0.108-0.226,0.26-0.261,0.455c-0.034,0.193-0.052,0.5-0.052,0.916v2.079l2.441,0.015l-0.092-1.119h0.57v2.729h-0.428
		c0-0.319-0.039-0.565-0.117-0.733c-0.078-0.17-0.197-0.281-0.357-0.338c-0.16-0.058-0.383-0.086-0.668-0.086l-0.402,0.014
		l-0.947,0.039v2.978c0,0.451-0.014,0.789-0.039,1.015l2.48-0.039c0.604-0.008,1.067-0.162,1.389-0.461
		c0.32-0.299,0.48-0.816,0.48-1.555h0.44l-0.078,2.535h-6.698v-0.43H169.809z"/>
	<path d="M177.742,203.025c0.251,0,0.431-0.063,0.539-0.188c0.107-0.126,0.171-0.281,0.188-0.469c0.018-0.186,0.03-0.496,0.039-0.93
		l0.014-2.965c0-0.363,0.018-0.646,0.053-0.845l-0.922,0.052v-0.545c0.511,0,0.861-0.027,1.052-0.084
		c0.19-0.058,0.351-0.146,0.479-0.268h0.377c0.018,0.165,0.035,0.429,0.051,0.793c0.296-0.26,0.631-0.471,1.008-0.631
		c0.376-0.16,0.746-0.24,1.109-0.24c0.752,0,1.303,0.236,1.648,0.709s0.52,1.206,0.52,2.203v2.418c0,0.391-0.018,0.686-0.053,0.884
		l0.818-0.039v0.533h-2.648v-0.39c0.252,0,0.432-0.063,0.539-0.188c0.107-0.126,0.174-0.286,0.194-0.481
		c0.021-0.194,0.032-0.5,0.032-0.916v-1.819c-0.01-0.745-0.131-1.308-0.363-1.685s-0.602-0.564-1.104-0.564
		c-0.313,0-0.621,0.078-0.93,0.234c-0.307,0.154-0.561,0.358-0.759,0.609c0.008,0.096,0.013,0.266,0.013,0.508l-0.013,3.314
		c0,0.391-0.019,0.686-0.054,0.884l0.818-0.039v0.533h-2.647L177.742,203.025L177.742,203.025z"/>
	<path d="M184.168,206.73c-0.173-0.14-0.26-0.313-0.26-0.521c0-0.174,0.055-0.317,0.162-0.437c0.107-0.117,0.248-0.176,0.422-0.176
		c0.182,0,0.318,0.059,0.408,0.176c0.092,0.117,0.138,0.24,0.138,0.371c0,0.053-0.005,0.092-0.015,0.117
		c0.121,0.053,0.234,0.077,0.338,0.077c0.199,0,0.373-0.073,0.521-0.221c0.251-0.243,0.376-0.771,0.376-1.587l0.026-6.059
		c0-0.328,0.013-0.609,0.039-0.845l-0.923,0.052v-0.545c0.521,0,0.891-0.031,1.111-0.092c0.219-0.061,0.391-0.146,0.512-0.26h0.377
		v6.669c0,1.161-0.226,2.032-0.676,2.612c-0.449,0.58-1.047,0.871-1.791,0.871C184.598,206.939,184.341,206.869,184.168,206.73z
		 M186.284,195.271c-0.14-0.151-0.208-0.332-0.208-0.539c0-0.209,0.07-0.392,0.215-0.547c0.143-0.156,0.305-0.233,0.486-0.233
		c0.199,0,0.365,0.075,0.5,0.228c0.134,0.152,0.201,0.336,0.201,0.553c0,0.209-0.071,0.389-0.215,0.539
		c-0.144,0.151-0.31,0.229-0.5,0.229C186.583,195.499,186.423,195.423,186.284,195.271z"/>
	<path d="M190.029,203.201c-0.498-0.281-0.893-0.674-1.182-1.176c-0.291-0.504-0.436-1.07-0.436-1.703
		c0-0.676,0.143-1.289,0.429-1.84c0.285-0.551,0.677-0.983,1.175-1.301c0.498-0.316,1.051-0.475,1.655-0.475
		c0.599,0,1.146,0.146,1.647,0.436c0.502,0.291,0.898,0.688,1.188,1.189s0.435,1.063,0.435,1.678c0,0.658-0.145,1.266-0.435,1.819
		s-0.684,0.991-1.182,1.313c-0.498,0.32-1.05,0.48-1.655,0.48C191.074,203.624,190.527,203.482,190.029,203.201z M193.172,202.324
		c0.299-0.521,0.447-1.166,0.447-1.938c0-0.875-0.162-1.625-0.486-2.25c-0.324-0.623-0.813-0.936-1.461-0.936
		c-0.641,0-1.123,0.265-1.447,0.793c-0.324,0.527-0.486,1.179-0.486,1.949c0,0.556,0.076,1.072,0.228,1.554s0.382,0.868,0.688,1.164
		c0.308,0.295,0.682,0.442,1.123,0.442C192.407,203.104,192.873,202.844,193.172,202.324z"/>
	<path d="M196.348,206.73c-0.183-0.14-0.272-0.334-0.272-0.584c0-0.166,0.054-0.312,0.161-0.437
		c0.107-0.126,0.248-0.188,0.423-0.188c0.173,0,0.301,0.062,0.383,0.183s0.123,0.247,0.123,0.377c0,0.078-0.004,0.14-0.013,0.183
		c0.025,0.018,0.072,0.025,0.143,0.025c0.112,0,0.229-0.044,0.346-0.13c0.115-0.087,0.223-0.214,0.316-0.378
		c0.199-0.329,0.502-1.069,0.909-2.223l-2.025-4.343c-0.362-0.778-0.593-1.378-0.688-1.794l-0.623,0.025v-0.532h2.688v0.39h-0.052
		c-0.407,0.026-0.609,0.2-0.609,0.521c0,0.217,0.104,0.555,0.312,1.014l1.521,3.264c0.26-0.736,0.631-1.824,1.115-3.264
		c0.294-0.857,0.506-1.339,0.637-1.441l-0.896,0.052v-0.533h2.038v0.39c-0.294,0.113-0.521,0.293-0.683,0.541
		c-0.16,0.246-0.334,0.629-0.524,1.149l-1.623,4.537c-0.312,0.875-0.569,1.536-0.772,1.981c-0.203,0.446-0.433,0.795-0.688,1.047
		c-0.256,0.252-0.568,0.377-0.94,0.377C196.762,206.939,196.527,206.869,196.348,206.73z"/>
	<path d="M206.991,201.232l0.026-3.771l-1,0.014v-0.56c0.416-0.009,0.769-0.196,1.059-0.565c0.29-0.367,0.504-0.785,0.643-1.254
		h0.441v1.819h2.181v0.507l-2.181,0.025c-0.01,1.326-0.016,2.244-0.02,2.757c-0.006,0.512-0.008,0.798-0.008,0.858
		c0,0.615,0.073,1.072,0.221,1.371c0.148,0.299,0.402,0.447,0.768,0.447c0.225,0,0.447-0.068,0.668-0.208
		c0.221-0.139,0.413-0.329,0.578-0.571l0.351,0.285c-0.338,0.504-0.671,0.836-1,0.995c-0.329,0.16-0.649,0.24-0.961,0.24
		C207.57,203.624,206.982,202.827,206.991,201.232z"/>
	<path d="M211.211,203.025c0.251,0,0.434-0.063,0.545-0.188c0.112-0.126,0.18-0.288,0.201-0.488
		c0.021-0.199,0.033-0.502,0.033-0.908v-6.149c0-0.329,0.013-0.61,0.039-0.845l-0.922,0.052v-0.546c0.519,0,0.889-0.03,1.108-0.092
		c0.22-0.061,0.392-0.146,0.513-0.26h0.377v3.965c0.304-0.252,0.646-0.457,1.025-0.617c0.381-0.16,0.749-0.24,1.104-0.24
		c0.744,0,1.285,0.234,1.623,0.702s0.512,1.204,0.521,2.21l0.013,2.418c0,0.391-0.018,0.686-0.052,0.884l0.818-0.039v0.533h-2.648
		v-0.39c0.25,0,0.431-0.063,0.538-0.188c0.107-0.126,0.174-0.286,0.195-0.481c0.021-0.194,0.031-0.5,0.031-0.916v-1.819
		c0-0.745-0.116-1.302-0.351-1.671c-0.233-0.368-0.603-0.553-1.104-0.553c-0.319,0-0.639,0.076-0.953,0.229
		c-0.316,0.15-0.569,0.344-0.76,0.578v3.835c0,0.338-0.021,0.633-0.064,0.884l0.816-0.039v0.533h-2.647L211.211,203.025
		L211.211,203.025z"/>
	<path d="M220.645,203.201c-0.48-0.281-0.859-0.686-1.137-1.209s-0.416-1.129-0.416-1.813c0-0.607,0.139-1.177,0.416-1.709
		c0.276-0.533,0.664-0.961,1.162-1.281c0.497-0.32,1.063-0.48,1.693-0.48c0.494,0,0.938,0.107,1.338,0.325
		c0.398,0.217,0.714,0.538,0.947,0.969c0.233,0.429,0.351,0.955,0.351,1.579l-4.569,0.078c-0.009,1.039,0.162,1.852,0.514,2.431
		c0.351,0.581,0.894,0.871,1.629,0.871c0.398,0,0.808-0.104,1.228-0.312c0.419-0.209,0.742-0.465,0.968-0.769l0.312,0.261
		c-0.329,0.502-0.755,0.875-1.278,1.117c-0.523,0.243-1.037,0.364-1.539,0.364C221.663,203.624,221.124,203.482,220.645,203.201z
		 M223.779,199.113c0-0.521-0.117-0.967-0.352-1.34s-0.585-0.56-1.052-0.56c-1.073,0-1.71,0.634-1.908,1.897h3.312V199.113z"/>
	<path d="M229.451,206.341c0.251,0,0.431-0.063,0.539-0.188c0.107-0.125,0.171-0.28,0.188-0.467c0.018-0.188,0.03-0.496,0.039-0.931
		l0.025-6.278c0-0.363,0.018-0.646,0.052-0.846l-0.921,0.053v-0.547c0.51,0,0.859-0.027,1.051-0.084s0.348-0.146,0.469-0.267h0.39
		c0.034,0.425,0.052,0.657,0.052,0.702c0.26-0.234,0.57-0.424,0.936-0.565c0.362-0.144,0.723-0.215,1.078-0.215
		c0.51,0,0.98,0.132,1.414,0.396c0.434,0.266,0.781,0.643,1.045,1.131c0.264,0.49,0.396,1.057,0.396,1.697
		c0,0.719-0.151,1.357-0.454,1.918c-0.304,0.559-0.707,0.994-1.214,1.307c-0.506,0.313-1.055,0.468-1.643,0.468
		c-0.598,0-1.117-0.144-1.559-0.429v2.156c0,0.392-0.018,0.686-0.052,0.885l0.817-0.039v0.533h-2.648V206.341L229.451,206.341z
		 M233.924,202.727c0.299-0.25,0.53-0.602,0.695-1.053c0.164-0.449,0.246-0.962,0.246-1.533c0-0.779-0.167-1.44-0.5-1.982
		c-0.333-0.541-0.828-0.813-1.486-0.813c-0.285,0-0.563,0.068-0.831,0.207c-0.268,0.139-0.502,0.313-0.7,0.521
		c0.008,0.061,0.014,0.324,0.014,0.793l-0.014,3.73c0.44,0.338,0.947,0.508,1.52,0.508
		C233.271,203.104,233.626,202.979,233.924,202.727z"/>
	<path d="M238.896,203.201c-0.498-0.281-0.893-0.674-1.183-1.176c-0.29-0.504-0.435-1.07-0.435-1.703
		c0-0.676,0.143-1.289,0.429-1.84c0.285-0.551,0.677-0.983,1.175-1.301c0.498-0.316,1.051-0.475,1.655-0.475
		c0.599,0,1.146,0.146,1.647,0.436c0.502,0.291,0.898,0.688,1.188,1.189s0.435,1.063,0.435,1.678c0,0.658-0.145,1.266-0.435,1.819
		s-0.685,0.991-1.183,1.313c-0.498,0.32-1.049,0.48-1.654,0.48C239.941,203.624,239.395,203.482,238.896,203.201z M242.039,202.324
		c0.298-0.521,0.447-1.166,0.447-1.938c0-0.875-0.162-1.625-0.486-2.25c-0.325-0.623-0.813-0.936-1.461-0.936
		c-0.641,0-1.123,0.265-1.447,0.793c-0.324,0.527-0.486,1.179-0.486,1.949c0,0.556,0.076,1.072,0.228,1.554s0.381,0.868,0.688,1.164
		c0.308,0.295,0.682,0.442,1.123,0.442C241.273,203.104,241.74,202.844,242.039,202.324z"/>
	<path d="M246.491,203.201c-0.498-0.281-0.892-0.674-1.183-1.176c-0.289-0.504-0.435-1.07-0.435-1.703
		c0-0.676,0.144-1.289,0.429-1.84s0.678-0.983,1.176-1.301c0.498-0.316,1.049-0.475,1.654-0.475c0.598,0,1.146,0.146,1.648,0.436
		c0.502,0.291,0.898,0.688,1.188,1.189c0.29,0.502,0.436,1.063,0.436,1.678c0,0.658-0.146,1.266-0.436,1.819
		c-0.289,0.554-0.684,0.991-1.182,1.313c-0.498,0.32-1.051,0.48-1.655,0.48C247.536,203.624,246.989,203.482,246.491,203.201z
		 M249.634,202.324c0.298-0.521,0.447-1.166,0.447-1.938c0-0.875-0.162-1.625-0.485-2.25c-0.326-0.623-0.813-0.936-1.462-0.936
		c-0.641,0-1.122,0.265-1.446,0.793c-0.326,0.527-0.487,1.179-0.487,1.949c0,0.556,0.075,1.072,0.228,1.554
		c0.151,0.481,0.381,0.868,0.688,1.164c0.308,0.295,0.682,0.442,1.123,0.442C248.869,203.104,249.335,202.844,249.634,202.324z"/>
	<path d="M252.379,203.025c0.251,0,0.432-0.063,0.539-0.188c0.107-0.126,0.173-0.285,0.193-0.48c0.021-0.195,0.033-0.5,0.033-0.916
		v-6.149c0-0.329,0.014-0.61,0.039-0.845l-0.923,0.052v-0.546c0.521,0,0.89-0.03,1.11-0.092c0.22-0.061,0.393-0.146,0.513-0.26
		h0.377l0.013,8.438c0,0.338-0.021,0.633-0.063,0.884l0.817-0.039v0.533h-2.648V203.025L252.379,203.025z"/>
	<path d="M256.65,199.217c-0.348-0.797-0.528-1.398-0.547-1.807l-0.558,0.039v-0.533h2.39v0.391c-0.381,0-0.572,0.16-0.572,0.48
		c0,0.234,0.092,0.555,0.272,0.962l1,2.288c0.112,0.27,0.242,0.59,0.39,0.962h0.014c0.025-0.087,0.061-0.183,0.104-0.286
		l0.195-0.559l1.038-2.848c0.087-0.252,0.217-0.551,0.39-0.896l-0.83,0.039v-0.533h2.051v0.391c-0.182,0-0.338,0.063-0.467,0.188
		c-0.131,0.126-0.25,0.302-0.356,0.527c-0.108,0.225-0.254,0.57-0.437,1.039l-1.699,4.395h-0.521L256.65,199.217z"/>
	<path d="M262.598,203.025c0.25,0,0.43-0.063,0.538-0.188c0.107-0.126,0.173-0.285,0.194-0.48s0.031-0.5,0.031-0.916v-2.965
		c0-0.252,0.019-0.533,0.054-0.846l-0.922,0.053v-0.547c0.51,0,0.876-0.029,1.097-0.091s0.393-0.147,0.514-0.26h0.377v5.252
		c0,0.39-0.019,0.685-0.054,0.884l0.818-0.039v0.533h-2.647V203.025z M263.4,195.271c-0.139-0.151-0.207-0.332-0.207-0.539
		c0-0.209,0.072-0.392,0.215-0.547c0.143-0.156,0.305-0.233,0.486-0.233c0.198,0,0.365,0.075,0.5,0.228
		c0.135,0.151,0.2,0.336,0.2,0.553c0,0.209-0.071,0.389-0.214,0.539c-0.143,0.151-0.311,0.229-0.5,0.229
		C263.7,195.499,263.54,195.423,263.4,195.271z"/>
	<path d="M266.115,203.025c0.251,0,0.431-0.063,0.539-0.188c0.106-0.126,0.173-0.285,0.193-0.48c0.021-0.195,0.032-0.5,0.032-0.916
		v-6.149c0-0.329,0.015-0.61,0.039-0.845l-0.922,0.052v-0.546c0.521,0,0.89-0.03,1.11-0.092c0.22-0.061,0.392-0.146,0.513-0.26
		h0.377l0.013,8.438c0,0.338-0.021,0.633-0.064,0.884l0.818-0.039v0.533h-2.648V203.025z"/>
	<path d="M269.646,203.025c0.25,0,0.431-0.063,0.539-0.188c0.106-0.126,0.172-0.285,0.193-0.48s0.032-0.5,0.032-0.916v-6.149
		c0-0.329,0.014-0.61,0.039-0.845l-0.923,0.052v-0.546c0.521,0,0.891-0.03,1.111-0.092c0.219-0.061,0.391-0.146,0.512-0.26h0.377
		l0.014,8.438c0,0.338-0.021,0.633-0.064,0.884l0.817-0.039v0.533h-2.647V203.025z"/>
	<path d="M273.678,203.195c-0.332-0.286-0.5-0.659-0.5-1.118c0-0.503,0.201-0.929,0.604-1.274s0.909-0.604,1.52-0.773
		c0.611-0.168,1.222-0.248,1.837-0.239v-0.806c0-0.563-0.082-1.004-0.246-1.32c-0.164-0.314-0.516-0.475-1.053-0.475
		c-0.268,0-0.523,0.057-0.766,0.17c-0.242,0.111-0.42,0.281-0.532,0.507c0.112,0.12,0.169,0.286,0.169,0.493
		c0,0.131-0.048,0.254-0.143,0.371c-0.096,0.117-0.234,0.176-0.416,0.176s-0.324-0.059-0.43-0.176
		c-0.104-0.117-0.154-0.271-0.154-0.463c0-0.285,0.109-0.547,0.33-0.785c0.222-0.238,0.527-0.428,0.922-0.565
		c0.395-0.14,0.834-0.208,1.318-0.208c0.728,0,1.264,0.193,1.609,0.578c0.346,0.386,0.516,0.994,0.506,1.826l-0.013,2.926
		c0,0.277-0.019,0.572-0.052,0.884l0.922-0.052v0.546h-1.856c-0.026-0.13-0.057-0.377-0.092-0.741
		c-0.632,0.633-1.312,0.949-2.038,0.949C274.493,203.624,274.011,203.48,273.678,203.195z M276.318,202.693
		c0.27-0.125,0.541-0.317,0.818-0.578c-0.009-0.129-0.013-0.352-0.013-0.662l0.013-1.223c-0.71,0.025-1.342,0.172-1.896,0.437
		s-0.831,0.669-0.831,1.215c0,0.321,0.095,0.568,0.285,0.741c0.189,0.174,0.434,0.26,0.728,0.26
		C275.753,202.883,276.051,202.82,276.318,202.693z"/>
</g>
<g>
	<path d="M55.646,267.648c0-5.039,0-5.969-0.066-7.029c-0.066-1.127-0.331-1.658-1.426-1.891c-0.265-0.066-0.829-0.101-1.293-0.101
		c-0.364,0-0.563-0.063-0.563-0.297s0.231-0.3,0.729-0.3c1.757,0,3.846,0.101,4.509,0.101c1.625,0,2.918-0.101,4.046-0.101
		c6.001,0,7.063,3.218,7.063,4.974c0,2.72-1.559,4.345-3.383,5.804c2.72,0.93,6.035,3.282,6.035,7.162
		c0,3.549-2.752,7.229-8.854,7.229c-0.397,0-1.359-0.066-2.32-0.1c-0.995-0.066-1.989-0.101-2.487-0.101
		c-0.364,0-1.094,0-1.89,0.032c-0.763,0-1.625,0.066-2.288,0.066c-0.431,0-0.663-0.1-0.663-0.332c0-0.164,0.133-0.264,0.53-0.264
		c0.498,0,0.896-0.066,1.194-0.133c0.663-0.133,0.828-0.863,0.961-1.824c0.166-1.393,0.166-4.012,0.166-7.063V267.648z
		 M59.625,268.213c0,0.266,0.1,0.33,0.232,0.363c0.299,0.066,0.796,0.1,1.559,0.1c1.094,0,1.823-0.133,2.388-0.629
		c0.861-0.697,1.359-1.891,1.359-3.516c0-2.221-1.294-5.139-4.146-5.139c-0.464,0-0.762,0-1.094,0.065
		c-0.232,0.065-0.299,0.199-0.299,0.563L59.625,268.213L59.625,268.213z M64.002,270.865c-0.696-0.498-1.459-0.73-2.752-0.797
		c-0.597-0.033-0.929-0.033-1.426-0.033c-0.133,0-0.199,0.066-0.199,0.232v7.858c0,2.188,0.1,2.752,1.161,3.183
		c0.896,0.364,1.657,0.397,2.42,0.397c1.492,0,4.013-0.795,4.013-4.244C67.219,275.408,66.522,272.623,64.002,270.865z"/>
	<path d="M78.688,275.971c-0.166,0-0.199,0.033-0.265,0.199l-1.559,3.813c-0.299,0.697-0.432,1.394-0.432,1.726
		c0,0.498,0.266,0.797,1.161,0.797h0.431c0.365,0,0.432,0.134,0.432,0.298c0,0.231-0.166,0.299-0.465,0.299
		c-0.961,0-2.321-0.101-3.249-0.101c-0.299,0-1.857,0.101-3.382,0.101c-0.365,0-0.531-0.066-0.531-0.299
		c0-0.164,0.1-0.298,0.332-0.298c0.265,0,0.597-0.032,0.862-0.032c1.326-0.199,1.823-1.063,2.42-2.488l7.626-17.605
		c0.332-0.797,0.564-1.127,0.862-1.127c0.432,0,0.563,0.264,0.862,0.895c0.696,1.56,5.57,12.965,7.427,17.242
		c1.128,2.553,1.957,2.918,2.487,3.018c0.431,0.066,0.763,0.101,1.094,0.101c0.266,0,0.398,0.101,0.398,0.298
		c0,0.231-0.166,0.299-1.26,0.299c-1.028,0-3.15,0-5.604-0.066c-0.531-0.033-0.862-0.033-0.862-0.232
		c0-0.164,0.066-0.264,0.364-0.297c0.199-0.033,0.398-0.299,0.266-0.631l-2.255-5.703c-0.066-0.166-0.166-0.199-0.298-0.199h-6.862
		V275.971z M84.922,274.412c0.133,0,0.166-0.066,0.133-0.166l-2.752-7.063c-0.033-0.101-0.066-0.265-0.133-0.265
		c-0.1,0-0.133,0.164-0.165,0.265l-2.818,7.028c-0.066,0.134,0,0.199,0.099,0.199L84.922,274.412L84.922,274.412z"/>
	<path d="M96.956,269.936c0-4.274,0.033-5.072-0.033-5.967c-0.066-0.996-0.331-1.26-1.26-1.525c-0.232-0.065-0.729-0.1-1.127-0.1
		c-0.332,0-0.498-0.1-0.498-0.299s0.199-0.266,0.631-0.266c1.558,0,3.515,0.066,4.376,0.066c0.729,0,2.687-0.066,3.747-0.066
		c0.431,0,0.63,0.066,0.63,0.266c0,0.2-0.166,0.299-0.464,0.299c-0.332,0-0.498,0.033-0.862,0.1
		c-0.763,0.134-0.995,0.529-1.061,1.525c-0.066,0.895-0.066,1.691-0.066,5.967v3.947c0,4.111,0.795,5.703,2.221,6.83
		c1.294,1.027,2.687,1.127,3.681,1.127c1.26,0,2.752-0.365,3.913-1.492c1.624-1.525,1.69-3.979,1.69-6.863v-3.549
		c0-4.274-0.033-5.072-0.066-5.967c-0.065-0.963-0.298-1.26-1.227-1.525c-0.232-0.065-0.729-0.1-1.061-0.1s-0.498-0.1-0.498-0.299
		s0.199-0.266,0.598-0.266c1.491,0,3.448,0.066,3.481,0.066c0.331,0,2.287-0.066,3.415-0.066c0.397,0,0.597,0.066,0.597,0.266
		c0,0.2-0.166,0.299-0.497,0.299c-0.332,0-0.498,0.033-0.862,0.1c-0.796,0.134-0.995,0.529-1.062,1.525
		c-0.033,0.895-0.066,1.691-0.066,5.967v3.019c0,3.149-0.331,6.467-2.785,8.487c-2.056,1.726-4.277,2.023-6.167,2.023
		c-1.525,0-4.542-0.066-6.664-1.924c-1.492-1.293-2.653-3.381-2.653-7.459L96.956,269.936L96.956,269.936z"/>
	<path d="M123.978,262.012c0.066-0.465,0.331-0.729,0.563-0.729c0.299,0,0.497,0.133,0.896,0.895l7.825,15.584l7.825-15.783
		c0.231-0.465,0.497-0.695,0.763-0.695c0.231,0,0.563,0.298,0.663,0.896l2.652,17.342c0.266,1.756,0.53,2.52,1.426,2.785
		c0.829,0.231,1.293,0.266,1.658,0.266c0.265,0,0.464,0.098,0.464,0.264c0,0.232-0.332,0.332-0.763,0.332
		c-0.729,0-4.874-0.1-6.034-0.166c-0.696-0.033-0.862-0.166-0.862-0.332c0-0.131,0.133-0.23,0.331-0.297
		c0.166-0.066,0.232-0.398,0.133-1.193l-1.625-12.17h-0.099l-6.268,12.467c-0.663,1.326-0.828,1.592-1.16,1.592
		c-0.364,0-0.696-0.563-1.16-1.426c-0.696-1.293-3.018-5.604-3.35-6.397c-0.231-0.531-1.956-3.945-2.917-5.901h-0.1l-1.393,10.875
		c-0.066,0.497-0.1,0.862-0.1,1.325c0,0.53,0.397,0.729,0.896,0.83c0.497,0.101,0.762,0.133,1.027,0.133s0.464,0.134,0.464,0.265
		c0,0.266-0.265,0.332-0.696,0.332c-1.227,0-2.553-0.101-3.083-0.101c-0.563,0-1.956,0.101-2.885,0.101
		c-0.299,0-0.53-0.066-0.53-0.332c0-0.131,0.165-0.265,0.464-0.265c0.232,0,0.431,0,0.896-0.065
		c0.796-0.101,1.061-1.228,1.193-2.156L123.978,262.012z"/>
	<path d="M171.157,268.576c0.1,0,0.198-0.066,0.198-0.23v-0.697c0-5.039,0-5.969-0.065-7.028c-0.065-1.127-0.332-1.658-1.427-1.892
		c-0.266-0.065-0.828-0.1-1.293-0.1c-0.364,0-0.563-0.064-0.563-0.297s0.231-0.299,0.696-0.299c1.791,0,3.88,0.1,4.773,0.1
		c0.797,0,2.885-0.1,4.18-0.1c0.464,0,0.695,0.066,0.695,0.299s-0.199,0.297-0.598,0.297c-0.266,0-0.563,0.033-0.961,0.1
		c-0.896,0.166-1.161,0.73-1.227,1.892c-0.066,1.062-0.066,1.989-0.066,7.028v5.836c0,3.052,0,5.67,0.165,7.097
		c0.101,0.929,0.299,1.657,1.294,1.791c0.464,0.065,1.193,0.133,1.689,0.133c0.365,0,0.531,0.101,0.531,0.265
		c0,0.231-0.266,0.332-0.664,0.332c-2.154,0-4.244-0.101-5.172-0.101c-0.763,0-2.852,0.101-4.145,0.101
		c-0.465,0-0.696-0.101-0.696-0.332c0-0.164,0.132-0.265,0.53-0.265c0.496,0,0.896-0.065,1.193-0.133
		c0.662-0.134,0.828-0.863,0.961-1.824c0.166-1.394,0.166-4.012,0.166-7.063v-2.918c0-0.133-0.1-0.198-0.199-0.198h-12.666
		c-0.1,0-0.199,0.032-0.199,0.198v2.918c0,3.052,0,5.67,0.166,7.097c0.1,0.929,0.299,1.657,1.293,1.791
		c0.464,0.065,1.192,0.133,1.69,0.133c0.365,0,0.53,0.101,0.53,0.265c0,0.231-0.266,0.332-0.663,0.332
		c-2.155,0-4.244-0.101-5.173-0.101c-0.763,0-2.852,0.101-4.178,0.101c-0.431,0-0.663-0.101-0.663-0.332
		c0-0.164,0.133-0.265,0.53-0.265c0.498,0,0.896-0.065,1.194-0.133c0.663-0.134,0.828-0.863,0.961-1.824
		c0.166-1.394,0.166-4.012,0.166-7.063v-5.836c0-5.039,0-5.969-0.066-7.028c-0.066-1.127-0.331-1.658-1.426-1.892
		c-0.265-0.065-0.829-0.1-1.293-0.1c-0.364,0-0.563-0.064-0.563-0.297s0.231-0.299,0.696-0.299c1.79,0,3.879,0.1,4.774,0.1
		c0.796,0,2.885-0.1,4.178-0.1c0.464,0,0.697,0.066,0.697,0.299s-0.199,0.297-0.598,0.297c-0.266,0-0.563,0.033-0.962,0.1
		c-0.895,0.166-1.16,0.73-1.227,1.892c-0.066,1.062-0.066,1.989-0.066,7.028v0.697c0,0.164,0.1,0.23,0.199,0.23H171.157z"/>
	<path d="M182.195,272.424c0-4.809,3.382-11.041,12.234-11.041c7.36,0,11.938,4.078,11.938,10.543
		c0,6.467-4.709,11.539-12.235,11.539C185.645,283.465,182.195,277.43,182.195,272.424z M202.023,272.953
		c0-6.232-3.748-10.08-8.455-10.08c-3.25,0-7.063,1.725-7.063,8.688c0,5.803,3.315,10.379,8.819,10.379
		C197.381,281.939,202.023,280.979,202.023,272.953z"/>
	<path d="M211.537,269.936c0-4.274,0.033-5.072-0.033-5.967c-0.066-0.996-0.331-1.26-1.26-1.525c-0.232-0.065-0.729-0.1-1.128-0.1
		c-0.331,0-0.497-0.1-0.497-0.299s0.199-0.266,0.63-0.266c1.56,0,3.515,0.066,4.377,0.066c0.729,0,2.687-0.066,3.747-0.066
		c0.432,0,0.63,0.066,0.63,0.266c0,0.2-0.166,0.299-0.464,0.299c-0.332,0-0.498,0.033-0.862,0.1
		c-0.763,0.134-0.995,0.529-1.062,1.525c-0.066,0.895-0.066,1.691-0.066,5.967v3.947c0,4.111,0.797,5.703,2.223,6.83
		c1.293,1.027,2.686,1.127,3.681,1.127c1.26,0,2.752-0.365,3.912-1.492c1.625-1.525,1.69-3.979,1.69-6.863v-3.549
		c0-4.274-0.033-5.072-0.065-5.967c-0.066-0.963-0.298-1.26-1.228-1.525c-0.232-0.065-0.729-0.1-1.062-0.1
		c-0.331,0-0.497-0.1-0.497-0.299s0.199-0.266,0.597-0.266c1.492,0,3.448,0.066,3.481,0.066c0.332,0,2.287-0.066,3.416-0.066
		c0.396,0,0.597,0.066,0.597,0.266c0,0.2-0.166,0.299-0.498,0.299c-0.331,0-0.497,0.033-0.86,0.1
		c-0.797,0.134-0.996,0.529-1.063,1.525c-0.033,0.895-0.066,1.691-0.066,5.967v3.019c0,3.149-0.33,6.467-2.785,8.487
		c-2.056,1.726-4.276,2.023-6.166,2.023c-1.525,0-4.543-0.066-6.666-1.924c-1.491-1.293-2.651-3.381-2.651-7.459L211.537,269.936
		L211.537,269.936z"/>
	<path d="M236.402,282.734c-0.465-0.197-0.563-0.33-0.563-0.961c0-1.525,0.134-3.283,0.166-3.746c0-0.432,0.134-0.73,0.365-0.73
		c0.265,0,0.298,0.266,0.298,0.465c0,0.365,0.1,0.961,0.266,1.459c0.631,2.088,2.818,2.785,4.643,2.785
		c2.521,0,4.045-1.592,4.045-3.582c0-1.227-0.298-2.453-2.885-3.979l-1.69-0.994c-3.448-2.023-4.575-3.912-4.575-6.398
		c0-3.449,3.315-5.67,7.36-5.67c1.89,0,3.382,0.264,4.146,0.463c0.266,0.066,0.397,0.166,0.397,0.365
		c0,0.365-0.101,1.16-0.101,3.383c0,0.596-0.133,0.895-0.364,0.895c-0.198,0-0.298-0.166-0.298-0.498
		c0-0.266-0.133-1.127-0.764-1.854c-0.432-0.531-1.358-1.326-3.25-1.326c-2.089,0-3.979,1.094-3.979,3.016
		c0,1.26,0.464,2.256,3.084,3.715l1.193,0.662c3.846,2.123,5.039,4.277,5.039,6.83c0,2.09-0.795,3.781-2.918,5.273
		c-1.393,0.993-3.314,1.159-4.873,1.159C239.453,283.465,237.663,283.299,236.402,282.734z"/>
	<path d="M255.234,269.936c0-4.274,0-5.072-0.033-5.967c-0.066-0.963-0.331-1.26-1.26-1.525c-0.232-0.065-0.729-0.1-1.16-0.1
		c-0.299,0-0.498-0.1-0.498-0.299s0.232-0.266,0.662-0.266c1.525,0,3.384,0.066,4.213,0.066c0.928,0,7.394,0.032,7.957,0
		c0.531-0.033,0.994-0.134,1.228-0.166c0.165-0.033,0.331-0.134,0.464-0.134c0.166,0,0.199,0.134,0.199,0.267
		c0,0.199-0.166,0.531-0.232,1.824c-0.032,0.299-0.1,1.524-0.166,1.856c-0.032,0.133-0.1,0.463-0.33,0.463
		c-0.199,0-0.232-0.134-0.232-0.362c0-0.199-0.033-0.697-0.199-1.029c-0.23-0.496-0.464-0.896-1.923-1.027
		c-0.497-0.066-3.979-0.133-4.575-0.133c-0.133,0-0.199,0.1-0.199,0.266v6.963c0,0.166,0.033,0.299,0.199,0.299
		c0.662,0,4.442,0,5.105-0.065c0.695-0.065,1.095-0.166,1.393-0.433c0.232-0.199,0.332-0.365,0.465-0.365s0.231,0.134,0.231,0.3
		s-0.065,0.631-0.231,2.058c-0.065,0.563-0.133,1.69-0.133,1.889c0,0.231-0.033,0.631-0.299,0.631c-0.199,0-0.266-0.1-0.266-0.232
		c-0.032-0.299-0.032-0.662-0.1-1.027c-0.166-0.563-0.531-0.994-1.625-1.094c-0.529-0.066-3.847-0.133-4.576-0.133
		c-0.131,0-0.164,0.133-0.164,0.297v2.256c0,0.961-0.033,3.35,0,4.178c0.065,1.925,0.961,2.354,3.944,2.354
		c0.763,0,1.989-0.032,2.753-0.362c0.729-0.332,1.062-0.931,1.26-2.09c0.065-0.3,0.133-0.433,0.332-0.433
		c0.231,0,0.266,0.364,0.266,0.664c0,0.629-0.232,2.553-0.398,3.116c-0.199,0.729-0.464,0.729-1.559,0.729
		c-2.188,0-3.945-0.032-5.371-0.101c-1.426-0.032-2.52-0.065-3.382-0.065c-0.332,0-0.962,0.033-1.658,0.033
		c-0.696,0.032-1.426,0.065-2.022,0.065c-0.364,0-0.563-0.1-0.563-0.299c0-0.133,0.1-0.297,0.464-0.297
		c0.433,0,0.763-0.033,1.028-0.1c0.597-0.133,0.763-0.664,0.861-1.492c0.133-1.193,0.133-3.416,0.133-6.002v-4.977H255.234z"/>
</g>
<g>
	<polygon style="fill:#0066CC;" points="200.695,89.621 200.695,120.197 119.159,120.197 119.159,89.621 98.775,89.621 
		98.775,140.581 200.695,140.581 221.079,140.581 221.079,89.621 	"/>
	<g>
		<polygon style="fill:#0066CC;" points="107.183,25.24 104.89,25.24 104.89,27.534 104.89,70.085 107.183,70.085 107.183,27.534 
			212.672,27.534 212.672,70.085 214.963,70.085 214.963,27.534 214.963,25.24 212.672,25.24 		"/>
		<polygon style="fill:#0066CC;" points="113.298,31.356 111.004,31.356 111.004,33.65 111.004,70.085 113.298,70.085 
			113.298,33.65 206.557,33.65 206.557,70.085 208.848,70.085 208.848,33.65 208.848,31.356 206.557,31.356 		"/>
		<polygon style="fill:#0066CC;" points="218.785,19.125 101.068,19.125 98.775,19.125 98.775,21.419 98.775,70.085 101.068,70.085 
			101.068,21.419 218.785,21.419 218.785,70.085 221.079,70.085 221.079,21.419 221.079,19.125 		"/>
		<polygon style="fill:#0066CC;" points="200.441,37.471 119.413,37.471 117.123,37.471 117.12,37.471 117.12,70.085 
			119.413,70.085 119.413,39.766 200.441,39.766 200.441,70.085 202.734,70.085 202.734,39.766 202.734,39.766 202.734,37.471 
			202.734,37.471 		"/>
	</g>
</g>
</svg>
