<?xml version="1.0" encoding="utf-8"?>
<!-- Generator: Adobe Illustrator 16.0.0, SVG Export Plug-In . SVG Version: 6.00 Build 0)  -->
<!DOCTYPE svg PUBLIC "-//W3C//DTD SVG 1.1//EN" "http://www.w3.org/Graphics/SVG/1.1/DTD/svg11.dtd">
<svg version="1.1" id="레이어_1" xmlns="http://www.w3.org/2000/svg" xmlns:xlink="http://www.w3.org/1999/xlink" x="0px"
	 y="0px" width="320px" height="300px" viewBox="0 0 320 300" enable-background="new 0 0 320 300" xml:space="preserve">
<g id="레이어_2">
	<g>
		<path fill="#040000" d="M221.479,18"/>
		<path fill="#040000" d="M206.287,32.162"/>
		<polygon fill="#040000" points="98.521,73.61 113.7,73.61 113.7,32.165 206.293,32.165 206.293,73.607 221.479,73.607 221.479,18 
			98.521,18 		"/>
		<polygon fill="#040000" points="221.479,85.345 206.303,85.345 206.303,126.795 113.707,126.795 113.707,85.35 98.521,85.35 
			98.521,140.956 221.479,140.956 		"/>
	</g>
</g>
<g>
	<path d="M4.013,184.987c0.303-0.009,0.52-0.078,0.649-0.208s0.203-0.288,0.221-0.475c0.017-0.187,0.026-0.514,0.026-0.981v-5.46
		c0-0.469,0.013-0.811,0.039-1.027l-0.935,0.052v-0.571c1.264-0.018,2.242-0.026,2.935-0.026c1.021,0,1.807,0.18,2.356,0.539
		c0.55,0.36,0.825,0.904,0.825,1.632c0,0.468-0.184,0.899-0.552,1.294c-0.368,0.395-0.898,0.652-1.59,0.773v0.025
		c0.926,0,1.638,0.213,2.136,0.638c0.498,0.425,0.746,0.983,0.746,1.677c0,0.52-0.132,0.973-0.396,1.358
		c-0.264,0.386-0.627,0.681-1.09,0.884c-0.463,0.204-0.989,0.306-1.578,0.306H4.013V184.987z M9.005,184.408
		c0.402-0.342,0.604-0.829,0.604-1.462c0-0.736-0.206-1.262-0.617-1.573c-0.411-0.313-0.95-0.468-1.616-0.468
		c-0.476,0-0.922,0.013-1.337,0.039v2.938c0,0.451-0.013,0.789-0.039,1.015c0.164,0.017,0.476,0.025,0.935,0.025h0.441
		C8.059,184.922,8.603,184.751,9.005,184.408z M6.986,180.411c0.684-0.009,1.182-0.197,1.493-0.565s0.467-0.821,0.467-1.358
		c0-0.65-0.188-1.101-0.564-1.353c-0.376-0.251-0.833-0.377-1.37-0.377c-0.277,0-0.484,0.039-0.623,0.117s-0.231,0.204-0.279,0.377
		c-0.048,0.174-0.072,0.429-0.072,0.767v2.419L6.986,180.411z"/>
	<path d="M13.471,185.201c-0.48-0.281-0.859-0.685-1.136-1.209c-0.277-0.524-0.416-1.129-0.416-1.813
		c0-0.606,0.138-1.176,0.416-1.709c0.277-0.533,0.664-0.96,1.162-1.28c0.498-0.321,1.063-0.481,1.694-0.481
		c0.494,0,0.939,0.108,1.337,0.325c0.398,0.217,0.714,0.539,0.948,0.969c0.233,0.429,0.351,0.955,0.351,1.579l-4.57,0.078
		c-0.008,1.04,0.163,1.851,0.513,2.431c0.351,0.581,0.894,0.871,1.629,0.871c0.398,0,0.807-0.104,1.227-0.312
		s0.742-0.464,0.967-0.768l0.312,0.26c-0.329,0.503-0.755,0.876-1.279,1.118c-0.523,0.243-1.037,0.364-1.539,0.364
		C14.49,185.624,13.951,185.483,13.471,185.201z M16.606,181.113c0-0.521-0.117-0.967-0.35-1.339
		c-0.234-0.373-0.584-0.56-1.052-0.56c-1.073,0-1.709,0.633-1.909,1.898H16.606z"/>
	<path d="M19.352,185.195c-0.333-0.286-0.5-0.659-0.5-1.118c0-0.503,0.201-0.928,0.604-1.274c0.403-0.347,0.909-0.604,1.519-0.773
		c0.61-0.169,1.223-0.249,1.837-0.24v-0.806c0-0.563-0.083-1.003-0.247-1.32c-0.165-0.315-0.515-0.474-1.052-0.474
		c-0.269,0-0.524,0.056-0.766,0.169c-0.242,0.112-0.42,0.281-0.532,0.507c0.112,0.121,0.169,0.286,0.169,0.494
		c0,0.13-0.048,0.253-0.143,0.37s-0.234,0.176-0.416,0.176s-0.325-0.059-0.428-0.176c-0.104-0.117-0.156-0.271-0.156-0.462
		c0-0.285,0.11-0.548,0.331-0.786s0.528-0.427,0.922-0.565c0.394-0.139,0.833-0.208,1.317-0.208c0.727,0,1.264,0.193,1.61,0.578
		c0.346,0.386,0.515,0.995,0.506,1.827l-0.013,2.925c0,0.277-0.018,0.572-0.052,0.884l0.922-0.052v0.546h-1.856
		c-0.026-0.13-0.056-0.377-0.091-0.741c-0.632,0.633-1.312,0.949-2.039,0.949C20.167,185.624,19.685,185.481,19.352,185.195z
		 M21.994,184.694c0.268-0.125,0.541-0.318,0.818-0.578c-0.009-0.13-0.013-0.352-0.013-0.663l0.013-1.222
		c-0.71,0.025-1.342,0.171-1.896,0.436c-0.554,0.264-0.831,0.669-0.831,1.215c0,0.321,0.095,0.568,0.286,0.741
		c0.19,0.174,0.433,0.26,0.727,0.26C21.427,184.883,21.726,184.82,21.994,184.694z"/>
	<path d="M26.804,184.987c-0.342-0.425-0.513-1.157-0.513-2.197v-2.314c0-0.363,0.017-0.646,0.052-0.845l-0.896,0.039v-0.533h0.403
		c0.337,0,0.593-0.03,0.766-0.091c0.173-0.061,0.32-0.147,0.441-0.26h0.376v3.965c0,0.763,0.106,1.321,0.318,1.677
		c0.212,0.355,0.565,0.533,1.058,0.533c0.32,0,0.634-0.095,0.941-0.286c0.307-0.19,0.556-0.429,0.746-0.715v-3.341
		c0-0.407,0.022-0.736,0.065-0.988l-0.935,0.039v-0.533h0.402c0.338,0,0.593-0.03,0.766-0.091c0.173-0.061,0.32-0.147,0.441-0.26
		h0.376l-0.013,4.914c0,0.503-0.018,0.91-0.052,1.222l0.935-0.052v0.546h-1.857c-0.043-0.269-0.073-0.528-0.091-0.78
		c-0.286,0.286-0.619,0.522-1,0.709s-0.753,0.279-1.117,0.279C27.685,185.624,27.146,185.412,26.804,184.987z"/>
	<path d="M34.107,183.232l0.026-3.771l-1,0.013v-0.559c0.416-0.009,0.768-0.197,1.058-0.565s0.504-0.786,0.643-1.255h0.441v1.82
		h2.181v0.507l-2.181,0.026c-0.009,1.326-0.016,2.244-0.02,2.756c-0.004,0.512-0.007,0.798-0.007,0.858
		c0,0.615,0.074,1.072,0.221,1.371c0.147,0.299,0.403,0.448,0.766,0.448c0.225,0,0.448-0.069,0.669-0.208
		c0.221-0.139,0.413-0.329,0.578-0.572l0.351,0.286c-0.338,0.503-0.671,0.835-1,0.995s-0.649,0.24-0.96,0.24
		C34.687,185.624,34.098,184.827,34.107,183.232z"/>
	<path d="M38.456,185.026c0.251,0,0.431-0.063,0.539-0.188c0.108-0.126,0.173-0.286,0.195-0.481s0.033-0.5,0.033-0.916v-2.965
		c0-0.251,0.017-0.532,0.052-0.845l-0.922,0.052v-0.546c0.511,0,0.876-0.03,1.097-0.091s0.392-0.147,0.513-0.26h0.376v5.252
		c0,0.39-0.017,0.685-0.052,0.884l0.818-0.039v0.533h-2.648V185.026z M39.261,177.271c-0.138-0.151-0.208-0.331-0.208-0.539
		s0.071-0.391,0.214-0.547c0.143-0.155,0.305-0.233,0.487-0.233c0.199,0,0.365,0.076,0.5,0.228c0.134,0.151,0.201,0.336,0.201,0.553
		c0,0.208-0.072,0.388-0.214,0.539c-0.143,0.151-0.31,0.228-0.5,0.228C39.56,177.499,39.399,177.423,39.261,177.271z"/>
	<path d="M42.169,185.026c0.251,0,0.43-0.063,0.539-0.188c0.108-0.126,0.173-0.286,0.195-0.481s0.033-0.5,0.033-0.916l-0.013-3.966
		l-1.064,0.026v-0.585h1.064v-0.273c0-1.005,0.184-1.774,0.552-2.307c0.368-0.533,0.963-0.8,1.785-0.8
		c0.329,0,0.643,0.082,0.941,0.247c0.298,0.164,0.448,0.402,0.448,0.715c0,0.174-0.05,0.314-0.149,0.423s-0.236,0.162-0.409,0.162
		c-0.173,0-0.305-0.059-0.396-0.176s-0.136-0.235-0.136-0.357c0-0.121,0.021-0.229,0.065-0.325
		c-0.061-0.069-0.143-0.123-0.247-0.162c-0.104-0.039-0.208-0.059-0.312-0.059c-0.372,0-0.636,0.149-0.792,0.448
		c-0.156,0.3-0.233,0.666-0.233,1.099v1.365h1.752v0.507l-1.752,0.039l0.013,4.576c0,0.39-0.017,0.685-0.052,0.884l0.818-0.039
		v0.533h-2.648V185.026z"/>
	<path d="M47.615,184.987c-0.342-0.425-0.513-1.157-0.513-2.197v-2.314c0-0.363,0.017-0.646,0.052-0.845l-0.896,0.039v-0.533h0.403
		c0.337,0,0.593-0.03,0.766-0.091c0.173-0.061,0.32-0.147,0.441-0.26h0.376v3.965c0,0.763,0.106,1.321,0.318,1.677
		c0.212,0.355,0.565,0.533,1.058,0.533c0.32,0,0.634-0.095,0.941-0.286c0.307-0.19,0.556-0.429,0.746-0.715v-3.341
		c0-0.407,0.022-0.736,0.065-0.988l-0.935,0.039v-0.533h0.402c0.338,0,0.593-0.03,0.766-0.091c0.173-0.061,0.32-0.147,0.441-0.26
		h0.376l-0.013,4.914c0,0.503-0.018,0.91-0.052,1.222l0.935-0.052v0.546h-1.857c-0.043-0.269-0.073-0.528-0.091-0.78
		c-0.286,0.286-0.619,0.522-1,0.709s-0.753,0.279-1.117,0.279C48.496,185.624,47.957,185.412,47.615,184.987z"/>
	<path d="M54.113,185.026c0.251,0,0.431-0.063,0.539-0.188c0.108-0.126,0.173-0.286,0.195-0.481s0.033-0.5,0.033-0.916v-6.149
		c0-0.329,0.013-0.611,0.039-0.845l-0.922,0.052v-0.546c0.519,0,0.889-0.03,1.11-0.091s0.392-0.147,0.513-0.261h0.376l0.013,8.438
		c0,0.338-0.021,0.633-0.065,0.884l0.818-0.039v0.533h-2.648V185.026z"/>
	<path d="M62.733,185.462c-0.337-0.108-0.627-0.245-0.87-0.41l0.052,0.455H61.37l-0.078-2.235h0.402
		c0.017,0.355,0.115,0.671,0.292,0.948s0.411,0.496,0.701,0.657c0.29,0.16,0.599,0.24,0.928,0.24c0.372,0,0.703-0.089,0.993-0.267
		s0.435-0.431,0.435-0.761c0-0.242-0.071-0.446-0.214-0.61c-0.143-0.165-0.32-0.302-0.532-0.41
		c-0.212-0.108-0.509-0.236-0.889-0.384c-0.459-0.173-0.827-0.335-1.104-0.487c-0.277-0.151-0.515-0.357-0.714-0.617
		s-0.298-0.589-0.298-0.988c0-0.286,0.069-0.571,0.208-0.857c0.138-0.286,0.372-0.529,0.701-0.729
		c0.329-0.199,0.766-0.299,1.311-0.299c0.269,0,0.543,0.044,0.825,0.13c0.281,0.087,0.543,0.229,0.785,0.429l-0.026-0.493h0.545
		v2.274h-0.416c-0.026-0.502-0.18-0.938-0.461-1.307c-0.281-0.368-0.677-0.552-1.188-0.552c-0.389,0-0.699,0.097-0.928,0.292
		s-0.344,0.427-0.344,0.695c0,0.252,0.076,0.464,0.227,0.638c0.151,0.173,0.339,0.32,0.565,0.441
		c0.225,0.122,0.528,0.256,0.909,0.403c0.45,0.182,0.813,0.351,1.09,0.507s0.513,0.362,0.708,0.617
		c0.195,0.256,0.292,0.565,0.292,0.93c0,0.416-0.106,0.768-0.318,1.053c-0.212,0.286-0.489,0.501-0.831,0.644
		c-0.342,0.144-0.708,0.215-1.097,0.215C63.443,185.624,63.071,185.569,62.733,185.462z"/>
	<path d="M68.725,185.201c-0.48-0.281-0.859-0.685-1.136-1.209c-0.277-0.524-0.416-1.129-0.416-1.813
		c0-0.606,0.138-1.176,0.416-1.709c0.277-0.533,0.664-0.96,1.162-1.28c0.498-0.321,1.063-0.481,1.694-0.481
		c0.494,0,0.939,0.108,1.337,0.325c0.398,0.217,0.714,0.539,0.948,0.969c0.233,0.429,0.351,0.955,0.351,1.579l-4.57,0.078
		c-0.008,1.04,0.163,1.851,0.513,2.431c0.351,0.581,0.894,0.871,1.629,0.871c0.398,0,0.807-0.104,1.227-0.312
		s0.742-0.464,0.967-0.768l0.312,0.26c-0.329,0.503-0.755,0.876-1.279,1.118c-0.523,0.243-1.037,0.364-1.539,0.364
		C69.744,185.624,69.206,185.483,68.725,185.201z M71.86,181.113c0-0.521-0.117-0.967-0.35-1.339
		c-0.234-0.373-0.584-0.56-1.052-0.56c-1.073,0-1.709,0.633-1.909,1.898H71.86z"/>
	<path d="M74.606,185.195c-0.333-0.286-0.5-0.659-0.5-1.118c0-0.503,0.201-0.928,0.604-1.274c0.403-0.347,0.909-0.604,1.519-0.773
		c0.61-0.169,1.223-0.249,1.837-0.24v-0.806c0-0.563-0.083-1.003-0.247-1.32c-0.165-0.315-0.515-0.474-1.052-0.474
		c-0.269,0-0.524,0.056-0.766,0.169c-0.242,0.112-0.42,0.281-0.532,0.507c0.112,0.121,0.169,0.286,0.169,0.494
		c0,0.13-0.048,0.253-0.143,0.37s-0.234,0.176-0.416,0.176s-0.325-0.059-0.428-0.176c-0.104-0.117-0.156-0.271-0.156-0.462
		c0-0.285,0.11-0.548,0.331-0.786s0.528-0.427,0.922-0.565c0.394-0.139,0.833-0.208,1.317-0.208c0.727,0,1.264,0.193,1.61,0.578
		c0.346,0.386,0.515,0.995,0.506,1.827l-0.013,2.925c0,0.277-0.018,0.572-0.052,0.884l0.922-0.052v0.546h-1.856
		c-0.026-0.13-0.056-0.377-0.091-0.741c-0.632,0.633-1.312,0.949-2.039,0.949C75.422,185.624,74.939,185.481,74.606,185.195z
		 M77.249,184.694c0.268-0.125,0.541-0.318,0.818-0.578c-0.009-0.13-0.013-0.352-0.013-0.663l0.013-1.222
		c-0.71,0.025-1.342,0.171-1.896,0.436c-0.554,0.264-0.831,0.669-0.831,1.215c0,0.321,0.095,0.568,0.286,0.741
		c0.19,0.174,0.433,0.26,0.727,0.26C76.681,184.883,76.98,184.82,77.249,184.694z"/>
	<path d="M81.546,187.483c0.147-0.191,0.286-0.46,0.415-0.807c0.13-0.347,0.195-0.688,0.195-1.026c0-0.104-0.004-0.183-0.013-0.234
		c-0.113,0.052-0.221,0.078-0.325,0.078c-0.173,0-0.316-0.061-0.428-0.182c-0.113-0.122-0.169-0.273-0.169-0.455
		c0-0.234,0.069-0.418,0.208-0.553c0.139-0.135,0.307-0.202,0.506-0.202c0.286,0,0.511,0.111,0.675,0.332
		c0.164,0.221,0.247,0.505,0.247,0.852c0,0.355-0.093,0.784-0.279,1.287c-0.186,0.502-0.413,0.893-0.681,1.17L81.546,187.483z"/>
	<path d="M87.777,184.987c0.303-0.009,0.52-0.078,0.649-0.208s0.203-0.284,0.221-0.462c0.017-0.178,0.026-0.487,0.026-0.93v-5.615
		c0-0.364,0.013-0.677,0.039-0.937l-0.935,0.052v-0.571h6.024l0.065,2.274h-0.429c0-0.71-0.16-1.196-0.48-1.456
		s-0.757-0.381-1.311-0.363l-0.948,0.025c-0.303,0.009-0.517,0.078-0.643,0.208s-0.199,0.288-0.221,0.475
		c-0.022,0.187-0.033,0.492-0.033,0.917v2.235l2.259,0.013l-0.091-1.131h0.571v2.743h-0.416c0-0.329-0.037-0.576-0.11-0.741
		c-0.074-0.164-0.188-0.277-0.344-0.338s-0.372-0.091-0.649-0.091c-0.19,0-0.338,0.005-0.441,0.013l-0.779,0.039v2.73
		c0,0.459-0.013,0.802-0.039,1.027l1.324-0.053v0.572h-3.311V184.987z"/>
	<path d="M96.274,185.201c-0.48-0.281-0.859-0.685-1.136-1.209c-0.277-0.524-0.416-1.129-0.416-1.813
		c0-0.606,0.138-1.176,0.416-1.709c0.277-0.533,0.664-0.96,1.162-1.28c0.498-0.321,1.063-0.481,1.694-0.481
		c0.494,0,0.939,0.108,1.337,0.325c0.398,0.217,0.714,0.539,0.948,0.969c0.233,0.429,0.351,0.955,0.351,1.579l-4.57,0.078
		c-0.008,1.04,0.163,1.851,0.513,2.431c0.351,0.581,0.894,0.871,1.629,0.871c0.398,0,0.807-0.104,1.227-0.312
		s0.742-0.464,0.967-0.768l0.312,0.26c-0.329,0.503-0.755,0.876-1.279,1.118c-0.523,0.243-1.037,0.364-1.539,0.364
		C97.293,185.624,96.755,185.483,96.274,185.201z M99.41,181.113c0-0.521-0.117-0.967-0.35-1.339
		c-0.234-0.373-0.584-0.56-1.052-0.56c-1.073,0-1.709,0.633-1.909,1.898H99.41z"/>
	<path d="M102.156,185.195c-0.333-0.286-0.5-0.659-0.5-1.118c0-0.503,0.201-0.928,0.604-1.274c0.403-0.347,0.909-0.604,1.519-0.773
		c0.61-0.169,1.223-0.249,1.837-0.24v-0.806c0-0.563-0.083-1.003-0.247-1.32c-0.165-0.315-0.515-0.474-1.052-0.474
		c-0.269,0-0.524,0.056-0.766,0.169c-0.242,0.112-0.42,0.281-0.532,0.507c0.112,0.121,0.169,0.286,0.169,0.494
		c0,0.13-0.048,0.253-0.143,0.37s-0.234,0.176-0.416,0.176s-0.325-0.059-0.428-0.176c-0.104-0.117-0.156-0.271-0.156-0.462
		c0-0.285,0.11-0.548,0.331-0.786s0.528-0.427,0.922-0.565c0.394-0.139,0.833-0.208,1.317-0.208c0.727,0,1.264,0.193,1.61,0.578
		c0.346,0.386,0.515,0.995,0.506,1.827l-0.013,2.925c0,0.277-0.018,0.572-0.052,0.884l0.922-0.052v0.546h-1.856
		c-0.026-0.13-0.056-0.377-0.091-0.741c-0.632,0.633-1.312,0.949-2.039,0.949C102.971,185.624,102.489,185.481,102.156,185.195z
		 M104.798,184.694c0.268-0.125,0.541-0.318,0.818-0.578c-0.009-0.13-0.013-0.352-0.013-0.663l0.013-1.222
		c-0.71,0.025-1.342,0.171-1.896,0.436c-0.554,0.264-0.831,0.669-0.831,1.215c0,0.321,0.095,0.568,0.286,0.741
		c0.19,0.174,0.433,0.26,0.727,0.26C104.23,184.883,104.529,184.82,104.798,184.694z"/>
	<path d="M110.029,185.462c-0.337-0.108-0.627-0.245-0.87-0.41l0.052,0.455h-0.545l-0.078-2.235h0.402
		c0.017,0.355,0.115,0.671,0.292,0.948s0.411,0.496,0.701,0.657c0.29,0.16,0.599,0.24,0.928,0.24c0.372,0,0.703-0.089,0.993-0.267
		s0.435-0.431,0.435-0.761c0-0.242-0.071-0.446-0.214-0.61c-0.143-0.165-0.32-0.302-0.532-0.41
		c-0.212-0.108-0.509-0.236-0.889-0.384c-0.459-0.173-0.827-0.335-1.104-0.487c-0.277-0.151-0.515-0.357-0.714-0.617
		s-0.298-0.589-0.298-0.988c0-0.286,0.069-0.571,0.208-0.857c0.138-0.286,0.372-0.529,0.701-0.729
		c0.329-0.199,0.766-0.299,1.311-0.299c0.269,0,0.543,0.044,0.825,0.13c0.281,0.087,0.543,0.229,0.785,0.429l-0.026-0.493h0.545
		v2.274h-0.416c-0.026-0.502-0.18-0.938-0.461-1.307c-0.281-0.368-0.677-0.552-1.188-0.552c-0.389,0-0.699,0.097-0.928,0.292
		s-0.344,0.427-0.344,0.695c0,0.252,0.076,0.464,0.227,0.638c0.151,0.173,0.339,0.32,0.565,0.441
		c0.225,0.122,0.528,0.256,0.909,0.403c0.45,0.182,0.813,0.351,1.09,0.507s0.513,0.362,0.708,0.617
		c0.195,0.256,0.292,0.565,0.292,0.93c0,0.416-0.106,0.768-0.318,1.053c-0.212,0.286-0.489,0.501-0.831,0.644
		c-0.342,0.144-0.708,0.215-1.097,0.215C110.739,185.624,110.367,185.569,110.029,185.462z"/>
	<path d="M115.171,183.232l0.026-3.771l-1,0.013v-0.559c0.416-0.009,0.768-0.197,1.058-0.565s0.504-0.786,0.643-1.255h0.441v1.82
		h2.181v0.507l-2.181,0.026c-0.009,1.326-0.016,2.244-0.02,2.756c-0.004,0.512-0.007,0.798-0.007,0.858
		c0,0.615,0.074,1.072,0.221,1.371c0.147,0.299,0.403,0.448,0.766,0.448c0.225,0,0.448-0.069,0.669-0.208
		c0.221-0.139,0.413-0.329,0.578-0.572l0.351,0.286c-0.338,0.503-0.671,0.835-1,0.995s-0.649,0.24-0.96,0.24
		C115.75,185.624,115.162,184.827,115.171,183.232z"/>
	<path d="M124.511,185.201c-0.498-0.281-0.891-0.674-1.181-1.176c-0.29-0.503-0.435-1.07-0.435-1.703
		c0-0.676,0.143-1.289,0.429-1.84c0.286-0.55,0.677-0.983,1.175-1.3c0.498-0.316,1.049-0.475,1.655-0.475
		c0.597,0,1.147,0.146,1.649,0.436s0.898,0.687,1.188,1.189c0.29,0.503,0.435,1.062,0.435,1.677c0,0.659-0.145,1.266-0.435,1.82
		c-0.29,0.555-0.684,0.992-1.182,1.313c-0.498,0.321-1.049,0.481-1.655,0.481C125.557,185.624,125.009,185.483,124.511,185.201z
		 M127.653,184.324c0.299-0.521,0.448-1.166,0.448-1.938c0-0.875-0.162-1.625-0.487-2.249c-0.324-0.624-0.812-0.936-1.46-0.936
		c-0.641,0-1.123,0.265-1.448,0.793c-0.324,0.528-0.487,1.179-0.487,1.95c0,0.555,0.076,1.072,0.228,1.553
		c0.151,0.481,0.38,0.869,0.688,1.164c0.307,0.295,0.682,0.442,1.123,0.442C126.889,185.104,127.355,184.844,127.653,184.324z"/>
	<path d="M130.594,185.026c0.251,0,0.43-0.063,0.539-0.188c0.108-0.126,0.173-0.286,0.195-0.481s0.033-0.5,0.033-0.916l-0.013-3.966
		l-1.064,0.026v-0.585h1.064v-0.273c0-1.005,0.184-1.774,0.552-2.307c0.368-0.533,0.963-0.8,1.785-0.8
		c0.329,0,0.643,0.082,0.941,0.247c0.298,0.164,0.448,0.402,0.448,0.715c0,0.174-0.05,0.314-0.149,0.423s-0.236,0.162-0.409,0.162
		c-0.173,0-0.305-0.059-0.396-0.176s-0.136-0.235-0.136-0.357c0-0.121,0.021-0.229,0.065-0.325
		c-0.061-0.069-0.143-0.123-0.247-0.162c-0.104-0.039-0.208-0.059-0.312-0.059c-0.372,0-0.636,0.149-0.792,0.448
		c-0.156,0.3-0.233,0.666-0.233,1.099v1.365h1.752v0.507l-1.752,0.039l0.013,4.576c0,0.39-0.017,0.685-0.052,0.884l0.818-0.039
		v0.533h-2.648V185.026z"/>
	<path d="M138.332,185.026c0.251,0,0.431-0.063,0.539-0.188c0.108-0.126,0.173-0.286,0.195-0.481s0.033-0.5,0.033-0.916v-2.965
		c0-0.251,0.017-0.532,0.052-0.845l-0.922,0.052v-0.546c0.511,0,0.876-0.03,1.097-0.091s0.392-0.147,0.513-0.26h0.376v5.252
		c0,0.39-0.017,0.685-0.052,0.884l0.818-0.039v0.533h-2.648V185.026z M139.136,177.271c-0.138-0.151-0.208-0.331-0.208-0.539
		s0.071-0.391,0.214-0.547c0.143-0.155,0.305-0.233,0.487-0.233c0.199,0,0.365,0.076,0.5,0.228c0.134,0.151,0.201,0.336,0.201,0.553
		c0,0.208-0.072,0.388-0.214,0.539c-0.143,0.151-0.31,0.228-0.5,0.228C139.435,177.499,139.275,177.423,139.136,177.271z"/>
	<path d="M143.525,185.462c-0.337-0.108-0.627-0.245-0.87-0.41l0.052,0.455h-0.545l-0.078-2.235h0.402
		c0.017,0.355,0.115,0.671,0.292,0.948s0.411,0.496,0.701,0.657c0.29,0.16,0.599,0.24,0.928,0.24c0.372,0,0.703-0.089,0.993-0.267
		s0.435-0.431,0.435-0.761c0-0.242-0.071-0.446-0.214-0.61c-0.143-0.165-0.32-0.302-0.532-0.41
		c-0.212-0.108-0.509-0.236-0.889-0.384c-0.459-0.173-0.827-0.335-1.104-0.487c-0.277-0.151-0.515-0.357-0.714-0.617
		s-0.298-0.589-0.298-0.988c0-0.286,0.069-0.571,0.208-0.857c0.138-0.286,0.372-0.529,0.701-0.729
		c0.329-0.199,0.766-0.299,1.311-0.299c0.269,0,0.543,0.044,0.825,0.13c0.281,0.087,0.543,0.229,0.785,0.429l-0.026-0.493h0.545
		v2.274h-0.416c-0.026-0.502-0.18-0.938-0.461-1.307c-0.281-0.368-0.677-0.552-1.188-0.552c-0.389,0-0.699,0.097-0.928,0.292
		s-0.344,0.427-0.344,0.695c0,0.252,0.076,0.464,0.227,0.638c0.151,0.173,0.339,0.32,0.565,0.441
		c0.225,0.122,0.528,0.256,0.909,0.403c0.45,0.182,0.813,0.351,1.09,0.507s0.513,0.362,0.708,0.617
		c0.195,0.256,0.292,0.565,0.292,0.93c0,0.416-0.106,0.768-0.318,1.053c-0.212,0.286-0.489,0.501-0.831,0.644
		c-0.342,0.144-0.708,0.215-1.097,0.215C144.234,185.624,143.862,185.569,143.525,185.462z"/>
	<path d="M147.861,185.026c0.251,0,0.431-0.063,0.539-0.188c0.108-0.126,0.173-0.286,0.195-0.481s0.033-0.5,0.033-0.916v-6.149
		c0-0.329,0.013-0.611,0.039-0.845l-0.922,0.052v-0.546c0.519,0,0.889-0.03,1.11-0.091s0.392-0.147,0.513-0.261h0.376l0.013,8.438
		c0,0.338-0.021,0.633-0.065,0.884l0.818-0.039v0.533h-2.648V185.026z"/>
	<path d="M151.892,185.195c-0.333-0.286-0.5-0.659-0.5-1.118c0-0.503,0.201-0.928,0.604-1.274c0.403-0.347,0.909-0.604,1.519-0.773
		c0.61-0.169,1.223-0.249,1.837-0.24v-0.806c0-0.563-0.083-1.003-0.247-1.32c-0.165-0.315-0.515-0.474-1.052-0.474
		c-0.269,0-0.524,0.056-0.766,0.169c-0.242,0.112-0.42,0.281-0.532,0.507c0.112,0.121,0.169,0.286,0.169,0.494
		c0,0.13-0.048,0.253-0.143,0.37s-0.234,0.176-0.416,0.176s-0.325-0.059-0.428-0.176c-0.104-0.117-0.156-0.271-0.156-0.462
		c0-0.285,0.11-0.548,0.331-0.786s0.528-0.427,0.922-0.565c0.394-0.139,0.833-0.208,1.317-0.208c0.727,0,1.264,0.193,1.61,0.578
		c0.346,0.386,0.515,0.995,0.506,1.827l-0.013,2.925c0,0.277-0.018,0.572-0.052,0.884l0.922-0.052v0.546h-1.856
		c-0.026-0.13-0.056-0.377-0.091-0.741c-0.632,0.633-1.312,0.949-2.039,0.949C152.708,185.624,152.225,185.481,151.892,185.195z
		 M154.534,184.694c0.268-0.125,0.541-0.318,0.818-0.578c-0.009-0.13-0.013-0.352-0.013-0.663l0.013-1.222
		c-0.71,0.025-1.342,0.171-1.896,0.436c-0.554,0.264-0.831,0.669-0.831,1.215c0,0.321,0.095,0.568,0.286,0.741
		c0.19,0.174,0.433,0.26,0.727,0.26C153.967,184.883,154.266,184.82,154.534,184.694z"/>
	<path d="M158.221,185.026c0.251,0,0.431-0.063,0.539-0.188c0.108-0.126,0.171-0.282,0.188-0.469
		c0.017-0.186,0.03-0.496,0.039-0.929l0.013-2.965c0-0.363,0.018-0.646,0.052-0.845l-0.922,0.052v-0.546
		c0.51,0,0.861-0.027,1.052-0.084c0.19-0.057,0.35-0.146,0.48-0.267h0.377c0.018,0.165,0.035,0.429,0.051,0.793
		c0.295-0.26,0.631-0.47,1.008-0.631c0.375-0.16,0.746-0.24,1.109-0.24c0.752,0,1.303,0.236,1.648,0.709
		c0.346,0.472,0.52,1.206,0.52,2.203v2.418c0,0.39-0.018,0.685-0.053,0.884l0.818-0.039v0.533h-2.648v-0.39
		c0.252,0,0.432-0.063,0.539-0.188c0.107-0.126,0.174-0.286,0.195-0.481s0.031-0.5,0.031-0.916v-1.82
		c-0.008-0.745-0.129-1.307-0.363-1.684c-0.232-0.377-0.602-0.565-1.104-0.565c-0.311,0-0.621,0.078-0.928,0.234
		c-0.307,0.155-0.561,0.359-0.76,0.61c0.008,0.096,0.014,0.265,0.014,0.507l-0.014,3.315c0,0.39-0.018,0.685-0.053,0.884
		l0.818-0.039v0.533h-2.648V185.026z"/>
	<path d="M167.438,185.221c-0.424-0.269-0.757-0.649-0.999-1.144c-0.243-0.494-0.364-1.07-0.364-1.729
		c0-0.693,0.144-1.317,0.429-1.872c0.286-0.554,0.682-0.987,1.188-1.3c0.506-0.312,1.079-0.468,1.72-0.468
		c0.269,0,0.543,0.037,0.824,0.11c0.281,0.074,0.513,0.158,0.695,0.254v-1.781c0-0.329,0.013-0.611,0.038-0.845l-0.921,0.052v-0.546
		c0.51,0,0.876-0.03,1.097-0.091s0.392-0.147,0.513-0.261h0.377v8.438c0,0.277-0.018,0.572-0.053,0.884l0.922-0.052v0.546h-1.856
		c-0.043-0.234-0.073-0.459-0.091-0.676c-0.251,0.277-0.556,0.494-0.915,0.649c-0.359,0.156-0.747,0.234-1.162,0.234
		C168.343,185.624,167.862,185.489,167.438,185.221z M170.197,184.746c0.29-0.16,0.535-0.365,0.734-0.617
		c-0.009-0.139-0.014-0.377-0.014-0.715l0.014-3.744c-0.407-0.303-0.888-0.455-1.441-0.455c-0.623,0-1.125,0.258-1.506,0.773
		s-0.571,1.198-0.571,2.048c0,0.884,0.169,1.597,0.506,2.139c0.338,0.541,0.813,0.813,1.429,0.813
		C169.624,184.987,169.907,184.907,170.197,184.746z"/>
	<path d="M175.41,185.462c-0.338-0.108-0.628-0.245-0.87-0.41l0.052,0.455h-0.545l-0.078-2.235h0.402
		c0.018,0.355,0.115,0.671,0.293,0.948c0.177,0.277,0.41,0.496,0.7,0.657c0.29,0.16,0.6,0.24,0.929,0.24
		c0.372,0,0.703-0.089,0.993-0.267s0.435-0.431,0.435-0.761c0-0.242-0.071-0.446-0.214-0.61c-0.143-0.165-0.32-0.302-0.532-0.41
		s-0.509-0.236-0.89-0.384c-0.459-0.173-0.826-0.335-1.104-0.487c-0.276-0.151-0.515-0.357-0.714-0.617s-0.299-0.589-0.299-0.988
		c0-0.286,0.069-0.571,0.208-0.857s0.372-0.529,0.701-0.729s0.766-0.299,1.312-0.299c0.268,0,0.543,0.044,0.824,0.13
		c0.281,0.087,0.543,0.229,0.785,0.429l-0.025-0.493h0.545v2.274h-0.415c-0.026-0.502-0.18-0.938-0.461-1.307
		c-0.282-0.368-0.678-0.552-1.188-0.552c-0.39,0-0.699,0.097-0.928,0.292c-0.229,0.195-0.345,0.427-0.345,0.695
		c0,0.252,0.076,0.464,0.228,0.638c0.151,0.173,0.34,0.32,0.564,0.441c0.226,0.122,0.528,0.256,0.909,0.403
		c0.45,0.182,0.813,0.351,1.091,0.507c0.276,0.156,0.513,0.362,0.707,0.617c0.195,0.256,0.292,0.565,0.292,0.93
		c0,0.416-0.105,0.768-0.317,1.053c-0.213,0.286-0.489,0.501-0.831,0.644c-0.342,0.144-0.708,0.215-1.098,0.215
		C176.12,185.624,175.748,185.569,175.41,185.462z"/>
	<path d="M183.161,185.026c0.251,0,0.431-0.063,0.539-0.188c0.107-0.126,0.173-0.286,0.194-0.481s0.032-0.5,0.032-0.916v-6.149
		c0-0.329,0.014-0.611,0.039-0.845l-0.922,0.052v-0.546c0.52,0,0.89-0.03,1.11-0.091s0.392-0.147,0.513-0.261h0.377l0.013,8.438
		c0,0.338-0.021,0.633-0.064,0.884l0.817-0.039v0.533h-2.648V185.026z"/>
	<path d="M186.822,185.026c0.251,0,0.431-0.063,0.539-0.188c0.107-0.126,0.173-0.286,0.194-0.481s0.032-0.5,0.032-0.916v-2.965
		c0-0.251,0.018-0.532,0.053-0.845l-0.922,0.052v-0.546c0.51,0,0.876-0.03,1.097-0.091s0.392-0.147,0.513-0.26h0.377v5.252
		c0,0.39-0.018,0.685-0.053,0.884l0.818-0.039v0.533h-2.648V185.026z M187.627,177.271c-0.139-0.151-0.207-0.331-0.207-0.539
		s0.071-0.391,0.214-0.547c0.143-0.155,0.305-0.233,0.486-0.233c0.199,0,0.366,0.076,0.5,0.228c0.135,0.151,0.201,0.336,0.201,0.553
		c0,0.208-0.071,0.388-0.214,0.539s-0.31,0.228-0.5,0.228C187.926,177.499,187.766,177.423,187.627,177.271z"/>
	<path d="M190.353,185.026c0.251,0,0.431-0.063,0.539-0.188c0.108-0.126,0.171-0.284,0.188-0.475
		c0.017-0.19,0.025-0.498,0.025-0.923c0-0.087,0.002-0.56,0.007-1.417c0.004-0.858,0.007-2.436,0.007-4.732
		c0-0.329,0.013-0.611,0.039-0.845l-0.922,0.052v-0.546c0.511,0,0.876-0.03,1.097-0.091s0.392-0.147,0.513-0.261h0.377v6.149h0.52
		l1.583-1.664c0.329-0.347,0.585-0.576,0.767-0.688l-0.883,0.038v-0.52h2.362v0.39c-0.381,0.044-0.727,0.183-1.038,0.416
		c-0.312,0.234-0.658,0.551-1.039,0.949l-1.013,1.066c0.156,0.069,0.292,0.158,0.409,0.267s0.249,0.253,0.396,0.436l0.921,1.183
		c0.018,0.018,0.115,0.149,0.293,0.396c0.177,0.247,0.389,0.477,0.636,0.688c0.247,0.213,0.461,0.319,0.643,0.319v0.39h-1.182
		c-0.207,0-0.402-0.091-0.584-0.273c-0.182-0.182-0.446-0.498-0.792-0.948l-0.506-0.715c-0.19-0.269-0.37-0.519-0.539-0.748
		s-0.31-0.396-0.422-0.5l-0.532,0.025v1.781c0,0.39-0.018,0.685-0.052,0.884l0.83-0.039v0.533h-2.648V185.026z"/>
	<path d="M198.967,185.201c-0.48-0.281-0.859-0.685-1.136-1.209c-0.277-0.524-0.416-1.129-0.416-1.813
		c0-0.606,0.139-1.176,0.416-1.709c0.276-0.533,0.664-0.96,1.162-1.28c0.497-0.321,1.063-0.481,1.694-0.481
		c0.493,0,0.938,0.108,1.337,0.325s0.714,0.539,0.947,0.969c0.234,0.429,0.351,0.955,0.351,1.579l-4.569,0.078
		c-0.009,1.04,0.162,1.851,0.513,2.431c0.351,0.581,0.894,0.871,1.629,0.871c0.398,0,0.808-0.104,1.228-0.312
		c0.419-0.208,0.742-0.464,0.967-0.768l0.312,0.26c-0.329,0.503-0.755,0.876-1.278,1.118c-0.524,0.243-1.037,0.364-1.539,0.364
		C199.986,185.624,199.447,185.483,198.967,185.201z M202.103,181.113c0-0.521-0.117-0.967-0.351-1.339
		c-0.234-0.373-0.585-0.56-1.052-0.56c-1.073,0-1.71,0.633-1.908,1.898H202.103z"/>
	<path d="M209.47,185.201c-0.498-0.281-0.892-0.674-1.182-1.176c-0.29-0.503-0.435-1.07-0.435-1.703c0-0.676,0.143-1.289,0.429-1.84
		c0.285-0.55,0.677-0.983,1.175-1.3s1.05-0.475,1.655-0.475c0.598,0,1.146,0.146,1.648,0.436s0.898,0.687,1.188,1.189
		s0.435,1.062,0.435,1.677c0,0.659-0.145,1.266-0.435,1.82s-0.684,0.992-1.182,1.313c-0.498,0.321-1.05,0.481-1.655,0.481
		C210.515,185.624,209.968,185.483,209.47,185.201z M212.612,184.324c0.298-0.521,0.447-1.166,0.447-1.938
		c0-0.875-0.162-1.625-0.486-2.249c-0.325-0.624-0.812-0.936-1.461-0.936c-0.641,0-1.123,0.265-1.447,0.793
		c-0.325,0.528-0.487,1.179-0.487,1.95c0,0.555,0.076,1.072,0.228,1.553c0.151,0.481,0.381,0.869,0.688,1.164
		c0.308,0.295,0.682,0.442,1.123,0.442C211.848,185.104,212.313,184.844,212.612,184.324z"/>
	<path d="M215.487,185.026c0.251,0,0.431-0.063,0.539-0.188c0.107-0.126,0.173-0.286,0.194-0.481s0.032-0.5,0.032-0.916v-2.965
		c0-0.363,0.018-0.646,0.053-0.845l-0.922,0.039v-0.533h0.402c0.328,0,0.566-0.027,0.714-0.084s0.285-0.146,0.415-0.267h0.377
		c0.034,0.338,0.056,0.767,0.064,1.287c0.217-0.355,0.526-0.672,0.929-0.949s0.82-0.416,1.253-0.416c0.26,0,0.476,0.069,0.649,0.208
		c0.173,0.139,0.259,0.343,0.259,0.611c0,0.139-0.054,0.277-0.162,0.416s-0.262,0.208-0.461,0.208c-0.19,0-0.346-0.072-0.467-0.215
		s-0.169-0.314-0.144-0.514c-0.328-0.009-0.659,0.117-0.993,0.377c-0.333,0.26-0.616,0.607-0.85,1.04l0.013,3.198
		c0,0.39-0.018,0.685-0.052,0.884l0.817-0.039v0.533h-2.661V185.026z"/>
	<path d="M221.109,185.026c0.251,0,0.431-0.063,0.539-0.188c0.107-0.126,0.173-0.286,0.194-0.481s0.032-0.5,0.032-0.916v-2.965
		c0-0.251,0.018-0.532,0.053-0.845l-0.922,0.052v-0.546c0.51,0,0.876-0.03,1.097-0.091s0.392-0.147,0.513-0.26h0.377v5.252
		c0,0.39-0.018,0.685-0.053,0.884l0.818-0.039v0.533h-2.648V185.026z M221.914,177.271c-0.139-0.151-0.207-0.331-0.207-0.539
		s0.071-0.391,0.214-0.547c0.143-0.155,0.305-0.233,0.486-0.233c0.199,0,0.366,0.076,0.5,0.228c0.135,0.151,0.201,0.336,0.201,0.553
		c0,0.208-0.071,0.388-0.214,0.539s-0.31,0.228-0.5,0.228C222.213,177.499,222.053,177.423,221.914,177.271z"/>
	<path d="M226.283,185.201c-0.48-0.281-0.859-0.685-1.136-1.209c-0.277-0.524-0.416-1.129-0.416-1.813
		c0-0.606,0.139-1.176,0.416-1.709c0.276-0.533,0.664-0.96,1.162-1.28c0.497-0.321,1.063-0.481,1.694-0.481
		c0.493,0,0.938,0.108,1.337,0.325s0.714,0.539,0.947,0.969c0.234,0.429,0.351,0.955,0.351,1.579l-4.569,0.078
		c-0.009,1.04,0.162,1.851,0.513,2.431c0.351,0.581,0.894,0.871,1.629,0.871c0.398,0,0.808-0.104,1.228-0.312
		c0.419-0.208,0.742-0.464,0.967-0.768l0.312,0.26c-0.329,0.503-0.755,0.876-1.278,1.118c-0.524,0.243-1.037,0.364-1.539,0.364
		C227.303,185.624,226.764,185.483,226.283,185.201z M229.419,181.113c0-0.521-0.117-0.967-0.351-1.339
		c-0.234-0.373-0.585-0.56-1.052-0.56c-1.073,0-1.71,0.633-1.908,1.898H229.419z"/>
	<path d="M231.794,185.026c0.251,0,0.431-0.063,0.539-0.188c0.107-0.126,0.171-0.282,0.188-0.469
		c0.018-0.186,0.03-0.496,0.039-0.929l0.014-2.965c0-0.363,0.017-0.646,0.052-0.845l-0.922,0.052v-0.546
		c0.511,0,0.861-0.027,1.052-0.084s0.351-0.146,0.48-0.267h0.376c0.018,0.165,0.035,0.429,0.052,0.793
		c0.295-0.26,0.63-0.47,1.007-0.631c0.376-0.16,0.746-0.24,1.109-0.24c0.753,0,1.303,0.236,1.649,0.709
		c0.346,0.472,0.52,1.206,0.52,2.203v2.418c0,0.39-0.018,0.685-0.053,0.884l0.818-0.039v0.533h-2.648v-0.39
		c0.251,0,0.431-0.063,0.539-0.188c0.107-0.126,0.173-0.286,0.194-0.481s0.032-0.5,0.032-0.916v-1.82
		c-0.009-0.745-0.13-1.307-0.363-1.684s-0.602-0.565-1.104-0.565c-0.312,0-0.621,0.078-0.929,0.234
		c-0.307,0.155-0.561,0.359-0.759,0.61c0.008,0.096,0.013,0.265,0.013,0.507l-0.013,3.315c0,0.39-0.018,0.685-0.053,0.884
		l0.818-0.039v0.533h-2.648V185.026z"/>
	<path d="M240.35,183.232l0.026-3.771l-1,0.013v-0.559c0.416-0.009,0.769-0.197,1.059-0.565s0.504-0.786,0.643-1.255h0.441v1.82
		h2.181v0.507l-2.181,0.026c-0.009,1.326-0.016,2.244-0.02,2.756c-0.005,0.512-0.007,0.798-0.007,0.858
		c0,0.615,0.073,1.072,0.221,1.371s0.402,0.448,0.767,0.448c0.225,0,0.447-0.069,0.668-0.208s0.413-0.329,0.578-0.572l0.351,0.286
		c-0.338,0.503-0.671,0.835-1,0.995s-0.649,0.24-0.961,0.24C240.93,185.624,240.341,184.827,240.35,183.232z"/>
	<path d="M245.069,185.195c-0.333-0.286-0.5-0.659-0.5-1.118c0-0.503,0.201-0.928,0.604-1.274s0.909-0.604,1.52-0.773
		s1.222-0.249,1.837-0.24v-0.806c0-0.563-0.082-1.003-0.247-1.32c-0.164-0.315-0.515-0.474-1.052-0.474
		c-0.268,0-0.523,0.056-0.766,0.169c-0.242,0.112-0.42,0.281-0.532,0.507c0.112,0.121,0.169,0.286,0.169,0.494
		c0,0.13-0.048,0.253-0.143,0.37c-0.096,0.117-0.234,0.176-0.416,0.176s-0.324-0.059-0.429-0.176
		c-0.104-0.117-0.155-0.271-0.155-0.462c0-0.285,0.11-0.548,0.331-0.786s0.527-0.427,0.922-0.565
		c0.394-0.139,0.833-0.208,1.317-0.208c0.728,0,1.264,0.193,1.61,0.578c0.346,0.386,0.515,0.995,0.506,1.827l-0.013,2.925
		c0,0.277-0.018,0.572-0.052,0.884l0.922-0.052v0.546h-1.856c-0.026-0.13-0.057-0.377-0.092-0.741
		c-0.632,0.633-1.311,0.949-2.038,0.949C245.885,185.624,245.402,185.481,245.069,185.195z M247.711,184.694
		c0.269-0.125,0.541-0.318,0.818-0.578c-0.009-0.13-0.013-0.352-0.013-0.663l0.013-1.222c-0.71,0.025-1.342,0.171-1.896,0.436
		c-0.554,0.264-0.831,0.669-0.831,1.215c0,0.321,0.095,0.568,0.285,0.741c0.19,0.174,0.434,0.26,0.728,0.26
		C247.145,184.883,247.442,184.82,247.711,184.694z"/>
	<path d="M251.269,185.026c0.251,0,0.431-0.063,0.539-0.188c0.107-0.126,0.173-0.286,0.194-0.481s0.032-0.5,0.032-0.916v-6.149
		c0-0.329,0.014-0.611,0.039-0.845l-0.922,0.052v-0.546c0.52,0,0.89-0.03,1.11-0.091s0.392-0.147,0.513-0.261h0.377l0.013,8.438
		c0,0.338-0.021,0.633-0.064,0.884l0.817-0.039v0.533h-2.648V185.026z"/>
	<path d="M258.227,188.341c0.251,0,0.431-0.063,0.539-0.188s0.171-0.281,0.188-0.468c0.017-0.187,0.03-0.496,0.039-0.93l0.025-6.279
		c0-0.363,0.018-0.646,0.052-0.845l-0.921,0.052v-0.546c0.51,0,0.86-0.027,1.051-0.084s0.347-0.146,0.468-0.267h0.39
		c0.034,0.425,0.052,0.658,0.052,0.702c0.26-0.234,0.571-0.423,0.935-0.565c0.363-0.144,0.723-0.215,1.078-0.215
		c0.511,0,0.981,0.132,1.415,0.396c0.433,0.265,0.781,0.642,1.045,1.131c0.264,0.49,0.396,1.056,0.396,1.696
		c0,0.72-0.151,1.358-0.454,1.918c-0.303,0.559-0.707,0.994-1.214,1.307c-0.506,0.312-1.054,0.468-1.643,0.468
		c-0.597,0-1.116-0.143-1.558-0.429v2.157c0,0.391-0.018,0.685-0.052,0.885l0.817-0.039v0.533h-2.648V188.341z M262.699,184.727
		c0.299-0.251,0.53-0.602,0.695-1.053c0.164-0.45,0.246-0.962,0.246-1.534c0-0.779-0.167-1.44-0.5-1.982
		c-0.333-0.541-0.828-0.813-1.486-0.813c-0.285,0-0.563,0.069-0.831,0.208s-0.502,0.313-0.701,0.521
		c0.009,0.061,0.014,0.325,0.014,0.793l-0.014,3.73c0.441,0.338,0.948,0.508,1.52,0.508
		C262.048,185.104,262.401,184.979,262.699,184.727z"/>
	<path d="M266.465,185.195c-0.333-0.286-0.5-0.659-0.5-1.118c0-0.503,0.201-0.928,0.604-1.274s0.909-0.604,1.52-0.773
		s1.222-0.249,1.837-0.24v-0.806c0-0.563-0.082-1.003-0.247-1.32c-0.164-0.315-0.515-0.474-1.052-0.474
		c-0.268,0-0.523,0.056-0.766,0.169c-0.242,0.112-0.42,0.281-0.532,0.507c0.112,0.121,0.169,0.286,0.169,0.494
		c0,0.13-0.048,0.253-0.143,0.37c-0.096,0.117-0.234,0.176-0.416,0.176s-0.324-0.059-0.429-0.176
		c-0.104-0.117-0.155-0.271-0.155-0.462c0-0.285,0.11-0.548,0.331-0.786s0.527-0.427,0.922-0.565
		c0.394-0.139,0.833-0.208,1.317-0.208c0.728,0,1.264,0.193,1.61,0.578c0.346,0.386,0.515,0.995,0.506,1.827l-0.013,2.925
		c0,0.277-0.018,0.572-0.052,0.884l0.922-0.052v0.546h-1.856c-0.026-0.13-0.057-0.377-0.092-0.741
		c-0.632,0.633-1.311,0.949-2.038,0.949C267.28,185.624,266.798,185.481,266.465,185.195z M269.106,184.694
		c0.269-0.125,0.541-0.318,0.818-0.578c-0.009-0.13-0.013-0.352-0.013-0.663l0.013-1.222c-0.71,0.025-1.342,0.171-1.896,0.436
		c-0.554,0.264-0.831,0.669-0.831,1.215c0,0.321,0.095,0.568,0.285,0.741c0.19,0.174,0.434,0.26,0.728,0.26
		C268.54,184.883,268.838,184.82,269.106,184.694z"/>
	<path d="M272.793,185.026c0.251,0,0.431-0.063,0.539-0.188c0.107-0.126,0.173-0.286,0.194-0.481s0.032-0.5,0.032-0.916v-2.965
		c0-0.251,0.018-0.532,0.053-0.845l-0.922,0.052v-0.546c0.51,0,0.876-0.03,1.097-0.091s0.392-0.147,0.513-0.26h0.377v5.252
		c0,0.39-0.018,0.685-0.053,0.884l0.818-0.039v0.533h-2.648V185.026z M273.598,177.271c-0.139-0.151-0.207-0.331-0.207-0.539
		s0.071-0.391,0.214-0.547c0.143-0.155,0.305-0.233,0.486-0.233c0.199,0,0.366,0.076,0.5,0.228c0.135,0.151,0.201,0.336,0.201,0.553
		c0,0.208-0.071,0.388-0.214,0.539s-0.31,0.228-0.5,0.228C273.896,177.499,273.736,177.423,273.598,177.271z"/>
	<path d="M276.441,185.026c0.251,0,0.431-0.063,0.539-0.188c0.107-0.126,0.171-0.282,0.188-0.469
		c0.018-0.186,0.03-0.496,0.039-0.929l0.014-2.965c0-0.363,0.017-0.646,0.052-0.845l-0.922,0.052v-0.546
		c0.511,0,0.861-0.027,1.052-0.084s0.351-0.146,0.48-0.267h0.376c0.018,0.165,0.035,0.429,0.052,0.793
		c0.295-0.26,0.63-0.47,1.007-0.631c0.376-0.16,0.746-0.24,1.109-0.24c0.753,0,1.303,0.236,1.649,0.709
		c0.346,0.472,0.52,1.206,0.52,2.203v2.418c0,0.39-0.018,0.685-0.053,0.884l0.818-0.039v0.533h-2.648v-0.39
		c0.251,0,0.431-0.063,0.539-0.188c0.107-0.126,0.173-0.286,0.194-0.481s0.032-0.5,0.032-0.916v-1.82
		c-0.009-0.745-0.13-1.307-0.363-1.684s-0.602-0.565-1.104-0.565c-0.312,0-0.621,0.078-0.929,0.234
		c-0.307,0.155-0.561,0.359-0.759,0.61c0.008,0.096,0.013,0.265,0.013,0.507l-0.013,3.315c0,0.39-0.018,0.685-0.053,0.884
		l0.818-0.039v0.533h-2.648V185.026z"/>
	<path d="M284.997,183.232l0.026-3.771l-1,0.013v-0.559c0.416-0.009,0.769-0.197,1.059-0.565s0.504-0.786,0.643-1.255h0.441v1.82
		h2.181v0.507l-2.181,0.026c-0.009,1.326-0.016,2.244-0.02,2.756c-0.005,0.512-0.007,0.798-0.007,0.858
		c0,0.615,0.073,1.072,0.221,1.371s0.402,0.448,0.767,0.448c0.225,0,0.447-0.069,0.668-0.208s0.413-0.329,0.578-0.572l0.351,0.286
		c-0.338,0.503-0.671,0.835-1,0.995s-0.649,0.24-0.961,0.24C285.577,185.624,284.988,184.827,284.997,183.232z"/>
	<path d="M289.347,185.026c0.251,0,0.431-0.063,0.539-0.188c0.107-0.126,0.173-0.286,0.194-0.481s0.032-0.5,0.032-0.916v-2.965
		c0-0.251,0.018-0.532,0.053-0.845l-0.922,0.052v-0.546c0.51,0,0.876-0.03,1.097-0.091s0.392-0.147,0.513-0.26h0.377v5.252
		c0,0.39-0.018,0.685-0.053,0.884l0.818-0.039v0.533h-2.648V185.026z M290.151,177.271c-0.139-0.151-0.207-0.331-0.207-0.539
		s0.071-0.391,0.214-0.547c0.143-0.155,0.305-0.233,0.486-0.233c0.199,0,0.366,0.076,0.5,0.228c0.135,0.151,0.201,0.336,0.201,0.553
		c0,0.208-0.071,0.388-0.214,0.539s-0.31,0.228-0.5,0.228C290.45,177.499,290.29,177.423,290.151,177.271z"/>
	<path d="M292.994,185.026c0.251,0,0.431-0.063,0.539-0.188c0.107-0.126,0.171-0.282,0.188-0.469
		c0.018-0.186,0.03-0.496,0.039-0.929l0.014-2.965c0-0.363,0.017-0.646,0.052-0.845l-0.922,0.052v-0.546
		c0.511,0,0.861-0.027,1.052-0.084s0.351-0.146,0.48-0.267h0.376c0.018,0.165,0.035,0.429,0.052,0.793
		c0.295-0.26,0.63-0.47,1.007-0.631c0.376-0.16,0.746-0.24,1.109-0.24c0.753,0,1.303,0.236,1.649,0.709
		c0.346,0.472,0.52,1.206,0.52,2.203v2.418c0,0.39-0.018,0.685-0.053,0.884l0.818-0.039v0.533h-2.648v-0.39
		c0.251,0,0.431-0.063,0.539-0.188c0.107-0.126,0.173-0.286,0.194-0.481s0.032-0.5,0.032-0.916v-1.82
		c-0.009-0.745-0.13-1.307-0.363-1.684s-0.602-0.565-1.104-0.565c-0.312,0-0.621,0.078-0.929,0.234
		c-0.307,0.155-0.561,0.359-0.759,0.61c0.008,0.096,0.013,0.265,0.013,0.507l-0.013,3.315c0,0.39-0.018,0.685-0.053,0.884
		l0.818-0.039v0.533h-2.648V185.026z"/>
	<path d="M302.16,188.692c-0.484-0.165-0.84-0.382-1.064-0.65c-0.226-0.269-0.338-0.555-0.338-0.858
		c0-0.363,0.121-0.682,0.364-0.955c0.242-0.273,0.519-0.475,0.83-0.604c-0.294-0.096-0.517-0.226-0.668-0.39
		c-0.151-0.165-0.228-0.377-0.228-0.638c0-0.312,0.123-0.598,0.37-0.857s0.556-0.421,0.929-0.481
		c-0.407-0.19-0.728-0.457-0.961-0.799c-0.234-0.343-0.351-0.735-0.351-1.177c0-0.503,0.132-0.949,0.396-1.339
		c0.265-0.391,0.606-0.693,1.026-0.91c0.419-0.217,0.858-0.325,1.317-0.325c0.589,0,1.138,0.16,1.648,0.481
		c0.13-0.373,0.34-0.677,0.63-0.91c0.29-0.234,0.604-0.352,0.941-0.352c0.216,0,0.385,0.059,0.506,0.176s0.183,0.275,0.183,0.475
		c0,0.121-0.046,0.24-0.137,0.357s-0.223,0.176-0.396,0.176c-0.147,0-0.273-0.044-0.377-0.13c-0.104-0.087-0.169-0.195-0.194-0.325
		c-0.208,0.025-0.373,0.119-0.494,0.279s-0.207,0.354-0.26,0.578c0.217,0.2,0.386,0.434,0.507,0.702s0.182,0.551,0.182,0.845
		c0,0.478-0.125,0.906-0.376,1.287c-0.252,0.382-0.587,0.681-1.007,0.897s-0.872,0.325-1.356,0.325
		c-0.112,0-0.256-0.009-0.429-0.026c-0.13-0.026-0.277-0.039-0.441-0.039c-0.285,0-0.525,0.063-0.721,0.188
		c-0.194,0.126-0.292,0.279-0.292,0.462c0,0.251,0.158,0.418,0.474,0.5c0.316,0.083,0.855,0.137,1.617,0.163
		c1.064,0.052,1.862,0.223,2.396,0.513c0.532,0.291,0.798,0.77,0.798,1.437c0,0.442-0.153,0.828-0.461,1.157
		s-0.705,0.581-1.194,0.754c-0.489,0.174-0.998,0.261-1.525,0.261C303.26,188.939,302.645,188.856,302.16,188.692z M305.244,188.243
		c0.358-0.125,0.634-0.294,0.824-0.507c0.19-0.212,0.285-0.444,0.285-0.695c0-0.442-0.21-0.745-0.63-0.91s-1.04-0.26-1.862-0.286
		c-0.546-0.018-0.991-0.052-1.338-0.104c-0.233,0.156-0.415,0.347-0.545,0.572c-0.13,0.225-0.194,0.463-0.194,0.715
		c0,0.424,0.201,0.765,0.604,1.021c0.402,0.255,0.937,0.383,1.604,0.383C304.467,188.432,304.885,188.369,305.244,188.243z
		 M304.894,182.608c0.246-0.33,0.37-0.759,0.37-1.287c0-0.606-0.133-1.118-0.396-1.534s-0.634-0.624-1.11-0.624
		c-0.459,0-0.817,0.171-1.077,0.514c-0.26,0.342-0.39,0.782-0.39,1.319c0,0.633,0.137,1.142,0.409,1.527s0.646,0.578,1.123,0.578
		C304.289,183.102,304.646,182.938,304.894,182.608z"/>
	<path d="M309.6,185.462c-0.338-0.108-0.628-0.245-0.87-0.41l0.052,0.455h-0.545l-0.078-2.235h0.402
		c0.018,0.355,0.115,0.671,0.293,0.948c0.177,0.277,0.41,0.496,0.7,0.657c0.29,0.16,0.6,0.24,0.929,0.24
		c0.372,0,0.703-0.089,0.993-0.267s0.435-0.431,0.435-0.761c0-0.242-0.071-0.446-0.214-0.61c-0.143-0.165-0.32-0.302-0.532-0.41
		s-0.509-0.236-0.89-0.384c-0.459-0.173-0.826-0.335-1.104-0.487c-0.276-0.151-0.515-0.357-0.714-0.617s-0.299-0.589-0.299-0.988
		c0-0.286,0.069-0.571,0.208-0.857s0.372-0.529,0.701-0.729s0.766-0.299,1.312-0.299c0.268,0,0.543,0.044,0.824,0.13
		c0.281,0.087,0.543,0.229,0.785,0.429l-0.025-0.493h0.545v2.274h-0.415c-0.026-0.502-0.18-0.938-0.461-1.307
		c-0.282-0.368-0.678-0.552-1.188-0.552c-0.39,0-0.699,0.097-0.928,0.292c-0.229,0.195-0.345,0.427-0.345,0.695
		c0,0.252,0.076,0.464,0.228,0.638c0.151,0.173,0.34,0.32,0.564,0.441c0.226,0.122,0.528,0.256,0.909,0.403
		c0.45,0.182,0.813,0.351,1.091,0.507c0.276,0.156,0.513,0.362,0.707,0.617c0.195,0.256,0.292,0.565,0.292,0.93
		c0,0.416-0.105,0.768-0.317,1.053c-0.213,0.286-0.489,0.501-0.831,0.644c-0.342,0.144-0.708,0.215-1.098,0.215
		C310.31,185.624,309.938,185.569,309.6,185.462z"/>
	<path d="M314.676,187.483c0.146-0.191,0.285-0.46,0.415-0.807s0.195-0.688,0.195-1.026c0-0.104-0.005-0.183-0.014-0.234
		c-0.112,0.052-0.221,0.078-0.324,0.078c-0.173,0-0.316-0.061-0.429-0.182c-0.112-0.122-0.169-0.273-0.169-0.455
		c0-0.234,0.069-0.418,0.208-0.553s0.308-0.202,0.507-0.202c0.285,0,0.51,0.111,0.675,0.332c0.164,0.221,0.247,0.505,0.247,0.852
		c0,0.355-0.094,0.784-0.279,1.287c-0.187,0.502-0.414,0.893-0.682,1.17L314.676,187.483z"/>
	<path d="M42.825,196.045h-0.013l0.039,5.564c0,0.58-0.009,1.01-0.026,1.287l0.935-0.053v0.572h-2.375v-0.429
		c0.346,0,0.575-0.1,0.688-0.299c0.112-0.2,0.168-0.442,0.168-0.729l0.013-7.124l-0.87,0.052v-0.571h1.545l5.531,7.409h0.013
		l0.013-5.953c0-0.364,0.013-0.677,0.039-0.937l-0.935,0.052v-0.571h2.389v0.429c-0.26,0.009-0.453,0.059-0.578,0.149
		s-0.206,0.215-0.24,0.37c-0.035,0.156-0.052,0.364-0.052,0.624v0.455l-0.026,7.28h-0.623L42.825,196.045z"/>
	<path d="M51.478,203.195c-0.333-0.286-0.5-0.659-0.5-1.118c0-0.503,0.201-0.928,0.604-1.274c0.403-0.347,0.909-0.604,1.519-0.773
		c0.61-0.169,1.223-0.249,1.837-0.24v-0.806c0-0.563-0.083-1.003-0.247-1.32c-0.165-0.315-0.515-0.474-1.052-0.474
		c-0.269,0-0.524,0.056-0.766,0.169c-0.242,0.112-0.42,0.281-0.532,0.507c0.112,0.121,0.169,0.286,0.169,0.494
		c0,0.13-0.048,0.253-0.143,0.37s-0.234,0.176-0.416,0.176s-0.325-0.059-0.428-0.176c-0.104-0.117-0.156-0.271-0.156-0.462
		c0-0.285,0.11-0.548,0.331-0.786s0.528-0.427,0.922-0.565c0.394-0.139,0.833-0.208,1.317-0.208c0.727,0,1.264,0.193,1.61,0.578
		c0.346,0.386,0.515,0.995,0.506,1.827l-0.013,2.925c0,0.277-0.018,0.572-0.052,0.884l0.922-0.052v0.546h-1.856
		c-0.026-0.13-0.056-0.377-0.091-0.741c-0.632,0.633-1.312,0.949-2.039,0.949C52.293,203.624,51.811,203.481,51.478,203.195z
		 M54.12,202.694c0.268-0.125,0.541-0.318,0.818-0.578c-0.009-0.13-0.013-0.352-0.013-0.663l0.013-1.222
		c-0.71,0.025-1.342,0.171-1.896,0.436c-0.554,0.264-0.831,0.669-0.831,1.215c0,0.321,0.095,0.568,0.286,0.741
		c0.19,0.174,0.433,0.26,0.727,0.26C53.553,202.883,53.852,202.82,54.12,202.694z"/>
	<path d="M58.482,201.232l0.026-3.771l-1,0.013v-0.559c0.416-0.009,0.768-0.197,1.058-0.565s0.504-0.786,0.643-1.255h0.441v1.82
		h2.181v0.507l-2.181,0.026c-0.009,1.326-0.016,2.244-0.02,2.756c-0.004,0.512-0.007,0.798-0.007,0.858
		c0,0.615,0.074,1.072,0.221,1.371c0.147,0.299,0.403,0.448,0.766,0.448c0.225,0,0.448-0.069,0.669-0.208
		c0.221-0.139,0.413-0.329,0.578-0.572l0.351,0.286c-0.338,0.503-0.671,0.835-1,0.995s-0.649,0.24-0.96,0.24
		C59.062,203.624,58.473,202.827,58.482,201.232z"/>
	<path d="M63.954,202.987c-0.342-0.425-0.513-1.157-0.513-2.197v-2.314c0-0.363,0.017-0.646,0.052-0.845l-0.896,0.039v-0.533H63
		c0.337,0,0.593-0.03,0.766-0.091c0.173-0.061,0.32-0.147,0.441-0.26h0.376v3.965c0,0.763,0.106,1.321,0.318,1.677
		c0.212,0.355,0.565,0.533,1.058,0.533c0.32,0,0.634-0.095,0.941-0.286c0.307-0.19,0.556-0.429,0.746-0.715v-3.341
		c0-0.407,0.022-0.736,0.065-0.988l-0.935,0.039v-0.533h0.402c0.338,0,0.593-0.03,0.766-0.091c0.173-0.061,0.32-0.147,0.441-0.26
		h0.376l-0.013,4.914c0,0.503-0.018,0.91-0.052,1.222l0.935-0.052v0.546h-1.857c-0.043-0.269-0.073-0.528-0.091-0.78
		c-0.286,0.286-0.619,0.522-1,0.709s-0.753,0.279-1.117,0.279C64.834,203.624,64.296,203.412,63.954,202.987z"/>
	<path d="M70.582,203.026c0.251,0,0.431-0.063,0.539-0.188c0.108-0.126,0.173-0.286,0.195-0.481s0.033-0.5,0.033-0.916v-2.965
		c0-0.363,0.017-0.646,0.052-0.845l-0.922,0.039v-0.533h0.402c0.329,0,0.567-0.027,0.714-0.084c0.147-0.057,0.286-0.146,0.416-0.267
		h0.376c0.034,0.338,0.056,0.767,0.065,1.287c0.216-0.355,0.526-0.672,0.928-0.949s0.82-0.416,1.253-0.416
		c0.26,0,0.476,0.069,0.649,0.208s0.26,0.343,0.26,0.611c0,0.139-0.054,0.277-0.162,0.416c-0.108,0.139-0.262,0.208-0.461,0.208
		c-0.19,0-0.346-0.072-0.468-0.215c-0.121-0.143-0.168-0.314-0.143-0.514c-0.329-0.009-0.66,0.117-0.993,0.377
		c-0.333,0.26-0.617,0.607-0.851,1.04l0.013,3.198c0,0.39-0.018,0.685-0.052,0.884l0.818-0.039v0.533h-2.662V203.026z"/>
	<path d="M77.729,203.201c-0.48-0.281-0.859-0.685-1.136-1.209c-0.277-0.524-0.416-1.129-0.416-1.813
		c0-0.606,0.138-1.176,0.416-1.709c0.277-0.533,0.664-0.96,1.162-1.28c0.498-0.321,1.063-0.481,1.694-0.481
		c0.494,0,0.939,0.108,1.337,0.325c0.398,0.217,0.714,0.539,0.948,0.969c0.233,0.429,0.351,0.955,0.351,1.579l-4.57,0.078
		c-0.008,1.04,0.163,1.851,0.513,2.431c0.351,0.581,0.894,0.871,1.629,0.871c0.398,0,0.807-0.104,1.227-0.312
		s0.742-0.464,0.967-0.768l0.312,0.26c-0.329,0.503-0.755,0.876-1.279,1.118c-0.523,0.243-1.037,0.364-1.539,0.364
		C78.748,203.624,78.209,203.483,77.729,203.201z M80.864,199.113c0-0.521-0.117-0.967-0.35-1.339
		c-0.234-0.373-0.584-0.56-1.052-0.56c-1.073,0-1.709,0.633-1.909,1.898H80.864z"/>
	<path d="M88.199,203.462c-0.337-0.108-0.627-0.245-0.87-0.41l0.052,0.455h-0.545l-0.078-2.235h0.402
		c0.017,0.355,0.115,0.671,0.292,0.948s0.411,0.496,0.701,0.657c0.29,0.16,0.599,0.24,0.928,0.24c0.372,0,0.703-0.089,0.993-0.267
		s0.435-0.431,0.435-0.761c0-0.242-0.071-0.446-0.214-0.61c-0.143-0.165-0.32-0.302-0.532-0.41
		c-0.212-0.108-0.509-0.236-0.889-0.384c-0.459-0.173-0.827-0.335-1.104-0.487c-0.277-0.151-0.515-0.357-0.714-0.617
		s-0.298-0.589-0.298-0.988c0-0.286,0.069-0.571,0.208-0.857c0.138-0.286,0.372-0.529,0.701-0.729
		c0.329-0.199,0.766-0.299,1.311-0.299c0.269,0,0.543,0.044,0.825,0.13c0.281,0.087,0.543,0.229,0.785,0.429l-0.026-0.493h0.545
		v2.274h-0.416c-0.026-0.502-0.18-0.938-0.461-1.307c-0.281-0.368-0.677-0.552-1.188-0.552c-0.389,0-0.699,0.097-0.928,0.292
		s-0.344,0.427-0.344,0.695c0,0.252,0.076,0.464,0.227,0.638c0.151,0.173,0.339,0.32,0.565,0.441
		c0.225,0.122,0.528,0.256,0.909,0.403c0.45,0.182,0.813,0.351,1.09,0.507s0.513,0.362,0.708,0.617
		c0.195,0.256,0.292,0.565,0.292,0.93c0,0.416-0.106,0.768-0.318,1.053c-0.212,0.286-0.489,0.501-0.831,0.644
		c-0.342,0.144-0.708,0.215-1.097,0.215C88.909,203.624,88.537,203.569,88.199,203.462z"/>
	<path d="M92.536,203.026c0.251,0,0.433-0.063,0.545-0.188c0.112-0.126,0.179-0.288,0.201-0.488
		c0.021-0.199,0.032-0.502,0.032-0.909v-6.149c0-0.329,0.013-0.611,0.039-0.845l-0.922,0.052v-0.546c0.52,0,0.89-0.03,1.11-0.091
		s0.392-0.147,0.513-0.261h0.376v3.966c0.303-0.252,0.645-0.457,1.026-0.618c0.38-0.16,0.749-0.24,1.104-0.24
		c0.744,0,1.285,0.234,1.623,0.702c0.338,0.468,0.511,1.205,0.52,2.21l0.013,2.418c0,0.39-0.017,0.685-0.052,0.884l0.818-0.039
		v0.533h-2.648v-0.39c0.251,0,0.431-0.063,0.539-0.188c0.108-0.126,0.173-0.286,0.195-0.481s0.033-0.5,0.033-0.916v-1.82
		c0-0.745-0.117-1.302-0.351-1.671c-0.234-0.368-0.602-0.552-1.104-0.552c-0.32,0-0.639,0.075-0.954,0.228
		c-0.316,0.151-0.569,0.344-0.76,0.578v3.835c0,0.338-0.021,0.633-0.065,0.884l0.818-0.039v0.533h-2.648V203.026z"/>
	<path d="M102.02,203.201c-0.498-0.281-0.891-0.674-1.181-1.176c-0.29-0.503-0.435-1.07-0.435-1.703c0-0.676,0.143-1.289,0.429-1.84
		c0.286-0.55,0.677-0.983,1.175-1.3c0.498-0.316,1.049-0.475,1.655-0.475c0.597,0,1.147,0.146,1.649,0.436s0.898,0.687,1.188,1.189
		c0.29,0.503,0.435,1.062,0.435,1.677c0,0.659-0.145,1.266-0.435,1.82c-0.29,0.555-0.684,0.992-1.182,1.313
		c-0.498,0.321-1.049,0.481-1.655,0.481C103.065,203.624,102.518,203.483,102.02,203.201z M105.162,202.324
		c0.299-0.521,0.448-1.166,0.448-1.938c0-0.875-0.162-1.625-0.487-2.249c-0.324-0.624-0.812-0.936-1.46-0.936
		c-0.641,0-1.123,0.265-1.448,0.793c-0.324,0.528-0.487,1.179-0.487,1.95c0,0.555,0.076,1.072,0.228,1.553
		c0.151,0.481,0.38,0.869,0.688,1.164c0.307,0.295,0.682,0.442,1.123,0.442C104.397,203.104,104.863,202.844,105.162,202.324z"/>
	<path d="M108.569,198.463c-0.165-0.468-0.277-0.819-0.337-1.053l-0.688,0.039v-0.533h2.752v0.39
		c-0.441,0.009-0.662,0.208-0.662,0.599c0,0.199,0.056,0.468,0.169,0.806l1.013,3.081l0.39-1.157
		c0.537-1.577,0.952-2.816,1.246-3.718h0.532l1.727,4.966l1.246-3.601c0.147-0.442,0.277-0.732,0.39-0.871l-0.753,0.039v-0.533
		h2.259v0.39c-0.286,0.018-0.511,0.067-0.675,0.149c-0.165,0.083-0.29,0.191-0.376,0.325c-0.087,0.135-0.173,0.318-0.26,0.553
		l-1.87,5.122h-0.52l-1.701-4.914l-1.688,4.914h-0.494L108.569,198.463z"/>
	<path d="M119.981,203.462c-0.337-0.108-0.627-0.245-0.87-0.41l0.052,0.455h-0.545l-0.078-2.235h0.402
		c0.017,0.355,0.115,0.671,0.292,0.948s0.411,0.496,0.701,0.657c0.29,0.16,0.599,0.24,0.928,0.24c0.372,0,0.703-0.089,0.993-0.267
		s0.435-0.431,0.435-0.761c0-0.242-0.071-0.446-0.214-0.61c-0.143-0.165-0.32-0.302-0.532-0.41
		c-0.212-0.108-0.509-0.236-0.889-0.384c-0.459-0.173-0.827-0.335-1.104-0.487c-0.277-0.151-0.515-0.357-0.714-0.617
		s-0.298-0.589-0.298-0.988c0-0.286,0.069-0.571,0.208-0.857c0.138-0.286,0.372-0.529,0.701-0.729
		c0.329-0.199,0.766-0.299,1.311-0.299c0.269,0,0.543,0.044,0.825,0.13c0.281,0.087,0.543,0.229,0.785,0.429l-0.026-0.493h0.545
		v2.274h-0.416c-0.026-0.502-0.18-0.938-0.461-1.307c-0.281-0.368-0.677-0.552-1.188-0.552c-0.389,0-0.699,0.097-0.928,0.292
		s-0.344,0.427-0.344,0.695c0,0.252,0.076,0.464,0.227,0.638c0.151,0.173,0.339,0.32,0.565,0.441
		c0.225,0.122,0.528,0.256,0.909,0.403c0.45,0.182,0.813,0.351,1.09,0.507s0.513,0.362,0.708,0.617
		c0.195,0.256,0.292,0.565,0.292,0.93c0,0.416-0.106,0.768-0.318,1.053c-0.212,0.286-0.489,0.501-0.831,0.644
		c-0.342,0.144-0.708,0.215-1.097,0.215C120.691,203.624,120.319,203.569,119.981,203.462z"/>
	<path d="M129.199,203.221c-0.424-0.269-0.758-0.649-1-1.144s-0.363-1.07-0.363-1.729c0-0.693,0.143-1.317,0.428-1.872
		c0.286-0.554,0.682-0.987,1.188-1.3c0.506-0.312,1.08-0.468,1.72-0.468c0.268,0,0.543,0.037,0.825,0.11
		c0.281,0.074,0.513,0.158,0.694,0.254v-1.781c0-0.329,0.013-0.611,0.039-0.845l-0.922,0.052v-0.546c0.511,0,0.876-0.03,1.097-0.091
		s0.392-0.147,0.513-0.261h0.376v8.438c0,0.277-0.018,0.572-0.052,0.884l0.922-0.052v0.546h-1.857
		c-0.043-0.234-0.073-0.459-0.091-0.676c-0.251,0.277-0.556,0.494-0.915,0.649c-0.359,0.156-0.747,0.234-1.162,0.234
		C130.104,203.624,129.623,203.489,129.199,203.221z M131.958,202.746c0.29-0.16,0.534-0.365,0.733-0.617
		c-0.009-0.139-0.013-0.377-0.013-0.715l0.013-3.744c-0.407-0.303-0.887-0.455-1.441-0.455c-0.624,0-1.125,0.258-1.506,0.773
		s-0.571,1.198-0.571,2.048c0,0.884,0.169,1.597,0.506,2.139c0.338,0.541,0.813,0.813,1.428,0.813
		C131.384,202.987,131.668,202.907,131.958,202.746z"/>
	<path d="M135.625,203.026c0.251,0,0.431-0.063,0.539-0.188c0.108-0.126,0.173-0.286,0.195-0.481s0.033-0.5,0.033-0.916v-2.965
		c0-0.363,0.017-0.646,0.052-0.845l-0.922,0.039v-0.533h0.402c0.329,0,0.567-0.027,0.714-0.084c0.147-0.057,0.286-0.146,0.416-0.267
		h0.376c0.034,0.338,0.056,0.767,0.065,1.287c0.216-0.355,0.526-0.672,0.928-0.949s0.82-0.416,1.253-0.416
		c0.26,0,0.476,0.069,0.649,0.208s0.26,0.343,0.26,0.611c0,0.139-0.054,0.277-0.162,0.416c-0.108,0.139-0.262,0.208-0.461,0.208
		c-0.19,0-0.346-0.072-0.468-0.215c-0.121-0.143-0.168-0.314-0.143-0.514c-0.329-0.009-0.66,0.117-0.993,0.377
		c-0.333,0.26-0.617,0.607-0.851,1.04l0.013,3.198c0,0.39-0.018,0.685-0.052,0.884l0.818-0.039v0.533h-2.662V203.026z"/>
	<path d="M141.617,203.195c-0.333-0.286-0.5-0.659-0.5-1.118c0-0.503,0.201-0.928,0.604-1.274c0.403-0.347,0.909-0.604,1.519-0.773
		c0.61-0.169,1.223-0.249,1.837-0.24v-0.806c0-0.563-0.083-1.003-0.247-1.32c-0.165-0.315-0.515-0.474-1.052-0.474
		c-0.269,0-0.524,0.056-0.766,0.169c-0.242,0.112-0.42,0.281-0.532,0.507c0.112,0.121,0.169,0.286,0.169,0.494
		c0,0.13-0.048,0.253-0.143,0.37s-0.234,0.176-0.416,0.176s-0.325-0.059-0.428-0.176c-0.104-0.117-0.156-0.271-0.156-0.462
		c0-0.285,0.11-0.548,0.331-0.786s0.528-0.427,0.922-0.565c0.394-0.139,0.833-0.208,1.317-0.208c0.727,0,1.264,0.193,1.61,0.578
		c0.346,0.386,0.515,0.995,0.506,1.827l-0.013,2.925c0,0.277-0.018,0.572-0.052,0.884l0.922-0.052v0.546h-1.856
		c-0.026-0.13-0.056-0.377-0.091-0.741c-0.632,0.633-1.312,0.949-2.039,0.949C142.433,203.624,141.95,203.481,141.617,203.195z
		 M144.259,202.694c0.268-0.125,0.541-0.318,0.818-0.578c-0.009-0.13-0.013-0.352-0.013-0.663l0.013-1.222
		c-0.71,0.025-1.342,0.171-1.896,0.436c-0.554,0.264-0.831,0.669-0.831,1.215c0,0.321,0.095,0.568,0.286,0.741
		c0.19,0.174,0.433,0.26,0.727,0.26C143.692,202.883,143.991,202.82,144.259,202.694z"/>
	<path d="M147.946,203.026c0.251,0,0.431-0.063,0.539-0.188c0.108-0.126,0.173-0.286,0.195-0.481s0.033-0.5,0.033-0.916v-2.965
		c0-0.363,0.017-0.646,0.052-0.845l-0.922,0.052v-0.546c0.511,0,0.861-0.027,1.052-0.084s0.351-0.146,0.48-0.267h0.376
		c0.017,0.13,0.034,0.359,0.052,0.688c0.268-0.233,0.571-0.42,0.909-0.559c0.338-0.139,0.671-0.208,1-0.208
		c0.424,0,0.785,0.076,1.084,0.228s0.53,0.366,0.694,0.644c0.312-0.251,0.66-0.459,1.045-0.624c0.385-0.165,0.755-0.247,1.11-0.247
		c0.762,0,1.318,0.232,1.668,0.695c0.351,0.464,0.517,1.203,0.5,2.217l-0.013,2.418c0,0.39-0.018,0.685-0.052,0.884l0.818-0.039
		v0.533h-2.648v-0.39c0.251,0,0.43-0.063,0.539-0.188c0.108-0.126,0.173-0.286,0.195-0.481c0.021-0.195,0.032-0.5,0.032-0.916v-1.82
		c0-0.745-0.117-1.302-0.351-1.671c-0.233-0.368-0.602-0.552-1.104-0.552c-0.268,0-0.539,0.058-0.811,0.175
		c-0.273,0.117-0.513,0.271-0.721,0.462c0.086,0.269,0.13,0.585,0.13,0.949l-0.026,3.055c0,0.39-0.018,0.685-0.052,0.884
		l0.818-0.039v0.533h-2.648v-0.39c0.251,0,0.431-0.063,0.539-0.188c0.108-0.126,0.17-0.282,0.188-0.469
		c0.017-0.186,0.03-0.496,0.039-0.929l0.013-1.82c0.008-0.754-0.1-1.317-0.325-1.69c-0.225-0.372-0.584-0.559-1.078-0.559
		c-0.269,0-0.535,0.057-0.798,0.169c-0.264,0.112-0.492,0.265-0.682,0.455l0.013,0.702v3.341c0,0.39-0.017,0.685-0.052,0.884
		l0.818-0.039v0.533h-2.648V203.026z"/>
	<path d="M159.924,203.195c-0.334-0.286-0.5-0.659-0.5-1.118c0-0.503,0.202-0.928,0.604-1.274s0.908-0.604,1.52-0.773
		c0.609-0.169,1.221-0.249,1.836-0.24v-0.806c0-0.563-0.082-1.003-0.246-1.32c-0.164-0.315-0.516-0.474-1.053-0.474
		c-0.268,0-0.523,0.056-0.766,0.169c-0.242,0.112-0.42,0.281-0.531,0.507c0.111,0.121,0.168,0.286,0.168,0.494
		c0,0.13-0.047,0.253-0.143,0.37s-0.234,0.176-0.416,0.176s-0.324-0.059-0.428-0.176s-0.156-0.271-0.156-0.462
		c0-0.285,0.111-0.548,0.332-0.786s0.527-0.427,0.922-0.565c0.393-0.139,0.832-0.208,1.316-0.208c0.729,0,1.264,0.193,1.611,0.578
		c0.346,0.386,0.514,0.995,0.506,1.827l-0.014,2.925c0,0.277-0.018,0.572-0.051,0.884l0.922-0.052v0.546H163.5
		c-0.025-0.13-0.057-0.377-0.092-0.741c-0.631,0.633-1.311,0.949-2.037,0.949C160.738,203.624,160.256,203.481,159.924,203.195z
		 M162.564,202.694c0.27-0.125,0.541-0.318,0.818-0.578c-0.008-0.13-0.012-0.352-0.012-0.663l0.012-1.222
		c-0.709,0.025-1.342,0.171-1.895,0.436c-0.555,0.264-0.832,0.669-0.832,1.215c0,0.321,0.096,0.568,0.285,0.741
		c0.191,0.174,0.434,0.26,0.729,0.26C161.998,202.883,162.297,202.82,162.564,202.694z"/>
	<path d="M169.809,202.987c0.303-0.009,0.52-0.078,0.649-0.208s0.203-0.284,0.221-0.462s0.026-0.487,0.026-0.93v-5.615
		c0-0.364,0.013-0.677,0.038-0.937l-0.935,0.052v-0.571h6.245l0.064,2.274h-0.428c0-0.71-0.154-1.196-0.461-1.456
		c-0.308-0.26-0.738-0.381-1.292-0.363l-1.116,0.025c-0.313,0.009-0.537,0.067-0.676,0.176s-0.225,0.26-0.26,0.455
		c-0.034,0.194-0.052,0.5-0.052,0.916v2.08l2.441,0.014l-0.092-1.118h0.571v2.729h-0.428c0-0.32-0.039-0.565-0.117-0.734
		s-0.197-0.281-0.357-0.338s-0.383-0.085-0.668-0.085l-0.402,0.014l-0.948,0.039v2.977c0,0.451-0.013,0.789-0.039,1.014l2.48-0.038
		c0.605-0.009,1.068-0.163,1.389-0.462s0.48-0.816,0.48-1.554h0.441l-0.078,2.535h-6.699V202.987z"/>
	<path d="M177.742,203.026c0.251,0,0.431-0.063,0.539-0.188c0.107-0.126,0.171-0.282,0.188-0.469
		c0.018-0.186,0.03-0.496,0.039-0.929l0.014-2.965c0-0.363,0.017-0.646,0.052-0.845l-0.922,0.052v-0.546
		c0.511,0,0.861-0.027,1.052-0.084s0.351-0.146,0.48-0.267h0.376c0.018,0.165,0.035,0.429,0.052,0.793
		c0.295-0.26,0.63-0.47,1.007-0.631c0.376-0.16,0.746-0.24,1.109-0.24c0.753,0,1.303,0.236,1.649,0.709
		c0.346,0.472,0.52,1.206,0.52,2.203v2.418c0,0.39-0.018,0.685-0.053,0.884l0.818-0.039v0.533h-2.648v-0.39
		c0.251,0,0.431-0.063,0.539-0.188c0.107-0.126,0.173-0.286,0.194-0.481s0.032-0.5,0.032-0.916v-1.82
		c-0.009-0.745-0.13-1.307-0.363-1.684s-0.602-0.565-1.104-0.565c-0.312,0-0.621,0.078-0.929,0.234
		c-0.307,0.155-0.561,0.359-0.759,0.61c0.008,0.096,0.013,0.265,0.013,0.507l-0.013,3.315c0,0.39-0.018,0.685-0.053,0.884
		l0.818-0.039v0.533h-2.648V203.026z"/>
	<path d="M184.168,206.731c-0.173-0.14-0.26-0.313-0.26-0.521c0-0.174,0.055-0.318,0.162-0.436c0.108-0.117,0.249-0.176,0.422-0.176
		c0.182,0,0.318,0.059,0.409,0.176s0.137,0.24,0.137,0.371c0,0.052-0.005,0.091-0.014,0.116c0.121,0.053,0.234,0.078,0.338,0.078
		c0.199,0,0.372-0.073,0.52-0.221c0.251-0.243,0.376-0.771,0.376-1.586l0.026-6.059c0-0.329,0.013-0.61,0.039-0.845l-0.922,0.052
		v-0.546c0.52,0,0.89-0.03,1.11-0.091s0.392-0.147,0.513-0.26h0.376v6.669c0,1.161-0.225,2.032-0.675,2.613
		c-0.45,0.58-1.047,0.871-1.792,0.871C184.597,206.939,184.341,206.869,184.168,206.731z M186.284,195.271
		c-0.139-0.151-0.208-0.331-0.208-0.539s0.071-0.391,0.215-0.547c0.143-0.155,0.305-0.233,0.486-0.233
		c0.199,0,0.366,0.076,0.5,0.228s0.201,0.336,0.201,0.553c0,0.208-0.071,0.388-0.214,0.539c-0.144,0.151-0.31,0.228-0.5,0.228
		C186.583,195.499,186.423,195.423,186.284,195.271z"/>
	<path d="M190.029,203.201c-0.498-0.281-0.892-0.674-1.182-1.176c-0.29-0.503-0.435-1.07-0.435-1.703
		c0-0.676,0.143-1.289,0.429-1.84c0.285-0.55,0.677-0.983,1.175-1.3s1.05-0.475,1.655-0.475c0.598,0,1.146,0.146,1.648,0.436
		s0.898,0.687,1.188,1.189s0.435,1.062,0.435,1.677c0,0.659-0.145,1.266-0.435,1.82s-0.684,0.992-1.182,1.313
		c-0.498,0.321-1.05,0.481-1.655,0.481C191.074,203.624,190.527,203.483,190.029,203.201z M193.172,202.324
		c0.298-0.521,0.447-1.166,0.447-1.938c0-0.875-0.162-1.625-0.486-2.249c-0.325-0.624-0.812-0.936-1.461-0.936
		c-0.641,0-1.123,0.265-1.447,0.793c-0.325,0.528-0.487,1.179-0.487,1.95c0,0.555,0.076,1.072,0.228,1.553
		c0.151,0.481,0.381,0.869,0.688,1.164c0.308,0.295,0.682,0.442,1.123,0.442C192.407,203.104,192.873,202.844,193.172,202.324z"/>
	<path d="M196.347,206.731c-0.182-0.14-0.272-0.334-0.272-0.585c0-0.165,0.054-0.311,0.162-0.436
		c0.107-0.126,0.248-0.188,0.422-0.188c0.173,0,0.301,0.061,0.383,0.182s0.123,0.247,0.123,0.377c0,0.078-0.004,0.139-0.013,0.182
		c0.026,0.018,0.073,0.026,0.143,0.026c0.112,0,0.228-0.044,0.345-0.13c0.116-0.087,0.223-0.213,0.317-0.377
		c0.199-0.33,0.502-1.07,0.909-2.224l-2.025-4.342c-0.363-0.779-0.593-1.378-0.688-1.794l-0.623,0.026v-0.533h2.688v0.39h-0.052
		c-0.407,0.026-0.61,0.2-0.61,0.521c0,0.217,0.104,0.555,0.312,1.014l1.52,3.263c0.26-0.736,0.632-1.824,1.116-3.263
		c0.294-0.857,0.506-1.339,0.636-1.442l-0.896,0.052v-0.533h2.038v0.39c-0.294,0.113-0.521,0.293-0.682,0.54s-0.335,0.63-0.525,1.15
		l-1.623,4.537c-0.312,0.875-0.569,1.536-0.772,1.982s-0.433,0.795-0.688,1.047c-0.255,0.251-0.568,0.377-0.94,0.377
		C196.762,206.939,196.528,206.869,196.347,206.731z"/>
	<path d="M206.991,201.232l0.026-3.771l-1,0.013v-0.559c0.416-0.009,0.769-0.197,1.059-0.565s0.504-0.786,0.643-1.255h0.441v1.82
		h2.181v0.507l-2.181,0.026c-0.009,1.326-0.016,2.244-0.02,2.756c-0.005,0.512-0.007,0.798-0.007,0.858
		c0,0.615,0.073,1.072,0.221,1.371s0.402,0.448,0.767,0.448c0.225,0,0.447-0.069,0.668-0.208s0.413-0.329,0.578-0.572l0.351,0.286
		c-0.338,0.503-0.671,0.835-1,0.995s-0.649,0.24-0.961,0.24C207.571,203.624,206.982,202.827,206.991,201.232z"/>
	<path d="M211.211,203.026c0.251,0,0.433-0.063,0.545-0.188c0.112-0.126,0.18-0.288,0.201-0.488
		c0.021-0.199,0.033-0.502,0.033-0.909v-6.149c0-0.329,0.013-0.611,0.039-0.845l-0.922,0.052v-0.546c0.519,0,0.889-0.03,1.109-0.091
		s0.392-0.147,0.513-0.261h0.377v3.966c0.303-0.252,0.645-0.457,1.025-0.618c0.381-0.16,0.749-0.24,1.104-0.24
		c0.744,0,1.285,0.234,1.623,0.702s0.511,1.205,0.52,2.21l0.013,2.418c0,0.39-0.018,0.685-0.052,0.884l0.818-0.039v0.533h-2.648
		v-0.39c0.25,0,0.43-0.063,0.538-0.188c0.108-0.126,0.173-0.286,0.195-0.481c0.021-0.195,0.032-0.5,0.032-0.916v-1.82
		c0-0.745-0.117-1.302-0.351-1.671c-0.233-0.368-0.602-0.552-1.104-0.552c-0.32,0-0.639,0.075-0.954,0.228
		c-0.316,0.151-0.569,0.344-0.76,0.578v3.835c0,0.338-0.021,0.633-0.064,0.884l0.817-0.039v0.533h-2.648V203.026z"/>
	<path d="M220.644,203.201c-0.48-0.281-0.859-0.685-1.136-1.209c-0.277-0.524-0.416-1.129-0.416-1.813
		c0-0.606,0.139-1.176,0.416-1.709c0.276-0.533,0.664-0.96,1.162-1.28c0.497-0.321,1.063-0.481,1.694-0.481
		c0.493,0,0.938,0.108,1.337,0.325s0.714,0.539,0.947,0.969c0.234,0.429,0.351,0.955,0.351,1.579l-4.569,0.078
		c-0.009,1.04,0.162,1.851,0.513,2.431c0.351,0.581,0.894,0.871,1.629,0.871c0.398,0,0.808-0.104,1.228-0.312
		c0.419-0.208,0.742-0.464,0.967-0.768l0.312,0.26c-0.329,0.503-0.755,0.876-1.278,1.118c-0.524,0.243-1.037,0.364-1.539,0.364
		C221.663,203.624,221.124,203.483,220.644,203.201z M223.779,199.113c0-0.521-0.117-0.967-0.351-1.339
		c-0.234-0.373-0.585-0.56-1.052-0.56c-1.073,0-1.71,0.633-1.908,1.898H223.779z"/>
	<path d="M229.451,206.341c0.251,0,0.431-0.063,0.539-0.188s0.171-0.281,0.188-0.468c0.017-0.187,0.03-0.496,0.039-0.93l0.025-6.279
		c0-0.363,0.018-0.646,0.052-0.845l-0.921,0.052v-0.546c0.51,0,0.86-0.027,1.051-0.084s0.347-0.146,0.468-0.267h0.39
		c0.034,0.425,0.052,0.658,0.052,0.702c0.26-0.234,0.571-0.423,0.935-0.565c0.363-0.144,0.723-0.215,1.078-0.215
		c0.511,0,0.981,0.132,1.415,0.396c0.433,0.265,0.781,0.642,1.045,1.131c0.264,0.49,0.396,1.056,0.396,1.696
		c0,0.72-0.151,1.358-0.454,1.918c-0.303,0.559-0.707,0.994-1.214,1.307c-0.506,0.312-1.054,0.468-1.643,0.468
		c-0.597,0-1.116-0.143-1.558-0.429v2.157c0,0.391-0.018,0.685-0.052,0.885l0.817-0.039v0.533h-2.648V206.341z M233.924,202.727
		c0.299-0.251,0.53-0.602,0.695-1.053c0.164-0.45,0.246-0.962,0.246-1.534c0-0.779-0.167-1.44-0.5-1.982
		c-0.333-0.541-0.828-0.813-1.486-0.813c-0.285,0-0.563,0.069-0.831,0.208s-0.502,0.313-0.701,0.521
		c0.009,0.061,0.014,0.325,0.014,0.793l-0.014,3.73c0.441,0.338,0.948,0.508,1.52,0.508
		C233.272,203.104,233.626,202.979,233.924,202.727z"/>
	<path d="M238.896,203.201c-0.498-0.281-0.892-0.674-1.182-1.176c-0.29-0.503-0.435-1.07-0.435-1.703
		c0-0.676,0.143-1.289,0.429-1.84c0.285-0.55,0.677-0.983,1.175-1.3s1.05-0.475,1.655-0.475c0.598,0,1.146,0.146,1.648,0.436
		s0.898,0.687,1.188,1.189s0.435,1.062,0.435,1.677c0,0.659-0.145,1.266-0.435,1.82s-0.684,0.992-1.182,1.313
		c-0.498,0.321-1.05,0.481-1.655,0.481C239.941,203.624,239.395,203.483,238.896,203.201z M242.039,202.324
		c0.298-0.521,0.447-1.166,0.447-1.938c0-0.875-0.162-1.625-0.486-2.249c-0.325-0.624-0.812-0.936-1.461-0.936
		c-0.641,0-1.123,0.265-1.447,0.793c-0.325,0.528-0.487,1.179-0.487,1.95c0,0.555,0.076,1.072,0.228,1.553
		c0.151,0.481,0.381,0.869,0.688,1.164c0.308,0.295,0.682,0.442,1.123,0.442C241.274,203.104,241.74,202.844,242.039,202.324z"/>
	<path d="M246.491,203.201c-0.498-0.281-0.892-0.674-1.182-1.176c-0.29-0.503-0.435-1.07-0.435-1.703
		c0-0.676,0.143-1.289,0.429-1.84c0.285-0.55,0.677-0.983,1.175-1.3s1.05-0.475,1.655-0.475c0.598,0,1.146,0.146,1.648,0.436
		s0.898,0.687,1.188,1.189s0.435,1.062,0.435,1.677c0,0.659-0.145,1.266-0.435,1.82s-0.684,0.992-1.182,1.313
		c-0.498,0.321-1.05,0.481-1.655,0.481C247.536,203.624,246.989,203.483,246.491,203.201z M249.634,202.324
		c0.298-0.521,0.447-1.166,0.447-1.938c0-0.875-0.162-1.625-0.486-2.249c-0.325-0.624-0.812-0.936-1.461-0.936
		c-0.641,0-1.123,0.265-1.447,0.793c-0.325,0.528-0.487,1.179-0.487,1.95c0,0.555,0.076,1.072,0.228,1.553
		c0.151,0.481,0.381,0.869,0.688,1.164c0.308,0.295,0.682,0.442,1.123,0.442C248.869,203.104,249.335,202.844,249.634,202.324z"/>
	<path d="M252.379,203.026c0.251,0,0.431-0.063,0.539-0.188c0.107-0.126,0.173-0.286,0.194-0.481s0.032-0.5,0.032-0.916v-6.149
		c0-0.329,0.014-0.611,0.039-0.845l-0.922,0.052v-0.546c0.52,0,0.89-0.03,1.11-0.091s0.392-0.147,0.513-0.261h0.377l0.013,8.438
		c0,0.338-0.021,0.633-0.064,0.884l0.817-0.039v0.533h-2.648V203.026z"/>
	<path d="M256.65,199.217c-0.347-0.797-0.528-1.399-0.546-1.807l-0.558,0.039v-0.533h2.389v0.39c-0.381,0-0.571,0.161-0.571,0.481
		c0,0.234,0.091,0.555,0.272,0.962l1,2.288c0.112,0.269,0.242,0.59,0.39,0.962h0.013c0.026-0.087,0.061-0.182,0.104-0.286
		l0.195-0.559l1.038-2.848c0.087-0.251,0.217-0.55,0.39-0.896l-0.831,0.039v-0.533h2.052v0.39c-0.182,0-0.338,0.063-0.468,0.188
		c-0.13,0.126-0.249,0.302-0.356,0.527c-0.108,0.225-0.254,0.571-0.436,1.039l-1.7,4.395h-0.52L256.65,199.217z"/>
	<path d="M262.597,203.026c0.251,0,0.431-0.063,0.539-0.188c0.107-0.126,0.173-0.286,0.194-0.481s0.032-0.5,0.032-0.916v-2.965
		c0-0.251,0.018-0.532,0.053-0.845l-0.922,0.052v-0.546c0.51,0,0.876-0.03,1.097-0.091s0.392-0.147,0.513-0.26h0.377v5.252
		c0,0.39-0.018,0.685-0.053,0.884l0.818-0.039v0.533h-2.648V203.026z M263.401,195.271c-0.139-0.151-0.207-0.331-0.207-0.539
		s0.071-0.391,0.214-0.547c0.143-0.155,0.305-0.233,0.486-0.233c0.199,0,0.366,0.076,0.5,0.228c0.135,0.151,0.201,0.336,0.201,0.553
		c0,0.208-0.071,0.388-0.214,0.539s-0.31,0.228-0.5,0.228C263.7,195.499,263.54,195.423,263.401,195.271z"/>
	<path d="M266.115,203.026c0.251,0,0.431-0.063,0.539-0.188c0.107-0.126,0.173-0.286,0.194-0.481s0.032-0.5,0.032-0.916v-6.149
		c0-0.329,0.014-0.611,0.039-0.845l-0.922,0.052v-0.546c0.52,0,0.89-0.03,1.11-0.091s0.392-0.147,0.513-0.261h0.377l0.013,8.438
		c0,0.338-0.021,0.633-0.064,0.884l0.817-0.039v0.533h-2.648V203.026z"/>
	<path d="M269.646,203.026c0.251,0,0.431-0.063,0.539-0.188c0.107-0.126,0.173-0.286,0.194-0.481s0.032-0.5,0.032-0.916v-6.149
		c0-0.329,0.014-0.611,0.039-0.845l-0.922,0.052v-0.546c0.52,0,0.89-0.03,1.11-0.091s0.392-0.147,0.513-0.261h0.377l0.013,8.438
		c0,0.338-0.021,0.633-0.064,0.884l0.817-0.039v0.533h-2.648V203.026z"/>
	<path d="M273.678,203.195c-0.333-0.286-0.5-0.659-0.5-1.118c0-0.503,0.201-0.928,0.604-1.274s0.909-0.604,1.52-0.773
		s1.222-0.249,1.837-0.24v-0.806c0-0.563-0.082-1.003-0.247-1.32c-0.164-0.315-0.515-0.474-1.052-0.474
		c-0.268,0-0.523,0.056-0.766,0.169c-0.242,0.112-0.42,0.281-0.532,0.507c0.112,0.121,0.169,0.286,0.169,0.494
		c0,0.13-0.048,0.253-0.143,0.37c-0.096,0.117-0.234,0.176-0.416,0.176s-0.324-0.059-0.429-0.176
		c-0.104-0.117-0.155-0.271-0.155-0.462c0-0.285,0.11-0.548,0.331-0.786s0.527-0.427,0.922-0.565
		c0.394-0.139,0.833-0.208,1.317-0.208c0.728,0,1.264,0.193,1.61,0.578c0.346,0.386,0.515,0.995,0.506,1.827l-0.013,2.925
		c0,0.277-0.018,0.572-0.052,0.884l0.922-0.052v0.546h-1.856c-0.026-0.13-0.057-0.377-0.092-0.741
		c-0.632,0.633-1.311,0.949-2.038,0.949C274.493,203.624,274.011,203.481,273.678,203.195z M276.319,202.694
		c0.269-0.125,0.541-0.318,0.818-0.578c-0.009-0.13-0.013-0.352-0.013-0.663l0.013-1.222c-0.71,0.025-1.342,0.171-1.896,0.436
		c-0.554,0.264-0.831,0.669-0.831,1.215c0,0.321,0.095,0.568,0.285,0.741c0.19,0.174,0.434,0.26,0.728,0.26
		C275.753,202.883,276.051,202.82,276.319,202.694z"/>
</g>
<g>
	<path d="M55.646,267.648c0-5.039,0-5.969-0.066-7.029c-0.066-1.127-0.331-1.658-1.426-1.891c-0.265-0.066-0.829-0.1-1.293-0.1
		c-0.364,0-0.563-0.064-0.563-0.297s0.231-0.299,0.729-0.299c1.757,0,3.846,0.1,4.509,0.1c1.625,0,2.918-0.1,4.046-0.1
		c6.001,0,7.063,3.217,7.063,4.973c0,2.719-1.559,4.344-3.383,5.803c2.72,0.93,6.035,3.283,6.035,7.162
		c0,3.549-2.752,7.229-8.854,7.229c-0.397,0-1.359-0.066-2.32-0.1c-0.995-0.066-1.989-0.1-2.487-0.1c-0.364,0-1.094,0-1.89,0.033
		c-0.763,0-1.625,0.066-2.288,0.066c-0.431,0-0.663-0.1-0.663-0.332c0-0.164,0.133-0.264,0.53-0.264
		c0.498,0,0.896-0.066,1.194-0.133c0.663-0.133,0.828-0.863,0.961-1.824c0.166-1.393,0.166-4.012,0.166-7.063V267.648z
		 M59.625,268.213c0,0.266,0.1,0.33,0.232,0.363c0.299,0.066,0.796,0.1,1.559,0.1c1.094,0,1.823-0.133,2.388-0.629
		c0.861-0.697,1.359-1.891,1.359-3.516c0-2.221-1.294-5.139-4.146-5.139c-0.464,0-0.762,0-1.094,0.066
		c-0.232,0.066-0.299,0.199-0.299,0.563V268.213z M64.002,270.865c-0.696-0.498-1.459-0.73-2.752-0.797
		c-0.597-0.033-0.929-0.033-1.426-0.033c-0.133,0-0.199,0.066-0.199,0.232v7.859c0,2.188,0.1,2.752,1.161,3.182
		c0.896,0.365,1.657,0.398,2.42,0.398c1.492,0,4.013-0.795,4.013-4.244C67.219,275.408,66.522,272.623,64.002,270.865z"/>
	<path d="M78.688,275.971c-0.166,0-0.199,0.033-0.265,0.199l-1.559,3.813c-0.299,0.697-0.432,1.393-0.432,1.725
		c0,0.498,0.266,0.797,1.161,0.797h0.431c0.365,0,0.432,0.133,0.432,0.297c0,0.232-0.166,0.299-0.465,0.299
		c-0.961,0-2.321-0.1-3.249-0.1c-0.299,0-1.857,0.1-3.382,0.1c-0.365,0-0.531-0.066-0.531-0.299c0-0.164,0.1-0.297,0.332-0.297
		c0.265,0,0.597-0.033,0.862-0.033c1.326-0.199,1.823-1.063,2.42-2.488l7.626-17.605c0.332-0.797,0.564-1.127,0.862-1.127
		c0.432,0,0.563,0.264,0.862,0.895c0.696,1.559,5.57,12.965,7.427,17.242c1.128,2.553,1.957,2.918,2.487,3.018
		c0.431,0.066,0.763,0.1,1.094,0.1c0.266,0,0.398,0.1,0.398,0.297c0,0.232-0.166,0.299-1.26,0.299c-1.028,0-3.15,0-5.604-0.066
		c-0.531-0.033-0.862-0.033-0.862-0.232c0-0.164,0.066-0.264,0.364-0.297c0.199-0.033,0.398-0.299,0.266-0.631l-2.255-5.703
		c-0.066-0.166-0.166-0.199-0.298-0.199H78.688z M84.922,274.412c0.133,0,0.166-0.066,0.133-0.166l-2.752-7.063
		c-0.033-0.1-0.066-0.264-0.133-0.264c-0.1,0-0.133,0.164-0.165,0.264l-2.818,7.029c-0.066,0.133,0,0.199,0.099,0.199H84.922z"/>
	<path d="M96.956,269.936c0-4.275,0.033-5.072-0.033-5.967c-0.066-0.996-0.331-1.26-1.26-1.525c-0.232-0.066-0.729-0.1-1.127-0.1
		c-0.332,0-0.498-0.1-0.498-0.299s0.199-0.266,0.631-0.266c1.558,0,3.515,0.066,4.376,0.066c0.729,0,2.687-0.066,3.747-0.066
		c0.431,0,0.63,0.066,0.63,0.266s-0.166,0.299-0.464,0.299c-0.332,0-0.498,0.033-0.862,0.1c-0.763,0.133-0.995,0.529-1.061,1.525
		c-0.066,0.895-0.066,1.691-0.066,5.967v3.947c0,4.111,0.795,5.703,2.221,6.83c1.294,1.027,2.687,1.127,3.681,1.127
		c1.26,0,2.752-0.365,3.913-1.492c1.624-1.525,1.69-3.979,1.69-6.863v-3.549c0-4.275-0.033-5.072-0.066-5.967
		c-0.065-0.963-0.298-1.26-1.227-1.525c-0.232-0.066-0.729-0.1-1.061-0.1c-0.332,0-0.498-0.1-0.498-0.299s0.199-0.266,0.598-0.266
		c1.491,0,3.448,0.066,3.481,0.066c0.331,0,2.287-0.066,3.415-0.066c0.397,0,0.597,0.066,0.597,0.266s-0.166,0.299-0.497,0.299
		c-0.332,0-0.498,0.033-0.862,0.1c-0.796,0.133-0.995,0.529-1.062,1.525c-0.033,0.895-0.066,1.691-0.066,5.967v3.018
		c0,3.15-0.331,6.467-2.785,8.488c-2.056,1.725-4.277,2.023-6.167,2.023c-1.525,0-4.542-0.066-6.664-1.924
		c-1.492-1.293-2.653-3.381-2.653-7.459V269.936z"/>
	<path d="M123.978,262.012c0.066-0.465,0.331-0.729,0.563-0.729c0.299,0,0.497,0.133,0.896,0.895l7.825,15.584l7.825-15.783
		c0.231-0.465,0.497-0.695,0.763-0.695c0.231,0,0.563,0.297,0.663,0.895l2.652,17.342c0.266,1.756,0.53,2.52,1.426,2.785
		c0.829,0.232,1.293,0.266,1.658,0.266c0.265,0,0.464,0.098,0.464,0.264c0,0.232-0.332,0.332-0.763,0.332
		c-0.729,0-4.874-0.1-6.034-0.166c-0.696-0.033-0.862-0.166-0.862-0.332c0-0.131,0.133-0.23,0.331-0.297
		c0.166-0.066,0.232-0.398,0.133-1.193l-1.625-12.17h-0.099l-6.268,12.467c-0.663,1.326-0.828,1.592-1.16,1.592
		c-0.364,0-0.696-0.563-1.16-1.426c-0.696-1.293-3.018-5.604-3.35-6.398c-0.231-0.531-1.956-3.945-2.917-5.902h-0.1l-1.393,10.875
		c-0.066,0.498-0.1,0.863-0.1,1.326c0,0.531,0.397,0.73,0.896,0.83c0.497,0.1,0.762,0.133,1.027,0.133s0.464,0.133,0.464,0.264
		c0,0.266-0.265,0.332-0.696,0.332c-1.227,0-2.553-0.1-3.083-0.1c-0.563,0-1.956,0.1-2.885,0.1c-0.299,0-0.53-0.066-0.53-0.332
		c0-0.131,0.165-0.264,0.464-0.264c0.232,0,0.431,0,0.896-0.066c0.796-0.1,1.061-1.227,1.193-2.156L123.978,262.012z"/>
	<path d="M171.157,268.576c0.1,0,0.198-0.066,0.198-0.23v-0.697c0-5.039,0-5.969-0.065-7.029c-0.066-1.127-0.332-1.658-1.426-1.891
		c-0.266-0.066-0.829-0.1-1.294-0.1c-0.364,0-0.563-0.064-0.563-0.297s0.232-0.299,0.696-0.299c1.791,0,3.88,0.1,4.774,0.1
		c0.796,0,2.885-0.1,4.179-0.1c0.464,0,0.696,0.066,0.696,0.299s-0.199,0.297-0.598,0.297c-0.265,0-0.563,0.033-0.961,0.1
		c-0.896,0.166-1.161,0.73-1.227,1.891c-0.066,1.061-0.066,1.99-0.066,7.029v5.836c0,3.051,0,5.67,0.165,7.096
		c0.1,0.928,0.299,1.658,1.294,1.791c0.464,0.066,1.193,0.133,1.69,0.133c0.365,0,0.53,0.1,0.53,0.264
		c0,0.232-0.265,0.332-0.663,0.332c-2.155,0-4.244-0.1-5.172-0.1c-0.763,0-2.852,0.1-4.145,0.1c-0.465,0-0.696-0.1-0.696-0.332
		c0-0.164,0.132-0.264,0.53-0.264c0.497,0,0.896-0.066,1.193-0.133c0.663-0.133,0.829-0.863,0.962-1.824
		c0.165-1.393,0.165-4.012,0.165-7.063v-2.918c0-0.133-0.099-0.199-0.198-0.199h-12.666c-0.1,0-0.199,0.033-0.199,0.199v2.918
		c0,3.051,0,5.67,0.166,7.096c0.1,0.928,0.299,1.658,1.293,1.791c0.464,0.066,1.193,0.133,1.691,0.133c0.364,0,0.53,0.1,0.53,0.264
		c0,0.232-0.266,0.332-0.663,0.332c-2.155,0-4.244-0.1-5.173-0.1c-0.763,0-2.852,0.1-4.178,0.1c-0.431,0-0.663-0.1-0.663-0.332
		c0-0.164,0.133-0.264,0.53-0.264c0.498,0,0.896-0.066,1.194-0.133c0.663-0.133,0.828-0.863,0.961-1.824
		c0.166-1.393,0.166-4.012,0.166-7.063v-5.836c0-5.039,0-5.969-0.066-7.029c-0.066-1.127-0.331-1.658-1.426-1.891
		c-0.265-0.066-0.829-0.1-1.293-0.1c-0.364,0-0.563-0.064-0.563-0.297s0.231-0.299,0.696-0.299c1.79,0,3.879,0.1,4.774,0.1
		c0.796,0,2.885-0.1,4.178-0.1c0.464,0,0.696,0.066,0.696,0.299s-0.199,0.297-0.597,0.297c-0.266,0-0.563,0.033-0.962,0.1
		c-0.895,0.166-1.16,0.73-1.227,1.891c-0.066,1.061-0.066,1.99-0.066,7.029v0.697c0,0.164,0.1,0.23,0.199,0.23H171.157z"/>
	<path d="M182.195,272.424c0-4.809,3.382-11.041,12.234-11.041c7.361,0,11.938,4.078,11.938,10.543
		c0,6.467-4.709,11.539-12.235,11.539C185.644,283.465,182.195,277.43,182.195,272.424z M202.023,272.953
		c0-6.232-3.747-10.08-8.455-10.08c-3.25,0-7.063,1.725-7.063,8.688c0,5.803,3.315,10.379,8.819,10.379
		C197.381,281.939,202.023,280.979,202.023,272.953z"/>
	<path d="M211.537,269.936c0-4.275,0.033-5.072-0.033-5.967c-0.066-0.996-0.331-1.26-1.26-1.525c-0.232-0.066-0.729-0.1-1.128-0.1
		c-0.331,0-0.497-0.1-0.497-0.299s0.199-0.266,0.63-0.266c1.559,0,3.515,0.066,4.377,0.066c0.729,0,2.686-0.066,3.747-0.066
		c0.431,0,0.63,0.066,0.63,0.266s-0.166,0.299-0.464,0.299c-0.332,0-0.498,0.033-0.862,0.1c-0.763,0.133-0.995,0.529-1.062,1.525
		c-0.066,0.895-0.066,1.691-0.066,5.967v3.947c0,4.111,0.796,5.703,2.222,6.83c1.293,1.027,2.686,1.127,3.681,1.127
		c1.26,0,2.752-0.365,3.912-1.492c1.625-1.525,1.691-3.979,1.691-6.863v-3.549c0-4.275-0.033-5.072-0.066-5.967
		c-0.066-0.963-0.298-1.26-1.227-1.525c-0.232-0.066-0.729-0.1-1.062-0.1c-0.331,0-0.497-0.1-0.497-0.299s0.199-0.266,0.597-0.266
		c1.492,0,3.448,0.066,3.481,0.066c0.332,0,2.288-0.066,3.416-0.066c0.397,0,0.597,0.066,0.597,0.266s-0.166,0.299-0.498,0.299
		c-0.331,0-0.497,0.033-0.861,0.1c-0.796,0.133-0.995,0.529-1.062,1.525c-0.033,0.895-0.066,1.691-0.066,5.967v3.018
		c0,3.15-0.331,6.467-2.785,8.488c-2.056,1.725-4.277,2.023-6.167,2.023c-1.525,0-4.543-0.066-6.665-1.924
		c-1.492-1.293-2.652-3.381-2.652-7.459V269.936z"/>
	<path d="M236.403,282.734c-0.465-0.197-0.564-0.33-0.564-0.961c0-1.525,0.133-3.283,0.166-3.746c0-0.432,0.133-0.73,0.365-0.73
		c0.265,0,0.298,0.266,0.298,0.465c0,0.365,0.1,0.961,0.266,1.459c0.63,2.088,2.818,2.785,4.642,2.785
		c2.521,0,4.045-1.592,4.045-3.582c0-1.227-0.298-2.453-2.884-3.979l-1.691-0.994c-3.448-2.023-4.576-3.912-4.576-6.398
		c0-3.449,3.316-5.67,7.361-5.67c1.89,0,3.382,0.264,4.145,0.463c0.266,0.066,0.398,0.166,0.398,0.365c0,0.365-0.1,1.16-0.1,3.383
		c0,0.596-0.133,0.895-0.365,0.895c-0.198,0-0.298-0.166-0.298-0.498c0-0.266-0.133-1.127-0.763-1.855
		c-0.432-0.531-1.359-1.326-3.25-1.326c-2.089,0-3.979,1.094-3.979,3.016c0,1.26,0.464,2.256,3.084,3.715l1.193,0.662
		c3.846,2.123,5.04,4.277,5.04,6.83c0,2.09-0.796,3.781-2.918,5.273c-1.393,0.994-3.315,1.16-4.874,1.16
		C239.453,283.465,237.663,283.299,236.403,282.734z"/>
	<path d="M255.234,269.936c0-4.275,0-5.072-0.033-5.967c-0.066-0.963-0.331-1.26-1.26-1.525c-0.232-0.066-0.729-0.1-1.16-0.1
		c-0.299,0-0.498-0.1-0.498-0.299s0.232-0.266,0.663-0.266c1.525,0,3.383,0.066,4.212,0.066c0.928,0,7.394,0.033,7.957,0
		c0.531-0.033,0.995-0.133,1.228-0.166c0.165-0.033,0.331-0.133,0.464-0.133c0.166,0,0.199,0.133,0.199,0.266
		c0,0.199-0.166,0.531-0.232,1.824c-0.033,0.299-0.1,1.525-0.166,1.857c-0.033,0.133-0.1,0.463-0.331,0.463
		c-0.199,0-0.232-0.133-0.232-0.363c0-0.199-0.033-0.697-0.199-1.029c-0.231-0.496-0.464-0.895-1.923-1.027
		c-0.497-0.066-3.979-0.133-4.576-0.133c-0.132,0-0.198,0.1-0.198,0.266v6.963c0,0.166,0.033,0.299,0.198,0.299
		c0.663,0,4.443,0,5.106-0.066c0.696-0.066,1.095-0.166,1.393-0.432c0.232-0.199,0.332-0.365,0.465-0.365
		c0.132,0,0.231,0.133,0.231,0.299s-0.066,0.631-0.231,2.057c-0.066,0.563-0.133,1.691-0.133,1.889c0,0.232-0.033,0.631-0.299,0.631
		c-0.199,0-0.265-0.1-0.265-0.232c-0.033-0.299-0.033-0.662-0.1-1.027c-0.166-0.564-0.531-0.994-1.625-1.094
		c-0.53-0.066-3.847-0.133-4.576-0.133c-0.132,0-0.165,0.133-0.165,0.297v2.256c0,0.961-0.033,3.35,0,4.178
		c0.066,1.924,0.961,2.354,3.945,2.354c0.763,0,1.989-0.033,2.752-0.363c0.729-0.332,1.062-0.93,1.26-2.09
		c0.066-0.299,0.133-0.432,0.332-0.432c0.232,0,0.266,0.365,0.266,0.664c0,0.629-0.232,2.553-0.398,3.117
		c-0.199,0.729-0.464,0.729-1.559,0.729c-2.188,0-3.945-0.033-5.371-0.1c-1.426-0.033-2.52-0.066-3.382-0.066
		c-0.332,0-0.962,0.033-1.658,0.033c-0.696,0.033-1.426,0.066-2.022,0.066c-0.365,0-0.563-0.1-0.563-0.299
		c0-0.133,0.1-0.297,0.464-0.297c0.432,0,0.763-0.033,1.028-0.1c0.597-0.133,0.763-0.664,0.861-1.492
		c0.133-1.193,0.133-3.416,0.133-6.002V269.936z"/>
</g>
</svg>
