<?xml version="1.0" encoding="utf-8"?>
<!-- Generator: Adobe Illustrator 16.0.0, SVG Export Plug-In . SVG Version: 6.00 Build 0)  -->
<!DOCTYPE svg PUBLIC "-//W3C//DTD SVG 1.1//EN" "http://www.w3.org/Graphics/SVG/1.1/DTD/svg11.dtd">
<svg version="1.1" xmlns="http://www.w3.org/2000/svg" xmlns:xlink="http://www.w3.org/1999/xlink" x="0px" y="0px" width="370px"
	 height="80px" viewBox="0 0 370 80" enable-background="new 0 0 370 80" xml:space="preserve">
<g id="BaumHouse">
	<g>
		<path d="M9.064,48.12c0-8.358,0-9.898-0.111-11.658c-0.11-1.87-0.553-2.75-2.376-3.135c-0.442-0.11-1.381-0.165-2.155-0.165
			c-0.608,0-0.939-0.11-0.939-0.495s0.387-0.495,1.216-0.495c2.929,0,6.411,0.165,7.516,0.165c2.708,0,4.864-0.165,6.743-0.165
			c10.003,0,11.772,5.334,11.772,8.25c0,4.509-2.598,7.203-5.637,9.623c4.532,1.54,10.059,5.444,10.059,11.879
			c0,5.884-4.587,11.988-14.756,11.988c-0.663,0-2.266-0.11-3.869-0.165c-1.658-0.11-3.316-0.165-4.145-0.165
			c-0.608,0-1.824,0-3.15,0.055c-1.271,0-2.708,0.11-3.813,0.11c-0.718,0-1.105-0.165-1.105-0.55c0-0.275,0.221-0.44,0.884-0.44
			c0.829,0,1.492-0.109,1.989-0.22c1.105-0.22,1.382-1.43,1.603-3.024c0.276-2.31,0.276-6.654,0.276-11.714V48.12z M15.696,49.056
			c0,0.439,0.166,0.55,0.387,0.604c0.497,0.11,1.326,0.165,2.597,0.165c1.824,0,3.04-0.22,3.979-1.045
			c1.437-1.155,2.266-3.135,2.266-5.829c0-3.685-2.156-8.524-6.909-8.524c-0.774,0-1.271,0-1.824,0.11
			c-0.387,0.11-0.498,0.33-0.498,0.935V49.056z M22.991,53.455c-1.161-0.825-2.432-1.21-4.587-1.32
			c-0.995-0.055-1.547-0.055-2.376-0.055c-0.221,0-0.332,0.109-0.332,0.385v13.033c0,3.63,0.166,4.564,1.935,5.279
			c1.492,0.605,2.763,0.66,4.035,0.66c2.487,0,6.687-1.32,6.687-7.039C28.352,60.988,27.191,56.369,22.991,53.455z"/>
		<path d="M49.13,61.924c-0.276,0-0.332,0.055-0.442,0.33l-2.598,6.324c-0.498,1.154-0.719,2.31-0.719,2.859
			c0,0.824,0.442,1.319,1.935,1.319h0.718c0.608,0,0.719,0.221,0.719,0.495c0,0.385-0.276,0.495-0.774,0.495
			c-1.603,0-3.869-0.165-5.416-0.165c-0.498,0-3.095,0.165-5.637,0.165c-0.608,0-0.884-0.11-0.884-0.495
			c0-0.274,0.166-0.495,0.553-0.495c0.442,0,0.995-0.055,1.437-0.055c2.211-0.33,3.04-1.76,4.035-4.124l12.711-29.202
			c0.553-1.32,0.939-1.87,1.437-1.87c0.719,0,0.939,0.44,1.437,1.485c1.161,2.584,9.285,21.502,12.38,28.596
			c1.879,4.234,3.261,4.839,4.145,5.004c0.719,0.11,1.271,0.165,1.824,0.165c0.442,0,0.664,0.165,0.664,0.495
			c0,0.385-0.276,0.495-2.101,0.495c-1.713,0-5.25,0-9.34-0.11c-0.884-0.055-1.437-0.055-1.437-0.385
			c0-0.274,0.11-0.439,0.608-0.495c0.332-0.055,0.663-0.495,0.442-1.045l-3.758-9.458c-0.111-0.275-0.276-0.33-0.498-0.33H49.13z
			 M59.52,59.339c0.221,0,0.276-0.11,0.221-0.274l-4.587-11.714c-0.056-0.165-0.111-0.44-0.221-0.44
			c-0.166,0-0.221,0.275-0.276,0.44l-4.698,11.658c-0.11,0.22,0,0.33,0.166,0.33H59.52z"/>
		<path d="M79.856,51.915c0-7.094,0.055-8.414-0.055-9.898c-0.111-1.65-0.553-2.09-2.1-2.53c-0.387-0.11-1.216-0.165-1.879-0.165
			c-0.553,0-0.829-0.165-0.829-0.495s0.332-0.44,1.05-0.44c2.598,0,5.858,0.11,7.295,0.11c1.216,0,4.477-0.11,6.245-0.11
			c0.718,0,1.05,0.11,1.05,0.44s-0.276,0.495-0.773,0.495c-0.553,0-0.829,0.055-1.437,0.165c-1.271,0.22-1.658,0.88-1.769,2.53
			c-0.11,1.484-0.11,2.805-0.11,9.898v6.544c0,6.819,1.326,9.459,3.703,11.328c2.155,1.705,4.477,1.87,6.135,1.87
			c2.1,0,4.587-0.604,6.521-2.475c2.708-2.529,2.819-6.599,2.819-11.384v-5.884c0-7.094-0.056-8.414-0.111-9.898
			c-0.11-1.595-0.497-2.09-2.045-2.53c-0.387-0.11-1.216-0.165-1.769-0.165s-0.829-0.165-0.829-0.495s0.332-0.44,0.995-0.44
			c2.487,0,5.748,0.11,5.803,0.11c0.552,0,3.813-0.11,5.692-0.11c0.663,0,0.995,0.11,0.995,0.44s-0.276,0.495-0.829,0.495
			c-0.552,0-0.829,0.055-1.437,0.165c-1.327,0.22-1.658,0.88-1.769,2.53c-0.056,1.484-0.111,2.805-0.111,9.898v5.004
			c0,5.225-0.553,10.724-4.643,14.078c-3.426,2.86-7.129,3.354-10.279,3.354c-2.542,0-7.572-0.109-11.109-3.189
			c-2.487-2.145-4.421-5.609-4.421-12.373V51.915z"/>
		<path d="M125.78,38.771c0.111-0.77,0.553-1.209,0.939-1.209c0.498,0,0.829,0.22,1.492,1.485l13.043,25.847l13.043-26.177
			c0.387-0.77,0.829-1.155,1.271-1.155c0.387,0,0.939,0.495,1.105,1.485l4.421,28.761c0.442,2.915,0.884,4.18,2.376,4.619
			c1.382,0.386,2.155,0.44,2.763,0.44c0.442,0,0.774,0.165,0.774,0.439c0,0.386-0.553,0.551-1.271,0.551
			c-1.216,0-8.125-0.165-10.059-0.275c-1.161-0.055-1.437-0.275-1.437-0.55c0-0.22,0.221-0.385,0.553-0.495
			c0.276-0.11,0.387-0.66,0.221-1.979l-2.708-20.183h-0.166l-10.446,20.678c-1.105,2.199-1.382,2.64-1.934,2.64
			c-0.608,0-1.161-0.936-1.935-2.365c-1.161-2.145-5.029-9.294-5.582-10.613c-0.387-0.88-3.261-6.544-4.863-9.789h-0.166
			l-2.321,18.038c-0.11,0.824-0.166,1.43-0.166,2.199c0,0.88,0.663,1.21,1.492,1.375s1.271,0.22,1.713,0.22
			c0.442,0,0.774,0.221,0.774,0.44c0,0.439-0.442,0.55-1.161,0.55c-2.045,0-4.255-0.165-5.14-0.165
			c-0.939,0-3.261,0.165-4.809,0.165c-0.497,0-0.884-0.11-0.884-0.55c0-0.22,0.276-0.44,0.774-0.44c0.387,0,0.719,0,1.492-0.109
			c1.327-0.165,1.769-2.035,1.99-3.575L125.78,38.771z"/>
		<path d="M204.422,49.66c0.166,0,0.332-0.11,0.332-0.385V48.12c0-8.358,0-9.898-0.11-11.658c-0.11-1.87-0.553-2.75-2.377-3.135
			c-0.441-0.11-1.382-0.165-2.155-0.165c-0.607,0-0.939-0.11-0.939-0.495s0.387-0.495,1.161-0.495c2.984,0,6.466,0.165,7.958,0.165
			c1.326,0,4.809-0.165,6.964-0.165c0.773,0,1.16,0.11,1.16,0.495s-0.331,0.495-0.994,0.495c-0.442,0-0.939,0.055-1.604,0.165
			c-1.492,0.275-1.934,1.21-2.045,3.135c-0.11,1.76-0.11,3.3-0.11,11.658v9.679c0,5.06,0,9.404,0.276,11.769
			c0.166,1.54,0.498,2.75,2.155,2.97c0.774,0.11,1.99,0.22,2.819,0.22c0.607,0,0.884,0.165,0.884,0.44
			c0,0.385-0.442,0.55-1.105,0.55c-3.592,0-7.074-0.165-8.621-0.165c-1.271,0-4.753,0.165-6.909,0.165
			c-0.773,0-1.16-0.165-1.16-0.55c0-0.275,0.221-0.44,0.884-0.44c0.829,0,1.492-0.109,1.99-0.22c1.105-0.22,1.382-1.43,1.603-3.024
			c0.276-2.31,0.276-6.654,0.276-11.714V52.96c0-0.22-0.166-0.33-0.332-0.33H183.31c-0.166,0-0.332,0.055-0.332,0.33v4.839
			c0,5.06,0,9.404,0.276,11.769c0.166,1.54,0.498,2.75,2.155,2.97c0.774,0.11,1.99,0.22,2.818,0.22c0.608,0,0.885,0.165,0.885,0.44
			c0,0.385-0.442,0.55-1.105,0.55c-3.592,0-7.074-0.165-8.622-0.165c-1.271,0-4.753,0.165-6.964,0.165
			c-0.718,0-1.105-0.165-1.105-0.55c0-0.275,0.221-0.44,0.884-0.44c0.829,0,1.492-0.109,1.989-0.22
			c1.105-0.22,1.382-1.43,1.603-3.024c0.276-2.31,0.276-6.654,0.276-11.714V48.12c0-8.358,0-9.898-0.111-11.658
			c-0.11-1.87-0.552-2.75-2.376-3.135c-0.442-0.11-1.381-0.165-2.155-0.165c-0.608,0-0.939-0.11-0.939-0.495
			s0.387-0.495,1.161-0.495c2.984,0,6.466,0.165,7.958,0.165c1.326,0,4.808-0.165,6.964-0.165c0.773,0,1.16,0.11,1.16,0.495
			s-0.331,0.495-0.995,0.495c-0.441,0-0.939,0.055-1.603,0.165c-1.492,0.275-1.934,1.21-2.044,3.135
			c-0.111,1.76-0.111,3.3-0.111,11.658v1.155c0,0.274,0.166,0.385,0.332,0.385H204.422z"/>
		<path d="M223.375,56.039c0-7.974,5.638-18.313,20.395-18.313c12.269,0,19.896,6.765,19.896,17.488s-7.848,19.137-20.394,19.137
			C229.123,74.352,223.375,64.344,223.375,56.039z M256.426,56.919c0-10.338-6.246-16.718-14.094-16.718
			c-5.416,0-11.771,2.86-11.771,14.408c0,9.624,5.526,17.213,14.701,17.213C248.688,71.822,256.426,70.228,256.426,56.919z"/>
		<path d="M272.284,51.915c0-7.094,0.056-8.414-0.056-9.898c-0.11-1.65-0.553-2.09-2.1-2.53c-0.387-0.11-1.216-0.165-1.879-0.165
			c-0.553,0-0.829-0.165-0.829-0.495s0.331-0.44,1.05-0.44c2.598,0,5.858,0.11,7.295,0.11c1.216,0,4.477-0.11,6.245-0.11
			c0.719,0,1.051,0.11,1.051,0.44s-0.276,0.495-0.774,0.495c-0.553,0-0.828,0.055-1.437,0.165c-1.271,0.22-1.658,0.88-1.769,2.53
			c-0.11,1.484-0.11,2.805-0.11,9.898v6.544c0,6.819,1.326,9.459,3.703,11.328c2.155,1.705,4.477,1.87,6.134,1.87
			c2.101,0,4.588-0.604,6.522-2.475c2.708-2.529,2.818-6.599,2.818-11.384v-5.884c0-7.094-0.056-8.414-0.11-9.898
			c-0.111-1.595-0.498-2.09-2.045-2.53c-0.387-0.11-1.216-0.165-1.769-0.165s-0.829-0.165-0.829-0.495s0.331-0.44,0.994-0.44
			c2.487,0,5.748,0.11,5.804,0.11c0.553,0,3.813-0.11,5.692-0.11c0.663,0,0.995,0.11,0.995,0.44s-0.276,0.495-0.829,0.495
			s-0.829,0.055-1.438,0.165c-1.326,0.22-1.658,0.88-1.769,2.53c-0.055,1.484-0.11,2.805-0.11,9.898v5.004
			c0,5.225-0.553,10.724-4.643,14.078c-3.427,2.86-7.129,3.354-10.279,3.354c-2.543,0-7.572-0.109-11.109-3.189
			c-2.486-2.145-4.421-5.609-4.421-12.373V51.915z"/>
		<path d="M313.732,73.143c-0.773-0.33-0.939-0.551-0.939-1.596c0-2.529,0.221-5.443,0.276-6.214c0-0.715,0.221-1.21,0.607-1.21
			c0.442,0,0.498,0.44,0.498,0.771c0,0.604,0.166,1.595,0.442,2.419c1.05,3.465,4.697,4.62,7.737,4.62c4.2,0,6.742-2.64,6.742-5.939
			c0-2.035-0.497-4.069-4.809-6.6l-2.818-1.649c-5.748-3.354-7.627-6.489-7.627-10.613c0-5.72,5.527-9.404,12.27-9.404
			c3.15,0,5.638,0.44,6.908,0.77c0.442,0.11,0.663,0.275,0.663,0.605c0,0.605-0.165,1.925-0.165,5.609
			c0,0.99-0.222,1.484-0.608,1.484c-0.332,0-0.497-0.274-0.497-0.824c0-0.44-0.222-1.87-1.271-3.08
			c-0.719-0.88-2.266-2.199-5.416-2.199c-3.482,0-6.632,1.814-6.632,5.004c0,2.09,0.773,3.739,5.14,6.159l1.989,1.1
			c6.411,3.52,8.4,7.095,8.4,11.329c0,3.464-1.326,6.269-4.863,8.743c-2.321,1.65-5.526,1.925-8.124,1.925
			C318.817,74.352,315.833,74.077,313.732,73.143z"/>
		<path d="M346.227,51.915c0-7.094,0-8.414-0.055-9.898c-0.11-1.595-0.553-2.09-2.101-2.53c-0.387-0.11-1.216-0.165-1.934-0.165
			c-0.498,0-0.829-0.165-0.829-0.495s0.387-0.44,1.105-0.44c2.542,0,5.637,0.11,7.019,0.11c1.548,0,12.324,0.055,13.264,0
			c0.885-0.055,1.658-0.22,2.045-0.275c0.276-0.055,0.553-0.22,0.774-0.22c0.276,0,0.331,0.22,0.331,0.44
			c0,0.33-0.276,0.88-0.387,3.025c-0.055,0.494-0.166,2.529-0.276,3.079c-0.055,0.22-0.166,0.77-0.553,0.77
			c-0.331,0-0.387-0.22-0.387-0.604c0-0.33-0.056-1.155-0.332-1.705c-0.387-0.824-0.773-1.484-3.205-1.704
			c-0.829-0.11-6.632-0.221-7.627-0.221c-0.221,0-0.331,0.165-0.331,0.44v11.548c0,0.275,0.055,0.495,0.331,0.495
			c1.105,0,7.406,0,8.512-0.109c1.16-0.11,1.823-0.275,2.32-0.715c0.388-0.33,0.553-0.605,0.774-0.605
			c0.221,0,0.387,0.22,0.387,0.495c0,0.274-0.11,1.045-0.387,3.409c-0.11,0.936-0.222,2.805-0.222,3.135
			c0,0.385-0.055,1.045-0.497,1.045c-0.331,0-0.442-0.165-0.442-0.385c-0.055-0.495-0.055-1.1-0.165-1.705
			c-0.276-0.935-0.885-1.649-2.709-1.814c-0.884-0.11-6.41-0.22-7.626-0.22c-0.222,0-0.276,0.22-0.276,0.494v3.74
			c0,1.595-0.056,5.554,0,6.929c0.11,3.189,1.603,3.904,6.576,3.904c1.271,0,3.316-0.055,4.587-0.604
			c1.217-0.55,1.77-1.54,2.101-3.465c0.11-0.495,0.221-0.715,0.553-0.715c0.387,0,0.442,0.604,0.442,1.1
			c0,1.045-0.387,4.234-0.663,5.17c-0.332,1.21-0.774,1.21-2.598,1.21c-3.647,0-6.577-0.056-8.953-0.165
			c-2.377-0.056-4.201-0.11-5.638-0.11c-0.553,0-1.603,0.055-2.764,0.055c-1.16,0.056-2.376,0.11-3.371,0.11
			c-0.607,0-0.939-0.165-0.939-0.495c0-0.22,0.166-0.495,0.773-0.495c0.719,0,1.271-0.055,1.714-0.165
			c0.994-0.22,1.271-1.1,1.437-2.475c0.221-1.979,0.221-5.664,0.221-9.953V51.915z"/>
	</g>
</g>
<g id="아름다운_바다를_품은_고품격_프라이빗_풀빌라">
	<g>
		<path d="M15.768,10.945c0,3.582-1.711,5.873-4.172,5.873s-4.172-2.292-4.172-5.873c0-3.563,1.711-5.873,4.172-5.873
			S15.768,7.383,15.768,10.945z M14.806,10.945c0-2.927-1.327-4.968-3.21-4.968c-1.884,0-3.211,2.042-3.211,4.968
			c0,2.908,1.327,4.987,3.211,4.987C13.479,15.933,14.806,13.853,14.806,10.945z M23.054,11.6h-3v9.186h-1.019v-17.1h1.019v7.048h3
			V11.6z"/>
		<path d="M40.242,12.621v0.847H24.746v-0.847H40.242z M37.185,5.014h-10.44V4.167h11.439v3.697H27.783v2.118h10.786v0.847H26.784
			V7.075h10.401V5.014z M26.899,15.375h11.247v5.141H26.899V15.375z M27.898,19.649h9.267v-3.428h-9.267V19.649z"/>
		<path d="M44.51,15.548c3.307,0,5.499-0.135,8.056-0.616l0.134,0.886c-2.653,0.5-4.845,0.616-8.19,0.616h-1.289V5.38h7.902v0.866
			H44.24v9.301H44.51z M58.429,11.562h-3v9.243h-1.019V3.686h1.019v7.009h3V11.562z"/>
		<path d="M75.617,12.582v0.867h-7.114v3.793h-1.019v-3.793h-7.383v-0.867H75.617z M61.966,7.537c0-2.08,2.307-3.351,5.864-3.351
			c3.596,0,5.902,1.271,5.902,3.351c0,2.08-2.307,3.37-5.902,3.37C64.273,10.907,61.966,9.617,61.966,7.537z M63.197,19.476h10.709
			v0.886H62.197v-4.911h1V19.476z M63.024,7.537c0,1.502,1.961,2.503,4.806,2.503c2.884,0,4.845-1.001,4.845-2.503
			s-1.961-2.503-4.845-2.503C64.985,5.034,63.024,6.035,63.024,7.537z"/>
		<path d="M89.612,5.168h1v11.419h-7.749V5.168h1.019v4.737h5.729V5.168z M89.612,10.753h-5.729v4.968h5.729V10.753z M98.072,11.542
			h-3v9.243h-1.019v-17.1h1.019v6.933h3V11.542z"/>
		<path d="M101.84,15.548c3.307,0,5.499-0.135,8.056-0.616l0.134,0.886c-2.653,0.5-4.845,0.616-8.19,0.616h-1.289V5.38h7.902v0.866
			h-6.883v9.301H101.84z M115.759,11.562h-3v9.243h-1.019V3.686h1.019v7.009h3V11.562z"/>
		<path d="M132.947,11.792v0.809h-15.515v-0.809H132.947z M120.392,19.688h11.151v0.809h-12.132v-3.563h10.555v-1.81h-10.613v-0.79
			h11.593v3.37h-10.555V19.688z M129.89,5.072h-10.44v-0.79h11.439v3.273h-10.401v1.849h10.709v0.79h-11.708V6.805h10.401V5.072z"/>
		<path d="M147.635,12.967v2.349h5.307v5.199h-11.574v-5.199h5.268v-2.349h-7.229v-0.867h15.438v0.867H147.635z M143.732,5.11
			h-2.826V4.263h12.42V5.11H150.5v4.217h2.788v0.848h-12.362V9.328h2.807V5.11z M151.941,16.164h-9.594v3.485h9.594V16.164z
			 M149.48,5.11h-4.749v4.217h4.749V5.11z"/>
		<path d="M172.532,12.833v0.867h-15.438v-0.867H172.532z M158.92,7.633c0-2.118,2.269-3.332,5.902-3.332s5.902,1.213,5.902,3.332
			s-2.269,3.351-5.902,3.351S158.92,9.751,158.92,7.633z M160.189,19.495h10.67v0.867H159.17v-4.949h1.019V19.495z M159.958,7.633
			c0,1.541,1.942,2.503,4.864,2.503s4.864-0.963,4.864-2.503c0-1.521-1.942-2.503-4.864-2.503S159.958,6.112,159.958,7.633z"/>
		<path d="M194.507,17.3v0.867h-15.439V17.3h6.326v-6.258h1V17.3H194.507z M191.411,6.42h-10.67V5.573h11.69v1.714
			c0,2.08,0,4.391-0.597,7.741l-1.038-0.154c0.615-3.196,0.615-5.526,0.615-7.587V6.42z"/>
		<path d="M204.966,12.967v2.349h5.307v5.199h-11.574v-5.199h5.268v-2.349h-7.229v-0.867h15.438v0.867H204.966z M201.063,5.11
			h-2.826V4.263h12.42V5.11h-2.826v4.217h2.788v0.848h-12.362V9.328h2.807V5.11z M209.272,16.164h-9.594v3.485h9.594V16.164z
			 M206.812,5.11h-4.749v4.217h4.749V5.11z"/>
		<path d="M228.344,3.705v10.206h-1.019v-2.503h-4.845v-0.867h4.845V7.787h-4.596c-1.134,2.715-3.864,4.737-7.556,5.758
			l-0.423-0.828c4.287-1.194,7.19-3.697,7.46-6.971h-6.652V4.879h7.748c0,0.693-0.096,1.387-0.269,2.042h4.287V3.705H228.344z
			 M217.077,14.7h11.267v6.066h-1.019v-5.218h-10.248V14.7z"/>
		<path d="M251.895,17.589v0.867H236.38v-0.867H251.895z M240.705,6.401h-2.864V5.534h12.478v0.867h-2.846v6.432h2.846v0.867
			h-12.459v-0.867h2.846V6.401z M246.454,6.401h-4.749v6.432h4.749V6.401z"/>
		<path d="M256.086,15.702c3.384,0,5.613-0.135,8.267-0.655l0.097,0.886c-2.711,0.501-4.922,0.636-8.363,0.636h-1.308v-6.278h6.575
			V6.228h-6.633V5.342h7.633v5.834h-6.575v4.525H256.086z M270.063,11.562h-3v9.243h-1.019V3.686h1.019v7.009h3V11.562z"/>
		<path d="M280.964,10.945c0,3.582-1.75,5.873-4.229,5.873c-2.5,0-4.249-2.292-4.249-5.873c0-3.563,1.749-5.873,4.249-5.873
			C279.214,5.072,280.964,7.383,280.964,10.945z M273.466,10.945c0,2.927,1.346,4.987,3.269,4.987c1.903,0,3.249-2.06,3.249-4.987
			c0-2.927-1.346-4.968-3.249-4.968C274.812,5.977,273.466,8.019,273.466,10.945z M285.616,3.686v17.1h-1.019v-17.1H285.616z"/>
		<path d="M298.171,12.852h-7.807V4.745h1.02v3.004h5.768V4.745h1.02V12.852z M297.151,8.596h-5.768v3.389h5.768V8.596z
			 M298.479,14.835c0,2.773,3.249,4.564,5.94,5.064l-0.423,0.809c-2.403-0.5-5.095-1.868-6.037-4.102
			c-0.961,2.233-3.634,3.601-6.018,4.102l-0.423-0.809c2.672-0.5,5.902-2.292,5.902-5.064v-0.5h1.058V14.835z M303.343,15.355h-1.02
			V3.686h1.02V15.355z"/>
		<path d="M319.626,12.274v2.003h5.172v3.428h-10.421v2.002h10.979v0.828h-11.979v-3.64h10.421v-1.81h-10.459v-0.809h5.268v-2.003
			h-7.209v-0.847h15.438v0.847H319.626z M315.723,4.995h-2.826V4.167h12.42v0.828h-2.826v3.851h2.788v0.848h-12.362V8.846h2.807
			V4.995z M321.472,4.995h-4.749v3.851h4.749V4.995z"/>
		<path d="M337.813,11.812h-7.807V4.34h1.02v2.792h5.768V4.34h1.02V11.812z M336.794,7.96h-5.768v2.985h5.768V7.96z M343.658,19.688
			v0.847h-11.459v-3.928h9.786v-2.118h-9.844v-0.828h10.844v3.755h-9.786v2.272H343.658z M342.966,12.678h-1.02V3.667h1.02V12.678z"
			/>
		<path d="M348.791,15.702c3.384,0,5.613-0.135,8.267-0.655l0.097,0.886c-2.711,0.501-4.922,0.636-8.363,0.636h-1.308v-6.278h6.575
			V6.228h-6.633V5.342h7.633v5.834h-6.575v4.525H348.791z M362.769,11.562h-3v9.243h-1.019V3.686h1.019v7.009h3V11.562z"/>
	</g>
</g>
</svg>
