<?xml version="1.0" encoding="utf-8"?>
<!-- Generator: Adobe Illustrator 16.0.0, SVG Export Plug-In . SVG Version: 6.00 Build 0)  -->
<!DOCTYPE svg PUBLIC "-//W3C//DTD SVG 1.1//EN" "http://www.w3.org/Graphics/SVG/1.1/DTD/svg11.dtd">
<svg version="1.1" id="레이어_1" xmlns="http://www.w3.org/2000/svg" xmlns:xlink="http://www.w3.org/1999/xlink" x="0px"
	 y="0px" width="60px" height="38px" viewBox="0 0 60 38" enable-background="new 0 0 60 38" xml:space="preserve">
<image display="none" overflow="visible" enable-background="new    " width="36" height="38" xlink:href="F1CE3D08.jpeg"  transform="matrix(0.9999 0 0 0.9999 12 -4.882813e-004)">
</image>
<g enable-background="new    ">
	<path d="M21.489,0.854c0.135,0.125,0.203,0.293,0.203,0.503s-0.067,0.375-0.203,0.494c-0.135,0.12-0.307,0.181-0.517,0.181h-2.67
		v8.415c0,0.2-0.072,0.37-0.217,0.51s-0.328,0.21-0.547,0.21c-0.22,0-0.403-0.07-0.548-0.21s-0.217-0.31-0.217-0.51V2.032h-2.655
		c-0.21,0-0.383-0.063-0.518-0.188c-0.135-0.125-0.203-0.293-0.203-0.503c0-0.2,0.067-0.362,0.203-0.487
		c0.135-0.125,0.308-0.188,0.518-0.188h6.855C21.182,0.667,21.354,0.729,21.489,0.854z"/>
	<path d="M35.004,8.662c-0.435,0.82-1.037,1.468-1.807,1.942c-0.771,0.475-1.641,0.713-2.61,0.713s-1.84-0.238-2.61-0.713
		s-1.373-1.122-1.808-1.942s-0.652-1.735-0.652-2.745s0.217-1.925,0.652-2.745c0.435-0.819,1.038-1.468,1.808-1.942
		s1.64-0.713,2.61-0.713s1.84,0.238,2.61,0.713c0.77,0.475,1.372,1.123,1.807,1.942c0.436,0.82,0.653,1.735,0.653,2.745
		S35.439,7.841,35.004,8.662z M33.662,3.884c-0.3-0.605-0.718-1.08-1.252-1.425c-0.535-0.346-1.143-0.518-1.823-0.518
		c-0.68,0-1.288,0.17-1.822,0.51c-0.535,0.34-0.953,0.813-1.252,1.417c-0.3,0.605-0.45,1.288-0.45,2.048
		c0,0.75,0.15,1.428,0.45,2.032c0.3,0.605,0.717,1.08,1.252,1.425c0.535,0.346,1.142,0.518,1.822,0.518
		c0.681,0,1.288-0.172,1.823-0.518c0.534-0.345,0.952-0.819,1.252-1.425c0.3-0.604,0.45-1.282,0.45-2.032S33.962,4.489,33.662,3.884
		z"/>
	<path d="M46.217,1.094c0.45,0.285,0.808,0.673,1.072,1.162c0.265,0.49,0.397,1.03,0.397,1.62s-0.133,1.135-0.397,1.635
		s-0.622,0.896-1.072,1.186s-0.94,0.435-1.47,0.435h-2.82v3.315c0,0.2-0.065,0.37-0.194,0.51c-0.131,0.14-0.296,0.21-0.496,0.21
		c-0.209,0-0.377-0.067-0.502-0.202c-0.125-0.136-0.188-0.308-0.188-0.518V1.386c0-0.199,0.07-0.369,0.21-0.51
		c0.14-0.14,0.31-0.21,0.51-0.21h3.48C45.276,0.667,45.767,0.809,46.217,1.094z M45.497,5.504c0.229-0.175,0.412-0.408,0.547-0.698
		c0.136-0.29,0.203-0.6,0.203-0.93c0-0.51-0.148-0.942-0.442-1.298c-0.296-0.354-0.648-0.532-1.058-0.532h-2.82v3.72h2.82
		C45.017,5.766,45.267,5.679,45.497,5.504z"/>
</g>
<polyline fill="none" stroke="#000000" stroke-width="2" stroke-linecap="round" stroke-linejoin="round" stroke-miterlimit="10" points="
	40.76,35.188 30,23.43 19.24,35.188 "/>
</svg>
