<?xml version="1.0" encoding="utf-8"?>
<!-- Generator: Adobe Illustrator 16.0.0, SVG Export Plug-In . SVG Version: 6.00 Build 0)  -->
<!DOCTYPE svg PUBLIC "-//W3C//DTD SVG 1.1//EN" "http://www.w3.org/Graphics/SVG/1.1/DTD/svg11.dtd">
<svg version="1.1" id="레이어_2" xmlns="http://www.w3.org/2000/svg" xmlns:xlink="http://www.w3.org/1999/xlink" x="0px"
	 y="0px" width="80px" height="40px" viewBox="0 0 80 40" enable-background="new 0 0 80 40" xml:space="preserve">
<g>
	<path fill="#FFFFFF" d="M7.451,11.645c-0.56-0.18-1.085-0.485-1.575-0.915c-0.27-0.24-0.405-0.505-0.405-0.795
		c0-0.23,0.085-0.432,0.255-0.607c0.17-0.175,0.375-0.263,0.615-0.263c0.189,0,0.36,0.06,0.51,0.18c0.4,0.33,0.79,0.57,1.17,0.72
		c0.38,0.15,0.83,0.225,1.35,0.225c0.56,0,1.042-0.125,1.447-0.375c0.405-0.25,0.608-0.56,0.608-0.93c0-0.45-0.2-0.803-0.6-1.058
		C10.425,7.573,9.791,7.38,8.92,7.25C6.73,6.93,5.636,5.91,5.636,4.19c0-0.63,0.165-1.177,0.495-1.642
		c0.33-0.465,0.78-0.82,1.35-1.065c0.57-0.245,1.205-0.367,1.905-0.367c0.63,0,1.222,0.095,1.777,0.285
		c0.555,0.19,1.018,0.44,1.388,0.75c0.29,0.23,0.435,0.495,0.435,0.795c0,0.23-0.085,0.433-0.255,0.607s-0.37,0.262-0.6,0.262
		c-0.15,0-0.285-0.045-0.405-0.135c-0.26-0.21-0.623-0.402-1.087-0.578C10.173,2.928,9.755,2.84,9.386,2.84
		c-0.63,0-1.118,0.118-1.462,0.353C7.578,3.428,7.406,3.735,7.406,4.115c0,0.43,0.177,0.755,0.532,0.975
		c0.355,0.22,0.913,0.4,1.673,0.54c0.86,0.15,1.547,0.342,2.063,0.577c0.515,0.235,0.902,0.555,1.162,0.96
		c0.26,0.405,0.39,0.943,0.39,1.613c0,0.63-0.178,1.183-0.533,1.657c-0.355,0.475-0.827,0.84-1.417,1.095
		c-0.59,0.255-1.225,0.382-1.905,0.382C8.65,11.915,8.011,11.825,7.451,11.645z"/>
	<path fill="#FFFFFF" d="M25.015,2.54c0,0.21-0.075,0.415-0.225,0.615c-0.16,0.21-0.365,0.315-0.615,0.315
		c-0.17,0-0.34-0.045-0.51-0.135c-0.49-0.23-1.02-0.345-1.59-0.345c-0.7,0-1.31,0.147-1.83,0.442s-0.92,0.71-1.2,1.245
		c-0.28,0.535-0.42,1.147-0.42,1.837c0,1.18,0.317,2.075,0.953,2.685c0.635,0.61,1.467,0.915,2.498,0.915
		c0.61,0,1.14-0.115,1.59-0.345c0.18-0.08,0.34-0.12,0.48-0.12c0.26,0,0.48,0.11,0.66,0.33c0.15,0.19,0.225,0.396,0.225,0.615
		c0,0.16-0.04,0.305-0.12,0.435s-0.195,0.23-0.345,0.3c-0.78,0.39-1.61,0.585-2.49,0.585c-0.98,0-1.88-0.208-2.7-0.623
		c-0.82-0.415-1.475-1.027-1.965-1.837c-0.49-0.81-0.735-1.79-0.735-2.94c0-1.02,0.232-1.935,0.697-2.745
		c0.465-0.81,1.107-1.442,1.928-1.897c0.82-0.455,1.745-0.683,2.775-0.683c0.89,0,1.715,0.195,2.475,0.585
		C24.86,1.935,25.015,2.19,25.015,2.54z"/>
	<path fill="#FFFFFF" d="M37.398,10.61c0.074,0.13,0.112,0.265,0.112,0.405c0,0.18-0.061,0.345-0.181,0.495
		c-0.149,0.18-0.38,0.27-0.689,0.27c-0.24,0-0.46-0.055-0.66-0.165c-0.72-0.41-1.08-1.245-1.08-2.505
		c0-0.36-0.117-0.645-0.353-0.855c-0.235-0.21-0.572-0.315-1.013-0.315H30.73v2.91c0,0.27-0.072,0.49-0.218,0.66
		c-0.145,0.17-0.337,0.255-0.577,0.255c-0.29,0-0.543-0.087-0.758-0.263c-0.215-0.175-0.322-0.392-0.322-0.652V2.18
		c0-0.26,0.088-0.478,0.263-0.652s0.393-0.263,0.652-0.263h4.32c0.52,0,1.01,0.14,1.47,0.42c0.46,0.28,0.827,0.665,1.103,1.155
		c0.274,0.49,0.412,1.04,0.412,1.65c0,0.5-0.135,0.988-0.404,1.462C36.4,6.428,36.05,6.805,35.62,7.085
		c0.63,0.44,0.976,1.03,1.035,1.77C36.685,9.015,36.7,9.17,36.7,9.32c0.04,0.31,0.08,0.532,0.12,0.667
		c0.04,0.135,0.13,0.237,0.271,0.307C37.22,10.375,37.323,10.48,37.398,10.61z M34.54,6.14c0.17-0.17,0.311-0.397,0.421-0.683
		c0.109-0.285,0.164-0.592,0.164-0.922c0-0.28-0.055-0.538-0.164-0.772C34.85,3.528,34.709,3.34,34.54,3.2s-0.345-0.21-0.524-0.21
		H30.73v3.405h3.285C34.195,6.395,34.37,6.31,34.54,6.14z"/>
	<path fill="#FFFFFF" d="M50.26,9.238c-0.439,0.825-1.047,1.478-1.822,1.958s-1.646,0.72-2.617,0.72s-1.842-0.24-2.617-0.72
		s-1.381-1.133-1.814-1.958c-0.436-0.825-0.654-1.732-0.654-2.723s0.218-1.897,0.654-2.723c0.434-0.825,1.039-1.478,1.814-1.958
		s1.646-0.72,2.617-0.72s1.842,0.24,2.617,0.72s1.383,1.133,1.822,1.958c0.439,0.825,0.66,1.732,0.66,2.723
		S50.699,8.413,50.26,9.238z M48.564,4.693c-0.27-0.545-0.645-0.978-1.125-1.298c-0.479-0.32-1.02-0.48-1.619-0.48
		c-0.609,0-1.152,0.158-1.627,0.473c-0.477,0.315-0.846,0.748-1.111,1.297c-0.264,0.55-0.396,1.16-0.396,1.83s0.133,1.28,0.396,1.83
		c0.266,0.55,0.635,0.982,1.111,1.297c0.475,0.315,1.018,0.473,1.627,0.473c0.6,0,1.141-0.16,1.619-0.48
		c0.48-0.32,0.855-0.752,1.125-1.298c0.271-0.545,0.406-1.152,0.406-1.822S48.836,5.238,48.564,4.693z"/>
	<path fill="#FFFFFF" d="M61.338,10.258c0.174,0.165,0.262,0.377,0.262,0.637c0,0.25-0.088,0.458-0.262,0.623
		c-0.176,0.165-0.393,0.248-0.652,0.248h-4.875c-0.26,0-0.479-0.087-0.652-0.263c-0.176-0.175-0.264-0.392-0.264-0.652V2.18
		c0-0.26,0.09-0.478,0.27-0.652c0.182-0.175,0.41-0.263,0.691-0.263c0.25,0,0.465,0.088,0.645,0.263s0.27,0.393,0.27,0.652v7.83
		h3.916C60.945,10.01,61.162,10.093,61.338,10.258z"/>
	<path fill="#FFFFFF" d="M72.018,10.258c0.174,0.165,0.262,0.377,0.262,0.637c0,0.25-0.088,0.458-0.262,0.623
		c-0.176,0.165-0.393,0.248-0.652,0.248H66.49c-0.26,0-0.479-0.087-0.652-0.263c-0.176-0.175-0.264-0.392-0.264-0.652V2.18
		c0-0.26,0.09-0.478,0.27-0.652c0.182-0.175,0.41-0.263,0.691-0.263c0.25,0,0.465,0.088,0.645,0.263s0.27,0.393,0.27,0.652v7.83
		h3.916C71.625,10.01,71.842,10.093,72.018,10.258z"/>
</g>
<polyline fill="none" stroke="#FFFFFF" stroke-width="2" stroke-linecap="round" stroke-linejoin="round" stroke-miterlimit="10" points="
	29.24,25.429 40,37.188 50.76,25.429 "/>
</svg>
