<?xml version="1.0" encoding="utf-8"?>
<!-- Generator: Adobe Illustrator 16.0.0, SVG Export Plug-In . SVG Version: 6.00 Build 0)  -->
<!DOCTYPE svg PUBLIC "-//W3C//DTD SVG 1.1//EN" "http://www.w3.org/Graphics/SVG/1.1/DTD/svg11.dtd">
<svg version="1.1" id="레이어_1" xmlns="http://www.w3.org/2000/svg" xmlns:xlink="http://www.w3.org/1999/xlink" x="0px"
	 y="0px" width="306px" height="100px" viewBox="0 0 306 100" enable-background="new 0 0 306 100" xml:space="preserve">
<g>
	<g>
		<polygon fill="#ffffff" points="51.521,15.681 51.521,2.325 46.449,2.325 46.449,56.381 51.775,56.381 51.775,21.598 
			60.903,21.598 60.903,15.681 		"/>
		<path fill="#ffffff" d="M34.656,15.807H5.917V2.325H0.845v38.545h38.546V2.325h-4.735V15.807z M34.656,35.63H5.917V21.598h28.739
			V35.63z"/>
	</g>
	<g>
		<path fill="#ffffff" d="M150.674,37.996c-6.958,0-12.64-5.44-13.036-12.298h-5.836c0.399,10.081,8.694,18.132,18.872,18.132
			c10.18,0,18.475-8.051,18.873-18.132h-5.836C163.316,32.556,157.631,37.996,150.674,37.996z"/>
		<path fill="#ffffff" d="M131.939,22.527h5.898c1.132-6.061,6.448-10.65,12.836-10.65c6.39,0,11.705,4.589,12.832,10.65h5.905
			c-0.526-4.108-2.368-7.805-5.091-10.65h4.612V6.551h-13.918c-0.632-0.148-1.277-0.266-1.932-0.348V1.226h-5.324v4.818h-16.991
			v5.833h6.262C134.306,14.723,132.465,18.419,131.939,22.527z"/>
		<polygon fill="#ffffff" points="181.232,15.301 181.232,1.226 176.033,1.226 176.033,56.889 181.232,56.889 181.232,21.513 
			190.74,21.513 190.74,15.301 		"/>
	</g>
	<g>
		<path fill="#ffffff" d="M223.203,6.225c7.814,0,14.267,5.835,15.238,13.386h6.265C243.699,8.615,234.459,0,223.203,0
			c-11.259,0-20.501,8.615-21.507,19.61h6.261C208.937,12.06,215.386,6.225,223.203,6.225z"/>
		<path fill="#ffffff" d="M223.203,43.195c11.53,0,20.947-9.037,21.563-20.414h-6.243c-0.604,7.936-7.23,14.189-15.32,14.189
			c-8.096,0-14.723-6.253-15.325-14.189h-6.24C202.252,34.158,211.671,43.195,223.203,43.195z"/>
		<polygon fill="#ffffff" points="197.717,48.013 197.717,53.338 220.919,53.338 220.919,62.467 226.371,62.467 226.371,53.213 
			249.194,53.213 249.194,48.013 		"/>
	</g>
	<g>
		<rect x="255.156" y="48.013" fill="#ffffff" width="50.844" height="5.2"/>
		<polygon fill="#ffffff" points="280.448,11.75 297.758,39.264 301.689,36.095 280.574,1.86 259.214,36.095 262.636,39.264"/>
	</g>
	<g>
		<path fill="#ffffff" d="M93.744,6.225c7.815,0,14.267,5.835,15.241,13.386h6.261C114.243,8.615,105.001,0,93.744,0
			c-11.26,0-20.5,8.615-21.504,19.61h6.264C79.477,12.06,85.926,6.225,93.744,6.225z"/>
		<path fill="#ffffff" d="M93.744,43.195c11.53,0,20.95-9.037,21.564-20.414h-6.24c-0.606,7.936-7.234,14.189-15.324,14.189
			c-8.092,0-14.719-6.253-15.324-14.189h-6.242C72.793,34.158,82.212,43.195,93.744,43.195z"/>
		<polygon fill="#ffffff" points="67.876,48.013 67.876,53.148 90.7,53.148 90.7,58.283 96.66,58.283 96.66,53.846 119.608,53.846 
			119.608,48.013 		"/>
		<polygon fill="#ffffff" points="74.216,79.205 79.288,79.205 79.288,66.207 108.323,66.207 108.323,74.805 113.397,74.805 
			113.397,61.453 74.216,61.453 		"/>
		<polygon fill="#ffffff" points="108.323,95.244 79.288,95.244 79.288,82.121 74.216,82.121 74.216,100 113.397,100 
			113.397,86.178 108.323,86.178 		"/>
	</g>
	<g>
		<path fill="#ffffff" d="M99.365,76.771c0.088,0.094,0.131,0.213,0.131,0.355v6.828c0,0.158-0.049,0.287-0.148,0.393
			s-0.226,0.158-0.38,0.158c-0.081,0-0.16-0.014-0.236-0.039c-0.078-0.025-0.139-0.066-0.183-0.119l-4.332-5.76v5.424
			c0,0.143-0.045,0.26-0.138,0.354c-0.092,0.094-0.208,0.141-0.347,0.141c-0.141,0-0.254-0.047-0.342-0.141
			c-0.087-0.094-0.133-0.211-0.133-0.354V77.17c0-0.156,0.049-0.285,0.149-0.387c0.099-0.102,0.222-0.152,0.369-0.152
			c0.089,0,0.173,0.018,0.255,0.051c0.081,0.033,0.143,0.082,0.187,0.141l4.322,5.771v-5.467c0-0.143,0.045-0.262,0.138-0.355
			c0.091-0.094,0.208-0.141,0.347-0.141C99.162,76.631,99.276,76.678,99.365,76.771z"/>
		<path fill="#ffffff" d="M109.365,84.021c0,0.152-0.05,0.273-0.15,0.373c-0.099,0.098-0.215,0.145-0.348,0.145
			c-0.103,0-0.196-0.031-0.28-0.094c-0.085-0.064-0.152-0.152-0.205-0.266l-0.683-1.654h-3.407l-0.673,1.666
			c-0.037,0.111-0.097,0.197-0.181,0.258s-0.178,0.09-0.281,0.09c-0.155,0-0.272-0.039-0.353-0.123
			c-0.082-0.082-0.121-0.195-0.121-0.336c0-0.031,0.007-0.092,0.021-0.182l2.812-6.953c0.051-0.119,0.123-0.211,0.215-0.275
			c0.092-0.063,0.196-0.088,0.314-0.072c0.11,0,0.208,0.029,0.298,0.09c0.087,0.061,0.149,0.146,0.186,0.258l2.801,6.863
			C109.354,83.877,109.365,83.947,109.365,84.021z M104.712,81.502h2.568l-1.29-3.15L104.712,81.502z"/>
		<path fill="#ffffff" d="M117.936,76.771c0.1,0.094,0.149,0.219,0.149,0.377s-0.05,0.281-0.149,0.371
			c-0.099,0.09-0.226,0.137-0.379,0.137h-1.963v6.311c0,0.148-0.053,0.275-0.16,0.381c-0.107,0.105-0.241,0.158-0.403,0.158
			s-0.296-0.053-0.401-0.158c-0.107-0.105-0.161-0.232-0.161-0.381v-6.311h-1.951c-0.155,0-0.282-0.049-0.38-0.143
			c-0.1-0.094-0.15-0.219-0.15-0.377c0-0.148,0.05-0.271,0.15-0.365c0.099-0.094,0.225-0.141,0.38-0.141h5.038
			C117.71,76.631,117.837,76.678,117.936,76.771z"/>
		<path fill="#ffffff" d="M127.263,76.771c0.093,0.102,0.138,0.23,0.138,0.389v4.32c0,0.592-0.128,1.125-0.386,1.598
			c-0.257,0.473-0.611,0.842-1.063,1.107c-0.453,0.266-0.962,0.4-1.528,0.4c-0.573,0-1.087-0.135-1.542-0.4
			c-0.456-0.266-0.813-0.635-1.07-1.107s-0.387-1.006-0.387-1.598v-4.32c0-0.158,0.052-0.287,0.154-0.389
			c0.104-0.102,0.236-0.152,0.397-0.152c0.14,0,0.263,0.053,0.37,0.158c0.105,0.105,0.159,0.232,0.159,0.383v4.32
			c0,0.389,0.089,0.74,0.265,1.051c0.177,0.313,0.412,0.553,0.706,0.727c0.293,0.172,0.609,0.26,0.947,0.26
			c0.354,0,0.682-0.088,0.982-0.26c0.301-0.174,0.541-0.414,0.721-0.727c0.182-0.311,0.271-0.662,0.271-1.051v-4.32
			c0-0.158,0.044-0.287,0.133-0.389s0.21-0.152,0.363-0.152C127.048,76.619,127.172,76.67,127.263,76.771z"/>
		<path fill="#ffffff" d="M137.356,83.805c0.044,0.076,0.065,0.158,0.065,0.24c0,0.156-0.049,0.273-0.148,0.35
			c-0.099,0.074-0.219,0.111-0.358,0.111s-0.257-0.031-0.352-0.09c-0.223-0.127-0.401-0.334-0.541-0.619
			c-0.141-0.285-0.21-0.705-0.21-1.26c0-0.375-0.11-0.652-0.33-0.832c-0.222-0.182-0.508-0.27-0.86-0.27h-2.228v2.531
			c0,0.156-0.044,0.285-0.132,0.387s-0.202,0.152-0.341,0.152c-0.171,0-0.314-0.053-0.437-0.158
			c-0.121-0.105-0.183-0.232-0.183-0.381V77.17c0-0.148,0.052-0.275,0.155-0.381c0.103-0.105,0.228-0.158,0.374-0.158h3.099
			c0.397,0,0.761,0.1,1.092,0.299c0.331,0.197,0.595,0.473,0.794,0.82c0.197,0.35,0.298,0.74,0.298,1.176
			c0,0.42-0.111,0.813-0.331,1.176s-0.504,0.635-0.85,0.816c0.273,0.141,0.487,0.34,0.646,0.596s0.244,0.551,0.26,0.887
			c0.029,0.43,0.062,0.721,0.099,0.873c0.036,0.154,0.117,0.266,0.242,0.332C137.253,83.658,137.313,83.725,137.356,83.805z
			 M135.433,80.275c0.165-0.135,0.299-0.316,0.402-0.545c0.103-0.229,0.154-0.486,0.154-0.771c0-0.359-0.109-0.664-0.324-0.916
			c-0.218-0.252-0.48-0.377-0.79-0.377h-2.48V80.5h2.514C135.093,80.486,135.268,80.41,135.433,80.275z"/>
		<path fill="#ffffff" d="M145.616,83.629c0.102,0.105,0.15,0.229,0.15,0.371c0,0.148-0.049,0.271-0.15,0.365
			c-0.097,0.094-0.222,0.141-0.379,0.141h-3.838c-0.145,0-0.27-0.053-0.373-0.158c-0.103-0.105-0.153-0.232-0.153-0.381V77.17
			c0-0.148,0.051-0.275,0.153-0.381c0.104-0.105,0.229-0.158,0.373-0.158h3.838c0.157,0,0.282,0.049,0.379,0.146
			c0.102,0.098,0.15,0.225,0.15,0.383c0,0.15-0.049,0.271-0.15,0.365c-0.097,0.094-0.222,0.141-0.379,0.141h-3.273v2.295h2.777
			c0.156,0,0.281,0.049,0.383,0.146c0.097,0.098,0.149,0.221,0.149,0.371c0,0.158-0.053,0.281-0.149,0.371
			c-0.102,0.09-0.227,0.137-0.383,0.137h-2.777v2.484h3.273C145.395,83.471,145.52,83.523,145.616,83.629z"/>
		<path fill="#ffffff" d="M149.07,84.348c-0.094-0.096-0.138-0.24-0.138-0.426v-0.215c0-0.18,0.044-0.318,0.138-0.416
			c0.091-0.098,0.226-0.146,0.4-0.146h0.112c0.184,0,0.321,0.049,0.414,0.146c0.091,0.098,0.137,0.236,0.137,0.416v0.215
			c0,0.381-0.184,0.572-0.551,0.572h-0.112C149.296,84.494,149.161,84.447,149.07,84.348z"/>
		<path fill="#ffffff" d="M164.284,80.912c0.261,0.326,0.39,0.752,0.39,1.277c0,0.832-0.237,1.426-0.711,1.783
			c-0.473,0.355-1.053,0.533-1.737,0.533h-2.833c-0.146,0-0.271-0.053-0.372-0.158c-0.104-0.105-0.156-0.232-0.156-0.381V77.17
			c0-0.148,0.053-0.275,0.156-0.381c0.102-0.105,0.226-0.158,0.372-0.158h2.833c0.669,0,1.18,0.168,1.527,0.506
			c0.35,0.338,0.524,0.826,0.524,1.463c0,0.359-0.084,0.682-0.253,0.963c-0.17,0.281-0.415,0.496-0.74,0.646
			C163.69,80.352,164.021,80.586,164.284,80.912z M162.861,77.965c-0.188-0.184-0.451-0.275-0.788-0.275h-2.085v2.193h2.107
			c0.301-0.008,0.551-0.107,0.748-0.299c0.199-0.191,0.298-0.463,0.298-0.814S163.049,78.148,162.861,77.965z M163.186,83.15
			c0.242-0.213,0.365-0.533,0.365-0.961c0-0.834-0.464-1.25-1.39-1.25h-2.173v2.531h2.229
			C162.621,83.471,162.944,83.365,163.186,83.15z"/>
		<path fill="#ffffff" d="M172.883,83.629c0.101,0.105,0.15,0.229,0.15,0.371c0,0.148-0.05,0.271-0.15,0.365
			c-0.1,0.094-0.225,0.141-0.38,0.141h-3.837c-0.146,0-0.271-0.053-0.372-0.158c-0.104-0.105-0.156-0.232-0.156-0.381V77.17
			c0-0.148,0.053-0.275,0.156-0.381c0.102-0.105,0.226-0.158,0.372-0.158h3.837c0.155,0,0.28,0.049,0.38,0.146
			c0.101,0.098,0.15,0.225,0.15,0.383c0,0.15-0.05,0.271-0.15,0.365c-0.1,0.094-0.225,0.141-0.38,0.141h-3.273v2.295h2.776
			c0.156,0,0.283,0.049,0.382,0.146s0.15,0.221,0.15,0.371c0,0.158-0.052,0.281-0.15,0.371s-0.226,0.137-0.382,0.137h-2.776v2.484
			h3.273C172.658,83.471,172.783,83.523,172.883,83.629z"/>
		<path fill="#ffffff" d="M182.46,84.021c0,0.152-0.052,0.273-0.15,0.373c-0.1,0.098-0.213,0.145-0.347,0.145
			c-0.104,0-0.197-0.031-0.282-0.094c-0.084-0.064-0.152-0.152-0.203-0.266l-0.685-1.654h-3.406l-0.674,1.666
			c-0.035,0.111-0.096,0.197-0.182,0.258c-0.084,0.061-0.177,0.09-0.28,0.09c-0.154,0-0.271-0.039-0.353-0.123
			c-0.082-0.082-0.121-0.195-0.121-0.336c0-0.031,0.008-0.092,0.022-0.182l2.81-6.953c0.054-0.119,0.124-0.211,0.218-0.275
			c0.091-0.063,0.194-0.088,0.312-0.072c0.111,0,0.21,0.029,0.3,0.09c0.089,0.061,0.147,0.146,0.188,0.258l2.799,6.863
			C182.446,83.877,182.46,83.947,182.46,84.021z M177.807,81.502h2.569l-1.291-3.15L177.807,81.502z"/>
		<path fill="#ffffff" d="M191.412,77.541c0,0.137-0.043,0.26-0.133,0.373c-0.089,0.119-0.21,0.18-0.362,0.18
			c-0.104,0-0.202-0.027-0.3-0.08c-0.453-0.262-0.947-0.393-1.476-0.393c-0.551,0-1.037,0.125-1.463,0.371
			c-0.422,0.248-0.751,0.596-0.985,1.041c-0.235,0.445-0.354,0.959-0.354,1.535c0,0.623,0.121,1.158,0.365,1.609
			c0.242,0.449,0.576,0.793,1.003,1.029c0.427,0.234,0.904,0.354,1.434,0.354c0.543,0,1.036-0.135,1.476-0.404
			c0.09-0.045,0.184-0.066,0.287-0.066c0.162,0,0.291,0.063,0.385,0.189c0.09,0.113,0.134,0.232,0.134,0.361
			c0,0.09-0.023,0.174-0.071,0.252c-0.048,0.08-0.111,0.141-0.192,0.188c-0.287,0.162-0.606,0.295-0.967,0.393
			c-0.354,0.098-0.705,0.146-1.051,0.146c-0.713,0-1.37-0.162-1.969-0.484s-1.078-0.791-1.433-1.406
			c-0.358-0.613-0.535-1.334-0.535-2.16c0-0.758,0.169-1.441,0.515-2.053c0.339-0.611,0.81-1.092,1.408-1.441
			c0.599-0.348,1.271-0.521,2.014-0.521c0.714,0,1.381,0.18,2.006,0.539C191.324,77.189,191.412,77.34,191.412,77.541z"/>
		<path fill="#ffffff" d="M200.705,76.783c0.104,0.102,0.154,0.23,0.154,0.387v6.785c-0.008,0.158-0.063,0.287-0.166,0.393
			c-0.102,0.105-0.235,0.158-0.397,0.158c-0.146,0-0.272-0.053-0.379-0.158s-0.159-0.234-0.159-0.393v-2.914h-3.914v2.914
			c0,0.158-0.056,0.287-0.166,0.393c-0.111,0.105-0.24,0.158-0.385,0.158c-0.163,0-0.293-0.053-0.392-0.158
			c-0.101-0.105-0.149-0.234-0.149-0.393V77.17c0-0.148,0.052-0.275,0.155-0.381c0.103-0.105,0.234-0.158,0.395-0.158
			c0.148,0,0.275,0.053,0.379,0.158c0.108,0.105,0.163,0.232,0.163,0.381v2.836h3.914V77.17c0-0.148,0.054-0.275,0.165-0.381
			c0.108-0.105,0.237-0.158,0.386-0.158C200.469,76.631,200.602,76.682,200.705,76.783z"/>
		<path fill="#ffffff" d="M216.371,84.033c0,0.105-0.041,0.209-0.121,0.314c-0.081,0.105-0.188,0.158-0.321,0.158
			c-0.122,0-0.226-0.031-0.307-0.09l-1.016-0.855c-0.691,0.705-1.558,1.059-2.602,1.059c-0.506,0-0.969-0.119-1.383-0.355
			c-0.417-0.236-0.742-0.547-0.978-0.934c-0.234-0.387-0.352-0.793-0.352-1.221c0-0.525,0.135-0.99,0.409-1.4
			c0.269-0.408,0.678-0.729,1.222-0.961c-0.147-0.219-0.258-0.426-0.331-0.619c-0.071-0.195-0.111-0.396-0.111-0.609
			c0-0.365,0.094-0.701,0.277-1.006c0.185-0.303,0.449-0.545,0.794-0.725c0.346-0.18,0.744-0.271,1.2-0.271
			c0.508,0,0.954,0.092,1.341,0.277c0.387,0.184,0.649,0.418,0.789,0.703c0.05,0.104,0.077,0.221,0.077,0.348
			c0,0.121-0.044,0.221-0.128,0.305c-0.084,0.082-0.195,0.123-0.336,0.123c-0.16,0-0.28-0.061-0.354-0.18
			c-0.152-0.225-0.342-0.393-0.568-0.502c-0.223-0.107-0.496-0.162-0.821-0.162c-0.375,0-0.66,0.098-0.862,0.293
			c-0.204,0.195-0.306,0.445-0.306,0.754c0,0.27,0.097,0.543,0.286,0.82c0.191,0.277,0.465,0.611,0.815,1.002l0.2,0.227
			c0.427,0.479,0.947,0.998,1.565,1.563c0.189-0.383,0.322-0.803,0.396-1.26c0.039-0.219,0.184-0.328,0.443-0.328
			c0.147,0,0.267,0.063,0.357,0.188c0.093,0.123,0.128,0.268,0.105,0.432c-0.096,0.615-0.278,1.164-0.553,1.643
			c0.301,0.27,0.615,0.541,0.938,0.811C216.293,83.715,216.371,83.869,216.371,84.033z M213.879,82.92
			c-0.788-0.705-1.452-1.371-1.995-2.002c-0.104-0.113-0.224-0.256-0.364-0.428c-0.42,0.127-0.716,0.314-0.893,0.561
			c-0.177,0.248-0.267,0.551-0.267,0.902c0,0.291,0.067,0.563,0.201,0.809c0.132,0.248,0.337,0.451,0.616,0.609
			c0.279,0.156,0.627,0.234,1.037,0.234C212.861,83.605,213.417,83.377,213.879,82.92z"/>
		<path fill="#ffffff" d="M228.93,76.951c0.331,0.215,0.594,0.506,0.787,0.873c0.196,0.367,0.293,0.771,0.293,1.215
			c0,0.441-0.097,0.85-0.293,1.225c-0.193,0.377-0.456,0.672-0.787,0.891c-0.332,0.217-0.691,0.326-1.08,0.326h-2.074v2.486
			c0,0.148-0.046,0.275-0.145,0.381c-0.094,0.105-0.215,0.158-0.363,0.158c-0.152,0-0.276-0.051-0.369-0.152
			c-0.091-0.102-0.137-0.23-0.137-0.387V77.17c0-0.148,0.053-0.275,0.156-0.381c0.102-0.105,0.226-0.158,0.374-0.158h2.558
			C228.238,76.631,228.598,76.738,228.93,76.951z M228.4,80.258c0.168-0.129,0.303-0.305,0.401-0.521s0.149-0.449,0.149-0.697
			c0-0.383-0.107-0.707-0.324-0.975c-0.218-0.266-0.477-0.398-0.777-0.398h-2.074v2.791h2.074
			C228.047,80.457,228.23,80.391,228.4,80.258z"/>
		<path fill="#ffffff" d="M239.982,82.627c-0.319,0.615-0.764,1.1-1.329,1.457c-0.566,0.357-1.205,0.535-1.918,0.535
			s-1.353-0.178-1.92-0.535c-0.564-0.357-1.007-0.842-1.327-1.457s-0.479-1.301-0.479-2.059s0.159-1.443,0.479-2.059
			s0.763-1.1,1.327-1.457c0.567-0.355,1.207-0.535,1.92-0.535s1.352,0.18,1.918,0.535c0.565,0.357,1.01,0.842,1.329,1.457
			c0.318,0.615,0.478,1.301,0.478,2.059S240.301,82.012,239.982,82.627z M238.994,79.045c-0.22-0.455-0.526-0.811-0.922-1.07
			c-0.39-0.258-0.837-0.387-1.337-0.387s-0.947,0.127-1.34,0.383c-0.394,0.254-0.701,0.609-0.921,1.063
			c-0.219,0.453-0.331,0.967-0.331,1.535c0,0.563,0.112,1.07,0.331,1.523c0.22,0.455,0.527,0.811,0.921,1.07
			c0.393,0.258,0.84,0.389,1.34,0.389s0.947-0.131,1.337-0.389c0.396-0.26,0.702-0.615,0.922-1.07
			c0.22-0.453,0.331-0.961,0.331-1.523S239.214,79.498,238.994,79.045z"/>
		<path fill="#ffffff" d="M250.454,82.627c-0.318,0.615-0.763,1.1-1.328,1.457c-0.564,0.357-1.206,0.535-1.92,0.535
			c-0.713,0-1.353-0.178-1.918-0.535c-0.564-0.357-1.008-0.842-1.329-1.457c-0.318-0.615-0.478-1.301-0.478-2.059
			s0.159-1.443,0.478-2.059c0.321-0.615,0.765-1.1,1.329-1.457c0.565-0.355,1.205-0.535,1.918-0.535c0.714,0,1.355,0.18,1.92,0.535
			c0.565,0.357,1.01,0.842,1.328,1.457c0.319,0.615,0.479,1.301,0.479,2.059S250.773,82.012,250.454,82.627z M249.467,79.045
			c-0.22-0.455-0.527-0.811-0.92-1.07c-0.394-0.258-0.839-0.387-1.341-0.387c-0.498,0-0.946,0.127-1.337,0.383
			c-0.395,0.254-0.702,0.609-0.922,1.063s-0.331,0.967-0.331,1.535c0,0.563,0.111,1.07,0.331,1.523
			c0.22,0.455,0.527,0.811,0.922,1.07c0.391,0.258,0.839,0.389,1.337,0.389c0.502,0,0.947-0.131,1.341-0.389
			c0.393-0.26,0.7-0.615,0.92-1.07c0.22-0.453,0.331-0.961,0.331-1.523S249.687,79.498,249.467,79.045z"/>
		<path fill="#ffffff" d="M259.032,83.605c0.1,0.098,0.151,0.225,0.151,0.383c0,0.15-0.052,0.273-0.151,0.371
			c-0.098,0.098-0.227,0.146-0.379,0.146h-3.729c-0.152,0-0.28-0.053-0.379-0.158c-0.1-0.105-0.149-0.232-0.149-0.381V77.17
			c0-0.148,0.053-0.275,0.154-0.381c0.104-0.105,0.236-0.158,0.396-0.158c0.148,0,0.275,0.053,0.381,0.158
			c0.106,0.105,0.16,0.232,0.16,0.381v6.289h3.165C258.806,83.459,258.935,83.508,259.032,83.605z"/>
		<path fill="#ffffff" d="M273.651,76.766c0.108,0.098,0.16,0.219,0.16,0.361c0,0.074-0.019,0.156-0.056,0.246l-2.811,6.785
			c-0.05,0.111-0.124,0.197-0.22,0.258c-0.096,0.059-0.196,0.09-0.3,0.09c-0.095-0.006-0.183-0.039-0.267-0.096
			c-0.086-0.057-0.155-0.137-0.206-0.242l-2.811-6.795c-0.03-0.059-0.045-0.139-0.045-0.236c0-0.156,0.056-0.285,0.167-0.381
			c0.108-0.098,0.229-0.146,0.361-0.146c0.222,0,0.382,0.119,0.487,0.359l2.402,5.793l2.271-5.805
			c0.051-0.105,0.119-0.188,0.203-0.246c0.086-0.061,0.179-0.092,0.282-0.092C273.419,76.619,273.548,76.67,273.651,76.766z"/>
		<path fill="#ffffff" d="M278.066,84.348c-0.111,0.105-0.238,0.158-0.383,0.158c-0.163,0-0.293-0.053-0.394-0.158
			c-0.099-0.105-0.149-0.234-0.149-0.393V77.17c0-0.148,0.053-0.275,0.156-0.381s0.233-0.158,0.396-0.158
			c0.146,0,0.274,0.053,0.379,0.158c0.107,0.105,0.163,0.232,0.163,0.381v6.785C278.234,84.113,278.177,84.242,278.066,84.348z"/>
		<path fill="#ffffff" d="M286.771,83.605c0.101,0.098,0.15,0.225,0.15,0.383c0,0.15-0.05,0.273-0.15,0.371
			c-0.099,0.098-0.226,0.146-0.379,0.146h-3.728c-0.152,0-0.28-0.053-0.381-0.158c-0.099-0.105-0.147-0.232-0.147-0.381V77.17
			c0-0.148,0.051-0.275,0.154-0.381s0.234-0.158,0.396-0.158c0.146,0,0.273,0.053,0.38,0.158c0.105,0.105,0.161,0.232,0.161,0.381
			v6.289h3.164C286.545,83.459,286.672,83.508,286.771,83.605z"/>
		<path fill="#ffffff" d="M294.908,83.605c0.097,0.098,0.148,0.225,0.148,0.383c0,0.15-0.052,0.273-0.148,0.371
			c-0.101,0.098-0.228,0.146-0.381,0.146h-3.726c-0.155,0-0.282-0.053-0.381-0.158s-0.149-0.232-0.149-0.381V77.17
			c0-0.148,0.053-0.275,0.156-0.381c0.102-0.105,0.233-0.158,0.396-0.158c0.146,0,0.274,0.053,0.378,0.158
			c0.108,0.105,0.162,0.232,0.162,0.381v6.289h3.164C294.681,83.459,294.808,83.508,294.908,83.605z"/>
		<path fill="#ffffff" d="M304.373,84.021c0,0.152-0.051,0.273-0.149,0.373c-0.099,0.098-0.214,0.145-0.347,0.145
			c-0.104,0-0.196-0.031-0.282-0.094c-0.084-0.064-0.152-0.152-0.204-0.266l-0.684-1.654H299.3l-0.673,1.666
			c-0.037,0.111-0.098,0.197-0.182,0.258s-0.177,0.09-0.282,0.09c-0.152,0-0.271-0.039-0.352-0.123
			c-0.081-0.082-0.121-0.195-0.121-0.336c0-0.031,0.008-0.092,0.022-0.182l2.812-6.953c0.053-0.119,0.122-0.211,0.216-0.275
			c0.091-0.063,0.194-0.088,0.313-0.072c0.111,0,0.21,0.029,0.299,0.09c0.09,0.061,0.15,0.146,0.188,0.258l2.798,6.863
			C304.36,83.877,304.373,83.947,304.373,84.021z M299.721,81.502h2.568l-1.291-3.15L299.721,81.502z"/>
	</g>
</g>
</svg>
