<?xml version="1.0" encoding="iso-8859-1"?>
<!-- Generator: Adobe Illustrator 16.0.0, SVG Export Plug-In . SVG Version: 6.00 Build 0)  -->
<!DOCTYPE svg PUBLIC "-//W3C//DTD SVG 1.1//EN" "http://www.w3.org/Graphics/SVG/1.1/DTD/svg11.dtd">
<svg version="1.1" xmlns="http://www.w3.org/2000/svg" xmlns:xlink="http://www.w3.org/1999/xlink" x="0px" y="0px" width="280px"
	 height="50px" viewBox="0 0 280 50" style="enable-background:new 0 0 280 50;" xml:space="preserve">
<g id="&#xB808;&#xC774;&#xC5B4;_2_xA0_&#xC774;&#xBBF8;&#xC9C0;_1_" style="display:none;">
	
		<image style="display:inline;overflow:visible;" width="48" height="49" id="&#xB808;&#xC774;&#xC5B4;_2_xA0_&#xC774;&#xBBF8;&#xC9C0;" xlink:href="A9A9FCC2.png"  transform="matrix(1 0 0 1 0 1)">
	</image>
</g>
<g id="BaumHouse">
</g>
<g id="nature._beach__x26__poolvilla">
	<g id="&#xB808;&#xC774;&#xC5B4;_2">
	</g>
	<g>
		<g>
			<path style="fill:#FFFFFF;" d="M63.398,13.574c0-5.017,0-5.941-0.066-6.997c-0.066-1.122-0.329-1.65-1.416-1.881
				c-0.263-0.066-0.823-0.099-1.284-0.099c-0.362,0-0.559-0.066-0.559-0.297s0.23-0.297,0.724-0.297
				c1.744,0,3.818,0.099,4.476,0.099c1.613,0,2.896-0.099,4.015-0.099c5.958,0,7.011,3.201,7.011,4.951
				c0,2.707-1.547,4.324-3.357,5.776c2.699,0.924,5.99,3.268,5.99,7.129c0,3.531-2.731,7.195-8.788,7.195
				c-0.395,0-1.35-0.066-2.304-0.1c-0.987-0.065-1.975-0.099-2.468-0.099c-0.362,0-1.086,0-1.876,0.033
				c-0.757,0-1.613,0.065-2.271,0.065c-0.428,0-0.658-0.099-0.658-0.33c0-0.165,0.131-0.264,0.526-0.264
				c0.494,0,0.889-0.066,1.185-0.132c0.658-0.132,0.823-0.858,0.955-1.815c0.165-1.387,0.165-3.994,0.165-7.03V13.574z
				 M67.347,14.135c0,0.264,0.099,0.33,0.23,0.363c0.296,0.066,0.79,0.099,1.547,0.099c1.086,0,1.811-0.132,2.37-0.627
				c0.855-0.693,1.349-1.881,1.349-3.499c0-2.211-1.284-5.116-4.114-5.116c-0.46,0-0.757,0-1.086,0.066
				c-0.23,0.066-0.296,0.198-0.296,0.562V14.135z M71.692,16.776C71,16.281,70.244,16.05,68.96,15.983
				c-0.592-0.033-0.921-0.033-1.415-0.033c-0.132,0-0.198,0.066-0.198,0.231v7.822c0,2.178,0.099,2.739,1.152,3.168
				c0.889,0.363,1.646,0.396,2.402,0.396c1.481,0,3.982-0.792,3.982-4.225C74.884,21.297,74.193,18.525,71.692,16.776z"/>
			<path style="fill:#FFFFFF;" d="M87.26,21.858c-0.165,0-0.197,0.033-0.263,0.198l-1.547,3.795
				c-0.296,0.693-0.428,1.387-0.428,1.717c0,0.495,0.264,0.792,1.152,0.792h0.428c0.362,0,0.428,0.132,0.428,0.297
				c0,0.231-0.165,0.297-0.461,0.297c-0.954,0-2.304-0.099-3.225-0.099c-0.296,0-1.843,0.099-3.357,0.099
				c-0.362,0-0.526-0.065-0.526-0.297c0-0.165,0.099-0.297,0.329-0.297c0.263,0,0.592-0.033,0.855-0.033
				c1.317-0.198,1.811-1.056,2.403-2.476l7.57-17.525c0.329-0.792,0.56-1.123,0.856-1.123c0.428,0,0.56,0.264,0.855,0.892
				C93.02,9.646,97.858,21,99.701,25.258c1.119,2.542,1.941,2.904,2.468,3.004c0.428,0.065,0.757,0.099,1.086,0.099
				c0.264,0,0.395,0.099,0.395,0.297c0,0.231-0.165,0.297-1.25,0.297c-1.021,0-3.127,0-5.563-0.065
				c-0.526-0.033-0.855-0.033-0.855-0.231c0-0.165,0.065-0.264,0.362-0.297c0.197-0.033,0.395-0.297,0.263-0.627l-2.238-5.677
				c-0.066-0.165-0.165-0.198-0.296-0.198H87.26z M93.447,20.307c0.132,0,0.165-0.066,0.132-0.165l-2.732-7.03
				c-0.033-0.099-0.066-0.264-0.131-0.264c-0.099,0-0.132,0.165-0.165,0.264l-2.798,6.997c-0.066,0.132,0,0.198,0.099,0.198H93.447z
				"/>
			<path style="fill:#FFFFFF;" d="M105.56,15.852c0-4.258,0.033-5.05-0.033-5.941c-0.066-0.99-0.329-1.254-1.251-1.518
				c-0.23-0.066-0.724-0.099-1.119-0.099c-0.329,0-0.494-0.099-0.494-0.297c0-0.198,0.198-0.264,0.625-0.264
				c1.547,0,3.489,0.066,4.345,0.066c0.724,0,2.666-0.066,3.719-0.066c0.428,0,0.625,0.066,0.625,0.264
				c0,0.198-0.165,0.297-0.46,0.297c-0.329,0-0.494,0.033-0.856,0.099c-0.757,0.132-0.987,0.528-1.053,1.518
				c-0.066,0.891-0.066,1.683-0.066,5.941v3.928c0,4.093,0.79,5.677,2.205,6.799c1.284,1.023,2.666,1.122,3.654,1.122
				c1.25,0,2.731-0.363,3.883-1.485c1.613-1.519,1.679-3.96,1.679-6.832v-3.532c0-4.258-0.033-5.05-0.066-5.941
				c-0.065-0.957-0.296-1.254-1.218-1.518c-0.23-0.066-0.724-0.099-1.053-0.099s-0.494-0.099-0.494-0.297
				c0-0.198,0.198-0.264,0.593-0.264c1.481,0,3.423,0.066,3.456,0.066c0.329,0,2.271-0.066,3.39-0.066
				c0.395,0,0.592,0.066,0.592,0.264c0,0.198-0.165,0.297-0.494,0.297s-0.494,0.033-0.855,0.099
				c-0.79,0.132-0.987,0.528-1.053,1.518c-0.033,0.891-0.066,1.683-0.066,5.941v3.003c0,3.135-0.329,6.436-2.765,8.45
				c-2.041,1.716-4.246,2.013-6.122,2.013c-1.514,0-4.509-0.065-6.615-1.914c-1.481-1.287-2.633-3.367-2.633-7.426V15.852z"/>
			<path style="fill:#FFFFFF;" d="M132.911,7.963c0.066-0.462,0.329-0.726,0.56-0.726c0.296,0,0.494,0.132,0.889,0.891l7.768,15.512
				l7.768-15.71c0.23-0.462,0.493-0.693,0.757-0.693c0.23,0,0.56,0.297,0.658,0.891l2.633,17.261
				c0.264,1.75,0.526,2.509,1.415,2.772c0.823,0.231,1.284,0.265,1.646,0.265c0.263,0,0.46,0.099,0.46,0.264
				c0,0.231-0.329,0.33-0.757,0.33c-0.724,0-4.838-0.099-5.99-0.165c-0.69-0.033-0.855-0.165-0.855-0.33
				c0-0.132,0.132-0.231,0.329-0.297c0.165-0.066,0.23-0.396,0.132-1.188l-1.613-12.113h-0.099l-6.221,12.41
				c-0.658,1.32-0.822,1.585-1.151,1.585c-0.362,0-0.691-0.562-1.152-1.42c-0.691-1.287-2.995-5.578-3.324-6.37
				c-0.23-0.528-1.942-3.928-2.896-5.875h-0.099l-1.382,10.826c-0.065,0.495-0.099,0.858-0.099,1.32
				c0,0.528,0.395,0.726,0.889,0.825c0.494,0.099,0.757,0.132,1.021,0.132s0.46,0.132,0.46,0.264c0,0.265-0.263,0.33-0.691,0.33
				c-1.218,0-2.534-0.099-3.061-0.099c-0.56,0-1.942,0.099-2.863,0.099c-0.296,0-0.527-0.065-0.527-0.33
				c0-0.132,0.165-0.264,0.461-0.264c0.23,0,0.428,0,0.889-0.066c0.79-0.099,1.053-1.221,1.185-2.145L132.911,7.963z"/>
			<path style="fill:#FFFFFF;" d="M179.748,14.499c0.098,0,0.197-0.066,0.197-0.231v-0.693c0-5.017,0-5.941-0.066-6.997
				c-0.066-1.122-0.328-1.65-1.414-1.881c-0.264-0.066-0.824-0.099-1.285-0.099c-0.361,0-0.559-0.066-0.559-0.297
				s0.23-0.297,0.691-0.297c1.777,0,3.85,0.099,4.738,0.099c0.791,0,2.863-0.099,4.148-0.099c0.461,0,0.691,0.066,0.691,0.297
				s-0.199,0.297-0.594,0.297c-0.264,0-0.559,0.033-0.953,0.099c-0.889,0.165-1.152,0.726-1.219,1.881
				c-0.066,1.056-0.066,1.98-0.066,6.997v5.809c0,3.036,0,5.643,0.166,7.063c0.098,0.924,0.295,1.65,1.283,1.782
				c0.461,0.065,1.184,0.132,1.678,0.132c0.363,0,0.527,0.099,0.527,0.264c0,0.231-0.264,0.33-0.658,0.33
				c-2.141,0-4.213-0.099-5.135-0.099c-0.758,0-2.83,0.099-4.113,0.099c-0.461,0-0.691-0.099-0.691-0.33
				c0-0.165,0.131-0.264,0.525-0.264c0.494,0,0.889-0.066,1.186-0.132c0.658-0.132,0.822-0.858,0.955-1.815
				c0.164-1.387,0.164-3.994,0.164-7.03v-2.905c0-0.132-0.1-0.198-0.197-0.198h-12.574c-0.099,0-0.197,0.033-0.197,0.198v2.905
				c0,3.036,0,5.643,0.165,7.063c0.099,0.924,0.296,1.65,1.283,1.782c0.461,0.065,1.185,0.132,1.679,0.132
				c0.362,0,0.526,0.099,0.526,0.264c0,0.231-0.263,0.33-0.658,0.33c-2.14,0-4.213-0.099-5.134-0.099
				c-0.758,0-2.831,0.099-4.147,0.099c-0.428,0-0.658-0.099-0.658-0.33c0-0.165,0.132-0.264,0.526-0.264
				c0.494,0,0.889-0.066,1.185-0.132c0.658-0.132,0.823-0.858,0.955-1.815c0.164-1.387,0.164-3.994,0.164-7.03v-5.809
				c0-5.017,0-5.941-0.065-6.997c-0.066-1.122-0.329-1.65-1.415-1.881c-0.264-0.066-0.823-0.099-1.284-0.099
				c-0.361,0-0.56-0.066-0.56-0.297s0.23-0.297,0.691-0.297c1.777,0,3.851,0.099,4.739,0.099c0.79,0,2.863-0.099,4.147-0.099
				c0.461,0,0.691,0.066,0.691,0.297s-0.198,0.297-0.593,0.297c-0.264,0-0.56,0.033-0.954,0.099
				c-0.889,0.165-1.152,0.726-1.218,1.881c-0.066,1.056-0.066,1.98-0.066,6.997v0.693c0,0.165,0.099,0.231,0.197,0.231H179.748z"/>
			<path style="fill:#FFFFFF;" d="M191.037,18.327c0-4.786,3.357-10.991,12.145-10.991c7.307,0,11.85,4.06,11.85,10.496
				c0,6.436-4.674,11.485-12.145,11.485C194.461,29.317,191.037,23.311,191.037,18.327z M210.719,18.855
				c0-6.205-3.719-10.033-8.393-10.033c-3.225,0-7.01,1.716-7.01,8.647c0,5.776,3.291,10.331,8.754,10.331
				C206.111,27.8,210.719,26.842,210.719,18.855z"/>
			<path style="fill:#FFFFFF;" d="M220.166,15.852c0-4.258,0.033-5.05-0.033-5.941c-0.066-0.99-0.328-1.254-1.25-1.518
				c-0.23-0.066-0.725-0.099-1.119-0.099c-0.33,0-0.494-0.099-0.494-0.297c0-0.198,0.197-0.264,0.625-0.264
				c1.547,0,3.49,0.066,4.346,0.066c0.723,0,2.666-0.066,3.719-0.066c0.428,0,0.625,0.066,0.625,0.264
				c0,0.198-0.164,0.297-0.461,0.297c-0.328,0-0.494,0.033-0.855,0.099c-0.758,0.132-0.988,0.528-1.053,1.518
				c-0.066,0.891-0.066,1.683-0.066,5.941v3.928c0,4.093,0.789,5.677,2.205,6.799c1.283,1.023,2.666,1.122,3.654,1.122
				c1.25,0,2.73-0.363,3.883-1.485c1.613-1.519,1.68-3.96,1.68-6.832v-3.532c0-4.258-0.033-5.05-0.066-5.941
				c-0.066-0.957-0.297-1.254-1.219-1.518c-0.23-0.066-0.723-0.099-1.053-0.099c-0.328,0-0.494-0.099-0.494-0.297
				c0-0.198,0.197-0.264,0.594-0.264c1.48,0,3.422,0.066,3.455,0.066c0.33,0,2.271-0.066,3.391-0.066
				c0.395,0,0.592,0.066,0.592,0.264c0,0.198-0.164,0.297-0.494,0.297c-0.328,0-0.492,0.033-0.855,0.099
				c-0.789,0.132-0.986,0.528-1.053,1.518c-0.033,0.891-0.066,1.683-0.066,5.941v3.003c0,3.135-0.328,6.436-2.764,8.45
				c-2.041,1.716-4.246,2.013-6.123,2.013c-1.514,0-4.508-0.065-6.615-1.914c-1.48-1.287-2.633-3.367-2.633-7.426V15.852z"/>
			<path style="fill:#FFFFFF;" d="M244.852,28.592c-0.461-0.198-0.559-0.33-0.559-0.957c0-1.519,0.131-3.269,0.164-3.729
				c0-0.43,0.131-0.727,0.361-0.727c0.264,0,0.297,0.264,0.297,0.462c0,0.363,0.098,0.957,0.264,1.452
				c0.625,2.079,2.797,2.772,4.607,2.772c2.502,0,4.016-1.584,4.016-3.564c0-1.222-0.297-2.442-2.863-3.96l-1.68-0.99
				c-3.422-2.013-4.541-3.895-4.541-6.37c0-3.432,3.291-5.644,7.307-5.644c1.875,0,3.357,0.264,4.113,0.462
				c0.264,0.066,0.395,0.165,0.395,0.363c0,0.363-0.098,1.155-0.098,3.366c0,0.594-0.133,0.891-0.363,0.891
				c-0.197,0-0.295-0.165-0.295-0.495c0-0.264-0.133-1.122-0.758-1.848c-0.428-0.528-1.35-1.32-3.225-1.32
				c-2.074,0-3.949,1.089-3.949,3.003c0,1.254,0.461,2.245,3.061,3.697l1.184,0.66c3.818,2.112,5.004,4.257,5.004,6.799
				c0,2.079-0.791,3.762-2.896,5.247c-1.383,0.99-3.291,1.155-4.838,1.155C247.879,29.317,246.102,29.152,244.852,28.592z"/>
			<path style="fill:#FFFFFF;" d="M264.205,15.852c0-4.258,0-5.05-0.033-5.941c-0.066-0.957-0.328-1.254-1.25-1.518
				c-0.23-0.066-0.725-0.099-1.152-0.099c-0.297,0-0.494-0.099-0.494-0.297c0-0.198,0.23-0.264,0.658-0.264
				c1.514,0,3.357,0.066,4.18,0.066c0.922,0,7.34,0.033,7.9,0c0.525-0.033,0.986-0.132,1.217-0.165
				c0.164-0.033,0.33-0.132,0.461-0.132c0.164,0,0.197,0.132,0.197,0.264c0,0.198-0.164,0.528-0.23,1.815
				c-0.033,0.297-0.098,1.519-0.164,1.848c-0.033,0.132-0.1,0.462-0.33,0.462c-0.197,0-0.23-0.132-0.23-0.363
				c0-0.198-0.031-0.693-0.197-1.023c-0.23-0.495-0.461-0.891-1.908-1.023c-0.494-0.066-3.949-0.132-4.543-0.132
				c-0.131,0-0.197,0.099-0.197,0.264v6.931c0,0.165,0.033,0.297,0.197,0.297c0.658,0,4.412,0,5.07-0.066
				c0.689-0.066,1.086-0.165,1.381-0.429c0.23-0.198,0.33-0.363,0.461-0.363c0.133,0,0.23,0.132,0.23,0.297s-0.064,0.627-0.23,2.046
				c-0.064,0.561-0.131,1.683-0.131,1.881c0,0.231-0.033,0.627-0.297,0.627c-0.197,0-0.264-0.099-0.264-0.231
				c-0.031-0.297-0.031-0.66-0.098-1.023c-0.164-0.561-0.527-0.99-1.613-1.089c-0.525-0.066-3.818-0.132-4.541-0.132
				c-0.133,0-0.166,0.132-0.166,0.297v2.244c0,0.957-0.031,3.334,0,4.158c0.066,1.915,0.955,2.344,3.918,2.344
				c0.756,0,1.975-0.033,2.73-0.363c0.725-0.33,1.055-0.924,1.252-2.079c0.064-0.297,0.131-0.429,0.328-0.429
				c0.23,0,0.264,0.363,0.264,0.66c0,0.627-0.23,2.541-0.395,3.102c-0.197,0.727-0.461,0.727-1.547,0.727
				c-2.172,0-3.918-0.033-5.332-0.099c-1.416-0.033-2.502-0.066-3.357-0.066c-0.33,0-0.955,0.033-1.646,0.033
				c-0.689,0.033-1.414,0.065-2.008,0.065c-0.361,0-0.559-0.099-0.559-0.297c0-0.132,0.1-0.297,0.461-0.297
				c0.428,0,0.758-0.033,1.02-0.099c0.594-0.133,0.758-0.66,0.855-1.485c0.133-1.188,0.133-3.4,0.133-5.974V15.852z"/>
		</g>
		<g>
			<path style="fill:#FFFFFF;" d="M71.96,38.861c0.087,0.087,0.131,0.196,0.131,0.328v6.329c0,0.146-0.049,0.268-0.147,0.365
				c-0.098,0.097-0.224,0.146-0.377,0.146c-0.08,0-0.158-0.012-0.235-0.036s-0.137-0.062-0.18-0.109l-4.294-5.339v5.025
				c0,0.133-0.045,0.242-0.136,0.329c-0.091,0.087-0.206,0.13-0.344,0.13c-0.139,0-0.251-0.043-0.339-0.13s-0.131-0.196-0.131-0.329
				v-6.339c0-0.146,0.049-0.267,0.147-0.36c0.099-0.094,0.221-0.141,0.366-0.141c0.087,0,0.171,0.016,0.251,0.047
				c0.08,0.031,0.142,0.075,0.186,0.131l4.283,5.349v-5.067c0-0.132,0.045-0.241,0.137-0.328c0.091-0.087,0.206-0.131,0.344-0.131
				C71.759,38.73,71.873,38.774,71.96,38.861z"/>
			<path style="fill:#FFFFFF;" d="M82.001,45.581c0,0.139-0.049,0.254-0.147,0.344c-0.099,0.091-0.213,0.136-0.344,0.136
				c-0.102,0-0.195-0.029-0.279-0.089c-0.084-0.059-0.151-0.141-0.202-0.245l-0.677-1.532h-3.376l-0.667,1.543
				c-0.037,0.104-0.097,0.185-0.18,0.24c-0.084,0.056-0.177,0.083-0.279,0.083c-0.153,0-0.27-0.038-0.35-0.114
				c-0.08-0.077-0.12-0.181-0.12-0.313c0-0.027,0.007-0.083,0.022-0.167l2.786-6.443c0.051-0.111,0.122-0.196,0.213-0.255
				c0.091-0.06,0.195-0.082,0.312-0.068c0.109,0,0.208,0.028,0.295,0.084s0.149,0.135,0.186,0.239l2.775,6.36
				C81.99,45.445,82.001,45.512,82.001,45.581z M77.39,43.245h2.546l-1.278-2.919L77.39,43.245z"/>
			<path style="fill:#FFFFFF;" d="M90.628,38.861c0.098,0.087,0.147,0.203,0.147,0.349c0,0.146-0.049,0.261-0.147,0.345
				c-0.098,0.083-0.224,0.125-0.377,0.125h-1.945v5.85c0,0.139-0.053,0.257-0.159,0.354c-0.105,0.097-0.239,0.146-0.399,0.146
				s-0.293-0.049-0.398-0.146c-0.106-0.098-0.159-0.216-0.159-0.354v-5.85h-1.934c-0.153,0-0.278-0.044-0.377-0.131
				c-0.098-0.087-0.147-0.203-0.147-0.349c0-0.14,0.049-0.252,0.147-0.339c0.099-0.087,0.224-0.131,0.377-0.131h4.994
				C90.404,38.73,90.53,38.774,90.628,38.861z"/>
			<path style="fill:#FFFFFF;" d="M100.002,38.861c0.091,0.094,0.137,0.214,0.137,0.359v4.004c0,0.549-0.127,1.043-0.382,1.48
				s-0.606,0.78-1.055,1.027c-0.448,0.246-0.952,0.37-1.513,0.37c-0.568,0-1.078-0.124-1.53-0.37
				c-0.452-0.247-0.805-0.59-1.06-1.027c-0.255-0.438-0.383-0.932-0.383-1.48v-4.004c0-0.146,0.051-0.266,0.153-0.359
				c0.102-0.094,0.233-0.141,0.393-0.141c0.138,0,0.26,0.048,0.366,0.146c0.105,0.098,0.158,0.216,0.158,0.354v4.004
				c0,0.361,0.087,0.687,0.262,0.975c0.175,0.289,0.408,0.513,0.7,0.673c0.291,0.16,0.604,0.239,0.939,0.239
				c0.35,0,0.674-0.079,0.973-0.239c0.298-0.16,0.537-0.384,0.715-0.673c0.179-0.288,0.268-0.613,0.268-0.975v-4.004
				c0-0.146,0.043-0.266,0.131-0.359s0.208-0.141,0.361-0.141C99.79,38.721,99.912,38.768,100.002,38.861z"/>
			<path style="fill:#FFFFFF;" d="M110.137,45.378c0.043,0.072,0.065,0.147,0.065,0.224c0,0.146-0.049,0.254-0.147,0.323
				s-0.217,0.104-0.355,0.104c-0.139,0-0.255-0.027-0.35-0.083c-0.219-0.118-0.397-0.31-0.536-0.574
				c-0.139-0.264-0.208-0.653-0.208-1.167c0-0.348-0.109-0.605-0.328-0.772c-0.219-0.166-0.503-0.25-0.853-0.25h-2.207v2.347
				c0,0.146-0.044,0.266-0.131,0.359s-0.2,0.141-0.338,0.141c-0.168,0-0.312-0.049-0.432-0.146
				c-0.121-0.098-0.181-0.216-0.181-0.354v-6.298c0-0.14,0.051-0.258,0.153-0.354c0.102-0.098,0.226-0.146,0.371-0.146h3.071
				c0.393,0,0.754,0.093,1.082,0.276c0.328,0.185,0.59,0.438,0.787,0.762s0.295,0.687,0.295,1.089c0,0.39-0.109,0.753-0.328,1.09
				c-0.218,0.337-0.499,0.589-0.841,0.756c0.27,0.132,0.482,0.316,0.639,0.553s0.242,0.511,0.257,0.823
				c0.029,0.396,0.062,0.666,0.098,0.809c0.037,0.143,0.117,0.245,0.241,0.308C110.035,45.244,110.093,45.305,110.137,45.378z
				 M108.23,42.109c0.164-0.126,0.297-0.294,0.399-0.506c0.102-0.212,0.153-0.45,0.153-0.715c0-0.333-0.107-0.616-0.322-0.85
				c-0.215-0.232-0.476-0.35-0.781-0.35h-2.458v2.628h2.491C107.894,42.304,108.066,42.234,108.23,42.109z"/>
			<path style="fill:#FFFFFF;" d="M118.458,45.216c0.098,0.098,0.147,0.212,0.147,0.345c0,0.139-0.049,0.252-0.147,0.339
				s-0.224,0.13-0.377,0.13h-3.803c-0.146,0-0.27-0.049-0.371-0.146c-0.102-0.098-0.153-0.216-0.153-0.354v-6.298
				c0-0.14,0.051-0.258,0.153-0.354c0.102-0.098,0.226-0.146,0.371-0.146h3.803c0.153,0,0.279,0.046,0.377,0.136
				c0.098,0.091,0.147,0.209,0.147,0.354c0,0.139-0.049,0.252-0.147,0.339s-0.224,0.13-0.377,0.13h-3.245v2.128h2.753
				c0.153,0,0.279,0.045,0.377,0.135c0.098,0.091,0.147,0.205,0.147,0.345c0,0.146-0.049,0.261-0.147,0.344
				s-0.224,0.125-0.377,0.125h-2.753v2.305h3.245C118.234,45.07,118.36,45.119,118.458,45.216z"/>
			<path style="fill:#FFFFFF;" d="M122.009,45.884c-0.091-0.091-0.137-0.223-0.137-0.396v-0.198c0-0.167,0.045-0.296,0.137-0.386
				c0.091-0.091,0.224-0.136,0.399-0.136h0.109c0.182,0,0.319,0.045,0.41,0.136c0.091,0.09,0.136,0.219,0.136,0.386v0.198
				c0,0.354-0.182,0.531-0.546,0.531h-0.109C122.233,46.019,122.1,45.974,122.009,45.884z"/>
			<path style="fill:#FFFFFF;" d="M137.35,42.698c0.258,0.302,0.388,0.696,0.388,1.184c0,0.771-0.235,1.322-0.705,1.652
				s-1.043,0.495-1.721,0.495h-2.809c-0.146,0-0.27-0.049-0.371-0.146c-0.102-0.098-0.153-0.216-0.153-0.354v-6.298
				c0-0.14,0.051-0.258,0.153-0.354c0.102-0.098,0.226-0.146,0.371-0.146h2.809c0.663,0,1.167,0.156,1.513,0.47
				c0.346,0.313,0.519,0.765,0.519,1.355c0,0.333-0.084,0.631-0.251,0.892c-0.167,0.26-0.412,0.46-0.732,0.599
				C136.761,42.179,137.091,42.396,137.35,42.698z M135.94,39.966c-0.186-0.17-0.446-0.255-0.781-0.255h-2.065v2.033h2.087
				c0.299-0.007,0.546-0.1,0.743-0.276c0.197-0.178,0.295-0.43,0.295-0.756C136.219,40.385,136.126,40.137,135.94,39.966z
				 M136.262,44.772c0.241-0.197,0.361-0.495,0.361-0.891c0-0.772-0.459-1.158-1.377-1.158h-2.152v2.347h2.207
				C135.701,45.07,136.022,44.971,136.262,44.772z"/>
			<path style="fill:#FFFFFF;" d="M146.003,45.216c0.099,0.098,0.148,0.212,0.148,0.345c0,0.139-0.05,0.252-0.148,0.339
				c-0.098,0.087-0.224,0.13-0.377,0.13h-3.802c-0.146,0-0.27-0.049-0.372-0.146c-0.102-0.098-0.152-0.216-0.152-0.354v-6.298
				c0-0.14,0.051-0.258,0.152-0.354c0.103-0.098,0.226-0.146,0.372-0.146h3.802c0.153,0,0.279,0.046,0.377,0.136
				c0.099,0.091,0.148,0.209,0.148,0.354c0,0.139-0.05,0.252-0.148,0.339c-0.098,0.087-0.224,0.13-0.377,0.13h-3.245v2.128h2.754
				c0.153,0,0.278,0.045,0.377,0.135c0.099,0.091,0.147,0.205,0.147,0.345c0,0.146-0.049,0.261-0.147,0.344
				s-0.224,0.125-0.377,0.125h-2.754v2.305h3.245C145.779,45.07,145.905,45.119,146.003,45.216z"/>
			<path style="fill:#FFFFFF;" d="M155.625,45.581c0,0.139-0.049,0.254-0.147,0.344c-0.099,0.091-0.213,0.136-0.345,0.136
				c-0.102,0-0.194-0.029-0.278-0.089c-0.084-0.059-0.151-0.141-0.202-0.245l-0.678-1.532h-3.376l-0.667,1.543
				c-0.036,0.104-0.096,0.185-0.18,0.24s-0.177,0.083-0.278,0.083c-0.153,0-0.271-0.038-0.351-0.114
				c-0.08-0.077-0.12-0.181-0.12-0.313c0-0.027,0.008-0.083,0.022-0.167l2.786-6.443c0.051-0.111,0.122-0.196,0.213-0.255
				c0.091-0.06,0.195-0.082,0.312-0.068c0.109,0,0.208,0.028,0.295,0.084c0.088,0.056,0.149,0.135,0.186,0.239l2.775,6.36
				C155.614,45.445,155.625,45.512,155.625,45.581z M151.014,43.245h2.546l-1.278-2.919L151.014,43.245z"/>
			<path style="fill:#FFFFFF;" d="M164.628,39.575c0,0.125-0.043,0.24-0.131,0.344c-0.087,0.111-0.207,0.167-0.36,0.167
				c-0.103,0-0.2-0.024-0.295-0.073c-0.452-0.243-0.939-0.364-1.464-0.364c-0.547,0-1.029,0.114-1.448,0.344
				s-0.745,0.551-0.978,0.965c-0.233,0.413-0.35,0.888-0.35,1.423c0,0.577,0.12,1.074,0.36,1.491s0.571,0.735,0.994,0.954
				s0.896,0.328,1.421,0.328c0.538,0,1.026-0.125,1.464-0.375c0.087-0.042,0.182-0.063,0.284-0.063c0.16,0,0.287,0.059,0.382,0.177
				c0.088,0.104,0.132,0.216,0.132,0.334c0,0.083-0.024,0.161-0.071,0.234c-0.048,0.073-0.111,0.131-0.191,0.172
				c-0.284,0.153-0.603,0.275-0.956,0.365s-0.701,0.136-1.043,0.136c-0.707,0-1.357-0.149-1.951-0.448s-1.066-0.733-1.42-1.304
				c-0.354-0.569-0.53-1.237-0.53-2.002c0-0.702,0.17-1.336,0.508-1.902c0.339-0.566,0.806-1.012,1.399-1.335
				c0.593-0.323,1.258-0.485,1.994-0.485c0.706,0,1.369,0.167,1.988,0.501C164.541,39.249,164.628,39.388,164.628,39.575z"/>
			<path style="fill:#FFFFFF;" d="M173.971,38.871c0.102,0.094,0.152,0.214,0.152,0.36v6.287c-0.007,0.146-0.062,0.268-0.164,0.365
				c-0.102,0.097-0.232,0.146-0.393,0.146c-0.146,0-0.271-0.049-0.377-0.146c-0.106-0.098-0.159-0.22-0.159-0.365v-2.7h-3.879v2.7
				c0,0.146-0.055,0.268-0.163,0.365c-0.109,0.097-0.237,0.146-0.383,0.146c-0.16,0-0.29-0.049-0.388-0.146
				c-0.099-0.098-0.147-0.22-0.147-0.365v-6.287c0-0.14,0.051-0.258,0.152-0.354c0.103-0.098,0.233-0.146,0.394-0.146
				c0.146,0,0.271,0.049,0.377,0.146c0.105,0.097,0.158,0.215,0.158,0.354v2.627h3.879v-2.627c0-0.14,0.055-0.258,0.164-0.354
				c0.109-0.098,0.237-0.146,0.383-0.146C173.737,38.73,173.868,38.777,173.971,38.871z"/>
			<path style="fill:#FFFFFF;" d="M189.76,45.592c0,0.097-0.041,0.194-0.121,0.292c-0.08,0.097-0.186,0.146-0.316,0.146
				c-0.125,0-0.227-0.027-0.307-0.083l-1.004-0.793c-0.686,0.653-1.545,0.98-2.58,0.98c-0.502,0-0.959-0.109-1.371-0.329
				c-0.412-0.219-0.734-0.507-0.967-0.865c-0.232-0.357-0.35-0.734-0.35-1.131c0-0.486,0.135-0.919,0.404-1.298
				s0.674-0.677,1.213-0.892c-0.146-0.202-0.256-0.393-0.328-0.574c-0.072-0.181-0.109-0.368-0.109-0.563
				c0-0.341,0.092-0.651,0.273-0.934c0.182-0.281,0.445-0.505,0.787-0.672s0.738-0.251,1.191-0.251c0.502,0,0.945,0.086,1.326,0.256
				c0.383,0.171,0.645,0.388,0.781,0.651c0.053,0.098,0.078,0.205,0.078,0.323c0,0.111-0.043,0.205-0.127,0.282
				c-0.084,0.076-0.195,0.114-0.332,0.114c-0.16,0-0.277-0.056-0.35-0.167c-0.154-0.208-0.342-0.363-0.563-0.464
				c-0.223-0.101-0.494-0.151-0.814-0.151c-0.371,0-0.658,0.091-0.857,0.271c-0.201,0.181-0.301,0.413-0.301,0.698
				c0,0.25,0.094,0.504,0.283,0.762c0.189,0.257,0.459,0.566,0.809,0.928l0.197,0.208c0.422,0.445,0.939,0.929,1.551,1.449
				c0.189-0.354,0.32-0.743,0.395-1.167c0.035-0.202,0.182-0.303,0.436-0.303c0.146,0,0.266,0.058,0.355,0.172
				c0.092,0.115,0.127,0.249,0.104,0.401c-0.094,0.57-0.275,1.078-0.545,1.522c0.299,0.25,0.607,0.501,0.928,0.751
				C189.684,45.296,189.76,45.438,189.76,45.592z M187.289,44.56c-0.779-0.653-1.438-1.272-1.977-1.856
				c-0.102-0.104-0.223-0.236-0.361-0.396c-0.414,0.118-0.709,0.292-0.885,0.521c-0.174,0.229-0.262,0.508-0.262,0.834
				c0,0.271,0.064,0.521,0.195,0.751c0.133,0.229,0.336,0.417,0.613,0.563c0.275,0.146,0.619,0.219,1.027,0.219
				C186.281,45.195,186.83,44.983,187.289,44.56z"/>
			<path style="fill:#FFFFFF;" d="M202.467,39.027c0.328,0.198,0.588,0.468,0.781,0.809s0.291,0.716,0.291,1.126
				s-0.098,0.789-0.291,1.137s-0.453,0.622-0.781,0.823c-0.328,0.202-0.684,0.303-1.07,0.303h-2.055v2.305
				c0,0.139-0.047,0.257-0.141,0.354c-0.096,0.097-0.217,0.146-0.361,0.146c-0.152,0-0.275-0.047-0.365-0.141
				c-0.092-0.094-0.137-0.214-0.137-0.359v-6.298c0-0.14,0.051-0.258,0.152-0.354c0.102-0.098,0.225-0.146,0.371-0.146h2.535
				C201.783,38.73,202.139,38.83,202.467,39.027z M201.943,42.093c0.168-0.121,0.301-0.282,0.398-0.484
				c0.098-0.201,0.146-0.417,0.146-0.646c0-0.354-0.107-0.655-0.322-0.901c-0.215-0.247-0.471-0.371-0.77-0.371h-2.055v2.586h2.055
				C201.594,42.275,201.775,42.215,201.943,42.093z"/>
			<path style="fill:#FFFFFF;" d="M213.553,44.288c-0.316,0.57-0.756,1.021-1.316,1.351c-0.563,0.33-1.195,0.495-1.902,0.495
				s-1.34-0.165-1.9-0.495s-1-0.78-1.316-1.351c-0.318-0.57-0.477-1.206-0.477-1.908s0.158-1.338,0.477-1.908
				c0.316-0.569,0.756-1.02,1.316-1.35s1.193-0.496,1.9-0.496s1.34,0.166,1.902,0.496c0.561,0.33,1,0.78,1.316,1.35
				c0.316,0.57,0.475,1.206,0.475,1.908S213.869,43.718,213.553,44.288z M212.574,40.967c-0.219-0.42-0.523-0.75-0.912-0.99
				c-0.391-0.239-0.832-0.359-1.328-0.359c-0.494,0-0.938,0.118-1.326,0.354c-0.391,0.236-0.695,0.564-0.914,0.985
				c-0.219,0.42-0.326,0.895-0.326,1.423c0,0.521,0.107,0.992,0.326,1.413s0.523,0.751,0.914,0.99
				c0.389,0.24,0.832,0.359,1.326,0.359c0.496,0,0.938-0.119,1.328-0.359c0.389-0.239,0.693-0.569,0.912-0.99
				s0.328-0.892,0.328-1.413S212.793,41.388,212.574,40.967z"/>
			<path style="fill:#FFFFFF;" d="M224.063,44.288c-0.316,0.57-0.756,1.021-1.316,1.351s-1.195,0.495-1.9,0.495
				c-0.707,0-1.342-0.165-1.902-0.495s-1-0.78-1.316-1.351s-0.475-1.206-0.475-1.908s0.158-1.338,0.475-1.908
				c0.316-0.569,0.756-1.02,1.316-1.35s1.195-0.496,1.902-0.496c0.705,0,1.34,0.166,1.9,0.496s1,0.78,1.316,1.35
				c0.318,0.57,0.477,1.206,0.477,1.908S224.381,43.718,224.063,44.288z M223.086,40.967c-0.219-0.42-0.523-0.75-0.914-0.99
				c-0.389-0.239-0.832-0.359-1.326-0.359c-0.496,0-0.939,0.118-1.328,0.354c-0.391,0.236-0.693,0.564-0.912,0.985
				c-0.219,0.42-0.328,0.895-0.328,1.423c0,0.521,0.109,0.992,0.328,1.413s0.521,0.751,0.912,0.99
				c0.389,0.24,0.832,0.359,1.328,0.359c0.494,0,0.938-0.119,1.326-0.359c0.391-0.239,0.695-0.569,0.914-0.99
				c0.217-0.421,0.326-0.892,0.326-1.413S223.303,41.388,223.086,40.967z"/>
			<path style="fill:#FFFFFF;" d="M232.695,45.195c0.098,0.09,0.148,0.208,0.148,0.354c0,0.139-0.051,0.254-0.148,0.344
				c-0.098,0.091-0.225,0.136-0.377,0.136h-3.693c-0.152,0-0.279-0.049-0.377-0.146c-0.098-0.098-0.146-0.216-0.146-0.354v-6.298
				c0-0.14,0.051-0.258,0.152-0.354c0.102-0.098,0.232-0.146,0.393-0.146c0.146,0,0.271,0.049,0.377,0.146
				c0.105,0.097,0.158,0.215,0.158,0.354v5.828h3.137C232.471,45.06,232.598,45.104,232.695,45.195z"/>
			<path style="fill:#FFFFFF;" d="M242.234,38.855c0.105,0.091,0.158,0.202,0.158,0.334c0,0.069-0.02,0.146-0.055,0.229
				l-2.787,6.287c-0.051,0.104-0.123,0.185-0.219,0.24c-0.094,0.056-0.193,0.083-0.295,0.083c-0.094-0.007-0.184-0.036-0.268-0.089
				c-0.084-0.052-0.15-0.127-0.201-0.224l-2.787-6.298c-0.029-0.056-0.043-0.129-0.043-0.219c0-0.146,0.055-0.265,0.164-0.354
				c0.109-0.091,0.229-0.136,0.359-0.136c0.219,0,0.379,0.111,0.48,0.334l2.383,5.369l2.252-5.38
				c0.051-0.098,0.117-0.174,0.201-0.229s0.176-0.083,0.279-0.083C242.002,38.721,242.129,38.766,242.234,38.855z"/>
			<path style="fill:#FFFFFF;" d="M246.742,45.884c-0.109,0.097-0.238,0.146-0.383,0.146c-0.16,0-0.291-0.049-0.389-0.146
				c-0.098-0.098-0.146-0.22-0.146-0.365v-6.287c0-0.14,0.051-0.258,0.152-0.354c0.102-0.098,0.232-0.146,0.393-0.146
				c0.146,0,0.271,0.049,0.377,0.146c0.105,0.097,0.158,0.215,0.158,0.354v6.287C246.904,45.664,246.85,45.786,246.742,45.884z"/>
			<path style="fill:#FFFFFF;" d="M255.5,45.195c0.098,0.09,0.146,0.208,0.146,0.354c0,0.139-0.049,0.254-0.146,0.344
				c-0.1,0.091-0.225,0.136-0.377,0.136h-3.693c-0.154,0-0.279-0.049-0.377-0.146c-0.1-0.098-0.148-0.216-0.148-0.354v-6.298
				c0-0.14,0.051-0.258,0.152-0.354c0.104-0.098,0.234-0.146,0.395-0.146c0.145,0,0.271,0.049,0.377,0.146
				c0.105,0.097,0.158,0.215,0.158,0.354v5.828h3.137C255.275,45.06,255.4,45.104,255.5,45.195z"/>
			<path style="fill:#FFFFFF;" d="M263.693,45.195c0.098,0.09,0.148,0.208,0.148,0.354c0,0.139-0.051,0.254-0.148,0.344
				c-0.098,0.091-0.225,0.136-0.377,0.136h-3.693c-0.152,0-0.279-0.049-0.377-0.146c-0.098-0.098-0.146-0.216-0.146-0.354v-6.298
				c0-0.14,0.051-0.258,0.152-0.354c0.102-0.098,0.232-0.146,0.393-0.146c0.146,0,0.271,0.049,0.377,0.146
				c0.105,0.097,0.158,0.215,0.158,0.354v5.828h3.137C263.469,45.06,263.596,45.104,263.693,45.195z"/>
			<path style="fill:#FFFFFF;" d="M273.205,45.581c0,0.139-0.049,0.254-0.146,0.344c-0.1,0.091-0.213,0.136-0.346,0.136
				c-0.102,0-0.193-0.029-0.277-0.089c-0.084-0.059-0.152-0.141-0.203-0.245l-0.678-1.532h-3.375l-0.668,1.543
				c-0.035,0.104-0.096,0.185-0.18,0.24s-0.176,0.083-0.277,0.083c-0.154,0-0.271-0.038-0.352-0.114
				c-0.08-0.077-0.119-0.181-0.119-0.313c0-0.027,0.008-0.083,0.021-0.167l2.787-6.443c0.051-0.111,0.121-0.196,0.213-0.255
				c0.09-0.06,0.195-0.082,0.311-0.068c0.109,0,0.209,0.028,0.295,0.084c0.088,0.056,0.15,0.135,0.186,0.239l2.775,6.36
				C273.195,45.445,273.205,45.512,273.205,45.581z M268.594,43.245h2.547l-1.279-2.919L268.594,43.245z"/>
		</g>
		<g>
			<polygon style="fill:#FFFFFF;" points="41,28.834 41,40.834 9,40.834 9,28.834 1,28.834 1,48.834 41,48.834 49,48.834 49,28.834 
							"/>
			<g>
				<polygon style="fill:#FFFFFF;" points="4.3,3.567 3.4,3.567 3.4,4.467 3.4,21.167 4.3,21.167 4.3,4.467 45.7,4.467 45.7,21.167 
					46.6,21.167 46.6,4.467 46.6,3.567 45.7,3.567 				"/>
				<polygon style="fill:#FFFFFF;" points="6.7,5.967 5.8,5.967 5.8,6.868 5.8,21.167 6.7,21.167 6.7,6.868 43.3,6.868 43.3,21.167 
					44.2,21.167 44.2,6.868 44.2,5.967 43.3,5.967 				"/>
				<polygon style="fill:#FFFFFF;" points="48.1,1.167 1.9,1.167 1,1.167 1,2.067 1,21.167 1.9,21.167 1.9,2.067 48.1,2.067 
					48.1,21.167 49,21.167 49,2.067 49,1.167 				"/>
				<polygon style="fill:#FFFFFF;" points="40.9,8.367 9.1,8.367 8.201,8.367 8.2,8.367 8.2,21.167 9.1,21.167 9.1,9.268 
					40.9,9.268 40.9,21.167 41.8,21.167 41.8,9.268 41.801,9.268 41.801,8.367 41.8,8.367 				"/>
			</g>
		</g>
	</g>
</g>
</svg>
