<?xml version="1.0" encoding="iso-8859-1"?>
<!-- Generator: Adobe Illustrator 16.0.0, SVG Export Plug-In . SVG Version: 6.00 Build 0)  -->
<!DOCTYPE svg PUBLIC "-//W3C//DTD SVG 1.1//EN" "http://www.w3.org/Graphics/SVG/1.1/DTD/svg11.dtd">
<svg version="1.1" xmlns="http://www.w3.org/2000/svg" xmlns:xlink="http://www.w3.org/1999/xlink" x="0px" y="0px" width="280px"
	 height="50px" viewBox="0 0 280 50" style="enable-background:new 0 0 280 50;" xml:space="preserve">
<g id="&#xB808;&#xC774;&#xC5B4;_2_xA0_&#xC774;&#xBBF8;&#xC9C0;_1_" style="display:none;">
	
		<image style="display:inline;overflow:visible;" width="48" height="49" id="&#xB808;&#xC774;&#xC5B4;_2_xA0_&#xC774;&#xBBF8;&#xC9C0;" xlink:href="4E641529.png"  transform="matrix(1 0 0 1 0 1)">
	</image>
</g>
<g id="BaumHouse">
	<g>
		<path d="M63.398,13.407c0-5.017,0-5.941-0.066-6.997c-0.066-1.122-0.329-1.65-1.416-1.881c-0.263-0.066-0.823-0.099-1.284-0.099
			c-0.362,0-0.559-0.066-0.559-0.297s0.23-0.297,0.724-0.297c1.744,0,3.818,0.099,4.476,0.099c1.613,0,2.896-0.099,4.015-0.099
			c5.958,0,7.011,3.201,7.011,4.951c0,2.707-1.547,4.324-3.357,5.776c2.699,0.924,5.99,3.268,5.99,7.129
			c0,3.531-2.731,7.195-8.788,7.195c-0.395,0-1.35-0.066-2.304-0.1c-0.987-0.065-1.975-0.099-2.468-0.099
			c-0.362,0-1.086,0-1.876,0.033c-0.757,0-1.613,0.065-2.271,0.065c-0.428,0-0.658-0.099-0.658-0.33
			c0-0.165,0.131-0.264,0.526-0.264c0.494,0,0.889-0.066,1.185-0.132c0.658-0.132,0.823-0.858,0.955-1.815
			c0.165-1.386,0.165-3.994,0.165-7.03V13.407z M67.347,13.968c0,0.264,0.099,0.33,0.23,0.363c0.296,0.066,0.79,0.099,1.547,0.099
			c1.086,0,1.811-0.132,2.37-0.627c0.855-0.693,1.349-1.881,1.349-3.499c0-2.211-1.284-5.116-4.114-5.116
			c-0.46,0-0.757,0-1.086,0.066c-0.23,0.066-0.296,0.198-0.296,0.562V13.968z M71.692,16.609c-0.691-0.495-1.448-0.726-2.732-0.792
			c-0.592-0.033-0.921-0.033-1.415-0.033c-0.132,0-0.198,0.066-0.198,0.231v7.822c0,2.178,0.099,2.739,1.152,3.168
			c0.889,0.363,1.646,0.396,2.402,0.396c1.481,0,3.982-0.792,3.982-4.225C74.884,21.13,74.193,18.358,71.692,16.609z"/>
		<path d="M87.26,21.691c-0.165,0-0.197,0.033-0.263,0.198l-1.547,3.795c-0.296,0.693-0.428,1.387-0.428,1.717
			c0,0.495,0.264,0.792,1.152,0.792h0.428c0.362,0,0.428,0.132,0.428,0.297c0,0.231-0.165,0.297-0.461,0.297
			c-0.954,0-2.304-0.099-3.225-0.099c-0.296,0-1.843,0.099-3.357,0.099c-0.362,0-0.526-0.065-0.526-0.297
			c0-0.165,0.099-0.297,0.329-0.297c0.263,0,0.592-0.033,0.855-0.033c1.317-0.198,1.811-1.056,2.403-2.476l7.57-17.525
			c0.329-0.792,0.56-1.123,0.856-1.123c0.428,0,0.56,0.264,0.855,0.892c0.691,1.551,5.53,12.905,7.373,17.162
			c1.119,2.542,1.941,2.904,2.468,3.004c0.428,0.065,0.757,0.099,1.086,0.099c0.264,0,0.395,0.099,0.395,0.297
			c0,0.231-0.165,0.297-1.25,0.297c-1.021,0-3.127,0-5.563-0.065c-0.526-0.033-0.855-0.033-0.855-0.231
			c0-0.165,0.065-0.264,0.362-0.297c0.197-0.033,0.395-0.297,0.263-0.627l-2.238-5.677c-0.066-0.165-0.165-0.198-0.296-0.198H87.26z
			 M93.447,20.14c0.132,0,0.165-0.066,0.132-0.165l-2.732-7.03c-0.033-0.099-0.066-0.264-0.131-0.264
			c-0.099,0-0.132,0.165-0.165,0.264l-2.798,6.997c-0.066,0.132,0,0.198,0.099,0.198H93.447z"/>
		<path d="M105.56,15.685c0-4.258,0.033-5.05-0.033-5.941c-0.066-0.99-0.329-1.254-1.251-1.518c-0.23-0.066-0.724-0.099-1.119-0.099
			c-0.329,0-0.494-0.099-0.494-0.297c0-0.198,0.198-0.264,0.625-0.264c1.547,0,3.489,0.066,4.345,0.066
			c0.724,0,2.666-0.066,3.719-0.066c0.428,0,0.625,0.066,0.625,0.264c0,0.198-0.165,0.297-0.46,0.297
			c-0.329,0-0.494,0.033-0.856,0.099c-0.757,0.132-0.987,0.528-1.053,1.518c-0.066,0.891-0.066,1.683-0.066,5.941v3.928
			c0,4.092,0.79,5.677,2.205,6.799c1.284,1.023,2.666,1.122,3.654,1.122c1.25,0,2.731-0.363,3.883-1.485
			c1.613-1.518,1.679-3.96,1.679-6.832v-3.532c0-4.258-0.033-5.05-0.066-5.941c-0.065-0.957-0.296-1.254-1.218-1.518
			c-0.23-0.066-0.724-0.099-1.053-0.099s-0.494-0.099-0.494-0.297c0-0.198,0.198-0.264,0.593-0.264c1.481,0,3.423,0.066,3.456,0.066
			c0.329,0,2.271-0.066,3.39-0.066c0.395,0,0.592,0.066,0.592,0.264c0,0.198-0.165,0.297-0.494,0.297s-0.494,0.033-0.855,0.099
			c-0.79,0.132-0.987,0.528-1.053,1.518c-0.033,0.891-0.066,1.683-0.066,5.941v3.003c0,3.135-0.329,6.436-2.765,8.45
			c-2.041,1.716-4.246,2.013-6.122,2.013c-1.514,0-4.509-0.065-6.615-1.914c-1.481-1.287-2.633-3.367-2.633-7.426V15.685z"/>
		<path d="M132.911,7.796c0.066-0.462,0.329-0.726,0.56-0.726c0.296,0,0.494,0.132,0.889,0.891l7.768,15.512l7.768-15.71
			c0.23-0.462,0.493-0.693,0.757-0.693c0.23,0,0.56,0.297,0.658,0.891l2.633,17.261c0.264,1.75,0.526,2.509,1.415,2.772
			c0.823,0.231,1.284,0.265,1.646,0.265c0.263,0,0.46,0.099,0.46,0.264c0,0.231-0.329,0.33-0.757,0.33
			c-0.724,0-4.838-0.099-5.99-0.165c-0.69-0.033-0.855-0.165-0.855-0.33c0-0.132,0.132-0.231,0.329-0.297
			c0.165-0.066,0.23-0.396,0.132-1.188l-1.613-12.113h-0.099l-6.221,12.41c-0.658,1.32-0.822,1.585-1.151,1.585
			c-0.362,0-0.691-0.562-1.152-1.42c-0.691-1.287-2.995-5.578-3.324-6.37c-0.23-0.528-1.942-3.928-2.896-5.875h-0.099l-1.382,10.826
			c-0.065,0.495-0.099,0.858-0.099,1.32c0,0.528,0.395,0.726,0.889,0.825c0.494,0.099,0.757,0.132,1.021,0.132
			s0.46,0.132,0.46,0.264c0,0.265-0.263,0.33-0.691,0.33c-1.218,0-2.534-0.099-3.061-0.099c-0.56,0-1.942,0.099-2.863,0.099
			c-0.296,0-0.527-0.065-0.527-0.33c0-0.132,0.165-0.264,0.461-0.264c0.23,0,0.428,0,0.889-0.066
			c0.79-0.099,1.053-1.221,1.185-2.145L132.911,7.796z"/>
		<path d="M179.747,14.332c0.099,0,0.197-0.066,0.197-0.231v-0.693c0-5.017,0-5.941-0.065-6.997
			c-0.066-1.122-0.329-1.65-1.415-1.881c-0.264-0.066-0.823-0.099-1.284-0.099c-0.362,0-0.56-0.066-0.56-0.297
			s0.23-0.297,0.691-0.297c1.777,0,3.851,0.099,4.739,0.099c0.79,0,2.863-0.099,4.147-0.099c0.461,0,0.691,0.066,0.691,0.297
			s-0.198,0.297-0.593,0.297c-0.264,0-0.56,0.033-0.954,0.099c-0.889,0.165-1.152,0.726-1.218,1.881
			c-0.066,1.056-0.066,1.98-0.066,6.997v5.809c0,3.036,0,5.644,0.165,7.063c0.099,0.924,0.296,1.65,1.283,1.782
			c0.461,0.065,1.185,0.132,1.679,0.132c0.362,0,0.526,0.099,0.526,0.264c0,0.231-0.263,0.33-0.658,0.33
			c-2.14,0-4.213-0.099-5.135-0.099c-0.757,0-2.83,0.099-4.113,0.099c-0.461,0-0.691-0.099-0.691-0.33
			c0-0.165,0.132-0.264,0.526-0.264c0.494,0,0.889-0.066,1.185-0.132c0.658-0.132,0.823-0.858,0.955-1.815
			c0.164-1.386,0.164-3.994,0.164-7.03v-2.905c0-0.132-0.099-0.198-0.197-0.198h-12.573c-0.099,0-0.197,0.033-0.197,0.198v2.905
			c0,3.036,0,5.644,0.165,7.063c0.099,0.924,0.296,1.65,1.283,1.782c0.461,0.065,1.185,0.132,1.679,0.132
			c0.362,0,0.526,0.099,0.526,0.264c0,0.231-0.263,0.33-0.658,0.33c-2.14,0-4.213-0.099-5.134-0.099
			c-0.758,0-2.831,0.099-4.147,0.099c-0.428,0-0.658-0.099-0.658-0.33c0-0.165,0.132-0.264,0.526-0.264
			c0.494,0,0.889-0.066,1.185-0.132c0.658-0.132,0.823-0.858,0.955-1.815c0.164-1.386,0.164-3.994,0.164-7.03v-5.809
			c0-5.017,0-5.941-0.065-6.997c-0.066-1.122-0.329-1.65-1.415-1.881c-0.264-0.066-0.823-0.099-1.284-0.099
			c-0.361,0-0.56-0.066-0.56-0.297s0.23-0.297,0.691-0.297c1.777,0,3.851,0.099,4.739,0.099c0.79,0,2.863-0.099,4.147-0.099
			c0.461,0,0.691,0.066,0.691,0.297s-0.198,0.297-0.593,0.297c-0.264,0-0.56,0.033-0.954,0.099
			c-0.889,0.165-1.152,0.726-1.218,1.881c-0.066,1.056-0.066,1.98-0.066,6.997v0.693c0,0.165,0.099,0.231,0.197,0.231H179.747z"/>
		<path d="M191.037,18.16c0-4.786,3.356-10.991,12.145-10.991c7.307,0,11.849,4.06,11.849,10.496
			c0,6.436-4.674,11.485-12.145,11.485C194.46,29.15,191.037,23.144,191.037,18.16z M210.719,18.688
			c0-6.205-3.719-10.033-8.393-10.033c-3.226,0-7.011,1.716-7.011,8.647c0,5.776,3.291,10.331,8.755,10.331
			C206.111,27.633,210.719,26.675,210.719,18.688z"/>
		<path d="M220.166,15.685c0-4.258,0.032-5.05-0.033-5.941c-0.066-0.99-0.329-1.254-1.251-1.518
			c-0.23-0.066-0.724-0.099-1.119-0.099c-0.329,0-0.493-0.099-0.493-0.297c0-0.198,0.197-0.264,0.625-0.264
			c1.547,0,3.489,0.066,4.345,0.066c0.724,0,2.666-0.066,3.719-0.066c0.428,0,0.626,0.066,0.626,0.264
			c0,0.198-0.165,0.297-0.461,0.297c-0.329,0-0.494,0.033-0.855,0.099c-0.758,0.132-0.988,0.528-1.054,1.518
			c-0.065,0.891-0.065,1.683-0.065,5.941v3.928c0,4.092,0.789,5.677,2.205,6.799c1.283,1.023,2.666,1.122,3.653,1.122
			c1.25,0,2.731-0.363,3.884-1.485c1.612-1.518,1.679-3.96,1.679-6.832v-3.532c0-4.258-0.033-5.05-0.066-5.941
			c-0.065-0.957-0.296-1.254-1.218-1.518c-0.23-0.066-0.724-0.099-1.053-0.099s-0.494-0.099-0.494-0.297
			c0-0.198,0.197-0.264,0.593-0.264c1.48,0,3.423,0.066,3.456,0.066c0.329,0,2.271-0.066,3.39-0.066
			c0.395,0,0.593,0.066,0.593,0.264c0,0.198-0.165,0.297-0.494,0.297s-0.493,0.033-0.855,0.099c-0.79,0.132-0.987,0.528-1.054,1.518
			c-0.032,0.891-0.065,1.683-0.065,5.941v3.003c0,3.135-0.329,6.436-2.765,8.45c-2.041,1.716-4.246,2.013-6.122,2.013
			c-1.514,0-4.509-0.065-6.615-1.914c-1.481-1.287-2.633-3.367-2.633-7.426V15.685z"/>
		<path d="M244.852,28.425c-0.461-0.198-0.56-0.33-0.56-0.957c0-1.519,0.131-3.268,0.164-3.73c0-0.429,0.132-0.726,0.362-0.726
			c0.263,0,0.296,0.264,0.296,0.462c0,0.363,0.099,0.957,0.264,1.452c0.625,2.079,2.798,2.772,4.607,2.772
			c2.502,0,4.016-1.584,4.016-3.564c0-1.221-0.296-2.442-2.863-3.96l-1.679-0.99c-3.423-2.013-4.542-3.895-4.542-6.37
			c0-3.432,3.291-5.644,7.307-5.644c1.876,0,3.357,0.264,4.114,0.462c0.264,0.066,0.395,0.165,0.395,0.363
			c0,0.363-0.099,1.155-0.099,3.366c0,0.594-0.132,0.891-0.362,0.891c-0.197,0-0.296-0.165-0.296-0.495
			c0-0.264-0.132-1.122-0.757-1.848c-0.428-0.528-1.35-1.32-3.226-1.32c-2.073,0-3.949,1.089-3.949,3.003
			c0,1.254,0.461,2.245,3.061,3.697l1.185,0.66c3.818,2.112,5.003,4.257,5.003,6.799c0,2.08-0.79,3.762-2.896,5.248
			c-1.382,0.99-3.291,1.155-4.838,1.155C247.879,29.15,246.102,28.985,244.852,28.425z"/>
		<path d="M264.204,15.685c0-4.258,0-5.05-0.032-5.941c-0.066-0.957-0.329-1.254-1.251-1.518c-0.23-0.066-0.725-0.099-1.152-0.099
			c-0.296,0-0.493-0.099-0.493-0.297c0-0.198,0.23-0.264,0.658-0.264c1.514,0,3.356,0.066,4.18,0.066c0.922,0,7.34,0.033,7.899,0
			C274.539,7.599,275,7.5,275.23,7.466c0.164-0.033,0.329-0.132,0.461-0.132c0.164,0,0.197,0.132,0.197,0.264
			c0,0.198-0.165,0.528-0.23,1.815c-0.033,0.297-0.099,1.519-0.165,1.848c-0.032,0.132-0.099,0.462-0.329,0.462
			c-0.197,0-0.23-0.132-0.23-0.363c0-0.198-0.032-0.693-0.197-1.023c-0.23-0.495-0.461-0.891-1.909-1.023
			c-0.493-0.066-3.949-0.132-4.542-0.132c-0.131,0-0.197,0.099-0.197,0.264v6.931c0,0.165,0.033,0.297,0.197,0.297
			c0.658,0,4.411,0,5.069-0.066c0.69-0.066,1.086-0.165,1.382-0.429c0.23-0.198,0.329-0.363,0.461-0.363s0.23,0.132,0.23,0.297
			s-0.065,0.627-0.23,2.046c-0.065,0.561-0.132,1.683-0.132,1.881c0,0.231-0.032,0.627-0.296,0.627
			c-0.197,0-0.264-0.099-0.264-0.231c-0.032-0.297-0.032-0.66-0.099-1.023c-0.164-0.561-0.526-0.99-1.612-1.089
			c-0.526-0.066-3.818-0.132-4.542-0.132c-0.132,0-0.165,0.132-0.165,0.297v2.244c0,0.957-0.032,3.333,0,4.159
			c0.066,1.915,0.955,2.343,3.917,2.343c0.757,0,1.975-0.033,2.731-0.363c0.725-0.33,1.054-0.924,1.251-2.079
			c0.065-0.297,0.132-0.429,0.329-0.429c0.23,0,0.264,0.363,0.264,0.661c0,0.627-0.23,2.541-0.396,3.102
			c-0.197,0.727-0.461,0.727-1.547,0.727c-2.172,0-3.917-0.033-5.332-0.099c-1.415-0.033-2.501-0.066-3.356-0.066
			c-0.33,0-0.955,0.033-1.646,0.033c-0.69,0.033-1.415,0.065-2.008,0.065c-0.361,0-0.559-0.099-0.559-0.297
			c0-0.132,0.099-0.297,0.46-0.297c0.429,0,0.758-0.033,1.021-0.099c0.593-0.133,0.757-0.66,0.855-1.485
			c0.132-1.188,0.132-3.4,0.132-5.974V15.685z"/>
	</g>
</g>
<g id="nature._beach__x26__poolvilla">
	<g>
		<path d="M71.96,38.694c0.087,0.087,0.131,0.196,0.131,0.328v6.329c0,0.146-0.049,0.268-0.147,0.365
			c-0.098,0.097-0.224,0.146-0.377,0.146c-0.08,0-0.158-0.012-0.235-0.036s-0.137-0.062-0.18-0.109l-4.294-5.339v5.025
			c0,0.133-0.045,0.242-0.136,0.329c-0.091,0.087-0.206,0.13-0.344,0.13c-0.139,0-0.251-0.043-0.339-0.13s-0.131-0.196-0.131-0.329
			v-6.339c0-0.146,0.049-0.267,0.147-0.36c0.099-0.094,0.221-0.141,0.366-0.141c0.087,0,0.171,0.016,0.251,0.047
			c0.08,0.031,0.142,0.075,0.186,0.131l4.283,5.349v-5.067c0-0.132,0.045-0.241,0.137-0.328c0.091-0.087,0.206-0.131,0.344-0.131
			C71.759,38.563,71.873,38.607,71.96,38.694z"/>
		<path d="M82.001,45.414c0,0.139-0.049,0.254-0.147,0.344c-0.099,0.091-0.213,0.136-0.344,0.136c-0.102,0-0.195-0.029-0.279-0.089
			c-0.084-0.059-0.151-0.141-0.202-0.245l-0.677-1.532h-3.376l-0.667,1.543c-0.037,0.104-0.097,0.185-0.18,0.24
			c-0.084,0.056-0.177,0.083-0.279,0.083c-0.153,0-0.27-0.038-0.35-0.114c-0.08-0.077-0.12-0.181-0.12-0.313
			c0-0.027,0.007-0.083,0.022-0.167l2.786-6.443c0.051-0.111,0.122-0.196,0.213-0.255c0.091-0.06,0.195-0.082,0.312-0.068
			c0.109,0,0.208,0.028,0.295,0.084s0.149,0.135,0.186,0.239l2.775,6.36C81.99,45.278,82.001,45.345,82.001,45.414z M77.39,43.078
			h2.546l-1.278-2.919L77.39,43.078z"/>
		<path d="M90.628,38.694c0.098,0.087,0.147,0.203,0.147,0.349c0,0.146-0.049,0.261-0.147,0.345
			c-0.098,0.083-0.224,0.125-0.377,0.125h-1.945v5.85c0,0.139-0.053,0.257-0.159,0.354c-0.105,0.097-0.239,0.146-0.399,0.146
			s-0.293-0.049-0.398-0.146c-0.106-0.098-0.159-0.216-0.159-0.354v-5.85h-1.934c-0.153,0-0.278-0.044-0.377-0.131
			c-0.098-0.087-0.147-0.203-0.147-0.349c0-0.14,0.049-0.252,0.147-0.339c0.099-0.087,0.224-0.131,0.377-0.131h4.994
			C90.404,38.563,90.53,38.607,90.628,38.694z"/>
		<path d="M100.002,38.694c0.091,0.094,0.137,0.214,0.137,0.359v4.004c0,0.549-0.127,1.043-0.382,1.48s-0.606,0.78-1.055,1.027
			c-0.448,0.246-0.952,0.37-1.513,0.37c-0.568,0-1.078-0.124-1.53-0.37c-0.452-0.247-0.805-0.59-1.06-1.027
			c-0.255-0.438-0.383-0.932-0.383-1.48v-4.004c0-0.146,0.051-0.266,0.153-0.359c0.102-0.094,0.233-0.141,0.393-0.141
			c0.138,0,0.26,0.048,0.366,0.146c0.105,0.098,0.158,0.216,0.158,0.354v4.004c0,0.361,0.087,0.687,0.262,0.975
			c0.175,0.289,0.408,0.513,0.7,0.673c0.291,0.16,0.604,0.239,0.939,0.239c0.35,0,0.674-0.079,0.973-0.239
			c0.298-0.16,0.537-0.384,0.715-0.673c0.179-0.288,0.268-0.613,0.268-0.975v-4.004c0-0.146,0.043-0.266,0.131-0.359
			s0.208-0.141,0.361-0.141C99.79,38.554,99.912,38.601,100.002,38.694z"/>
		<path d="M110.137,45.211c0.043,0.072,0.065,0.147,0.065,0.224c0,0.146-0.049,0.254-0.147,0.323s-0.217,0.104-0.355,0.104
			c-0.139,0-0.255-0.027-0.35-0.083c-0.219-0.118-0.397-0.31-0.536-0.574c-0.139-0.264-0.208-0.653-0.208-1.167
			c0-0.348-0.109-0.605-0.328-0.772c-0.219-0.166-0.503-0.25-0.853-0.25h-2.207v2.347c0,0.146-0.044,0.266-0.131,0.359
			s-0.2,0.141-0.338,0.141c-0.168,0-0.312-0.049-0.432-0.146c-0.121-0.098-0.181-0.216-0.181-0.354v-6.298
			c0-0.14,0.051-0.258,0.153-0.354c0.102-0.098,0.226-0.146,0.371-0.146h3.071c0.393,0,0.754,0.093,1.082,0.276
			c0.328,0.185,0.59,0.438,0.787,0.762s0.295,0.687,0.295,1.089c0,0.39-0.109,0.753-0.328,1.09
			c-0.218,0.337-0.499,0.589-0.841,0.756c0.27,0.132,0.482,0.316,0.639,0.553s0.242,0.511,0.257,0.823
			c0.029,0.396,0.062,0.666,0.098,0.809c0.037,0.143,0.117,0.245,0.241,0.308C110.035,45.077,110.093,45.138,110.137,45.211z
			 M108.23,41.942c0.164-0.126,0.297-0.294,0.399-0.506c0.102-0.212,0.153-0.45,0.153-0.715c0-0.333-0.107-0.616-0.322-0.85
			c-0.215-0.232-0.476-0.35-0.781-0.35h-2.458v2.628h2.491C107.894,42.137,108.066,42.067,108.23,41.942z"/>
		<path d="M118.458,45.049c0.098,0.098,0.147,0.212,0.147,0.345c0,0.139-0.049,0.252-0.147,0.339s-0.224,0.13-0.377,0.13h-3.803
			c-0.146,0-0.27-0.049-0.371-0.146c-0.102-0.098-0.153-0.216-0.153-0.354v-6.298c0-0.14,0.051-0.258,0.153-0.354
			c0.102-0.098,0.226-0.146,0.371-0.146h3.803c0.153,0,0.279,0.046,0.377,0.136c0.098,0.091,0.147,0.209,0.147,0.354
			c0,0.139-0.049,0.252-0.147,0.339s-0.224,0.13-0.377,0.13h-3.245v2.128h2.753c0.153,0,0.279,0.045,0.377,0.135
			c0.098,0.091,0.147,0.205,0.147,0.345c0,0.146-0.049,0.261-0.147,0.344s-0.224,0.125-0.377,0.125h-2.753v2.305h3.245
			C118.234,44.903,118.36,44.952,118.458,45.049z"/>
		<path d="M122.009,45.717c-0.091-0.091-0.137-0.223-0.137-0.396v-0.198c0-0.167,0.045-0.296,0.137-0.386
			c0.091-0.091,0.224-0.136,0.399-0.136h0.109c0.182,0,0.319,0.045,0.41,0.136c0.091,0.09,0.136,0.219,0.136,0.386v0.198
			c0,0.354-0.182,0.531-0.546,0.531h-0.109C122.233,45.852,122.1,45.807,122.009,45.717z"/>
		<path d="M137.35,42.531c0.258,0.302,0.388,0.696,0.388,1.184c0,0.771-0.235,1.322-0.705,1.652s-1.043,0.495-1.721,0.495h-2.809
			c-0.146,0-0.27-0.049-0.371-0.146c-0.102-0.098-0.153-0.216-0.153-0.354v-6.298c0-0.14,0.051-0.258,0.153-0.354
			c0.102-0.098,0.226-0.146,0.371-0.146h2.809c0.663,0,1.167,0.156,1.513,0.47c0.346,0.313,0.519,0.765,0.519,1.355
			c0,0.333-0.084,0.631-0.251,0.892c-0.167,0.26-0.412,0.46-0.732,0.599C136.761,42.012,137.091,42.229,137.35,42.531z
			 M135.94,39.799c-0.186-0.17-0.446-0.255-0.781-0.255h-2.065v2.033h2.087c0.299-0.007,0.546-0.1,0.743-0.276
			c0.197-0.178,0.295-0.43,0.295-0.756C136.219,40.218,136.126,39.97,135.94,39.799z M136.262,44.605
			c0.241-0.197,0.361-0.495,0.361-0.891c0-0.772-0.459-1.158-1.377-1.158h-2.152v2.347h2.207
			C135.701,44.903,136.022,44.804,136.262,44.605z"/>
		<path d="M146.003,45.049c0.099,0.098,0.148,0.212,0.148,0.345c0,0.139-0.05,0.252-0.148,0.339c-0.098,0.087-0.224,0.13-0.377,0.13
			h-3.802c-0.146,0-0.27-0.049-0.372-0.146c-0.102-0.098-0.152-0.216-0.152-0.354v-6.298c0-0.14,0.051-0.258,0.152-0.354
			c0.103-0.098,0.226-0.146,0.372-0.146h3.802c0.153,0,0.279,0.046,0.377,0.136c0.099,0.091,0.148,0.209,0.148,0.354
			c0,0.139-0.05,0.252-0.148,0.339c-0.098,0.087-0.224,0.13-0.377,0.13h-3.245v2.128h2.754c0.153,0,0.278,0.045,0.377,0.135
			c0.099,0.091,0.147,0.205,0.147,0.345c0,0.146-0.049,0.261-0.147,0.344s-0.224,0.125-0.377,0.125h-2.754v2.305h3.245
			C145.779,44.903,145.905,44.952,146.003,45.049z"/>
		<path d="M155.625,45.414c0,0.139-0.049,0.254-0.147,0.344c-0.099,0.091-0.213,0.136-0.345,0.136c-0.102,0-0.194-0.029-0.278-0.089
			c-0.084-0.059-0.151-0.141-0.202-0.245l-0.678-1.532h-3.376l-0.667,1.543c-0.036,0.104-0.096,0.185-0.18,0.24
			s-0.177,0.083-0.278,0.083c-0.153,0-0.271-0.038-0.351-0.114c-0.08-0.077-0.12-0.181-0.12-0.313c0-0.027,0.008-0.083,0.022-0.167
			l2.786-6.443c0.051-0.111,0.122-0.196,0.213-0.255c0.091-0.06,0.195-0.082,0.312-0.068c0.109,0,0.208,0.028,0.295,0.084
			c0.088,0.056,0.149,0.135,0.186,0.239l2.775,6.36C155.614,45.278,155.625,45.345,155.625,45.414z M151.014,43.078h2.546
			l-1.278-2.919L151.014,43.078z"/>
		<path d="M164.628,39.408c0,0.125-0.043,0.24-0.131,0.344c-0.087,0.111-0.207,0.167-0.36,0.167c-0.103,0-0.2-0.024-0.295-0.073
			c-0.452-0.243-0.939-0.364-1.464-0.364c-0.547,0-1.029,0.114-1.448,0.344s-0.745,0.551-0.978,0.965
			c-0.233,0.413-0.35,0.888-0.35,1.423c0,0.577,0.12,1.074,0.36,1.491s0.571,0.735,0.994,0.954s0.896,0.328,1.421,0.328
			c0.538,0,1.026-0.125,1.464-0.375c0.087-0.042,0.182-0.063,0.284-0.063c0.16,0,0.287,0.059,0.382,0.177
			c0.088,0.104,0.132,0.216,0.132,0.334c0,0.083-0.024,0.161-0.071,0.234c-0.048,0.073-0.111,0.131-0.191,0.172
			c-0.284,0.153-0.603,0.275-0.956,0.365s-0.701,0.136-1.043,0.136c-0.707,0-1.357-0.149-1.951-0.448s-1.066-0.733-1.42-1.304
			c-0.354-0.569-0.53-1.237-0.53-2.002c0-0.702,0.17-1.336,0.508-1.902c0.339-0.566,0.806-1.012,1.399-1.335
			c0.593-0.323,1.258-0.485,1.994-0.485c0.706,0,1.369,0.167,1.988,0.501C164.541,39.082,164.628,39.221,164.628,39.408z"/>
		<path d="M173.971,38.704c0.102,0.094,0.152,0.214,0.152,0.36v6.287c-0.007,0.146-0.062,0.268-0.164,0.365
			c-0.102,0.097-0.232,0.146-0.393,0.146c-0.146,0-0.271-0.049-0.377-0.146c-0.106-0.098-0.159-0.22-0.159-0.365v-2.7h-3.879v2.7
			c0,0.146-0.055,0.268-0.163,0.365c-0.109,0.097-0.237,0.146-0.383,0.146c-0.16,0-0.29-0.049-0.388-0.146
			c-0.099-0.098-0.147-0.22-0.147-0.365v-6.287c0-0.14,0.051-0.258,0.152-0.354c0.103-0.098,0.233-0.146,0.394-0.146
			c0.146,0,0.271,0.049,0.377,0.146c0.105,0.097,0.158,0.215,0.158,0.354v2.627h3.879v-2.627c0-0.14,0.055-0.258,0.164-0.354
			c0.109-0.098,0.237-0.146,0.383-0.146C173.737,38.563,173.868,38.61,173.971,38.704z"/>
		<path d="M189.759,45.425c0,0.097-0.04,0.194-0.12,0.292c-0.08,0.097-0.186,0.146-0.317,0.146c-0.124,0-0.226-0.027-0.306-0.083
			l-1.005-0.793c-0.686,0.653-1.545,0.98-2.579,0.98c-0.503,0-0.96-0.109-1.371-0.329c-0.412-0.219-0.734-0.507-0.967-0.865
			c-0.233-0.357-0.35-0.734-0.35-1.131c0-0.486,0.135-0.919,0.404-1.298s0.674-0.677,1.213-0.892
			c-0.146-0.202-0.256-0.393-0.328-0.574c-0.073-0.181-0.109-0.368-0.109-0.563c0-0.341,0.091-0.651,0.273-0.934
			c0.182-0.281,0.444-0.505,0.786-0.672c0.343-0.167,0.739-0.251,1.191-0.251c0.503,0,0.945,0.086,1.327,0.256
			c0.383,0.171,0.644,0.388,0.781,0.651c0.052,0.098,0.077,0.205,0.077,0.323c0,0.111-0.042,0.205-0.126,0.282
			c-0.084,0.076-0.195,0.114-0.333,0.114c-0.16,0-0.277-0.056-0.35-0.167c-0.153-0.208-0.341-0.363-0.563-0.464
			c-0.223-0.101-0.494-0.151-0.814-0.151c-0.371,0-0.657,0.091-0.857,0.271c-0.201,0.181-0.301,0.413-0.301,0.698
			c0,0.25,0.095,0.504,0.284,0.762c0.189,0.257,0.459,0.566,0.809,0.928l0.196,0.208c0.423,0.445,0.939,0.929,1.552,1.449
			c0.189-0.354,0.32-0.743,0.394-1.167c0.036-0.202,0.182-0.303,0.437-0.303c0.146,0,0.265,0.058,0.355,0.172
			c0.091,0.115,0.126,0.249,0.104,0.401c-0.095,0.57-0.276,1.078-0.546,1.522c0.299,0.25,0.608,0.501,0.929,0.751
			C189.683,45.129,189.759,45.271,189.759,45.425z M187.289,44.393c-0.779-0.653-1.438-1.272-1.978-1.856
			c-0.102-0.104-0.223-0.236-0.36-0.396c-0.415,0.118-0.71,0.292-0.885,0.521s-0.263,0.508-0.263,0.834
			c0,0.271,0.065,0.521,0.196,0.751c0.132,0.229,0.335,0.417,0.612,0.563c0.276,0.146,0.619,0.219,1.027,0.219
			C186.28,45.028,186.83,44.816,187.289,44.393z"/>
		<path d="M202.467,38.86c0.328,0.198,0.588,0.468,0.781,0.809s0.29,0.716,0.29,1.126s-0.097,0.789-0.29,1.137
			s-0.453,0.622-0.781,0.823c-0.328,0.202-0.685,0.303-1.07,0.303h-2.055v2.305c0,0.139-0.048,0.257-0.142,0.354
			c-0.095,0.097-0.216,0.146-0.361,0.146c-0.152,0-0.274-0.047-0.365-0.141c-0.092-0.094-0.137-0.214-0.137-0.359v-6.298
			c0-0.14,0.051-0.258,0.152-0.354c0.103-0.098,0.226-0.146,0.372-0.146h2.535C201.782,38.563,202.139,38.663,202.467,38.86z
			 M201.942,41.926c0.168-0.121,0.301-0.282,0.398-0.484c0.099-0.201,0.147-0.417,0.147-0.646c0-0.354-0.107-0.655-0.322-0.901
			c-0.215-0.247-0.472-0.371-0.77-0.371h-2.055v2.586h2.055C201.593,42.108,201.774,42.048,201.942,41.926z"/>
		<path d="M213.552,44.121c-0.316,0.57-0.756,1.021-1.316,1.351c-0.562,0.33-1.195,0.495-1.901,0.495
			c-0.707,0-1.341-0.165-1.901-0.495s-1-0.78-1.316-1.351c-0.317-0.57-0.476-1.206-0.476-1.908s0.158-1.338,0.476-1.908
			c0.316-0.569,0.756-1.02,1.316-1.35s1.194-0.496,1.901-0.496c0.706,0,1.34,0.166,1.901,0.496c0.561,0.33,1,0.78,1.316,1.35
			c0.317,0.57,0.476,1.206,0.476,1.908S213.869,43.551,213.552,44.121z M212.574,40.8c-0.219-0.42-0.523-0.75-0.913-0.99
			c-0.39-0.239-0.832-0.359-1.327-0.359s-0.938,0.118-1.327,0.354c-0.391,0.236-0.694,0.564-0.913,0.985
			c-0.219,0.42-0.327,0.895-0.327,1.423c0,0.521,0.108,0.992,0.327,1.413s0.522,0.751,0.913,0.99
			c0.389,0.24,0.832,0.359,1.327,0.359s0.938-0.119,1.327-0.359c0.39-0.239,0.694-0.569,0.913-0.99
			c0.218-0.421,0.327-0.892,0.327-1.413S212.792,41.221,212.574,40.8z"/>
		<path d="M224.063,44.121c-0.316,0.57-0.756,1.021-1.316,1.351c-0.562,0.33-1.195,0.495-1.901,0.495
			c-0.707,0-1.341-0.165-1.901-0.495s-1-0.78-1.316-1.351c-0.317-0.57-0.476-1.206-0.476-1.908s0.158-1.338,0.476-1.908
			c0.316-0.569,0.756-1.02,1.316-1.35s1.194-0.496,1.901-0.496c0.706,0,1.34,0.166,1.901,0.496c0.561,0.33,1,0.78,1.316,1.35
			c0.317,0.57,0.476,1.206,0.476,1.908S224.38,43.551,224.063,44.121z M223.085,40.8c-0.219-0.42-0.523-0.75-0.913-0.99
			c-0.39-0.239-0.832-0.359-1.327-0.359s-0.938,0.118-1.327,0.354c-0.391,0.236-0.694,0.564-0.913,0.985
			c-0.219,0.42-0.327,0.895-0.327,1.423c0,0.521,0.108,0.992,0.327,1.413s0.522,0.751,0.913,0.99
			c0.389,0.24,0.832,0.359,1.327,0.359s0.938-0.119,1.327-0.359c0.39-0.239,0.694-0.569,0.913-0.99
			c0.218-0.421,0.327-0.892,0.327-1.413S223.303,41.221,223.085,40.8z"/>
		<path d="M232.695,45.028c0.098,0.09,0.147,0.208,0.147,0.354c0,0.139-0.05,0.254-0.147,0.344
			c-0.099,0.091-0.225,0.136-0.377,0.136h-3.693c-0.153,0-0.279-0.049-0.377-0.146c-0.099-0.098-0.147-0.216-0.147-0.354v-6.298
			c0-0.14,0.051-0.258,0.152-0.354c0.103-0.098,0.233-0.146,0.394-0.146c0.146,0,0.271,0.049,0.377,0.146
			c0.105,0.097,0.158,0.215,0.158,0.354v5.828h3.137C232.471,44.893,232.597,44.938,232.695,45.028z"/>
		<path d="M242.233,38.688c0.105,0.091,0.158,0.202,0.158,0.334c0,0.069-0.019,0.146-0.055,0.229l-2.786,6.287
			c-0.051,0.104-0.124,0.185-0.219,0.24s-0.193,0.083-0.295,0.083c-0.095-0.007-0.184-0.036-0.268-0.089
			c-0.084-0.052-0.151-0.127-0.202-0.224l-2.786-6.298c-0.029-0.056-0.044-0.129-0.044-0.219c0-0.146,0.055-0.265,0.164-0.354
			c0.109-0.091,0.229-0.136,0.36-0.136c0.219,0,0.379,0.111,0.48,0.334l2.383,5.369l2.251-5.38c0.051-0.098,0.118-0.174,0.202-0.229
			c0.083-0.056,0.176-0.083,0.278-0.083C242.002,38.554,242.128,38.599,242.233,38.688z"/>
		<path d="M246.741,45.717c-0.109,0.097-0.237,0.146-0.383,0.146c-0.16,0-0.29-0.049-0.388-0.146
			c-0.099-0.098-0.147-0.22-0.147-0.365v-6.287c0-0.14,0.051-0.258,0.152-0.354c0.103-0.098,0.233-0.146,0.394-0.146
			c0.146,0,0.271,0.049,0.377,0.146c0.105,0.097,0.158,0.215,0.158,0.354v6.287C246.904,45.497,246.85,45.619,246.741,45.717z"/>
		<path d="M255.499,45.028c0.098,0.09,0.147,0.208,0.147,0.354c0,0.139-0.05,0.254-0.147,0.344
			c-0.099,0.091-0.225,0.136-0.377,0.136h-3.693c-0.153,0-0.279-0.049-0.377-0.146c-0.099-0.098-0.147-0.216-0.147-0.354v-6.298
			c0-0.14,0.051-0.258,0.152-0.354c0.103-0.098,0.233-0.146,0.394-0.146c0.146,0,0.271,0.049,0.377,0.146
			c0.105,0.097,0.158,0.215,0.158,0.354v5.828h3.137C255.274,44.893,255.4,44.938,255.499,45.028z"/>
		<path d="M263.693,45.028c0.098,0.09,0.147,0.208,0.147,0.354c0,0.139-0.05,0.254-0.147,0.344
			c-0.099,0.091-0.225,0.136-0.377,0.136h-3.693c-0.153,0-0.279-0.049-0.377-0.146c-0.099-0.098-0.147-0.216-0.147-0.354v-6.298
			c0-0.14,0.051-0.258,0.152-0.354c0.103-0.098,0.233-0.146,0.394-0.146c0.146,0,0.271,0.049,0.377,0.146
			c0.105,0.097,0.158,0.215,0.158,0.354v5.828h3.137C263.469,44.893,263.595,44.938,263.693,45.028z"/>
		<path d="M273.205,45.414c0,0.139-0.049,0.254-0.147,0.344c-0.099,0.091-0.213,0.136-0.345,0.136c-0.102,0-0.194-0.029-0.278-0.089
			c-0.084-0.059-0.151-0.141-0.202-0.245l-0.678-1.532h-3.376l-0.667,1.543c-0.036,0.104-0.096,0.185-0.18,0.24
			s-0.177,0.083-0.278,0.083c-0.153,0-0.271-0.038-0.351-0.114c-0.08-0.077-0.12-0.181-0.12-0.313c0-0.027,0.008-0.083,0.022-0.167
			l2.786-6.443c0.051-0.111,0.122-0.196,0.213-0.255c0.091-0.06,0.195-0.082,0.312-0.068c0.109,0,0.208,0.028,0.295,0.084
			c0.088,0.056,0.149,0.135,0.186,0.239l2.775,6.36C273.194,45.278,273.205,45.345,273.205,45.414z M268.594,43.078h2.546
			l-1.278-2.919L268.594,43.078z"/>
	</g>
	<g id="&#xB808;&#xC774;&#xC5B4;_2">
	</g>
	<g style="display:none;">
		<polygon style="display:inline;fill:#0066CC;" points="99.085,87.086 99.085,99.086 67.085,99.086 67.085,87.086 59.085,87.086 
			59.085,107.086 99.085,107.086 107.085,107.086 107.085,87.086 		"/>
		<g style="display:inline;">
			<polygon style="fill:#0066CC;" points="106.486,59.086 59.685,59.086 59.085,59.086 59.085,59.686 59.085,79.086 59.685,79.086 
				59.685,59.686 106.486,59.686 106.486,79.086 107.085,79.086 107.085,59.686 107.085,59.086 			"/>
			<polygon style="fill:#0066CC;" points="99.044,66.455 67.085,66.455 66.486,66.455 66.486,67.055 66.486,79.086 67.085,79.086 
				67.085,67.055 99.044,67.055 99.044,79.086 99.644,79.086 99.644,67.055 99.644,66.455 			"/>
			<polygon style="fill:#0066CC;" points="64.659,64.612 64.659,64.767 64.659,65.212 64.659,79.109 65.259,79.109 65.259,65.212 
				100.928,65.212 100.928,79.109 101.527,79.109 101.527,65.212 101.527,64.767 101.527,64.612 			"/>
			<polygon style="fill:#0066CC;" points="62.786,62.77 62.786,63.07 62.786,63.369 62.786,79.086 63.385,79.086 63.385,63.369 
				102.765,63.369 102.765,79.086 103.365,79.086 103.365,63.369 103.365,63.07 103.365,62.77 			"/>
			<polygon style="fill:#0066CC;" points="60.936,60.928 60.936,61.228 60.936,61.527 60.936,79.086 61.535,79.086 61.535,61.527 
				104.625,61.527 104.625,79.086 105.225,79.086 105.225,61.527 105.225,61.228 105.225,60.928 			"/>
		</g>
	</g>
	<g style="display:none;">
		<polygon style="display:inline;fill:#0066CC;" points="41,87 41,99 9,99 9,87 1,87 1,107 49,107 49,87 		"/>
		<g style="display:inline;">
			<polygon style="fill:#0066CC;" points="41,86.667 41,98.667 9,98.667 9,86.667 1,86.667 1,106.667 41,106.667 49,106.667 
				49,86.667 			"/>
			<g>
				<polygon style="fill:#0066CC;" points="7.2,64.4 6.4,64.4 6.4,65.2 6.4,79 7.2,79 7.2,65.2 42.8,65.2 42.8,79 43.6,79 
					43.6,65.2 43.6,64.4 42.8,64.4 				"/>
				<polygon style="fill:#0066CC;" points="9,66.2 8.2,66.2 8.2,67 8.2,79 9,79 9,67 41,67 41,79 41.8,79 41.8,67 41.8,66.2 
					41,66.2 				"/>
				<polygon style="fill:#0066CC;" points="1,79 1,59 49,59 49,79 48.2,79 48.2,59.8 1.8,59.8 1.8,79 				"/>
				<polygon style="fill:#0066CC;" points="2.8,79 3.6,79 3.6,61.6 46.4,61.6 46.4,79 47.2,79 47.2,60.8 2.8,60.8 				"/>
				<polyline style="fill:#0066CC;" points="5.4,79 5.4,63.4 44.6,63.4 44.6,79 45.4,79 45.4,62.6 4.6,62.6 4.6,79 				"/>
			</g>
		</g>
	</g>
	<polygon style="display:none;fill:#0066CC;" points="-24.75,29 -24.75,41 -56.75,41 -56.75,29 -64.75,29 -64.75,49 -16.75,49 
		-16.75,29 	"/>
	<g>
		<polygon style="fill:#0066CC;" points="41,28.667 41,40.667 9,40.667 9,28.667 1,28.667 1,48.667 41,48.667 49,48.667 49,28.667 
					"/>
		<g>
			<polygon style="fill:#0066CC;" points="4.3,3.4 3.4,3.4 3.4,4.3 3.4,21 4.3,21 4.3,4.3 45.7,4.3 45.7,21 46.6,21 46.6,4.3 
				46.6,3.4 45.7,3.4 			"/>
			<polygon style="fill:#0066CC;" points="6.7,5.8 5.8,5.8 5.8,6.701 5.8,21 6.7,21 6.7,6.701 43.3,6.701 43.3,21 44.2,21 
				44.2,6.701 44.2,5.8 43.3,5.8 			"/>
			<polygon style="fill:#0066CC;" points="48.1,1 1.9,1 1,1 1,1.9 1,21 1.9,21 1.9,1.9 48.1,1.9 48.1,21 49,21 49,1.9 49,1 			"/>
			<polygon style="fill:#0066CC;" points="40.9,8.2 9.1,8.2 8.201,8.2 8.2,8.2 8.2,21 9.1,21 9.1,9.101 40.9,9.101 40.9,21 41.8,21 
				41.8,9.101 41.801,9.101 41.801,8.2 41.8,8.2 			"/>
		</g>
	</g>
	<rect x="-112.538" y="8.2" style="display:none;fill:#0066CC;" width="0.9" height="12.8"/>
	<rect x="-119.737" y="1" style="display:none;fill:#0066CC;" width="0.9" height="20"/>
	<rect x="-112.537" y="8.2" style="display:none;fill:#0066CC;" width="33.601" height="0.9"/>
	<rect x="-119.737" y="1" style="display:none;fill:#0066CC;" width="48" height="0.9"/>
	<rect x="-117.337" y="3.4" style="display:none;fill:#0066CC;" width="43.2" height="0.9"/>
	<rect x="-114.938" y="5.8" style="display:none;fill:#0066CC;" width="38.4" height="0.9"/>
	<rect x="-117.337" y="3.4" style="display:none;fill:#0066CC;" width="0.9" height="17.6"/>
	<rect x="-114.938" y="5.8" style="display:none;fill:#0066CC;" width="0.9" height="15.2"/>
	<rect x="-72.637" y="1" style="display:none;fill:#0066CC;" width="0.9" height="20"/>
	<rect x="-79.837" y="8.2" style="display:none;fill:#0066CC;" width="0.9" height="12.8"/>
	<rect x="-77.437" y="5.8" style="display:none;fill:#0066CC;" width="0.9" height="15.2"/>
	<rect x="-75.037" y="3.4" style="display:none;fill:#0066CC;" width="0.9" height="17.6"/>
</g>
</svg>
