<?xml version="1.0" encoding="utf-8"?>
<!-- Generator: Adobe Illustrator 16.0.0, SVG Export Plug-In . SVG Version: 6.00 Build 0)  -->
<!DOCTYPE svg PUBLIC "-//W3C//DTD SVG 1.1//EN" "http://www.w3.org/Graphics/SVG/1.1/DTD/svg11.dtd">
<svg version="1.1" id="레이어_1" xmlns="http://www.w3.org/2000/svg" xmlns:xlink="http://www.w3.org/1999/xlink" x="0px"
	 y="0px" width="50px" height="280px" viewBox="0 0 50 280" enable-background="new 0 0 50 280" xml:space="preserve">
<g>
	<path fill="#E0E0E0" d="M32.012,13.521c0.139,0.175,0.252,0.328,0.341,0.458c0.085,0.13,0.168,0.257,0.246,0.379
		c0.079,0.121,0.157,0.248,0.236,0.379c0.078,0.13,0.17,0.291,0.274,0.483c0.174,0.034,0.373,0.074,0.602,0.117
		c0.225,0.043,0.451,0.092,0.678,0.144c0.314,0.052,0.602,0.109,0.864,0.169c0.26,0.061,0.518,0.119,0.771,0.17
		c0.252,0.053,0.514,0.101,0.783,0.143c0.271,0.045,0.571,0.083,0.902,0.119c0.296,0.034,0.5-0.018,0.614-0.157
		c0.112-0.14,0.159-0.33,0.144-0.575c-0.018-0.191-0.053-0.431-0.105-0.718c-0.052-0.289-0.13-0.58-0.235-0.876
		c-0.104-0.295-0.243-0.57-0.417-0.823c-0.174-0.252-0.384-0.448-0.628-0.587c-0.052-0.035-0.214-0.07-0.482-0.105
		c-0.271-0.035-0.51-0.044-0.721-0.025c-0.382,0.033-0.713,0.055-0.992,0.064s-0.592,0.022-0.94,0.039
		c-0.157,0-0.283-0.021-0.38-0.065c-0.094-0.043-0.164-0.104-0.208-0.183s-0.069-0.153-0.079-0.223
		c-0.009-0.069-0.013-0.131-0.013-0.183c0-0.14,0.043-0.256,0.131-0.353c0.086-0.096,0.191-0.179,0.314-0.248
		c0.121-0.07,0.247-0.123,0.378-0.158c0.131-0.034,0.239-0.061,0.327-0.078c0.087-0.019,0.208-0.035,0.365-0.053
		c0.157-0.017,0.253-0.025,0.287-0.025c0.4-0.035,0.801-0.063,1.202-0.079c0.401-0.018,0.811,0,1.229,0.052
		c0.575,0.069,1.146,0.152,1.712,0.248c0.566,0.095,1.12,0.256,1.66,0.484c0.192,0.068,0.304,0.217,0.339,0.444
		s0.009,0.436-0.077,0.627c-0.035,0.139-0.114,0.235-0.235,0.288c-0.123,0.052-0.236,0.06-0.34,0.026
		c-0.227-0.052-0.444-0.123-0.654-0.21c-0.157-0.051-0.274-0.09-0.353-0.118c-0.078-0.026-0.205-0.057-0.378-0.091
		c0.243,0.487,0.438,1.023,0.587,1.607s0.239,1.129,0.274,1.634s-0.087,0.949-0.365,1.333c-0.279,0.383-0.681,0.557-1.202,0.522
		c-0.471-0.035-0.881-0.074-1.229-0.118c-0.349-0.043-0.674-0.091-0.979-0.144c-0.305-0.053-0.597-0.104-0.875-0.157
		c-0.279-0.053-0.575-0.113-0.889-0.184c-0.157-0.034-0.296-0.064-0.419-0.09c-0.121-0.026-0.233-0.04-0.339-0.04
		c0.088,0.209,0.152,0.391,0.195,0.549c0.045,0.156,0.083,0.27,0.119,0.34c0.139,0.365,0.251,0.67,0.338,0.914
		c0.088,0.244,0.148,0.453,0.185,0.626c0.051,0.245-0.019,0.392-0.21,0.444c-0.191,0.053-0.34,0.035-0.443-0.052
		c-0.088-0.086-0.197-0.243-0.327-0.47c-0.131-0.227-0.265-0.475-0.406-0.744c-0.139-0.271-0.269-0.522-0.392-0.758
		c-0.122-0.235-0.2-0.387-0.235-0.458c-0.155-0.331-0.296-0.605-0.418-0.822c-0.121-0.219-0.278-0.501-0.47-0.85
		c-0.035-0.07-0.091-0.161-0.17-0.274c-0.078-0.114-0.156-0.236-0.235-0.366c-0.078-0.13-0.152-0.262-0.222-0.393
		c-0.069-0.13-0.122-0.23-0.157-0.299c-0.036-0.122-0.014-0.249,0.065-0.379c0.078-0.13,0.179-0.235,0.3-0.313
		c0.123-0.078,0.253-0.122,0.393-0.131S31.907,13.399,32.012,13.521z M32.038,22.354c0.383-0.035,0.762-0.051,1.137-0.051
		s0.753,0.017,1.136,0.051c0.749,0.052,1.481,0.135,2.196,0.25c0.714,0.112,1.438,0.248,2.169,0.404
		c0.174,0.034,0.4,0.079,0.679,0.13c0.278,0.053,0.549,0.117,0.811,0.196c0.261,0.08,0.487,0.175,0.68,0.289
		c0.191,0.112,0.288,0.265,0.288,0.458c0,0.191-0.062,0.388-0.185,0.586c-0.121,0.201-0.277,0.292-0.47,0.275
		c-0.296-0.035-0.578-0.096-0.85-0.183c-0.271-0.087-0.526-0.157-0.771-0.208c-0.925-0.192-1.651-0.34-2.183-0.445
		c-0.53-0.104-0.941-0.183-1.229-0.235c-0.287-0.052-0.491-0.088-0.614-0.104c-0.121-0.018-0.234-0.036-0.339-0.053
		c-0.559-0.087-1.105-0.143-1.646-0.169c-0.54-0.026-1.098-0.064-1.673-0.117c-0.139-0.019-0.218-0.088-0.235-0.21
		c-0.017-0.123-0.024-0.209-0.024-0.261c0-0.209,0.116-0.353,0.352-0.431C31.502,22.446,31.758,22.39,32.038,22.354z"/>
	<path fill="#E0E0E0" d="M32.588,27.722c0.193-0.14,0.459-0.135,0.799,0.013c0.338,0.148,0.769,0.396,1.294,0.745
		c0.557,0.349,1.135,0.709,1.736,1.084c0.601,0.375,1.181,0.71,1.738,1.007c0.191,0.087,0.393,0.166,0.601,0.235
		c0.209,0.069,0.436,0.095,0.68,0.079c0.087,0,0.188-0.026,0.301-0.079c0.113-0.052,0.161-0.201,0.144-0.445
		c-0.036-0.417-0.116-0.819-0.248-1.202c-0.131-0.383-0.311-0.774-0.536-1.175c-0.069-0.123-0.122-0.253-0.157-0.393
		c-0.034-0.139-0.025-0.27,0.026-0.393c0.054-0.122,0.17-0.2,0.354-0.235c0.183-0.034,0.335-0.034,0.457,0
		c0.14,0.035,0.253,0.105,0.34,0.209c0.087,0.104,0.174,0.227,0.262,0.366c0.261,0.419,0.461,0.915,0.601,1.491
		c0.14,0.575,0.201,1.071,0.183,1.489c-0.017,0.557-0.14,0.975-0.365,1.254c-0.227,0.28-0.593,0.418-1.098,0.418
		c-0.313,0-0.593-0.017-0.837-0.051c-0.243-0.036-0.514-0.104-0.81-0.21c0.087,0.489,0.157,0.937,0.208,1.347
		c0.053,0.409,0.08,0.84,0.08,1.293c0,0.174-0.006,0.401-0.014,0.68c-0.01,0.278-0.022,0.57-0.039,0.875
		c-0.018,0.305-0.039,0.596-0.066,0.875c-0.025,0.279-0.056,0.506-0.091,0.68c-0.053,0.278-0.122,0.492-0.209,0.64
		c-0.087,0.149-0.227,0.204-0.418,0.171c-0.156-0.036-0.279-0.084-0.366-0.145c-0.088-0.061-0.121-0.223-0.104-0.483
		c0.017-0.209,0.03-0.493,0.039-0.849c0.008-0.357,0.014-0.731,0.014-1.124c0-0.393,0-0.754,0-1.085c0-0.331,0-0.575,0-0.731
		c-0.018-0.454-0.069-0.894-0.157-1.32c-0.087-0.428-0.227-0.814-0.418-1.164c-0.052-0.087-0.171-0.23-0.353-0.431
		c-0.184-0.2-0.432-0.396-0.744-0.588c-0.314-0.192-0.642-0.396-0.98-0.614c-0.341-0.218-0.658-0.414-0.954-0.589
		c-0.297-0.19-0.54-0.365-0.732-0.522c-0.19-0.158-0.306-0.304-0.339-0.443c-0.036-0.14-0.031-0.279,0.013-0.418
		C32.462,27.843,32.519,27.756,32.588,27.722z M29.819,28.558c0.104,0,0.222,0.021,0.353,0.065s0.213,0.117,0.247,0.222
		c0.069,0.174,0.14,0.405,0.211,0.692c0.068,0.288,0.13,0.563,0.182,0.824c0.244,1.132,0.457,2.244,0.642,3.332
		c0.182,1.09,0.265,2.226,0.246,3.411c0,0.278-0.003,0.588-0.013,0.927c-0.008,0.34-0.038,0.632-0.09,0.875
		c0,0.035-0.019,0.166-0.054,0.392s-0.061,0.357-0.079,0.393c-0.033,0.069-0.103,0.138-0.208,0.209
		c-0.104,0.07-0.254,0.096-0.444,0.078c-0.104-0.018-0.195-0.048-0.273-0.091c-0.079-0.043-0.119-0.127-0.119-0.248v-0.314
		c0-0.208,0.009-0.461,0.027-0.757c0.017-0.297,0.025-0.559,0.025-0.785c-0.035-0.992-0.118-1.986-0.248-2.979
		c-0.13-0.994-0.291-2.011-0.484-3.058c-0.086-0.454-0.19-0.902-0.313-1.345c-0.123-0.445-0.2-0.911-0.234-1.399
		C29.156,28.723,29.364,28.575,29.819,28.558z"/>
	<path fill="#E0E0E0" d="M32.129,13.004c0.141,0.174,0.253,0.327,0.34,0.458c0.088,0.13,0.171,0.256,0.249,0.378
		c0.077,0.122,0.156,0.249,0.234,0.379c0.079,0.131,0.17,0.292,0.275,0.484c0.174,0.035,0.374,0.074,0.601,0.118
		c0.227,0.042,0.452,0.091,0.68,0.144c0.314,0.052,0.602,0.109,0.861,0.169c0.263,0.061,0.519,0.119,0.771,0.17
		c0.251,0.052,0.514,0.101,0.784,0.143c0.271,0.044,0.569,0.083,0.901,0.119c0.296,0.034,0.5-0.018,0.615-0.158
		c0.111-0.139,0.16-0.331,0.144-0.575c-0.019-0.192-0.053-0.431-0.105-0.719c-0.052-0.287-0.131-0.579-0.234-0.875
		c-0.105-0.297-0.245-0.57-0.419-0.823c-0.175-0.252-0.384-0.448-0.627-0.587c-0.053-0.035-0.214-0.071-0.484-0.105
		c-0.269-0.036-0.509-0.043-0.718-0.025c-0.384,0.034-0.716,0.056-0.993,0.065c-0.279,0.009-0.593,0.021-0.94,0.038
		c-0.156,0-0.284-0.021-0.379-0.064c-0.097-0.043-0.166-0.104-0.21-0.184c-0.043-0.079-0.069-0.153-0.077-0.222
		c-0.009-0.069-0.014-0.131-0.014-0.182c0-0.14,0.043-0.258,0.131-0.354c0.087-0.095,0.19-0.179,0.313-0.248
		c0.121-0.071,0.247-0.123,0.379-0.158c0.13-0.035,0.239-0.061,0.326-0.079c0.087-0.017,0.209-0.034,0.366-0.052
		c0.157-0.017,0.252-0.027,0.288-0.027c0.399-0.035,0.801-0.061,1.202-0.078c0.4-0.017,0.81,0,1.229,0.052
		c0.574,0.07,1.145,0.153,1.711,0.249c0.565,0.095,1.119,0.256,1.659,0.484c0.191,0.069,0.305,0.217,0.341,0.444
		c0.033,0.226,0.008,0.435-0.079,0.627c-0.035,0.139-0.114,0.235-0.235,0.288c-0.122,0.052-0.235,0.06-0.34,0.026
		c-0.227-0.052-0.444-0.124-0.653-0.209c-0.157-0.052-0.275-0.091-0.353-0.118c-0.078-0.026-0.205-0.057-0.379-0.092
		c0.243,0.488,0.439,1.023,0.588,1.608c0.147,0.583,0.238,1.127,0.274,1.633c0.035,0.505-0.088,0.95-0.367,1.332
		c-0.277,0.384-0.678,0.558-1.2,0.524c-0.472-0.036-0.881-0.075-1.229-0.119c-0.349-0.043-0.675-0.091-0.979-0.144
		c-0.305-0.052-0.597-0.104-0.877-0.156c-0.278-0.054-0.574-0.113-0.888-0.184c-0.157-0.034-0.296-0.064-0.418-0.091
		c-0.121-0.027-0.235-0.039-0.339-0.039c0.086,0.208,0.151,0.391,0.196,0.549c0.042,0.156,0.082,0.27,0.116,0.339
		c0.14,0.366,0.253,0.67,0.341,0.916c0.088,0.243,0.148,0.452,0.182,0.626c0.053,0.245-0.017,0.393-0.207,0.444
		c-0.192,0.052-0.341,0.035-0.445-0.052c-0.088-0.087-0.195-0.245-0.326-0.47c-0.132-0.227-0.267-0.476-0.405-0.745
		c-0.141-0.271-0.271-0.523-0.393-0.758s-0.199-0.388-0.235-0.458c-0.157-0.331-0.296-0.605-0.417-0.823
		c-0.124-0.218-0.279-0.5-0.472-0.849c-0.034-0.07-0.092-0.161-0.169-0.274c-0.078-0.113-0.158-0.236-0.235-0.366
		c-0.079-0.131-0.152-0.262-0.223-0.393c-0.07-0.13-0.122-0.23-0.156-0.299c-0.035-0.123-0.014-0.249,0.064-0.379
		c0.079-0.13,0.179-0.235,0.301-0.313c0.122-0.079,0.252-0.122,0.392-0.13C31.901,12.825,32.024,12.882,32.129,13.004z
		 M32.155,21.837c0.383-0.035,0.763-0.051,1.137-0.051c0.375,0,0.754,0.016,1.138,0.051c0.749,0.052,1.48,0.135,2.194,0.249
		c0.715,0.112,1.438,0.248,2.169,0.404c0.174,0.036,0.4,0.079,0.68,0.131c0.278,0.052,0.549,0.118,0.81,0.196
		c0.262,0.078,0.488,0.174,0.68,0.288c0.192,0.113,0.288,0.265,0.288,0.458c0,0.192-0.062,0.387-0.184,0.587
		c-0.121,0.2-0.278,0.292-0.47,0.274c-0.296-0.035-0.579-0.096-0.851-0.183c-0.27-0.087-0.525-0.157-0.771-0.209
		c-0.924-0.192-1.65-0.34-2.182-0.444c-0.532-0.104-0.94-0.183-1.229-0.235c-0.287-0.052-0.492-0.088-0.613-0.104
		c-0.122-0.019-0.235-0.036-0.341-0.053c-0.557-0.087-1.106-0.144-1.646-0.17c-0.542-0.026-1.098-0.065-1.672-0.117
		c-0.14-0.019-0.219-0.087-0.235-0.209c-0.019-0.122-0.027-0.209-0.027-0.262c0-0.208,0.118-0.352,0.354-0.431
		C31.62,21.929,31.877,21.872,32.155,21.837z"/>
	<path fill="#E0E0E0" d="M33.175,27.377c0.191-0.139,0.457-0.135,0.797,0.013c0.339,0.147,0.771,0.396,1.293,0.745
		c0.558,0.348,1.137,0.709,1.738,1.084c0.602,0.375,1.18,0.71,1.737,1.005c0.192,0.088,0.393,0.166,0.603,0.236
		c0.208,0.069,0.435,0.095,0.679,0.078c0.087,0,0.187-0.026,0.3-0.078c0.113-0.053,0.162-0.201,0.146-0.445
		c-0.036-0.417-0.119-0.819-0.249-1.202c-0.131-0.383-0.31-0.775-0.536-1.176c-0.07-0.123-0.123-0.253-0.157-0.393
		c-0.035-0.139-0.026-0.271,0.026-0.392c0.052-0.121,0.17-0.2,0.354-0.234c0.183-0.035,0.336-0.035,0.457,0
		c0.139,0.035,0.252,0.105,0.34,0.208c0.087,0.104,0.174,0.227,0.261,0.366c0.262,0.419,0.461,0.916,0.602,1.49
		c0.139,0.576,0.2,1.072,0.183,1.49c-0.017,0.558-0.14,0.976-0.365,1.255c-0.227,0.279-0.593,0.417-1.099,0.417
		c-0.313,0-0.592-0.017-0.835-0.051c-0.245-0.036-0.515-0.105-0.812-0.21c0.088,0.488,0.157,0.936,0.21,1.347
		c0.052,0.409,0.078,0.84,0.078,1.293c0,0.174-0.005,0.401-0.013,0.679c-0.009,0.28-0.021,0.572-0.039,0.876
		c-0.019,0.305-0.04,0.597-0.065,0.876c-0.027,0.279-0.058,0.505-0.092,0.679c-0.052,0.278-0.122,0.492-0.209,0.64
		c-0.087,0.148-0.227,0.205-0.418,0.169c-0.157-0.034-0.279-0.083-0.367-0.143c-0.086-0.062-0.121-0.223-0.103-0.484
		c0.017-0.208,0.028-0.492,0.039-0.849c0.008-0.357,0.012-0.732,0.012-1.124c0-0.392,0-0.754,0-1.084c0-0.332,0-0.575,0-0.732
		c-0.018-0.453-0.069-0.892-0.155-1.319c-0.089-0.427-0.227-0.814-0.42-1.163c-0.052-0.087-0.169-0.231-0.352-0.431
		c-0.184-0.2-0.432-0.396-0.745-0.589c-0.313-0.191-0.641-0.396-0.98-0.613c-0.34-0.219-0.657-0.415-0.953-0.588
		c-0.298-0.191-0.541-0.365-0.732-0.523c-0.191-0.156-0.305-0.305-0.34-0.443c-0.035-0.14-0.031-0.279,0.014-0.419
		C33.048,27.499,33.104,27.412,33.175,27.377z M30.404,28.213c0.104,0,0.222,0.022,0.354,0.065c0.13,0.043,0.213,0.117,0.248,0.222
		c0.069,0.174,0.14,0.405,0.209,0.693c0.07,0.287,0.131,0.562,0.184,0.823c0.243,1.132,0.456,2.244,0.64,3.332
		c0.182,1.089,0.265,2.226,0.248,3.411c0,0.278-0.006,0.588-0.014,0.928c-0.009,0.339-0.039,0.631-0.091,0.875
		c0,0.035-0.018,0.164-0.053,0.392c-0.034,0.226-0.062,0.357-0.078,0.391c-0.035,0.07-0.104,0.14-0.21,0.209
		c-0.104,0.071-0.252,0.096-0.442,0.079c-0.104-0.017-0.196-0.048-0.275-0.091c-0.078-0.043-0.117-0.126-0.117-0.248V38.98
		c0-0.208,0.008-0.461,0.025-0.758c0.018-0.297,0.027-0.558,0.027-0.783c-0.036-0.994-0.119-1.987-0.249-2.98
		c-0.131-0.994-0.292-2.013-0.483-3.057c-0.087-0.453-0.192-0.902-0.313-1.346c-0.122-0.444-0.201-0.911-0.235-1.398
		C29.741,28.379,29.951,28.229,30.404,28.213z"/>
</g>
<g>
	<g>
		<path fill="#E0E0E0" d="M24.767,39.584c0-0.35-0.082-0.601-0.245-0.752c-0.163-0.152-0.367-0.275-0.612-0.368
			c-0.246-0.093-0.502-0.164-0.77-0.209c-0.269-0.047-0.507-0.14-0.717-0.28c-0.35-0.21-0.729-0.548-1.137-1.014
			c-0.408-0.467-0.811-0.98-1.206-1.539c-0.397-0.56-0.765-1.125-1.103-1.696c-0.337-0.571-0.601-1.056-0.786-1.451
			c-0.164-0.327-0.333-0.654-0.508-0.98c-0.175-0.327-0.484-0.478-0.927-0.455c-0.373,0.023-0.629,0.151-0.77,0.385
			c-0.139,0.233-0.163,0.525-0.069,0.875c0.069,0.326,0.216,0.693,0.438,1.101c0.221,0.408,0.454,0.804,0.7,1.189
			c0.245,0.384,0.483,0.746,0.716,1.084c0.234,0.337,0.421,0.6,0.561,0.787c0.07,0.116,0.145,0.245,0.227,0.385
			s0.158,0.543,0.228,0.659C18.879,37.446,18.962,38,19.031,38h-0.419c-1.167,0-2.297-0.246-3.394-0.188
			c-1.095,0.059-2.191,0.056-3.288,0.266c-0.28,0.046-0.646,0.054-1.102,0.159c-0.454,0.104-0.787,0.263-0.997,0.542
			c-0.187,0.232-0.233,0.477-0.14,0.769c0.094,0.291,0.327,0.43,0.7,0.43c0.745,0,1.445-0.064,2.099-0.181
			c0.652-0.117,1.282,0.061,1.888,0.015C15.101,39.765,15.744,40,16.303,40c0.56,0,1.002,0,1.33,0c1.049,0,2.04-0.138,2.972,0.107
			c0.932,0.244,1.889,0.435,2.869,0.831c0.326,0.14,0.624-0.006,0.892-0.31C24.632,40.325,24.767,39.934,24.767,39.584z"/>
		<path fill="#E0E0E0" d="M26.62,47.244c0.28-0.14,0.42-0.501,0.42-1.084c0-0.209-0.064-0.385-0.192-0.524s-0.285-0.257-0.472-0.35
			c-0.188-0.093-0.392-0.169-0.612-0.227c-0.222-0.059-0.414-0.111-0.577-0.158c-0.606-0.163-1.195-0.32-1.766-0.471
			c-0.572-0.153-1.125-0.287-1.661-0.402c-0.56-0.164-1.125-0.31-1.697-0.438c-0.571-0.127-1.148-0.216-1.731-0.262
			c-0.839-0.093-1.545-0.135-2.116-0.123c-0.572,0.011-0.985,0.04-1.242,0.088c-0.303,0.046-0.548,0.115-0.734,0.209
			c-0.187,0.093-0.279,0.279-0.279,0.56c0,0.256,0.145,0.455,0.437,0.595s0.629,0.25,1.014,0.333
			c0.385,0.081,0.775,0.14,1.172,0.174c0.396,0.035,0.7,0.064,0.91,0.087c1.142,0.163,2.203,0.367,3.182,0.612
			c0.979,0.245,2.017,0.542,3.113,0.892c0.163,0.046,0.431,0.139,0.804,0.279c0.373,0.14,0.652,0.233,0.84,0.28
			C25.944,47.407,26.341,47.384,26.62,47.244z"/>
		<path fill="#E0E0E0" d="M25.432,30.456c0.023-0.444-0.064-0.734-0.264-0.875c-0.197-0.14-0.494-0.269-0.891-0.385
			c-0.047,0-0.18-0.023-0.402-0.07c-0.222-0.047-0.467-0.099-0.734-0.157c-0.269-0.059-0.52-0.111-0.752-0.158
			c-0.233-0.047-0.362-0.07-0.385-0.07c-0.327-0.07-0.682-0.152-1.067-0.245c-0.384-0.094-0.752-0.233-1.102-0.42
			c-0.07-0.046-0.163-0.204-0.28-0.472c-0.117-0.269-0.228-0.572-0.332-0.91c-0.105-0.338-0.192-0.659-0.262-0.962
			c-0.071-0.303-0.106-0.501-0.106-0.595c0.583-0.046,1.148-0.063,1.697-0.052c0.547,0.011,1.124-0.059,1.731-0.035
			C22.447,25.075,22.599,25,22.738,25c0.116,0,0.239,0,0.367,0c0.128,0,0.239,0.098,0.332,0.122c0.56,0.046,1.125,0.144,1.696,0.201
			s1.102,0.121,1.592,0.144c0.257,0,0.466-0.059,0.629-0.198c0.164-0.14,0.274-0.305,0.332-0.502
			c0.059-0.198,0.071-0.399,0.036-0.609c-0.036-0.209-0.101-0.383-0.192-0.524c-0.164-0.187-0.42-0.278-0.77-0.278
			c-0.187-0.023-0.356-0.028-0.507-0.016c-0.152,0.011-0.356,0.004-0.613-0.019c-0.14,0-0.384-0.011-0.734-0.034
			c-0.35-0.024-0.717-0.042-1.102-0.053c-0.384-0.012-0.746-0.029-1.083-0.053c-0.338-0.023-0.577-0.035-0.717-0.035
			c-0.863-0.047-1.761-0.052-2.693-0.018c-0.933,0.035-1.865,0.123-2.798,0.263c-0.933,0.14-1.842,0.337-2.729,0.594
			c-0.886,0.256-1.702,0.594-2.448,1.014c-0.583,0.351-0.897,0.852-0.943,1.505c-0.024,0.396,0.052,0.723,0.227,0.979
			c0.175,0.256,0.402,0.466,0.682,0.629c0.28,0.163,0.589,0.291,0.927,0.385c0.338,0.093,0.647,0.163,0.928,0.21
			c0.419,0.093,0.833,0.175,1.241,0.244c0.408,0.071,0.775,0.14,1.102,0.211c0.886,0.21,1.714,0.396,2.483,0.56
			c0.769,0.162,1.597,0.326,2.483,0.489c0.606,0.116,1.2,0.273,1.784,0.472c0.583,0.197,1.176,0.378,1.783,0.542
			C24.918,31.458,25.385,31.202,25.432,30.456z M16.792,27.588c-0.14-0.024-0.349-0.053-0.629-0.088
			c-0.28-0.035-0.566-0.069-0.857-0.104c-0.292-0.036-0.577-0.076-0.857-0.123c-0.279-0.046-0.489-0.081-0.629-0.105
			c-0.21-0.046-0.479-0.099-0.805-0.156c-0.327-0.059-0.502-0.158-0.524-0.298c-0.048-0.233,0.116-0.431,0.489-0.594
			c0.373-0.164,0.81-0.298,1.312-0.402c0.501-0.105,1.002-0.187,1.504-0.245c0.501-0.059,0.88-0.099,1.136-0.122
			c0.046,0.093,0.117,0.256,0.21,0.49c0.092,0.232,0.186,0.466,0.28,0.699c0.047,0.163,0.099,0.32,0.157,0.473
			c0.059,0.151,0.076,0.309,0.053,0.472c0,0.116-0.105,0.169-0.315,0.157C17.107,27.627,16.932,27.611,16.792,27.588z"/>
	</g>
	<path fill="#E0E0E0" d="M26.231,51.166c0.256,0.022,0.46,0.028,0.612,0.017c0.15-0.012,0.319-0.006,0.507,0.018
		c0.35,0,0.605,0.093,0.77,0.28c0.093,0.14,0.156,0.314,0.192,0.524c0.034,0.21,0.022,0.414-0.036,0.612
		c-0.058,0.198-0.168,0.367-0.331,0.507c-0.164,0.14-0.374,0.209-0.631,0.209c-0.489-0.023-1.02-0.064-1.591-0.122
		c-0.571-0.059-1.136-0.111-1.696-0.157c-0.093-0.024-0.204-0.035-0.332-0.035c-0.127,0-0.25,0-0.368,0
		c-0.139,0-0.291-0.012-0.454-0.035c-0.606-0.024-1.183-0.042-1.731-0.053c-0.548-0.012-1.114,0.006-1.697,0.053
		c0,0.093,0.036,0.291,0.105,0.595c0.069,0.303,0.157,0.624,0.262,0.961c0.105,0.338,0.215,0.642,0.333,0.91
		c0.116,0.269,0.209,0.425,0.28,0.473c0.349,0.187,0.717,0.326,1.102,0.42c0.384,0.092,0.74,0.174,1.066,0.244
		c0.024,0,0.152,0.023,0.384,0.07c0.234,0.047,0.484,0.099,0.753,0.158c0.267,0.058,0.513,0.11,0.734,0.157
		c0.222,0.046,0.355,0.07,0.402,0.07c0.397,0.117,0.694,0.245,0.893,0.385c0.197,0.14,0.284,0.431,0.261,0.875
		c-0.046,0.747-0.513,1.002-1.398,0.77c-0.607-0.163-1.201-0.344-1.784-0.542c-0.583-0.198-1.178-0.355-1.784-0.473
		c-0.887-0.163-1.714-0.326-2.484-0.489c-0.769-0.163-1.597-0.35-2.483-0.56c-0.327-0.07-0.695-0.14-1.101-0.21
		c-0.409-0.07-0.823-0.152-1.242-0.245c-0.28-0.047-0.589-0.117-0.926-0.209c-0.339-0.094-0.648-0.222-0.927-0.385
		c-0.28-0.163-0.507-0.374-0.683-0.629c-0.175-0.257-0.25-0.583-0.227-0.979c0.046-0.653,0.361-1.154,0.945-1.504
		c0.746-0.419,1.562-0.758,2.447-1.014c0.886-0.257,1.796-0.455,2.728-0.595c0.933-0.14,1.866-0.227,2.799-0.262
		c0.932-0.035,1.83-0.029,2.692,0.017c0.141,0,0.379,0.012,0.718,0.036c0.337,0.023,0.7,0.041,1.084,0.052
		c0.384,0.011,0.752,0.029,1.101,0.052C25.847,51.154,26.091,51.166,26.231,51.166z M17.521,53.195
		c-0.256,0.023-0.635,0.064-1.135,0.122c-0.502,0.059-1.004,0.14-1.504,0.245c-0.502,0.105-0.939,0.238-1.312,0.402
		c-0.374,0.163-0.538,0.361-0.49,0.595c0.023,0.139,0.198,0.238,0.525,0.296c0.326,0.058,0.594,0.111,0.805,0.158
		c0.139,0.023,0.35,0.058,0.629,0.104c0.279,0.047,0.565,0.088,0.856,0.123c0.292,0.034,0.578,0.069,0.857,0.105
		c0.28,0.035,0.49,0.063,0.63,0.087c0.139,0.023,0.315,0.041,0.523,0.052c0.211,0.012,0.315-0.041,0.315-0.157
		c0.023-0.164,0.005-0.321-0.052-0.473c-0.058-0.152-0.111-0.31-0.157-0.472c-0.094-0.232-0.187-0.466-0.28-0.699
		C17.639,53.451,17.569,53.287,17.521,53.195z M19.621,65.296c-0.069-0.14-0.152-0.281-0.245-0.419
		c-0.069-0.118-0.145-0.246-0.227-0.386c-0.082-0.14-0.158-0.268-0.227-0.385c-0.14-0.187-0.326-0.449-0.559-0.787
		c-0.234-0.338-0.473-0.699-0.718-1.083c-0.245-0.385-0.478-0.782-0.7-1.189c-0.222-0.408-0.367-0.775-0.437-1.102
		c-0.093-0.349-0.07-0.642,0.07-0.874c0.14-0.234,0.396-0.362,0.77-0.384c0.443-0.024,0.751,0.127,0.927,0.454
		c0.175,0.327,0.344,0.652,0.507,0.979c0.186,0.396,0.449,0.88,0.787,1.453c0.338,0.57,0.706,1.136,1.102,1.696
		c0.395,0.56,0.798,1.071,1.207,1.539c0.407,0.466,0.787,0.805,1.137,1.014c0.209,0.14,0.448,0.233,0.717,0.28
		c0.267,0.047,0.525,0.116,0.769,0.21c0.246,0.093,0.449,0.216,0.612,0.367c0.163,0.151,0.246,0.403,0.246,0.752
		c0,0.349-0.135,0.675-0.404,0.979c-0.267,0.303-0.564,0.385-0.891,0.245c-0.979-0.396-1.936-0.717-2.868-0.961
		c-0.933-0.245-1.924-0.368-2.973-0.368c-0.327,0-0.77,0-1.328,0c-0.561,0-1.202,0.023-1.925,0.07
		c-0.606,0.046-1.236,0.128-1.888,0.244c-0.653,0.117-1.353,0.176-2.099,0.176c-0.373,0-0.606-0.146-0.7-0.438
		c-0.093-0.291-0.046-0.554,0.141-0.787c0.209-0.28,0.542-0.472,0.996-0.577c0.455-0.104,0.823-0.181,1.102-0.227
		c1.096-0.21,2.191-0.345,3.288-0.402c1.096-0.059,2.226-0.087,3.393-0.087H19.621z M15.564,71.136
		c0.256-0.047,0.67-0.076,1.242-0.087c0.571-0.012,1.276,0.029,2.116,0.123c0.582,0.046,1.159,0.133,1.731,0.262
		c0.57,0.127,1.136,0.274,1.696,0.437c0.536,0.117,1.089,0.25,1.662,0.402c0.571,0.151,1.159,0.31,1.766,0.473
		c0.163,0.046,0.355,0.099,0.577,0.157c0.221,0.058,0.425,0.134,0.611,0.228c0.188,0.093,0.346,0.21,0.473,0.35
		c0.128,0.14,0.193,0.315,0.193,0.524c0,0.583-0.142,0.944-0.42,1.084c-0.28,0.14-0.677,0.163-1.19,0.07
		c-0.187-0.046-0.466-0.14-0.839-0.279c-0.373-0.14-0.642-0.234-0.805-0.28c-1.096-0.351-2.133-0.647-3.112-0.892
		s-2.041-0.449-3.183-0.613c-0.21-0.023-0.513-0.052-0.91-0.087s-0.786-0.094-1.171-0.175c-0.385-0.081-0.723-0.192-1.014-0.333
		c-0.292-0.14-0.438-0.337-0.438-0.594c0-0.28,0.094-0.466,0.28-0.56C15.016,71.253,15.26,71.182,15.564,71.136z"/>
	<g>
		<path fill="#E0E0E0" d="M18.67,26.963c0.024-0.163,0.006-0.321-0.052-0.472c-0.058-0.152-0.111-0.31-0.157-0.472
			c-0.093-0.233-0.187-0.466-0.28-0.699c-0.094-0.234-0.163-0.396-0.21-0.49c-0.257,0.023-0.636,0.064-1.136,0.123
			c-0.502,0.058-1.003,0.14-1.503,0.245c-0.502,0.105-0.94,0.238-1.313,0.402c-0.373,0.163-0.537,0.361-0.49,0.595
			c0.023,0.14,0.198,0.239,0.525,0.297c0.326,0.058,0.594,0.111,0.805,0.157c0.14,0.023,0.35,0.059,0.629,0.105
			c0.28,0.046,0.565,0.088,0.857,0.123c0.291,0.034,0.577,0.069,0.856,0.104c0.28,0.035,0.491,0.063,0.629,0.088
			c0.14,0.022,0.315,0.04,0.525,0.052C18.566,27.132,18.67,27.08,18.67,26.963z"/>
		<path fill="#E0E0E0" d="M25.806,39.065c0-0.35-0.082-0.601-0.245-0.752s-0.367-0.273-0.612-0.367
			c-0.245-0.093-0.501-0.164-0.769-0.21c-0.269-0.046-0.508-0.14-0.717-0.279c-0.35-0.209-0.729-0.548-1.137-1.014
			c-0.408-0.467-0.811-0.979-1.207-1.539c-0.396-0.56-0.764-1.125-1.102-1.696c-0.337-0.572-0.6-1.056-0.787-1.452
			c-0.164-0.326-0.332-0.653-0.507-0.979c-0.175-0.327-0.485-0.479-0.927-0.455c-0.374,0.022-0.629,0.151-0.769,0.384
			c-0.141,0.233-0.164,0.525-0.07,0.875c0.07,0.326,0.215,0.693,0.437,1.102c0.221,0.408,0.455,0.805,0.699,1.189
			c0.246,0.385,0.484,0.746,0.718,1.084c0.232,0.338,0.419,0.6,0.559,0.788c0.07,0.115,0.146,0.244,0.228,0.384
			c0.082,0.141,0.157-0.198,0.227-0.08C19.918,36.186,20,36,20.069,36H19.65c-1.167,0-2.296,0.494-3.393,0.553
			c-1.096,0.057-2.191,0.425-3.287,0.635c-0.28,0.046-0.648,0.239-1.102,0.344c-0.455,0.105-0.788,0.355-0.997,0.635
			c-0.187,0.233-0.233,0.523-0.141,0.815c0.093,0.291,0.327,0.453,0.7,0.453c0.746,0,1.446-0.051,2.099-0.168
			c0.652-0.116,1.282-0.174,1.889-0.222C16.141,38.999,16.782,39,17.342,39c0.559,0,1.002,0,1.328,0c1.05,0,2.041,0.103,2.974,0.348
			c0.932,0.244,1.889,0.555,2.868,0.951c0.327,0.14,0.624,0.053,0.893-0.249C25.671,39.746,25.806,39.415,25.806,39.065z"/>
		<path fill="#E0E0E0" d="M27.66,46.724c0.279-0.14,0.419-0.502,0.419-1.084c0-0.209-0.064-0.384-0.192-0.525
			c-0.128-0.14-0.285-0.256-0.471-0.35c-0.188-0.093-0.392-0.169-0.614-0.227c-0.221-0.059-0.413-0.112-0.576-0.158
			c-0.606-0.163-1.195-0.321-1.766-0.472c-0.572-0.152-1.125-0.287-1.661-0.402c-0.56-0.164-1.126-0.31-1.697-0.437
			c-0.572-0.128-1.149-0.216-1.731-0.263c-0.839-0.093-1.544-0.134-2.116-0.122c-0.572,0.011-0.985,0.041-1.242,0.087
			c-0.304,0.046-0.548,0.116-0.734,0.21c-0.187,0.092-0.28,0.279-0.28,0.559c0,0.256,0.145,0.455,0.437,0.595
			c0.291,0.14,0.63,0.25,1.015,0.332c0.385,0.082,0.775,0.14,1.171,0.176c0.396,0.035,0.699,0.063,0.91,0.087
			c1.142,0.163,2.203,0.367,3.183,0.612c0.979,0.245,2.017,0.542,3.113,0.893c0.163,0.046,0.431,0.139,0.804,0.279
			s0.652,0.232,0.839,0.279C26.982,46.887,27.38,46.864,27.66,46.724z"/>
		<path fill="#E0E0E0" d="M26.47,29.936c0.024-0.443-0.063-0.734-0.262-0.874c-0.199-0.14-0.496-0.269-0.893-0.385
			c-0.046,0-0.181-0.023-0.402-0.07c-0.222-0.047-0.467-0.1-0.734-0.157c-0.269-0.059-0.52-0.111-0.752-0.158
			c-0.234-0.046-0.362-0.069-0.385-0.069c-0.327-0.071-0.682-0.152-1.067-0.245c-0.385-0.094-0.751-0.233-1.101-0.42
			c-0.071-0.047-0.164-0.204-0.28-0.472c-0.116-0.269-0.228-0.572-0.333-0.91c-0.104-0.338-0.192-0.658-0.262-0.962
			c-0.069-0.303-0.104-0.501-0.104-0.594c0.583-0.047,1.147-0.064,1.695-0.053c0.548,0.012,1.125-0.298,1.731-0.274
			C23.485,24.316,23.637,24,23.776,24c0.117,0,0.24,0,0.368,0c0.128,0,0.238,0.339,0.332,0.363c0.56,0.046,1.125,0.263,1.697,0.322
			c0.571,0.058,1.102,0.18,1.593,0.203c0.256,0,0.465-0.029,0.628-0.169c0.164-0.14,0.273-0.289,0.332-0.487
			c0.059-0.197,0.07-0.391,0.036-0.601c-0.036-0.209-0.101-0.38-0.193-0.52c-0.162-0.187-0.419-0.277-0.77-0.277
			c-0.186-0.023-0.355-0.027-0.507-0.016c-0.152,0.011-0.355,0.005-0.612-0.018c-0.139,0-0.385-0.011-0.734-0.033
			c-0.35-0.024-0.717-0.042-1.102-0.052c-0.384-0.013-0.747-0.03-1.084-0.053c-0.338-0.024-0.576-0.035-0.717-0.035
			c-0.863-0.046-1.76-0.052-2.693-0.017s-1.866,0.122-2.798,0.262s-1.842,0.338-2.728,0.594c-0.886,0.258-1.703,0.595-2.449,1.015
			c-0.583,0.35-0.897,0.851-0.944,1.504c-0.023,0.396,0.053,0.723,0.228,0.979c0.174,0.256,0.402,0.466,0.682,0.629
			c0.279,0.163,0.588,0.292,0.927,0.385c0.337,0.093,0.647,0.163,0.927,0.209c0.419,0.094,0.833,0.175,1.241,0.246
			c0.408,0.07,0.775,0.14,1.102,0.21c0.885,0.21,1.713,0.396,2.482,0.56c0.77,0.163,1.597,0.326,2.483,0.489
			c0.606,0.117,1.201,0.274,1.784,0.472s1.178,0.379,1.784,0.542C25.957,30.938,26.423,30.683,26.47,29.936z M17.831,27.069
			c-0.139-0.024-0.35-0.053-0.629-0.088c-0.28-0.035-0.565-0.07-0.856-0.104c-0.292-0.035-0.577-0.076-0.857-0.123
			c-0.279-0.047-0.489-0.083-0.629-0.105c-0.21-0.046-0.479-0.099-0.805-0.157c-0.327-0.058-0.501-0.157-0.525-0.297
			c-0.047-0.233,0.117-0.432,0.49-0.595c0.373-0.164,0.81-0.297,1.313-0.402c0.5-0.104,1.001-0.187,1.503-0.245
			c0.5-0.058,0.879-0.1,1.136-0.123c0.047,0.093,0.116,0.256,0.21,0.49c0.093,0.233,0.187,0.466,0.28,0.699
			c0.046,0.163,0.099,0.32,0.157,0.472c0.058,0.151,0.076,0.309,0.052,0.472c0,0.117-0.104,0.169-0.314,0.158
			C18.146,27.109,17.971,27.091,17.831,27.069z"/>
	</g>
	<path fill="#E0E0E0" d="M26.68,50.257c0.257,0.023,0.46,0.029,0.612,0.018c0.151-0.012,0.321-0.006,0.507,0.017
		c0.351,0,0.607,0.093,0.77,0.28c0.093,0.141,0.157,0.315,0.193,0.525c0.034,0.21,0.022,0.414-0.036,0.612
		c-0.059,0.198-0.168,0.368-0.332,0.508c-0.163,0.14-0.372,0.209-0.628,0.209c-0.491-0.023-1.021-0.064-1.593-0.122
		c-0.571-0.059-1.137-0.111-1.697-0.157c-0.094-0.024-0.204-0.035-0.332-0.035c-0.128,0-0.25,0-0.368,0
		c-0.139,0-0.291-0.012-0.454-0.035c-0.606-0.023-1.184-0.041-1.731-0.052c-0.548-0.012-1.113,0.005-1.695,0.052
		c0,0.093,0.035,0.291,0.104,0.595c0.07,0.303,0.158,0.623,0.262,0.962c0.105,0.337,0.216,0.641,0.333,0.909
		c0.116,0.268,0.209,0.425,0.28,0.472c0.35,0.186,0.716,0.327,1.101,0.419c0.385,0.093,0.74,0.175,1.067,0.245
		c0.023,0,0.151,0.023,0.385,0.071c0.232,0.046,0.483,0.098,0.752,0.157c0.267,0.058,0.512,0.11,0.734,0.158
		c0.221,0.046,0.356,0.069,0.402,0.069c0.396,0.116,0.693,0.245,0.893,0.385c0.198,0.14,0.286,0.431,0.262,0.875
		c-0.047,0.746-0.513,1.002-1.398,0.769c-0.606-0.164-1.201-0.344-1.784-0.542c-0.583-0.199-1.177-0.356-1.784-0.472
		c-0.886-0.163-1.714-0.327-2.483-0.489c-0.77-0.164-1.597-0.35-2.482-0.56c-0.327-0.07-0.694-0.14-1.102-0.211
		c-0.408-0.069-0.822-0.15-1.241-0.244c-0.28-0.047-0.59-0.117-0.927-0.21c-0.338-0.093-0.647-0.222-0.927-0.385
		c-0.28-0.164-0.507-0.373-0.682-0.629c-0.175-0.256-0.251-0.583-0.228-0.979c0.047-0.653,0.361-1.154,0.944-1.504
		c0.746-0.419,1.563-0.758,2.449-1.015c0.885-0.257,1.795-0.454,2.728-0.594s1.866-0.227,2.798-0.263
		c0.933-0.035,1.83-0.029,2.693,0.018c0.141,0,0.379,0.012,0.717,0.035c0.338,0.023,0.7,0.041,1.084,0.053
		c0.385,0.011,0.752,0.03,1.102,0.053S26.541,50.257,26.68,50.257z M17.971,52.286c-0.257,0.023-0.636,0.063-1.136,0.123
		c-0.502,0.058-1.003,0.14-1.503,0.245c-0.502,0.105-0.94,0.238-1.313,0.402c-0.373,0.163-0.537,0.361-0.49,0.594
		c0.023,0.14,0.198,0.239,0.525,0.298c0.326,0.058,0.594,0.11,0.805,0.156c0.14,0.024,0.35,0.059,0.629,0.105
		c0.28,0.047,0.565,0.088,0.857,0.123c0.291,0.035,0.577,0.069,0.856,0.104c0.28,0.035,0.491,0.064,0.629,0.088
		c0.14,0.023,0.315,0.04,0.525,0.052c0.21,0.012,0.314-0.041,0.314-0.157c0.024-0.163,0.006-0.321-0.052-0.472
		c-0.058-0.152-0.111-0.31-0.157-0.473c-0.093-0.233-0.187-0.467-0.28-0.699C18.087,52.542,18.018,52.379,17.971,52.286z
		 M20.069,64.387c-0.07-0.14-0.151-0.279-0.245-0.419c-0.07-0.117-0.145-0.245-0.227-0.385s-0.158-0.268-0.228-0.385
		c-0.14-0.187-0.327-0.449-0.559-0.787c-0.234-0.338-0.472-0.7-0.718-1.083c-0.245-0.386-0.478-0.782-0.699-1.19
		c-0.222-0.408-0.367-0.775-0.437-1.101c-0.094-0.35-0.071-0.642,0.07-0.875c0.14-0.233,0.396-0.361,0.769-0.385
		c0.442-0.023,0.752,0.128,0.927,0.455c0.175,0.326,0.343,0.653,0.507,0.98c0.187,0.396,0.449,0.88,0.787,1.451
		c0.338,0.571,0.706,1.137,1.102,1.696c0.396,0.559,0.798,1.072,1.207,1.539c0.407,0.466,0.787,0.804,1.137,1.014
		c0.209,0.14,0.448,0.233,0.717,0.28c0.267,0.046,0.524,0.117,0.769,0.209c0.245,0.093,0.449,0.215,0.612,0.368
		c0.163,0.151,0.245,0.402,0.245,0.752c0,0.35-0.135,0.675-0.401,0.979c-0.27,0.303-0.566,0.385-0.893,0.245
		c-0.979-0.396-1.936-0.717-2.868-0.962c-0.933-0.245-1.924-0.367-2.974-0.367c-0.326,0-0.769,0-1.328,0
		c-0.56,0-1.202,0.023-1.924,0.069c-0.606,0.046-1.237,0.128-1.889,0.245c-0.653,0.117-1.353,0.175-2.099,0.175
		c-0.373,0-0.606-0.146-0.7-0.437c-0.093-0.292-0.046-0.554,0.141-0.787c0.209-0.281,0.542-0.473,0.997-0.578
		c0.454-0.105,0.822-0.181,1.102-0.227c1.096-0.21,2.191-0.345,3.287-0.402c1.096-0.059,2.226-0.088,3.393-0.088H20.069z
		 M16.013,70.228c0.256-0.047,0.67-0.077,1.242-0.088c0.571-0.012,1.277,0.029,2.116,0.123c0.583,0.046,1.16,0.134,1.731,0.262
		c0.571,0.128,1.137,0.274,1.697,0.438c0.536,0.116,1.089,0.25,1.661,0.402c0.571,0.151,1.16,0.308,1.766,0.472
		c0.163,0.046,0.355,0.099,0.576,0.157c0.223,0.058,0.426,0.134,0.614,0.227c0.186,0.093,0.343,0.21,0.471,0.351
		s0.192,0.315,0.192,0.524c0,0.583-0.14,0.945-0.419,1.085c-0.28,0.14-0.678,0.163-1.19,0.07c-0.187-0.047-0.466-0.14-0.839-0.28
		s-0.642-0.233-0.804-0.279c-1.096-0.35-2.134-0.647-3.113-0.892c-0.979-0.245-2.041-0.449-3.183-0.612
		c-0.211-0.023-0.513-0.052-0.91-0.087c-0.396-0.035-0.787-0.093-1.171-0.174c-0.385-0.082-0.724-0.192-1.015-0.333
		c-0.292-0.14-0.437-0.338-0.437-0.595c0-0.28,0.093-0.467,0.28-0.56C15.465,70.343,15.709,70.274,16.013,70.228z"/>
</g>
<g>
	<path id="XMLID_1684_" fill="#E0E0E0" d="M11.857,81.529c-0.237-0.469-0.478-0.994-0.585-1.531
		c-0.003-0.02-0.009-0.042-0.012-0.063c-0.107-0.593-0.083-1.319,0.448-1.709c0.495-0.364,1.18-0.259,1.624,0.137
		c0.017,0.015,0.035,0.032,0.051,0.048c0.426,0.413,0.61,1.023,1.141,1.498c0.55,0.492,1.736,0.292,2.263,0.752
		c0.092,0.058,0.172,0.132,0.234,0.223c0.032,0.045,0.06,0.09,0.083,0.136c0.314,0.641-0.081,1.52-1.163,2.277
		c-1.08,0.755-1.836,0.801-2.63,0.171C12.676,82.967,12.219,82.244,11.857,81.529z"/>
	<path id="XMLID_1682_" fill="#E0E0E0" d="M17.389,82.257c-0.042-0.178-0.021-0.359,0.074-0.514
		c0.219-0.362,0.753-0.438,1.196-0.168c0.168,0.101,0.297,0.238,0.381,0.388c0.139,0.246,0.157,0.526,0.021,0.752
		c-0.221,0.36-0.756,0.436-1.196,0.167C17.612,82.729,17.444,82.497,17.389,82.257z"/>
	<path id="XMLID_1681_" fill="#E0E0E0" d="M16.794,83.869c-0.132-0.117-0.213-0.268-0.243-0.415
		c-0.034-0.165,0.002-0.329,0.108-0.448c0.203-0.228,0.595-0.211,0.872,0.039c0.061,0.055,0.112,0.115,0.15,0.179
		c0.143,0.232,0.144,0.506-0.014,0.683C17.464,84.135,17.073,84.119,16.794,83.869z"/>
	<path id="XMLID_1679_" fill="#E0E0E0" d="M15.729,84.397c-0.041-0.071-0.068-0.144-0.083-0.218c-0.04-0.214,0.034-0.421,0.201-0.52
		c0.22-0.129,0.524-0.019,0.687,0.244c0.004,0.006,0.008,0.011,0.012,0.019c0.16,0.274,0.107,0.605-0.118,0.735
		C16.201,84.789,15.889,84.671,15.729,84.397z"/>
	<path id="XMLID_1677_" fill="#E0E0E0" d="M14.743,84.555c-0.001-0.009-0.003-0.017-0.004-0.028
		c-0.042-0.248,0.083-0.477,0.287-0.52c0.148-0.031,0.297,0.045,0.392,0.18c0.043,0.058,0.072,0.128,0.089,0.206
		c0.055,0.259-0.073,0.503-0.283,0.548C15.012,84.986,14.796,84.812,14.743,84.555z"/>
	<path id="XMLID_1676_" fill="#E0E0E0" d="M13.849,84.526l-0.001-0.038c-0.004-0.22,0.139-0.401,0.319-0.406
		c0.092,0.001,0.176,0.044,0.237,0.119c0.059,0.07,0.095,0.169,0.097,0.274c0.004,0.22-0.14,0.402-0.32,0.404
		C14.009,84.885,13.867,84.728,13.849,84.526z"/>
	<path id="XMLID_1674_" fill="#E0E0E0" d="M11.754,81.132c-0.178-0.353-0.358-0.736-0.482-1.134
		c-0.003-0.02-0.009-0.042-0.012-0.063c-0.107-0.593-0.083-1.319,0.448-1.709c0.495-0.364,1.18-0.259,1.624,0.137
		c0.017,0.015,0.035,0.032,0.051,0.048c0.426,0.413,0.61,1.023,1.141,1.498c0.55,0.492,1.736,0.292,2.263,0.752
		c0.092,0.058,0.172,0.132,0.234,0.223c0.032,0.045,0.06,0.09,0.083,0.136c0.032,0.581-0.393,1.27-1.266,1.88
		c-1.081,0.755-1.836,0.801-2.631,0.173C12.573,82.571,12.116,81.847,11.754,81.132z"/>
	<path id="XMLID_1672_" fill="#E0E0E0" d="M17.389,82.257c-0.042-0.178-0.021-0.359,0.074-0.514
		c0.219-0.362,0.753-0.438,1.196-0.168c0.168,0.101,0.297,0.238,0.381,0.388c0.041,0.179,0.022,0.36-0.074,0.516
		c-0.219,0.359-0.755,0.436-1.196,0.167C17.604,82.545,17.473,82.407,17.389,82.257z"/>
	<path id="XMLID_1671_" fill="#E0E0E0" d="M16.701,83.633c-0.06-0.055-0.111-0.115-0.15-0.179c-0.034-0.165,0.002-0.329,0.108-0.448
		c0.203-0.228,0.595-0.211,0.872,0.039c0.061,0.055,0.112,0.115,0.15,0.179c0.032,0.166-0.001,0.328-0.108,0.448
		C17.37,83.899,16.98,83.881,16.701,83.633z"/>
	<path id="XMLID_1669_" fill="#E0E0E0" d="M15.646,84.179c-0.04-0.214,0.034-0.421,0.201-0.52c0.22-0.129,0.524-0.019,0.687,0.244
		c0.039,0.213-0.033,0.421-0.201,0.519C16.112,84.549,15.81,84.44,15.646,84.179z"/>
	<path id="XMLID_1667_" fill="#E0E0E0" d="M14.739,84.527c-0.042-0.248,0.083-0.477,0.287-0.52c0.148-0.031,0.297,0.045,0.392,0.18
		c0.039,0.247-0.086,0.476-0.287,0.518C14.982,84.736,14.833,84.663,14.739,84.527z"/>
	<path id="XMLID_1666_" fill="#E0E0E0" d="M13.849,84.526l-0.001-0.038c-0.004-0.22,0.139-0.401,0.319-0.406
		c0.092,0.001,0.176,0.044,0.237,0.119c0.001,0.014,0.002,0.026,0.003,0.039c0.004,0.22-0.139,0.402-0.32,0.404
		C13.995,84.645,13.91,84.6,13.849,84.526z"/>
</g>
<g id="XMLID_1640_">
	<path id="XMLID_1662_" fill="#E0E0E0" d="M16.585,78.53c-0.015-0.138-0.009-0.279,0.034-0.42c0.167-0.583,0.787-0.835,1.333-0.933
		c0.516-0.091,1.069-0.049,1.568,0.008c0.734,0.083,1.503,0.248,2.142,0.634c0.333,0.203,0.562,0.437,0.693,0.726
		c0.183,0.405,0.177,0.918-0.001,1.602c-0.184,0.703-0.481,1.206-0.832,1.484c-0.012,0.009-0.024,0.02-0.038,0.027
		c0,0,0,0.002-0.001,0.002c-0.271,0.202-0.57,0.268-0.869,0.19c-0.097-0.025-0.186-0.069-0.268-0.129
		c-0.564-0.309-0.772-1.399-1.373-1.717c-0.579-0.306-1.166-0.269-1.66-0.506c-0.018-0.008-0.039-0.017-0.057-0.028
		C16.897,79.28,16.634,78.923,16.585,78.53z"/>
	<path id="XMLID_1661_" fill="#E0E0E0" d="M21.733,83.047c-0.169-0.132-0.283-0.307-0.334-0.484
		c-0.063-0.215-0.035-0.437,0.096-0.603c0.242-0.305,0.741-0.314,1.114-0.018c0.098,0.079,0.179,0.17,0.239,0.269
		c0.166,0.272,0.176,0.594-0.002,0.818C22.603,83.334,22.105,83.342,21.733,83.047z"/>
	<path id="XMLID_1659_" fill="#E0E0E0" d="M22.292,81.164c-0.022-0.103-0.01-0.209,0.039-0.303c0.132-0.249,0.485-0.319,0.789-0.158
		c0.107,0.057,0.193,0.135,0.256,0.222c0.113,0.163,0.141,0.359,0.056,0.52c-0.132,0.247-0.485,0.318-0.789,0.157
		C22.454,81.502,22.328,81.336,22.292,81.164z"/>
	<path id="XMLID_1657_" fill="#E0E0E0" d="M22.635,80.056c-0.006-0.036-0.005-0.07,0.001-0.106c0.042-0.235,0.31-0.386,0.598-0.337
		c0.149,0.026,0.276,0.1,0.355,0.2c0.077,0.091,0.115,0.205,0.094,0.32c-0.04,0.236-0.309,0.388-0.597,0.338
		C22.839,80.427,22.658,80.252,22.635,80.056z"/>
	<path id="XMLID_1656_" fill="#E0E0E0" d="M22.673,79.13c0-0.014-0.003-0.023-0.002-0.035c0,0,0,0,0-0.002
		c-0.005-0.183,0.16-0.35,0.386-0.385c0.157-0.022,0.305,0.025,0.396,0.116c0.049,0.048,0.081,0.109,0.092,0.177
		c0.029,0.196-0.143,0.385-0.383,0.421C22.922,79.458,22.704,79.328,22.673,79.13z"/>
	<path id="XMLID_1655_" fill="#E0E0E0" d="M22.465,78.363c-0.011-0.033-0.016-0.066-0.014-0.099c0.008-0.128,0.108-0.253,0.26-0.305
		c0.135-0.048,0.276-0.026,0.365,0.046c0.037,0.031,0.065,0.068,0.081,0.115c0.054,0.157-0.057,0.338-0.247,0.405
		C22.719,78.591,22.52,78.519,22.465,78.363z"/>
	<path id="XMLID_1653_" fill="#E0E0E0" d="M16.585,78.53c-0.015-0.138-0.009-0.279,0.034-0.42c0.167-0.583,0.787-0.835,1.333-0.933
		c0.516-0.091,1.069-0.049,1.568,0.008c0.734,0.083,1.503,0.248,2.142,0.634c0.333,0.203,0.562,0.437,0.693,0.726
		c0.058,0.34,0.019,0.746-0.111,1.241c-0.331,1.266-1.036,1.888-1.739,1.703c-0.097-0.024-0.186-0.069-0.268-0.13
		c-0.564-0.307-0.772-1.398-1.373-1.715c-0.579-0.307-1.166-0.271-1.659-0.507c-0.02-0.008-0.039-0.018-0.059-0.028
		C16.903,78.98,16.703,78.772,16.585,78.53z"/>
	<path id="XMLID_1651_" fill="#E0E0E0" d="M21.638,82.832c-0.099-0.079-0.18-0.171-0.239-0.27c-0.063-0.215-0.035-0.437,0.096-0.603
		c0.242-0.305,0.741-0.314,1.114-0.018c0.098,0.079,0.179,0.17,0.239,0.269c0.063,0.215,0.035,0.438-0.098,0.604
		C22.508,83.12,22.01,83.127,21.638,82.832z"/>
	<path id="XMLID_1650_" fill="#E0E0E0" d="M22.292,81.164c-0.022-0.103-0.01-0.209,0.039-0.303c0.132-0.249,0.485-0.319,0.789-0.158
		c0.107,0.057,0.193,0.135,0.256,0.222c0.021,0.104,0.012,0.21-0.039,0.306c-0.132,0.248-0.486,0.32-0.789,0.157
		C22.44,81.332,22.354,81.253,22.292,81.164z"/>
	<path id="XMLID_1648_" fill="#E0E0E0" d="M22.635,80.056c-0.006-0.036-0.005-0.07,0.001-0.106c0.042-0.235,0.31-0.386,0.598-0.337
		c0.149,0.026,0.276,0.1,0.355,0.2c0.005,0.035,0.005,0.07-0.001,0.106c-0.041,0.235-0.309,0.386-0.597,0.336
		C22.841,80.23,22.715,80.155,22.635,80.056z"/>
	<path id="XMLID_1646_" fill="#E0E0E0" d="M22.671,79.096c0,0,0,0,0-0.002c-0.005-0.183,0.16-0.35,0.386-0.385
		c0.157-0.022,0.305,0.025,0.396,0.116c0.004,0.183-0.162,0.351-0.386,0.384C22.911,79.232,22.765,79.184,22.671,79.096z"/>
	<path id="XMLID_1645_" fill="#E0E0E0" d="M22.452,78.264c0.008-0.128,0.108-0.253,0.26-0.305c0.135-0.048,0.276-0.026,0.365,0.046
		c-0.01,0.127-0.109,0.253-0.261,0.307C22.68,78.358,22.541,78.336,22.452,78.264z"/>
</g>
<text transform="matrix(-4.371139e-008 1 -1 -4.371139e-008 31.0381 43.2026)" fill="#E0E0E0" font-family="'YanoljaYacheR'" font-size="5.5065">KID’S PENSION</text>
<text id="XMLID_1_" transform="matrix(-4.371139e-008 0.9436 -1 -4.124498e-008 26.0303 91.3032)" fill="#E0E0E0" font-family="'CenturyGothic'" font-size="26.3689">MIZBEBE KIDS </text>
<text transform="matrix(-4.124497e-008 0.9436 -1 -4.371138e-008 6.8047 130.9712)" fill="#E0E0E0" font-family="'CenturyGothic'" font-size="15.2323">POOL VILLA</text>
</svg>
