<?xml version="1.0" encoding="utf-8"?>
<!-- Generator: Adobe Illustrator 16.0.0, SVG Export Plug-In . SVG Version: 6.00 Build 0)  -->
<!DOCTYPE svg PUBLIC "-//W3C//DTD SVG 1.1//EN" "http://www.w3.org/Graphics/SVG/1.1/DTD/svg11.dtd">
<svg version="1.1" xmlns="http://www.w3.org/2000/svg" xmlns:xlink="http://www.w3.org/1999/xlink" x="0px" y="0px" width="220px"
	 height="50px" viewBox="0 0 220 50" enable-background="new 0 0 220 50" xml:space="preserve">
<g id="BaumHouse">
</g>
<g id="nature._beach__x26__poolvilla">
	<g>
		<g>
			<path d="M4.398,13.506c0-5.017,0-5.941-0.066-6.997c-0.066-1.122-0.329-1.65-1.416-1.881C2.653,4.562,2.094,4.529,1.633,4.529
				c-0.362,0-0.56-0.066-0.56-0.297s0.23-0.297,0.724-0.297c1.744,0,3.818,0.099,4.476,0.099c1.613,0,2.896-0.099,4.015-0.099
				c5.958,0,7.011,3.201,7.011,4.951c0,2.707-1.547,4.324-3.357,5.776c2.699,0.924,5.99,3.268,5.99,7.129
				c0,3.532-2.731,7.196-8.788,7.196c-0.395,0-1.35-0.066-2.304-0.1c-0.987-0.066-1.975-0.1-2.468-0.1c-0.362,0-1.086,0-1.876,0.033
				c-0.757,0-1.613,0.066-2.271,0.066c-0.428,0-0.658-0.1-0.658-0.33c0-0.166,0.131-0.264,0.526-0.264
				c0.494,0,0.889-0.066,1.185-0.133c0.658-0.131,0.823-0.857,0.955-1.814c0.165-1.387,0.165-3.994,0.165-7.03V13.506z
				 M8.347,14.067c0,0.264,0.099,0.33,0.23,0.363c0.296,0.066,0.79,0.099,1.547,0.099c1.086,0,1.811-0.132,2.37-0.627
				c0.855-0.693,1.349-1.881,1.349-3.499c0-2.211-1.284-5.116-4.114-5.116c-0.46,0-0.757,0-1.086,0.066
				C8.413,5.42,8.347,5.552,8.347,5.916V14.067z M12.692,16.708C12,16.213,11.244,15.982,9.96,15.916
				c-0.592-0.033-0.921-0.033-1.415-0.033c-0.132,0-0.198,0.066-0.198,0.231v7.822c0,2.177,0.099,2.74,1.152,3.167
				c0.889,0.363,1.646,0.396,2.402,0.396c1.481,0,3.982-0.791,3.982-4.224C15.884,21.229,15.193,18.457,12.692,16.708z"/>
			<path d="M28.26,21.791c-0.165,0-0.197,0.033-0.263,0.198l-1.547,3.795c-0.296,0.692-0.428,1.386-0.428,1.716
				c0,0.496,0.264,0.793,1.152,0.793h0.428c0.362,0,0.428,0.131,0.428,0.297c0,0.23-0.165,0.297-0.461,0.297
				c-0.954,0-2.304-0.1-3.225-0.1c-0.296,0-1.843,0.1-3.357,0.1c-0.362,0-0.526-0.066-0.526-0.297c0-0.166,0.099-0.297,0.329-0.297
				c0.263,0,0.592-0.033,0.855-0.033c1.317-0.199,1.811-1.057,2.403-2.476l7.57-17.525c0.329-0.792,0.56-1.123,0.856-1.123
				c0.428,0,0.56,0.264,0.855,0.892c0.691,1.551,5.53,12.905,7.373,17.162c1.119,2.543,1.941,2.904,2.468,3.004
				c0.428,0.066,0.757,0.1,1.086,0.1c0.264,0,0.395,0.098,0.395,0.297c0,0.23-0.165,0.297-1.25,0.297c-1.021,0-3.127,0-5.563-0.066
				c-0.526-0.033-0.855-0.033-0.855-0.23c0-0.166,0.065-0.264,0.362-0.297c0.197-0.033,0.395-0.297,0.263-0.627l-2.238-5.677
				c-0.066-0.165-0.165-0.198-0.296-0.198H28.26z M34.448,20.239c0.132,0,0.165-0.066,0.132-0.165l-2.732-7.03
				c-0.033-0.099-0.066-0.264-0.131-0.264c-0.099,0-0.132,0.165-0.165,0.264l-2.798,6.997c-0.066,0.132,0,0.198,0.099,0.198H34.448z
				"/>
			<path d="M46.56,15.784c0-4.258,0.033-5.05-0.033-5.941c-0.066-0.99-0.329-1.254-1.251-1.518c-0.23-0.066-0.724-0.099-1.119-0.099
				c-0.329,0-0.494-0.099-0.494-0.297c0-0.198,0.198-0.264,0.625-0.264c1.547,0,3.489,0.066,4.345,0.066
				c0.724,0,2.666-0.066,3.719-0.066c0.428,0,0.625,0.066,0.625,0.264c0,0.198-0.165,0.297-0.46,0.297
				c-0.329,0-0.494,0.033-0.856,0.099c-0.757,0.132-0.987,0.528-1.053,1.518c-0.066,0.891-0.066,1.683-0.066,5.941v3.928
				c0,4.092,0.79,5.677,2.205,6.798c1.284,1.023,2.666,1.123,3.654,1.123c1.25,0,2.731-0.363,3.883-1.486
				c1.613-1.518,1.679-3.96,1.679-6.831v-3.532c0-4.258-0.033-5.05-0.066-5.941c-0.065-0.957-0.296-1.254-1.218-1.518
				c-0.23-0.066-0.724-0.099-1.053-0.099s-0.494-0.099-0.494-0.297c0-0.198,0.198-0.264,0.593-0.264
				c1.481,0,3.423,0.066,3.456,0.066c0.329,0,2.271-0.066,3.39-0.066c0.395,0,0.592,0.066,0.592,0.264
				c0,0.198-0.165,0.297-0.494,0.297s-0.494,0.033-0.855,0.099c-0.79,0.132-0.987,0.528-1.053,1.518
				c-0.033,0.891-0.066,1.683-0.066,5.941v3.003c0,3.135-0.329,6.436-2.765,8.449c-2.041,1.717-4.246,2.014-6.122,2.014
				c-1.514,0-4.509-0.066-6.615-1.914c-1.481-1.287-2.633-3.367-2.633-7.427V15.784z"/>
			<path d="M73.911,7.896c0.066-0.462,0.329-0.726,0.56-0.726c0.296,0,0.494,0.132,0.889,0.891l7.768,15.512l7.768-15.71
				c0.23-0.462,0.494-0.693,0.757-0.693c0.23,0,0.56,0.297,0.658,0.891l2.633,17.262c0.263,1.75,0.526,2.508,1.415,2.771
				c0.823,0.232,1.284,0.266,1.646,0.266c0.264,0,0.461,0.098,0.461,0.264c0,0.23-0.329,0.33-0.757,0.33
				c-0.724,0-4.838-0.1-5.99-0.166c-0.691-0.033-0.856-0.164-0.856-0.33c0-0.131,0.132-0.23,0.329-0.297
				c0.165-0.066,0.23-0.396,0.132-1.188l-1.613-12.113h-0.099L83.39,27.27c-0.658,1.32-0.823,1.584-1.152,1.584
				c-0.362,0-0.691-0.561-1.152-1.42c-0.691-1.287-2.995-5.577-3.324-6.369c-0.23-0.528-1.942-3.928-2.896-5.875h-0.099
				l-1.382,10.826c-0.065,0.494-0.099,0.857-0.099,1.32c0,0.527,0.395,0.725,0.889,0.824s0.757,0.133,1.021,0.133
				c0.263,0,0.46,0.131,0.46,0.264c0,0.264-0.263,0.33-0.691,0.33c-1.218,0-2.534-0.1-3.061-0.1c-0.56,0-1.942,0.1-2.863,0.1
				c-0.296,0-0.527-0.066-0.527-0.33c0-0.133,0.165-0.264,0.461-0.264c0.23,0,0.428,0,0.889-0.066c0.79-0.1,1.053-1.221,1.185-2.146
				L73.911,7.896z"/>
			<path d="M120.748,14.431c0.098,0,0.197-0.066,0.197-0.231v-0.693c0-5.017,0-5.941-0.066-6.997
				c-0.066-1.122-0.33-1.65-1.416-1.881c-0.264-0.066-0.822-0.099-1.283-0.099c-0.361,0-0.559-0.066-0.559-0.297
				s0.23-0.297,0.689-0.297c1.777,0,3.852,0.099,4.74,0.099c0.791,0,2.863-0.099,4.146-0.099c0.461,0,0.691,0.066,0.691,0.297
				s-0.197,0.297-0.592,0.297c-0.264,0-0.561,0.033-0.955,0.099c-0.889,0.165-1.152,0.726-1.217,1.881
				c-0.066,1.056-0.066,1.98-0.066,6.997v5.809c0,3.036,0,5.644,0.164,7.063c0.1,0.924,0.297,1.65,1.285,1.781
				c0.459,0.066,1.184,0.133,1.678,0.133c0.361,0,0.527,0.098,0.527,0.264c0,0.23-0.264,0.33-0.658,0.33
				c-2.141,0-4.213-0.1-5.135-0.1c-0.758,0-2.832,0.1-4.115,0.1c-0.461,0-0.691-0.1-0.691-0.33c0-0.166,0.133-0.264,0.527-0.264
				c0.494,0,0.889-0.066,1.186-0.133c0.658-0.131,0.822-0.857,0.953-1.814c0.166-1.387,0.166-3.994,0.166-7.03v-2.905
				c0-0.132-0.1-0.198-0.197-0.198h-12.574c-0.099,0-0.198,0.033-0.198,0.198v2.905c0,3.036,0,5.644,0.165,7.063
				c0.099,0.924,0.296,1.65,1.284,1.781c0.461,0.066,1.185,0.133,1.679,0.133c0.361,0,0.527,0.098,0.527,0.264
				c0,0.23-0.264,0.33-0.658,0.33c-2.14,0-4.214-0.1-5.135-0.1c-0.757,0-2.831,0.1-4.147,0.1c-0.428,0-0.658-0.1-0.658-0.33
				c0-0.166,0.131-0.264,0.526-0.264c0.494,0,0.889-0.066,1.185-0.133c0.658-0.131,0.823-0.857,0.955-1.814
				c0.165-1.387,0.165-3.994,0.165-7.03v-5.809c0-5.017,0-5.941-0.066-6.997c-0.066-1.122-0.329-1.65-1.416-1.881
				c-0.263-0.066-0.823-0.099-1.283-0.099c-0.362,0-0.56-0.066-0.56-0.297s0.23-0.297,0.691-0.297c1.777,0,3.851,0.099,4.74,0.099
				c0.79,0,2.863-0.099,4.146-0.099c0.461,0,0.691,0.066,0.691,0.297s-0.197,0.297-0.592,0.297c-0.263,0-0.56,0.033-0.955,0.099
				c-0.889,0.165-1.152,0.726-1.218,1.881c-0.066,1.056-0.066,1.98-0.066,6.997V14.2c0,0.165,0.099,0.231,0.198,0.231H120.748z"/>
			<path d="M132.037,18.259c0-4.786,3.355-10.991,12.145-10.991c7.307,0,11.848,4.06,11.848,10.496
				c0,6.436-4.674,11.486-12.145,11.486C135.459,29.25,132.037,23.243,132.037,18.259z M151.719,18.787
				c0-6.205-3.719-10.033-8.393-10.033c-3.227,0-7.012,1.716-7.012,8.647c0,5.776,3.291,10.332,8.756,10.332
				C147.111,27.732,151.719,26.773,151.719,18.787z"/>
			<path d="M161.166,15.784c0-4.258,0.031-5.05-0.033-5.941c-0.066-0.99-0.33-1.254-1.252-1.518
				c-0.23-0.066-0.723-0.099-1.119-0.099c-0.328,0-0.492-0.099-0.492-0.297c0-0.198,0.197-0.264,0.625-0.264
				c1.547,0,3.488,0.066,4.344,0.066c0.725,0,2.666-0.066,3.719-0.066c0.428,0,0.627,0.066,0.627,0.264
				c0,0.198-0.166,0.297-0.461,0.297c-0.33,0-0.494,0.033-0.855,0.099c-0.758,0.132-0.988,0.528-1.055,1.518
				c-0.064,0.891-0.064,1.683-0.064,5.941v3.928c0,4.092,0.789,5.677,2.205,6.798c1.283,1.023,2.666,1.123,3.652,1.123
				c1.25,0,2.732-0.363,3.885-1.486c1.611-1.518,1.678-3.96,1.678-6.831v-3.532c0-4.258-0.033-5.05-0.066-5.941
				c-0.064-0.957-0.295-1.254-1.217-1.518c-0.23-0.066-0.725-0.099-1.053-0.099c-0.33,0-0.494-0.099-0.494-0.297
				c0-0.198,0.197-0.264,0.592-0.264c1.48,0,3.424,0.066,3.457,0.066c0.328,0,2.27-0.066,3.389-0.066
				c0.395,0,0.594,0.066,0.594,0.264c0,0.198-0.166,0.297-0.494,0.297c-0.33,0-0.494,0.033-0.855,0.099
				c-0.791,0.132-0.988,0.528-1.055,1.518c-0.031,0.891-0.064,1.683-0.064,5.941v3.003c0,3.135-0.33,6.436-2.766,8.449
				c-2.041,1.717-4.246,2.014-6.121,2.014c-1.514,0-4.51-0.066-6.615-1.914c-1.482-1.287-2.633-3.367-2.633-7.427V15.784z"/>
			<path d="M185.85,28.523c-0.459-0.197-0.559-0.33-0.559-0.957c0-1.518,0.131-3.268,0.164-3.729c0-0.429,0.133-0.726,0.363-0.726
				c0.262,0,0.295,0.264,0.295,0.462c0,0.363,0.1,0.957,0.264,1.453c0.625,2.078,2.799,2.771,4.607,2.771
				c2.502,0,4.016-1.584,4.016-3.564c0-1.221-0.295-2.442-2.863-3.96l-1.678-0.99c-3.424-2.013-4.543-3.895-4.543-6.37
				c0-3.432,3.291-5.644,7.307-5.644c1.877,0,3.357,0.264,4.115,0.462c0.264,0.066,0.395,0.165,0.395,0.363
				c0,0.363-0.1,1.155-0.1,3.366c0,0.594-0.131,0.891-0.361,0.891c-0.197,0-0.297-0.165-0.297-0.495
				c0-0.264-0.131-1.122-0.756-1.848c-0.428-0.528-1.35-1.32-3.227-1.32c-2.072,0-3.949,1.089-3.949,3.003
				c0,1.254,0.461,2.245,3.061,3.697l1.186,0.66c3.818,2.112,5.002,4.257,5.002,6.799c0,2.08-0.789,3.763-2.896,5.247
				c-1.381,0.99-3.291,1.156-4.838,1.156C188.879,29.25,187.102,29.084,185.85,28.523z"/>
			<path d="M205.203,15.784c0-4.258,0-5.05-0.031-5.941c-0.066-0.957-0.33-1.254-1.252-1.518c-0.23-0.066-0.725-0.099-1.152-0.099
				c-0.295,0-0.492-0.099-0.492-0.297c0-0.198,0.23-0.264,0.658-0.264c1.514,0,3.355,0.066,4.18,0.066c0.922,0,7.34,0.033,7.898,0
				c0.527-0.033,0.988-0.132,1.219-0.165c0.164-0.033,0.328-0.132,0.461-0.132c0.164,0,0.197,0.132,0.197,0.264
				c0,0.198-0.166,0.528-0.23,1.815c-0.033,0.297-0.1,1.519-0.166,1.848c-0.031,0.132-0.098,0.462-0.328,0.462
				c-0.197,0-0.23-0.132-0.23-0.363c0-0.198-0.033-0.693-0.197-1.023c-0.23-0.495-0.461-0.891-1.91-1.023
				c-0.492-0.066-3.949-0.132-4.541-0.132c-0.131,0-0.197,0.099-0.197,0.264v6.931c0,0.165,0.033,0.297,0.197,0.297
				c0.658,0,4.41,0,5.068-0.066c0.691-0.066,1.086-0.165,1.383-0.429c0.23-0.198,0.328-0.363,0.461-0.363
				c0.131,0,0.23,0.132,0.23,0.297s-0.066,0.627-0.23,2.046c-0.066,0.561-0.133,1.683-0.133,1.881c0,0.231-0.031,0.627-0.295,0.627
				c-0.197,0-0.264-0.099-0.264-0.231c-0.033-0.297-0.033-0.66-0.1-1.023c-0.164-0.561-0.525-0.99-1.611-1.089
				c-0.527-0.066-3.818-0.132-4.543-0.132c-0.131,0-0.164,0.132-0.164,0.297v2.244c0,0.957-0.033,3.333,0,4.159
				c0.066,1.914,0.955,2.344,3.916,2.344c0.758,0,1.975-0.033,2.732-0.363c0.725-0.33,1.053-0.924,1.25-2.08
				c0.066-0.297,0.133-0.429,0.33-0.429c0.23,0,0.264,0.363,0.264,0.66c0,0.627-0.23,2.542-0.396,3.103
				c-0.197,0.727-0.461,0.727-1.547,0.727c-2.172,0-3.916-0.033-5.332-0.1c-1.414-0.033-2.5-0.066-3.355-0.066
				c-0.33,0-0.955,0.033-1.646,0.033c-0.691,0.033-1.416,0.066-2.008,0.066c-0.361,0-0.559-0.1-0.559-0.297
				c0-0.133,0.098-0.297,0.459-0.297c0.428,0,0.758-0.033,1.021-0.1c0.592-0.133,0.756-0.66,0.855-1.484
				c0.131-1.189,0.131-3.4,0.131-5.975V15.784z"/>
		</g>
		<g>
			<path d="M12.96,38.793c0.087,0.086,0.131,0.195,0.131,0.328v6.328c0,0.146-0.049,0.268-0.147,0.365s-0.224,0.146-0.377,0.146
				c-0.08,0-0.158-0.012-0.235-0.037c-0.077-0.023-0.137-0.061-0.18-0.109l-4.294-5.338v5.025c0,0.133-0.045,0.242-0.136,0.328
				c-0.091,0.088-0.206,0.131-0.344,0.131c-0.139,0-0.251-0.043-0.339-0.131c-0.087-0.086-0.131-0.195-0.131-0.328v-6.34
				c0-0.146,0.049-0.266,0.147-0.359c0.099-0.094,0.221-0.141,0.366-0.141c0.087,0,0.171,0.016,0.251,0.047
				c0.08,0.031,0.142,0.074,0.186,0.131l4.283,5.348v-5.066c0-0.133,0.045-0.242,0.137-0.328c0.091-0.088,0.206-0.131,0.344-0.131
				C12.759,38.662,12.873,38.705,12.96,38.793z"/>
			<path d="M23.001,45.512c0,0.139-0.049,0.254-0.147,0.344c-0.099,0.092-0.213,0.137-0.344,0.137c-0.102,0-0.195-0.029-0.279-0.09
				c-0.084-0.059-0.151-0.141-0.202-0.244l-0.677-1.533h-3.376l-0.667,1.543c-0.037,0.105-0.097,0.186-0.18,0.24
				c-0.084,0.057-0.177,0.084-0.279,0.084c-0.153,0-0.27-0.039-0.35-0.115s-0.12-0.18-0.12-0.313c0-0.027,0.007-0.084,0.022-0.168
				l2.786-6.443c0.051-0.111,0.122-0.195,0.213-0.254c0.091-0.061,0.195-0.082,0.312-0.068c0.109,0,0.208,0.027,0.295,0.084
				c0.087,0.055,0.149,0.135,0.186,0.238l2.775,6.361C22.99,45.377,23.001,45.443,23.001,45.512z M18.39,43.176h2.546l-1.278-2.918
				L18.39,43.176z"/>
			<path d="M31.628,38.793c0.098,0.086,0.147,0.203,0.147,0.348c0,0.146-0.049,0.262-0.147,0.346
				c-0.098,0.082-0.224,0.125-0.377,0.125h-1.945v5.85c0,0.139-0.053,0.256-0.159,0.354s-0.239,0.146-0.399,0.146
				s-0.293-0.049-0.398-0.146c-0.106-0.098-0.159-0.215-0.159-0.354v-5.85h-1.934c-0.153,0-0.278-0.045-0.377-0.131
				c-0.098-0.088-0.147-0.203-0.147-0.35c0-0.139,0.049-0.252,0.147-0.338c0.099-0.088,0.224-0.131,0.377-0.131h4.994
				C31.404,38.662,31.53,38.705,31.628,38.793z"/>
			<path d="M41.002,38.793c0.091,0.094,0.137,0.213,0.137,0.359v4.004c0,0.549-0.127,1.043-0.382,1.48s-0.606,0.779-1.055,1.027
				c-0.448,0.246-0.952,0.369-1.513,0.369c-0.568,0-1.078-0.123-1.53-0.369c-0.452-0.248-0.805-0.59-1.06-1.027
				c-0.255-0.438-0.383-0.932-0.383-1.48v-4.004c0-0.146,0.051-0.266,0.153-0.359c0.102-0.094,0.233-0.141,0.393-0.141
				c0.138,0,0.26,0.047,0.366,0.145c0.105,0.098,0.158,0.217,0.158,0.355v4.004c0,0.361,0.087,0.686,0.262,0.975
				s0.408,0.512,0.7,0.672c0.291,0.16,0.604,0.24,0.939,0.24c0.35,0,0.674-0.08,0.973-0.24c0.298-0.16,0.537-0.383,0.715-0.672
				c0.179-0.289,0.268-0.613,0.268-0.975v-4.004c0-0.146,0.043-0.266,0.131-0.359s0.208-0.141,0.361-0.141
				C40.79,38.652,40.912,38.699,41.002,38.793z"/>
			<path d="M51.137,45.309c0.043,0.072,0.065,0.148,0.065,0.225c0,0.146-0.049,0.254-0.147,0.322
				c-0.098,0.07-0.217,0.105-0.355,0.105c-0.139,0-0.255-0.027-0.35-0.084c-0.219-0.117-0.397-0.309-0.536-0.574
				c-0.139-0.264-0.208-0.652-0.208-1.166c0-0.348-0.109-0.605-0.328-0.773c-0.219-0.166-0.503-0.25-0.853-0.25H46.22v2.348
				c0,0.145-0.044,0.266-0.131,0.359s-0.2,0.141-0.338,0.141c-0.168,0-0.312-0.049-0.432-0.146
				c-0.121-0.098-0.181-0.215-0.181-0.354v-6.299c0-0.139,0.051-0.258,0.153-0.354c0.102-0.098,0.226-0.146,0.371-0.146h3.071
				c0.393,0,0.754,0.092,1.082,0.275c0.328,0.186,0.59,0.439,0.787,0.762c0.197,0.324,0.295,0.688,0.295,1.09
				c0,0.389-0.109,0.752-0.328,1.09c-0.218,0.336-0.499,0.588-0.841,0.756c0.27,0.131,0.482,0.316,0.639,0.553
				s0.242,0.51,0.257,0.822c0.029,0.396,0.062,0.666,0.098,0.809c0.037,0.143,0.117,0.246,0.241,0.309
				C51.035,45.176,51.093,45.236,51.137,45.309z M49.23,42.041c0.164-0.127,0.297-0.295,0.399-0.506
				c0.102-0.213,0.153-0.451,0.153-0.715c0-0.334-0.107-0.617-0.322-0.85s-0.476-0.35-0.781-0.35H46.22v2.627h2.491
				C48.894,42.234,49.066,42.166,49.23,42.041z"/>
			<path d="M59.458,45.146c0.098,0.098,0.147,0.213,0.147,0.346c0,0.139-0.049,0.252-0.147,0.338
				c-0.098,0.088-0.224,0.131-0.377,0.131h-3.803c-0.146,0-0.27-0.049-0.371-0.146c-0.102-0.098-0.153-0.215-0.153-0.354v-6.299
				c0-0.139,0.051-0.258,0.153-0.354c0.102-0.098,0.226-0.146,0.371-0.146h3.803c0.153,0,0.279,0.045,0.377,0.135
				c0.098,0.092,0.147,0.209,0.147,0.355c0,0.139-0.049,0.252-0.147,0.338c-0.098,0.088-0.224,0.131-0.377,0.131h-3.245v2.127h2.753
				c0.153,0,0.279,0.045,0.377,0.135c0.098,0.092,0.147,0.205,0.147,0.346c0,0.145-0.049,0.26-0.147,0.344
				c-0.098,0.082-0.224,0.125-0.377,0.125h-2.753v2.305h3.245C59.234,45.002,59.36,45.051,59.458,45.146z"/>
			<path d="M63.009,45.814c-0.091-0.09-0.137-0.223-0.137-0.396v-0.197c0-0.168,0.045-0.297,0.137-0.387
				c0.091-0.09,0.224-0.135,0.399-0.135h0.109c0.182,0,0.319,0.045,0.41,0.135c0.091,0.09,0.136,0.219,0.136,0.387v0.197
				c0,0.355-0.182,0.531-0.546,0.531h-0.109C63.233,45.949,63.1,45.904,63.009,45.814z"/>
			<path d="M78.35,42.629c0.258,0.303,0.388,0.697,0.388,1.184c0,0.771-0.235,1.322-0.705,1.652s-1.043,0.496-1.721,0.496h-2.809
				c-0.146,0-0.27-0.049-0.371-0.146c-0.102-0.098-0.153-0.215-0.153-0.354v-6.299c0-0.139,0.051-0.258,0.153-0.354
				c0.102-0.098,0.226-0.146,0.371-0.146h2.809c0.663,0,1.167,0.156,1.513,0.469c0.346,0.313,0.519,0.766,0.519,1.355
				c0,0.334-0.084,0.631-0.251,0.893c-0.167,0.26-0.412,0.459-0.732,0.598C77.761,42.109,78.091,42.326,78.35,42.629z M76.94,39.896
				c-0.186-0.17-0.446-0.254-0.781-0.254h-2.065v2.033h2.087c0.299-0.008,0.546-0.1,0.743-0.277s0.295-0.43,0.295-0.756
				S77.126,40.068,76.94,39.896z M77.262,44.703c0.241-0.197,0.361-0.494,0.361-0.891c0-0.771-0.459-1.158-1.377-1.158h-2.152v2.348
				h2.207C76.701,45.002,77.022,44.902,77.262,44.703z"/>
			<path d="M87.003,45.146c0.098,0.098,0.147,0.213,0.147,0.346c0,0.139-0.049,0.252-0.147,0.338
				c-0.098,0.088-0.224,0.131-0.377,0.131h-3.803c-0.146,0-0.27-0.049-0.371-0.146c-0.102-0.098-0.153-0.215-0.153-0.354v-6.299
				c0-0.139,0.051-0.258,0.153-0.354c0.102-0.098,0.226-0.146,0.371-0.146h3.803c0.153,0,0.279,0.045,0.377,0.135
				c0.098,0.092,0.147,0.209,0.147,0.355c0,0.139-0.049,0.252-0.147,0.338c-0.098,0.088-0.224,0.131-0.377,0.131h-3.245v2.127h2.753
				c0.153,0,0.279,0.045,0.377,0.135c0.098,0.092,0.147,0.205,0.147,0.346c0,0.145-0.049,0.26-0.147,0.344
				c-0.098,0.082-0.224,0.125-0.377,0.125h-2.753v2.305h3.245C86.779,45.002,86.905,45.051,87.003,45.146z"/>
			<path d="M96.625,45.512c0,0.139-0.049,0.254-0.147,0.344c-0.099,0.092-0.213,0.137-0.344,0.137c-0.102,0-0.195-0.029-0.279-0.09
				c-0.084-0.059-0.151-0.141-0.202-0.244l-0.677-1.533h-3.376l-0.667,1.543c-0.037,0.105-0.097,0.186-0.18,0.24
				c-0.084,0.057-0.177,0.084-0.279,0.084c-0.153,0-0.27-0.039-0.35-0.115s-0.12-0.18-0.12-0.313c0-0.027,0.007-0.084,0.022-0.168
				l2.786-6.443c0.051-0.111,0.122-0.195,0.213-0.254c0.091-0.061,0.195-0.082,0.312-0.068c0.109,0,0.208,0.027,0.295,0.084
				c0.087,0.055,0.149,0.135,0.186,0.238l2.775,6.361C96.613,45.377,96.625,45.443,96.625,45.512z M92.013,43.176h2.546
				l-1.278-2.918L92.013,43.176z"/>
			<path d="M105.628,39.506c0,0.125-0.044,0.24-0.131,0.344c-0.087,0.111-0.208,0.168-0.36,0.168c-0.102,0-0.201-0.025-0.295-0.074
				c-0.452-0.242-0.94-0.363-1.464-0.363c-0.546,0-1.029,0.113-1.448,0.344c-0.419,0.229-0.745,0.551-0.978,0.965
				c-0.233,0.412-0.35,0.887-0.35,1.422c0,0.578,0.12,1.074,0.361,1.492c0.24,0.416,0.572,0.734,0.994,0.953s0.896,0.328,1.42,0.328
				c0.539,0,1.027-0.125,1.464-0.375c0.087-0.041,0.182-0.063,0.284-0.063c0.16,0,0.288,0.059,0.382,0.178
				c0.087,0.104,0.131,0.215,0.131,0.334c0,0.082-0.023,0.16-0.071,0.234c-0.047,0.072-0.111,0.131-0.191,0.172
				c-0.284,0.152-0.603,0.275-0.956,0.365s-0.701,0.135-1.043,0.135c-0.707,0-1.357-0.148-1.95-0.447
				c-0.594-0.299-1.067-0.734-1.42-1.305c-0.354-0.568-0.53-1.236-0.53-2.002c0-0.701,0.169-1.336,0.508-1.902
				s0.805-1.012,1.398-1.334c0.594-0.324,1.258-0.486,1.994-0.486c0.707,0,1.37,0.168,1.989,0.502
				C105.541,39.18,105.628,39.318,105.628,39.506z"/>
			<path d="M114.971,38.803c0.102,0.094,0.152,0.213,0.152,0.359v6.287c-0.008,0.146-0.063,0.268-0.164,0.365
				s-0.232,0.146-0.393,0.146c-0.146,0-0.271-0.049-0.377-0.146c-0.107-0.098-0.16-0.219-0.16-0.365V42.75h-3.877v2.699
				c0,0.146-0.055,0.268-0.165,0.365c-0.109,0.098-0.237,0.146-0.382,0.146c-0.16,0-0.29-0.049-0.388-0.146
				c-0.098-0.098-0.147-0.219-0.147-0.365v-6.287c0-0.139,0.051-0.258,0.153-0.354c0.102-0.098,0.233-0.146,0.393-0.146
				c0.146,0,0.271,0.049,0.377,0.146c0.105,0.096,0.16,0.215,0.16,0.354v2.627h3.877v-2.627c0-0.139,0.055-0.258,0.164-0.354
				c0.109-0.098,0.238-0.146,0.383-0.146C114.736,38.662,114.867,38.709,114.971,38.803z"/>
			<path d="M130.76,45.523c0,0.096-0.041,0.193-0.121,0.291s-0.186,0.146-0.316,0.146c-0.125,0-0.227-0.027-0.307-0.084
				l-1.004-0.793c-0.686,0.654-1.545,0.98-2.58,0.98c-0.502,0-0.959-0.109-1.371-0.328s-0.734-0.508-0.967-0.865
				s-0.35-0.734-0.35-1.131c0-0.486,0.135-0.92,0.404-1.299s0.674-0.676,1.213-0.891c-0.146-0.203-0.256-0.393-0.328-0.574
				s-0.109-0.369-0.109-0.563c0-0.342,0.092-0.652,0.273-0.934s0.445-0.506,0.787-0.672c0.342-0.168,0.738-0.252,1.191-0.252
				c0.502,0,0.945,0.086,1.326,0.256c0.383,0.172,0.645,0.389,0.781,0.652c0.053,0.098,0.078,0.205,0.078,0.322
				c0,0.111-0.043,0.205-0.127,0.283c-0.084,0.076-0.195,0.113-0.332,0.113c-0.16,0-0.277-0.055-0.35-0.166
				c-0.154-0.209-0.342-0.363-0.563-0.465c-0.223-0.1-0.494-0.15-0.814-0.15c-0.371,0-0.658,0.09-0.857,0.271
				c-0.201,0.18-0.301,0.412-0.301,0.697c0,0.25,0.094,0.504,0.283,0.762s0.459,0.566,0.809,0.928l0.197,0.209
				c0.422,0.445,0.939,0.928,1.551,1.449c0.189-0.355,0.32-0.744,0.395-1.168c0.035-0.201,0.182-0.303,0.436-0.303
				c0.146,0,0.266,0.059,0.355,0.172c0.092,0.115,0.127,0.25,0.104,0.402c-0.094,0.57-0.275,1.078-0.545,1.521
				c0.299,0.25,0.607,0.502,0.928,0.752C130.684,45.227,130.76,45.369,130.76,45.523z M128.289,44.49
				c-0.779-0.652-1.438-1.271-1.977-1.855c-0.102-0.105-0.223-0.236-0.361-0.396c-0.414,0.117-0.709,0.291-0.885,0.521
				c-0.174,0.229-0.262,0.508-0.262,0.834c0,0.271,0.064,0.521,0.195,0.75c0.133,0.23,0.336,0.418,0.613,0.564
				c0.275,0.145,0.619,0.219,1.027,0.219C127.281,45.127,127.83,44.914,128.289,44.49z"/>
			<path d="M143.467,38.959c0.328,0.197,0.588,0.467,0.781,0.809c0.193,0.34,0.289,0.715,0.289,1.125s-0.096,0.789-0.289,1.137
				s-0.453,0.623-0.781,0.824s-0.686,0.303-1.07,0.303h-2.055v2.305c0,0.139-0.049,0.256-0.143,0.354s-0.215,0.146-0.361,0.146
				c-0.152,0-0.273-0.047-0.365-0.141s-0.137-0.215-0.137-0.359v-6.299c0-0.139,0.051-0.258,0.152-0.354
				c0.104-0.098,0.227-0.146,0.373-0.146h2.535C142.781,38.662,143.139,38.762,143.467,38.959z M142.941,42.023
				c0.168-0.121,0.301-0.281,0.398-0.484c0.1-0.201,0.148-0.416,0.148-0.646c0-0.354-0.107-0.654-0.322-0.9
				c-0.215-0.248-0.473-0.371-0.77-0.371h-2.055v2.586h2.055C142.592,42.207,142.773,42.146,142.941,42.023z"/>
			<path d="M154.551,44.219c-0.316,0.57-0.756,1.021-1.316,1.352s-1.195,0.494-1.9,0.494c-0.707,0-1.342-0.164-1.902-0.494
				s-1-0.781-1.316-1.352s-0.475-1.205-0.475-1.908c0-0.701,0.158-1.338,0.475-1.908c0.316-0.568,0.756-1.02,1.316-1.35
				s1.195-0.496,1.902-0.496c0.705,0,1.34,0.166,1.9,0.496s1,0.781,1.316,1.35c0.318,0.57,0.477,1.207,0.477,1.908
				C155.027,43.014,154.869,43.648,154.551,44.219z M153.574,40.898c-0.219-0.42-0.523-0.75-0.914-0.99
				c-0.389-0.24-0.832-0.359-1.326-0.359c-0.496,0-0.939,0.117-1.328,0.354c-0.391,0.236-0.693,0.564-0.912,0.986
				c-0.219,0.42-0.328,0.895-0.328,1.422c0,0.521,0.109,0.992,0.328,1.414c0.219,0.42,0.521,0.75,0.912,0.99
				c0.389,0.24,0.832,0.359,1.328,0.359c0.494,0,0.938-0.119,1.326-0.359c0.391-0.24,0.695-0.57,0.914-0.99
				c0.217-0.422,0.326-0.893,0.326-1.414S153.791,41.318,153.574,40.898z"/>
			<path d="M165.063,44.219c-0.316,0.57-0.756,1.021-1.316,1.352s-1.195,0.494-1.9,0.494c-0.707,0-1.342-0.164-1.902-0.494
				s-1-0.781-1.316-1.352s-0.475-1.205-0.475-1.908c0-0.701,0.158-1.338,0.475-1.908c0.316-0.568,0.756-1.02,1.316-1.35
				s1.195-0.496,1.902-0.496c0.705,0,1.34,0.166,1.9,0.496s1,0.781,1.316,1.35c0.318,0.57,0.477,1.207,0.477,1.908
				C165.539,43.014,165.381,43.648,165.063,44.219z M164.086,40.898c-0.219-0.42-0.523-0.75-0.914-0.99
				c-0.389-0.24-0.832-0.359-1.326-0.359c-0.496,0-0.939,0.117-1.328,0.354c-0.391,0.236-0.693,0.564-0.912,0.986
				c-0.219,0.42-0.328,0.895-0.328,1.422c0,0.521,0.109,0.992,0.328,1.414c0.219,0.42,0.521,0.75,0.912,0.99
				c0.389,0.24,0.832,0.359,1.328,0.359c0.494,0,0.938-0.119,1.326-0.359c0.391-0.24,0.695-0.57,0.914-0.99
				c0.217-0.422,0.326-0.893,0.326-1.414S164.303,41.318,164.086,40.898z"/>
			<path d="M173.695,45.127c0.098,0.09,0.146,0.207,0.146,0.354c0,0.139-0.049,0.254-0.146,0.344
				c-0.1,0.092-0.225,0.137-0.377,0.137h-3.693c-0.154,0-0.279-0.049-0.377-0.146c-0.1-0.098-0.148-0.215-0.148-0.354v-6.299
				c0-0.139,0.051-0.258,0.152-0.354c0.104-0.098,0.234-0.146,0.395-0.146c0.145,0,0.271,0.049,0.377,0.146
				c0.105,0.096,0.158,0.215,0.158,0.354v5.828h3.137C173.471,44.99,173.596,45.035,173.695,45.127z"/>
			<path d="M183.234,38.787c0.105,0.09,0.158,0.201,0.158,0.334c0,0.068-0.02,0.145-0.055,0.229l-2.787,6.287
				c-0.051,0.105-0.123,0.186-0.219,0.24c-0.094,0.057-0.193,0.084-0.295,0.084c-0.094-0.008-0.184-0.037-0.268-0.09
				c-0.084-0.051-0.15-0.127-0.201-0.223l-2.787-6.299c-0.029-0.055-0.043-0.129-0.043-0.219c0-0.146,0.055-0.264,0.164-0.354
				c0.109-0.092,0.229-0.137,0.359-0.137c0.219,0,0.379,0.111,0.48,0.334l2.383,5.369l2.252-5.379
				c0.051-0.098,0.117-0.174,0.201-0.23c0.084-0.055,0.176-0.082,0.279-0.082C183.002,38.652,183.129,38.697,183.234,38.787z"/>
			<path d="M187.742,45.814c-0.109,0.098-0.238,0.146-0.383,0.146c-0.16,0-0.291-0.049-0.389-0.146s-0.146-0.219-0.146-0.365v-6.287
				c0-0.139,0.051-0.258,0.152-0.354c0.102-0.098,0.232-0.146,0.393-0.146c0.146,0,0.271,0.049,0.377,0.146
				c0.105,0.096,0.158,0.215,0.158,0.354v6.287C187.904,45.596,187.85,45.717,187.742,45.814z"/>
			<path d="M196.498,45.127c0.098,0.09,0.148,0.207,0.148,0.354c0,0.139-0.051,0.254-0.148,0.344
				c-0.098,0.092-0.225,0.137-0.377,0.137h-3.693c-0.152,0-0.279-0.049-0.377-0.146s-0.146-0.215-0.146-0.354v-6.299
				c0-0.139,0.051-0.258,0.152-0.354c0.102-0.098,0.232-0.146,0.393-0.146c0.146,0,0.271,0.049,0.377,0.146
				c0.105,0.096,0.158,0.215,0.158,0.354v5.828h3.137C196.273,44.99,196.4,45.035,196.498,45.127z"/>
			<path d="M204.693,45.127c0.098,0.09,0.148,0.207,0.148,0.354c0,0.139-0.051,0.254-0.148,0.344
				c-0.098,0.092-0.225,0.137-0.377,0.137h-3.693c-0.152,0-0.279-0.049-0.377-0.146S200.1,45.6,200.1,45.461v-6.299
				c0-0.139,0.051-0.258,0.152-0.354c0.102-0.098,0.232-0.146,0.393-0.146c0.146,0,0.271,0.049,0.377,0.146
				c0.105,0.096,0.158,0.215,0.158,0.354v5.828h3.137C204.469,44.99,204.596,45.035,204.693,45.127z"/>
			<path d="M214.205,45.512c0,0.139-0.049,0.254-0.148,0.344c-0.098,0.092-0.213,0.137-0.344,0.137c-0.102,0-0.195-0.029-0.279-0.09
				c-0.084-0.059-0.15-0.141-0.201-0.244l-0.678-1.533h-3.377l-0.666,1.543c-0.037,0.105-0.096,0.186-0.18,0.24
				c-0.084,0.057-0.178,0.084-0.279,0.084c-0.152,0-0.27-0.039-0.35-0.115s-0.121-0.18-0.121-0.313c0-0.027,0.008-0.084,0.023-0.168
				l2.785-6.443c0.051-0.111,0.123-0.195,0.213-0.254c0.092-0.061,0.195-0.082,0.313-0.068c0.109,0,0.207,0.027,0.295,0.084
				c0.088,0.055,0.148,0.135,0.186,0.238l2.775,6.361C214.193,45.377,214.205,45.443,214.205,45.512z M209.594,43.176h2.545
				l-1.277-2.918L209.594,43.176z"/>
		</g>
	</g>
</g>
</svg>
