<?xml version="1.0" encoding="utf-8"?>
<!-- Generator: Adobe Illustrator 16.0.0, SVG Export Plug-In . SVG Version: 6.00 Build 0)  -->
<!DOCTYPE svg PUBLIC "-//W3C//DTD SVG 1.1//EN" "http://www.w3.org/Graphics/SVG/1.1/DTD/svg11.dtd">
<svg version="1.1" id="레이어_1" xmlns="http://www.w3.org/2000/svg" xmlns:xlink="http://www.w3.org/1999/xlink" x="0px"
	 y="0px" width="100px" height="258px" viewBox="0 0 100 258" enable-background="new 0 0 100 258" xml:space="preserve">
<g>
	<polygon fill="#040000" points="99.951,143.965 0,143.965 0,183.152 99.951,183.152 99.951,170.77 3.621,170.77 3.621,156.619 
		99.951,156.619 	"/>
	<polygon fill="#040000" points="99.945,230.777 99.945,218.121 99.945,191.316 0.088,191.316 0.088,203.973 96.473,203.973 
		96.473,218.121 0.143,218.121 0.088,218.121 0.088,230.777 0.143,230.777 96.473,230.777 96.473,244.93 0.088,244.93 
		0.088,257.582 99.945,257.582 	"/>
	<g>
		<rect x="0.088" fill="#040000" width="99.912" height="12.79"/>
		<path fill="#040000" d="M76.277,54.545c29.453-1.26,23.158-35.721,23.158-35.721H76.277H53.121
			C53.121,18.824,46.826,53.285,76.277,54.545z"/>
		<path fill="#040000" d="M47.02,18.824H23.863H0.706c0,0-6.295,34.461,23.157,35.721C53.314,53.285,47.02,18.824,47.02,18.824z"/>
	</g>
	<polygon fill="#040000" points="0.088,135.775 0.088,99.854 50.475,99.854 50.475,97.399 50.475,94.945 0.088,94.945 0.088,59.021 
		99.936,97.189 	"/>
</g>
</svg>
