<?xml version="1.0" encoding="utf-8"?>
<!-- Generator: Adobe Illustrator 16.0.0, SVG Export Plug-In . SVG Version: 6.00 Build 0)  -->
<!DOCTYPE svg PUBLIC "-//W3C//DTD SVG 1.1//EN" "http://www.w3.org/Graphics/SVG/1.1/DTD/svg11.dtd">
<svg version="1.1" id="레이어_1" xmlns="http://www.w3.org/2000/svg" xmlns:xlink="http://www.w3.org/1999/xlink" x="0px"
	 y="0px" width="258px" height="100px" viewBox="0 0 258 100" enable-background="new 0 0 258 100" xml:space="preserve">
<g>
	<polygon fill="#040000" points="144.382,0.048 144.382,100 183.57,100 183.57,0.048 171.188,0.048 171.188,96.379 157.037,96.379 
		157.037,0.048 	"/>
	<polygon fill="#040000" points="231.195,0.054 218.539,0.054 191.734,0.054 191.734,99.912 204.39,99.912 204.39,3.527 
		218.539,3.527 218.539,99.858 218.539,99.912 231.195,99.912 231.195,99.858 231.195,3.527 245.347,3.527 245.347,99.912 
		258,99.912 258,0.054 	"/>
	<g>
		<rect x="0.417" fill="#040000" width="12.79" height="99.912"/>
		<path fill="#040000" d="M54.962,23.723C53.702-5.73,19.241,0.565,19.241,0.565v23.157V46.88
			C19.241,46.88,53.702,53.174,54.962,23.723z"/>
		<path fill="#040000" d="M19.241,52.98v23.156v23.158c0,0,34.461,6.295,35.721-23.158C53.702,46.686,19.241,52.98,19.241,52.98z"/>
	</g>
	<polygon fill="#040000" points="136.194,99.912 100.271,99.912 100.271,49.525 97.816,49.525 95.362,49.525 95.362,99.912 
		59.438,99.912 97.606,0.064 	"/>
</g>
</svg>
