<?xml version="1.0" encoding="utf-8"?>
<!-- Generator: Adobe Illustrator 16.0.0, SVG Export Plug-In . SVG Version: 6.00 Build 0)  -->
<!DOCTYPE svg PUBLIC "-//W3C//DTD SVG 1.1//EN" "http://www.w3.org/Graphics/SVG/1.1/DTD/svg11.dtd">
<svg version="1.1" id="레이어_1" xmlns="http://www.w3.org/2000/svg" xmlns:xlink="http://www.w3.org/1999/xlink" x="0px"
	 y="0px" width="35px" height="35px" viewBox="0 0 35 35" enable-background="new 0 0 35 35" xml:space="preserve">
<g>
	<g>
		<path fill="#030000" d="M21.858,20.303c-0.306,0-0.553-0.248-0.553-0.553V3.352c0-0.687-0.56-1.245-1.246-1.245H8.299
			c-0.687,0-1.246,0.559-1.246,1.245v6.251c0,0.306-0.247,0.554-0.553,0.554S5.946,9.909,5.946,9.604V3.352
			C5.946,2.055,7.002,1,8.299,1H20.06c1.298,0,2.353,1.055,2.353,2.352V19.75C22.412,20.055,22.164,20.303,21.858,20.303z"/>
	</g>
	<g>
		<path fill="#030000" d="M15.148,25.49h-6.85c-1.297,0-2.353-1.055-2.353-2.352V8.541c0-0.306,0.248-0.553,0.554-0.553
			s0.553,0.248,0.553,0.553v14.598c0,0.688,0.559,1.246,1.246,1.246h6.85c0.305,0,0.553,0.246,0.553,0.553
			S15.454,25.49,15.148,25.49z"/>
	</g>
	<g>
		<path fill="#030000" d="M18.549,30.613c-0.106,0-0.213-0.029-0.309-0.094c-0.043-0.028-4.178-2.883-2.533-8.075
			c-1.583-1.731-2.936-3.089-3.759-3.915c-0.24-0.242-0.433-0.436-0.57-0.576c-0.824-0.849-1.594-2.771-0.15-4.311
			c1.456-1.553,3.422-1.172,4.353-0.406c0.792,0.652,8.625,8.217,8.958,8.539c0.22,0.213,0.226,0.563,0.014,0.783
			c-0.213,0.221-0.563,0.225-0.783,0.014c-2.81-2.715-8.284-7.981-8.892-8.481c-0.557-0.459-1.821-0.78-2.842,0.308
			c-1.028,1.097-0.225,2.409,0.138,2.783c0.134,0.138,0.324,0.328,0.56,0.566c0.867,0.871,2.319,2.327,4.013,4.191
			c0.137,0.15,0.18,0.367,0.111,0.559c-1.627,4.568,1.854,7.002,2.002,7.104c0.252,0.173,0.319,0.516,0.147,0.77
			C18.9,30.528,18.726,30.613,18.549,30.613z"/>
	</g>
	<g>
		<path fill="#030000" d="M28.5,34c-0.305,0-0.552-0.246-0.554-0.551c0,0-0.003-4.01-0.012-5.639
			c-0.002-0.305,0.244-0.555,0.551-0.557c0.001,0,0.002,0,0.003,0c0.304,0,0.551,0.247,0.553,0.551
			c0.009,1.631,0.013,5.641,0.013,5.641c0.001,0.306-0.246,0.554-0.552,0.555C28.502,34,28.501,34,28.5,34z"/>
	</g>
	<g>
		<path fill="#030000" d="M28.477,29.229c-0.305,0-0.553-0.245-0.555-0.55c-0.013-2.004-0.029-3.748-0.048-5.184
			c-0.018-1.354-0.125-3.119-0.32-3.803c-0.285-0.994-3.899-5.359-6.111-7.877c-0.201-0.23-0.179-0.58,0.051-0.782
			c0.23-0.202,0.58-0.178,0.781,0.051c0.602,0.686,5.896,6.745,6.343,8.304c0.24,0.838,0.347,2.729,0.364,4.094
			c0.019,1.438,0.034,3.183,0.048,5.189c0.002,0.307-0.244,0.557-0.55,0.558C28.479,29.229,28.478,29.229,28.477,29.229z"/>
	</g>
	<g>
		<path fill="#030000" d="M14.11,25.008c-0.306,0-0.554-0.249-0.554-0.555v-4.15c0-0.305,0.248-0.553,0.554-0.553
			s0.553,0.248,0.553,0.553v4.15C14.664,24.759,14.416,25.008,14.11,25.008z"/>
	</g>
	<g>
		<path fill="#030000" d="M14.11,13.107c-0.306,0-0.554-0.249-0.554-0.554V1.899c0-0.306,0.248-0.553,0.554-0.553
			s0.553,0.248,0.553,0.553v10.654C14.664,12.859,14.416,13.107,14.11,13.107z"/>
	</g>
	<g>
		<path fill="#030000" d="M17.984,16.566c-0.306,0-0.553-0.247-0.553-0.553V1.623c0-0.306,0.248-0.554,0.553-0.554
			s0.553,0.249,0.553,0.554v14.39C18.537,16.319,18.29,16.566,17.984,16.566z"/>
	</g>
	<g>
		<path fill="#030000" d="M15.436,33.862c-0.098,0-0.198-0.026-0.289-0.081c-3.265-2-3.375-6.429-3.377-6.617
			c-0.006-0.306,0.238-0.558,0.543-0.563c0.3-0.006,0.558,0.238,0.563,0.544c0,0.045,0.107,4.013,2.849,5.692
			c0.26,0.158,0.342,0.498,0.183,0.76C15.804,33.768,15.622,33.862,15.436,33.862z"/>
	</g>
</g>
</svg>
